solid
 facet normal -1.000000e+00 -0.000000e+00 -0.000000e+00
   outer loop
     vertex -1.430000e+02 -4.975000e+01 -7.500000e+01
     vertex -1.430000e+02 -4.975000e+01 -1.250000e+02
     vertex -1.430000e+02 -1.627500e+02 -7.500000e+01
   endloop
 endfacet
 facet normal -1.000000e+00  0.000000e+00  0.000000e+00
   outer loop
     vertex -1.430000e+02 -4.975000e+01 -1.250000e+02
     vertex -1.430000e+02 -1.627500e+02 -1.250000e+02
     vertex -1.430000e+02 -1.627500e+02 -7.500000e+01
   endloop
 endfacet
 facet normal  1.000000e+00 -0.000000e+00  0.000000e+00
   outer loop
     vertex  7.100000e+01 -1.627500e+02 -7.500000e+01
     vertex  7.100000e+01 -4.975000e+01 -1.250000e+02
     vertex  7.100000e+01 -4.975000e+01 -7.500000e+01
   endloop
 endfacet
 facet normal  1.000000e+00 -0.000000e+00  0.000000e+00
   outer loop
     vertex  7.100000e+01 -1.627500e+02 -7.500000e+01
     vertex  7.100000e+01 -1.627500e+02 -1.250000e+02
     vertex  7.100000e+01 -4.975000e+01 -1.250000e+02
   endloop
 endfacet
 facet normal  0.000000e+00 -1.000000e+00  0.000000e+00
   outer loop
     vertex -1.430000e+02 -1.627500e+02 -1.250000e+02
     vertex  7.100000e+01 -1.627500e+02 -1.250000e+02
     vertex  7.100000e+01 -1.627500e+02 -7.500000e+01
   endloop
 endfacet
 facet normal  0.000000e+00 -1.000000e+00  0.000000e+00
   outer loop
     vertex -1.430000e+02 -1.627500e+02 -7.500000e+01
     vertex -1.430000e+02 -1.627500e+02 -1.250000e+02
     vertex  7.100000e+01 -1.627500e+02 -7.500000e+01
   endloop
 endfacet
 facet normal  0.000000e+00  1.000000e+00  0.000000e+00
   outer loop
     vertex  7.100000e+01 -4.975000e+01 -7.500000e+01
     vertex  7.100000e+01 -4.975000e+01 -1.250000e+02
     vertex -1.430000e+02 -4.975000e+01 -1.250000e+02
   endloop
 endfacet
 facet normal  0.000000e+00  1.000000e+00 -0.000000e+00
   outer loop
     vertex  7.100000e+01 -4.975000e+01 -7.500000e+01
     vertex -1.430000e+02 -4.975000e+01 -1.250000e+02
     vertex -1.430000e+02 -4.975000e+01 -7.500000e+01
   endloop
 endfacet
 facet normal  0.000000e+00  0.000000e+00 -1.000000e+00
   outer loop
     vertex -1.430000e+02 -1.627500e+02 -1.250000e+02
     vertex -1.430000e+02 -4.975000e+01 -1.250000e+02
     vertex  7.100000e+01 -4.975000e+01 -1.250000e+02
   endloop
 endfacet
 facet normal  0.000000e+00  0.000000e+00 -1.000000e+00
   outer loop
     vertex  7.100000e+01 -1.627500e+02 -1.250000e+02
     vertex -1.430000e+02 -1.627500e+02 -1.250000e+02
     vertex  7.100000e+01 -4.975000e+01 -1.250000e+02
   endloop
 endfacet
 facet normal  0.000000e+00  0.000000e+00  1.000000e+00
   outer loop
     vertex  7.100000e+01 -4.975000e+01 -7.500000e+01
     vertex -1.430000e+02 -4.975000e+01 -7.500000e+01
     vertex -1.430000e+02 -1.627500e+02 -7.500000e+01
   endloop
 endfacet
 facet normal -0.000000e+00  0.000000e+00  1.000000e+00
   outer loop
     vertex  7.100000e+01 -4.975000e+01 -7.500000e+01
     vertex -1.430000e+02 -1.627500e+02 -7.500000e+01
     vertex  7.100000e+01 -1.627500e+02 -7.500000e+01
   endloop
 endfacet
endsolid
