solid
 facet normal  7.554181e-17 -9.822873e-01 -1.873813e-01
   outer loop
     vertex  2.115000e+02  2.799472e+01  3.659549e+02
     vertex  2.115000e+02  2.775987e+01  3.671860e+02
     vertex -2.115000e+02  2.775987e+01  3.671860e+02
   endloop
 endfacet
 facet normal  7.559809e-17 -9.822873e-01 -1.873813e-01
   outer loop
     vertex  2.115000e+02  2.799472e+01  3.659549e+02
     vertex -2.115000e+02  2.775987e+01  3.671860e+02
     vertex -2.115000e+02  2.799472e+01  3.659549e+02
   endloop
 endfacet
 facet normal  1.716507e-16 -9.048271e-01 -4.257793e-01
   outer loop
     vertex  2.115000e+02  2.799472e+01  3.659549e+02
     vertex -2.115000e+02  2.799472e+01  3.659549e+02
     vertex -2.115000e+02  2.852836e+01  3.648209e+02
   endloop
 endfacet
 facet normal  3.999659e-16  1.253332e-01 -9.921147e-01
   outer loop
     vertex  2.115000e+02  3.275000e+01  3.625000e+02
     vertex -2.115000e+02  3.275000e+01  3.625000e+02
     vertex -2.115000e+02  3.399345e+01  3.626571e+02
   endloop
 endfacet
 facet normal  1.143395e-16 -9.048271e-01 -4.257793e-01
   outer loop
     vertex  2.115000e+02  2.852836e+01  3.648209e+02
     vertex  2.115000e+02  2.799472e+01  3.659549e+02
     vertex -2.115000e+02  2.852836e+01  3.648209e+02
   endloop
 endfacet
 facet normal  3.999788e-16  1.253332e-01 -9.921147e-01
   outer loop
     vertex  2.115000e+02  3.399345e+01  3.626571e+02
     vertex  2.115000e+02  3.275000e+01  3.625000e+02
     vertex -2.115000e+02  3.399345e+01  3.626571e+02
   endloop
 endfacet
 facet normal  1.713161e-16 -7.705132e-01 -6.374240e-01
   outer loop
     vertex  2.115000e+02  2.932726e+01  3.638552e+02
     vertex  2.115000e+02  2.852836e+01  3.648209e+02
     vertex -2.115000e+02  2.852836e+01  3.648209e+02
   endloop
 endfacet
 facet normal  2.569497e-16 -7.705132e-01 -6.374240e-01
   outer loop
     vertex  2.115000e+02  2.932726e+01  3.638552e+02
     vertex -2.115000e+02  2.852836e+01  3.648209e+02
     vertex -2.115000e+02  2.932726e+01  3.638552e+02
   endloop
 endfacet
 facet normal  3.746398e-16  3.681246e-01 -9.297765e-01
   outer loop
     vertex  2.115000e+02  3.515877e+01  3.631185e+02
     vertex -2.115000e+02  3.399345e+01  3.626571e+02
     vertex -2.115000e+02  3.515877e+01  3.631185e+02
   endloop
 endfacet
 facet normal  3.748346e-16  3.681246e-01 -9.297765e-01
   outer loop
     vertex  2.115000e+02  3.515877e+01  3.631185e+02
     vertex  2.115000e+02  3.399345e+01  3.626571e+02
     vertex -2.115000e+02  3.399345e+01  3.626571e+02
   endloop
 endfacet
 facet normal  3.262654e-16 -5.877853e-01 -8.090170e-01
   outer loop
     vertex  2.115000e+02  3.034123e+01  3.631185e+02
     vertex -2.115000e+02  2.932726e+01  3.638552e+02
     vertex -2.115000e+02  3.034123e+01  3.631185e+02
   endloop
 endfacet
 facet normal  3.261510e-16 -5.877853e-01 -8.090170e-01
   outer loop
     vertex  2.115000e+02  3.034123e+01  3.631185e+02
     vertex  2.115000e+02  2.932726e+01  3.638552e+02
     vertex -2.115000e+02  2.932726e+01  3.638552e+02
   endloop
 endfacet
 facet normal  3.748346e-16 -3.681246e-01 -9.297765e-01
   outer loop
     vertex  2.115000e+02  3.034123e+01  3.631185e+02
     vertex -2.115000e+02  3.034123e+01  3.631185e+02
     vertex -2.115000e+02  3.150655e+01  3.626571e+02
   endloop
 endfacet
 facet normal  3.260560e-16  5.877853e-01 -8.090170e-01
   outer loop
     vertex  2.115000e+02  3.617274e+01  3.638552e+02
     vertex -2.115000e+02  3.515877e+01  3.631185e+02
     vertex -2.115000e+02  3.617274e+01  3.638552e+02
   endloop
 endfacet
 facet normal  3.261510e-16  5.877853e-01 -8.090170e-01
   outer loop
     vertex  2.115000e+02  3.617274e+01  3.638552e+02
     vertex  2.115000e+02  3.515877e+01  3.631185e+02
     vertex -2.115000e+02  3.515877e+01  3.631185e+02
   endloop
 endfacet
 facet normal  3.999659e-16 -1.253332e-01 -9.921147e-01
   outer loop
     vertex  2.115000e+02  3.150655e+01  3.626571e+02
     vertex -2.115000e+02  3.150655e+01  3.626571e+02
     vertex -2.115000e+02  3.275000e+01  3.625000e+02
   endloop
 endfacet
 facet normal  3.748493e-16 -3.681246e-01 -9.297765e-01
   outer loop
     vertex  2.115000e+02  3.150655e+01  3.626571e+02
     vertex  2.115000e+02  3.034123e+01  3.631185e+02
     vertex -2.115000e+02  3.150655e+01  3.626571e+02
   endloop
 endfacet
 facet normal  3.999788e-16 -1.253332e-01 -9.921147e-01
   outer loop
     vertex  2.115000e+02  3.275000e+01  3.625000e+02
     vertex  2.115000e+02  3.150655e+01  3.626571e+02
     vertex -2.115000e+02  3.275000e+01  3.625000e+02
   endloop
 endfacet
 facet normal  2.569497e-16  7.705132e-01 -6.374240e-01
   outer loop
     vertex  2.115000e+02  3.697164e+01  3.648209e+02
     vertex -2.115000e+02  3.617274e+01  3.638552e+02
     vertex -2.115000e+02  3.697164e+01  3.648209e+02
   endloop
 endfacet
 facet normal  2.569742e-16  7.705132e-01 -6.374240e-01
   outer loop
     vertex  2.115000e+02  3.697164e+01  3.648209e+02
     vertex  2.115000e+02  3.617274e+01  3.638552e+02
     vertex -2.115000e+02  3.617274e+01  3.638552e+02
   endloop
 endfacet
 facet normal  1.715092e-16  9.048271e-01 -4.257793e-01
   outer loop
     vertex  2.115000e+02  3.750528e+01  3.659549e+02
     vertex -2.115000e+02  3.697164e+01  3.648209e+02
     vertex -2.115000e+02  3.750528e+01  3.659549e+02
   endloop
 endfacet
 facet normal  7.554181e-17  9.822873e-01 -1.873813e-01
   outer loop
     vertex  2.115000e+02  3.750528e+01  3.659549e+02
     vertex -2.115000e+02  3.750528e+01  3.659549e+02
     vertex -2.115000e+02  3.774013e+01  3.671860e+02
   endloop
 endfacet
 facet normal  1.716507e-16  9.048271e-01 -4.257793e-01
   outer loop
     vertex  2.115000e+02  3.750528e+01  3.659549e+02
     vertex  2.115000e+02  3.697164e+01  3.648209e+02
     vertex -2.115000e+02  3.697164e+01  3.648209e+02
   endloop
 endfacet
 facet normal  7.559809e-17  9.822873e-01 -1.873813e-01
   outer loop
     vertex  2.115000e+02  3.774013e+01  3.671860e+02
     vertex  2.115000e+02  3.750528e+01  3.659549e+02
     vertex -2.115000e+02  3.774013e+01  3.671860e+02
   endloop
 endfacet
 facet normal -1.685775e-17  9.980267e-01  6.279052e-02
   outer loop
     vertex  2.115000e+02  3.766144e+01  3.684369e+02
     vertex -2.115000e+02  3.774013e+01  3.671860e+02
     vertex -2.115000e+02  3.766144e+01  3.684369e+02
   endloop
 endfacet
 facet normal -8.305240e-17  9.510565e-01  3.090170e-01
   outer loop
     vertex  2.115000e+02  3.766144e+01  3.684369e+02
     vertex -2.115000e+02  3.766144e+01  3.684369e+02
     vertex -2.115000e+02  3.727414e+01  3.696289e+02
   endloop
 endfacet
 facet normal -2.531367e-17  9.980267e-01  6.279052e-02
   outer loop
     vertex  2.115000e+02  3.766144e+01  3.684369e+02
     vertex  2.115000e+02  3.774013e+01  3.671860e+02
     vertex -2.115000e+02  3.774013e+01  3.671860e+02
   endloop
 endfacet
 facet normal -1.246007e-16  9.510565e-01  3.090170e-01
   outer loop
     vertex  2.115000e+02  3.727414e+01  3.696289e+02
     vertex  2.115000e+02  3.766144e+01  3.684369e+02
     vertex -2.115000e+02  3.727414e+01  3.696289e+02
   endloop
 endfacet
 facet normal -2.161142e-16  8.443279e-01  5.358268e-01
   outer loop
     vertex  2.115000e+02  3.660257e+01  3.706871e+02
     vertex -2.115000e+02  3.727414e+01  3.696289e+02
     vertex -2.115000e+02  3.660257e+01  3.706871e+02
   endloop
 endfacet
 facet normal -2.938799e-16  6.845471e-01  7.289686e-01
   outer loop
     vertex  2.115000e+02  3.660257e+01  3.706871e+02
     vertex -2.115000e+02  3.660257e+01  3.706871e+02
     vertex -2.115000e+02  3.568893e+01  3.715451e+02
   endloop
 endfacet
 facet normal -2.160158e-16  8.443279e-01  5.358268e-01
   outer loop
     vertex  2.115000e+02  3.660257e+01  3.706871e+02
     vertex  2.115000e+02  3.727414e+01  3.696289e+02
     vertex -2.115000e+02  3.727414e+01  3.696289e+02
   endloop
 endfacet
 facet normal -1.960106e-16  6.845471e-01  7.289686e-01
   outer loop
     vertex  2.115000e+02  3.568893e+01  3.715451e+02
     vertex  2.115000e+02  3.660257e+01  3.706871e+02
     vertex -2.115000e+02  3.568893e+01  3.715451e+02
   endloop
 endfacet
 facet normal -3.532797e-16  4.817537e-01  8.763067e-01
   outer loop
     vertex  2.115000e+02  3.459062e+01  3.721489e+02
     vertex -2.115000e+02  3.568893e+01  3.715451e+02
     vertex -2.115000e+02  3.459062e+01  3.721489e+02
   endloop
 endfacet
 facet normal -3.904793e-16  2.486899e-01  9.685832e-01
   outer loop
     vertex  2.115000e+02  3.459062e+01  3.721489e+02
     vertex -2.115000e+02  3.459062e+01  3.721489e+02
     vertex -2.115000e+02  3.337667e+01  3.724606e+02
   endloop
 endfacet
 facet normal -2.355190e-16  4.817537e-01  8.763067e-01
   outer loop
     vertex  2.115000e+02  3.459062e+01  3.721489e+02
     vertex  2.115000e+02  3.568893e+01  3.715451e+02
     vertex -2.115000e+02  3.568893e+01  3.715451e+02
   endloop
 endfacet
 facet normal -2.603003e-16  2.486899e-01  9.685832e-01
   outer loop
     vertex  2.115000e+02  3.337667e+01  3.724606e+02
     vertex  2.115000e+02  3.459062e+01  3.721489e+02
     vertex -2.115000e+02  3.337667e+01  3.724606e+02
   endloop
 endfacet
 facet normal -2.687632e-16  0.000000e+00  1.000000e+00
   outer loop
     vertex  2.115000e+02  3.212333e+01  3.724606e+02
     vertex  2.115000e+02  3.337667e+01  3.724606e+02
     vertex -2.115000e+02  3.337667e+01  3.724606e+02
   endloop
 endfacet
 facet normal -2.687632e-16  0.000000e+00  1.000000e+00
   outer loop
     vertex  2.115000e+02  3.212333e+01  3.724606e+02
     vertex -2.115000e+02  3.337667e+01  3.724606e+02
     vertex -2.115000e+02  3.212333e+01  3.724606e+02
   endloop
 endfacet
 facet normal -2.603195e-16 -2.486899e-01  9.685832e-01
   outer loop
     vertex  2.115000e+02  3.090938e+01  3.721489e+02
     vertex  2.115000e+02  3.212333e+01  3.724606e+02
     vertex -2.115000e+02  3.212333e+01  3.724606e+02
   endloop
 endfacet
 facet normal -3.904505e-16 -2.486899e-01  9.685832e-01
   outer loop
     vertex  2.115000e+02  3.090938e+01  3.721489e+02
     vertex -2.115000e+02  3.212333e+01  3.724606e+02
     vertex -2.115000e+02  3.090938e+01  3.721489e+02
   endloop
 endfacet
 facet normal -3.532785e-16 -4.817537e-01  8.763067e-01
   outer loop
     vertex  2.115000e+02  2.981107e+01  3.715451e+02
     vertex  2.115000e+02  3.090938e+01  3.721489e+02
     vertex -2.115000e+02  3.090938e+01  3.721489e+02
   endloop
 endfacet
 facet normal -3.532797e-16 -4.817537e-01  8.763067e-01
   outer loop
     vertex  2.115000e+02  2.981107e+01  3.715451e+02
     vertex -2.115000e+02  3.090938e+01  3.721489e+02
     vertex -2.115000e+02  2.981107e+01  3.715451e+02
   endloop
 endfacet
 facet normal -2.938799e-16 -6.845471e-01  7.289686e-01
   outer loop
     vertex  2.115000e+02  2.889743e+01  3.706871e+02
     vertex  2.115000e+02  2.981107e+01  3.715451e+02
     vertex -2.115000e+02  2.981107e+01  3.715451e+02
   endloop
 endfacet
 facet normal -2.938064e-16 -6.845471e-01  7.289686e-01
   outer loop
     vertex  2.115000e+02  2.889743e+01  3.706871e+02
     vertex -2.115000e+02  2.981107e+01  3.715451e+02
     vertex -2.115000e+02  2.889743e+01  3.706871e+02
   endloop
 endfacet
 facet normal -2.160158e-16 -8.443279e-01  5.358268e-01
   outer loop
     vertex  2.115000e+02  2.822586e+01  3.696289e+02
     vertex  2.115000e+02  2.889743e+01  3.706871e+02
     vertex -2.115000e+02  2.889743e+01  3.706871e+02
   endloop
 endfacet
 facet normal -2.159048e-16 -8.443279e-01  5.358268e-01
   outer loop
     vertex  2.115000e+02  2.822586e+01  3.696289e+02
     vertex -2.115000e+02  2.889743e+01  3.706871e+02
     vertex -2.115000e+02  2.822586e+01  3.696289e+02
   endloop
 endfacet
 facet normal -1.245786e-16 -9.510565e-01  3.090170e-01
   outer loop
     vertex  2.115000e+02  2.783856e+01  3.684369e+02
     vertex  2.115000e+02  2.822586e+01  3.696289e+02
     vertex -2.115000e+02  2.822586e+01  3.696289e+02
   endloop
 endfacet
 facet normal -8.303225e-17 -9.510565e-01  3.090170e-01
   outer loop
     vertex  2.115000e+02  2.783856e+01  3.684369e+02
     vertex -2.115000e+02  2.822586e+01  3.696289e+02
     vertex -2.115000e+02  2.783856e+01  3.684369e+02
   endloop
 endfacet
 facet normal -1.687578e-17 -9.980267e-01  6.279052e-02
   outer loop
     vertex  2.115000e+02  2.775987e+01  3.671860e+02
     vertex  2.115000e+02  2.783856e+01  3.684369e+02
     vertex -2.115000e+02  2.783856e+01  3.684369e+02
   endloop
 endfacet
 facet normal -2.531280e-17 -9.980267e-01  6.279052e-02
   outer loop
     vertex  2.115000e+02  2.775987e+01  3.671860e+02
     vertex -2.115000e+02  2.783856e+01  3.684369e+02
     vertex -2.115000e+02  2.775987e+01  3.671860e+02
   endloop
 endfacet
 facet normal  1.000000e+00 -0.000000e+00  0.000000e+00
   outer loop
     vertex  2.115000e+02  3.275000e+01  3.674803e+02
     vertex  2.115000e+02  3.275000e+01  3.625000e+02
     vertex  2.115000e+02  3.399345e+01  3.626571e+02
   endloop
 endfacet
 facet normal  1.000000e+00 -0.000000e+00  0.000000e+00
   outer loop
     vertex  2.115000e+02  3.275000e+01  3.674803e+02
     vertex  2.115000e+02  3.399345e+01  3.626571e+02
     vertex  2.115000e+02  3.515877e+01  3.631185e+02
   endloop
 endfacet
 facet normal  1.000000e+00 -0.000000e+00  0.000000e+00
   outer loop
     vertex  2.115000e+02  3.275000e+01  3.674803e+02
     vertex  2.115000e+02  3.515877e+01  3.631185e+02
     vertex  2.115000e+02  3.617274e+01  3.638552e+02
   endloop
 endfacet
 facet normal  1.000000e+00 -0.000000e+00  0.000000e+00
   outer loop
     vertex  2.115000e+02  3.275000e+01  3.674803e+02
     vertex  2.115000e+02  3.617274e+01  3.638552e+02
     vertex  2.115000e+02  3.697164e+01  3.648209e+02
   endloop
 endfacet
 facet normal  1.000000e+00 -0.000000e+00  0.000000e+00
   outer loop
     vertex  2.115000e+02  3.275000e+01  3.674803e+02
     vertex  2.115000e+02  3.697164e+01  3.648209e+02
     vertex  2.115000e+02  3.750528e+01  3.659549e+02
   endloop
 endfacet
 facet normal  1.000000e+00 -0.000000e+00  0.000000e+00
   outer loop
     vertex  2.115000e+02  3.275000e+01  3.674803e+02
     vertex  2.115000e+02  3.750528e+01  3.659549e+02
     vertex  2.115000e+02  3.774013e+01  3.671860e+02
   endloop
 endfacet
 facet normal  1.000000e+00 -0.000000e+00 -0.000000e+00
   outer loop
     vertex  2.115000e+02  3.275000e+01  3.674803e+02
     vertex  2.115000e+02  3.774013e+01  3.671860e+02
     vertex  2.115000e+02  3.766144e+01  3.684369e+02
   endloop
 endfacet
 facet normal  1.000000e+00  0.000000e+00 -0.000000e+00
   outer loop
     vertex  2.115000e+02  3.275000e+01  3.674803e+02
     vertex  2.115000e+02  3.766144e+01  3.684369e+02
     vertex  2.115000e+02  3.727414e+01  3.696289e+02
   endloop
 endfacet
 facet normal  1.000000e+00  0.000000e+00 -0.000000e+00
   outer loop
     vertex  2.115000e+02  3.275000e+01  3.674803e+02
     vertex  2.115000e+02  3.727414e+01  3.696289e+02
     vertex  2.115000e+02  3.660257e+01  3.706871e+02
   endloop
 endfacet
 facet normal  1.000000e+00  0.000000e+00 -0.000000e+00
   outer loop
     vertex  2.115000e+02  3.275000e+01  3.674803e+02
     vertex  2.115000e+02  3.660257e+01  3.706871e+02
     vertex  2.115000e+02  3.568893e+01  3.715451e+02
   endloop
 endfacet
 facet normal  1.000000e+00  0.000000e+00 -0.000000e+00
   outer loop
     vertex  2.115000e+02  3.275000e+01  3.674803e+02
     vertex  2.115000e+02  3.568893e+01  3.715451e+02
     vertex  2.115000e+02  3.459062e+01  3.721489e+02
   endloop
 endfacet
 facet normal  1.000000e+00  0.000000e+00 -0.000000e+00
   outer loop
     vertex  2.115000e+02  3.275000e+01  3.674803e+02
     vertex  2.115000e+02  3.459062e+01  3.721489e+02
     vertex  2.115000e+02  3.337667e+01  3.724606e+02
   endloop
 endfacet
 facet normal  1.000000e+00  0.000000e+00 -0.000000e+00
   outer loop
     vertex  2.115000e+02  3.275000e+01  3.674803e+02
     vertex  2.115000e+02  3.337667e+01  3.724606e+02
     vertex  2.115000e+02  3.212333e+01  3.724606e+02
   endloop
 endfacet
 facet normal  1.000000e+00  0.000000e+00  0.000000e+00
   outer loop
     vertex  2.115000e+02  3.275000e+01  3.674803e+02
     vertex  2.115000e+02  3.212333e+01  3.724606e+02
     vertex  2.115000e+02  3.090938e+01  3.721489e+02
   endloop
 endfacet
 facet normal  1.000000e+00  0.000000e+00  0.000000e+00
   outer loop
     vertex  2.115000e+02  3.275000e+01  3.674803e+02
     vertex  2.115000e+02  3.090938e+01  3.721489e+02
     vertex  2.115000e+02  2.981107e+01  3.715451e+02
   endloop
 endfacet
 facet normal  1.000000e+00  0.000000e+00  0.000000e+00
   outer loop
     vertex  2.115000e+02  3.275000e+01  3.674803e+02
     vertex  2.115000e+02  2.981107e+01  3.715451e+02
     vertex  2.115000e+02  2.889743e+01  3.706871e+02
   endloop
 endfacet
 facet normal  1.000000e+00  0.000000e+00  0.000000e+00
   outer loop
     vertex  2.115000e+02  3.275000e+01  3.674803e+02
     vertex  2.115000e+02  2.889743e+01  3.706871e+02
     vertex  2.115000e+02  2.822586e+01  3.696289e+02
   endloop
 endfacet
 facet normal  1.000000e+00  0.000000e+00  0.000000e+00
   outer loop
     vertex  2.115000e+02  3.275000e+01  3.674803e+02
     vertex  2.115000e+02  2.822586e+01  3.696289e+02
     vertex  2.115000e+02  2.783856e+01  3.684369e+02
   endloop
 endfacet
 facet normal  1.000000e+00  0.000000e+00  0.000000e+00
   outer loop
     vertex  2.115000e+02  3.275000e+01  3.674803e+02
     vertex  2.115000e+02  2.783856e+01  3.684369e+02
     vertex  2.115000e+02  2.775987e+01  3.671860e+02
   endloop
 endfacet
 facet normal  1.000000e+00  0.000000e+00  0.000000e+00
   outer loop
     vertex  2.115000e+02  3.275000e+01  3.674803e+02
     vertex  2.115000e+02  2.775987e+01  3.671860e+02
     vertex  2.115000e+02  2.799472e+01  3.659549e+02
   endloop
 endfacet
 facet normal  1.000000e+00  0.000000e+00  0.000000e+00
   outer loop
     vertex  2.115000e+02  3.275000e+01  3.674803e+02
     vertex  2.115000e+02  2.799472e+01  3.659549e+02
     vertex  2.115000e+02  2.852836e+01  3.648209e+02
   endloop
 endfacet
 facet normal  1.000000e+00  0.000000e+00  0.000000e+00
   outer loop
     vertex  2.115000e+02  3.275000e+01  3.674803e+02
     vertex  2.115000e+02  2.852836e+01  3.648209e+02
     vertex  2.115000e+02  2.932726e+01  3.638552e+02
   endloop
 endfacet
 facet normal  1.000000e+00  0.000000e+00  0.000000e+00
   outer loop
     vertex  2.115000e+02  3.275000e+01  3.674803e+02
     vertex  2.115000e+02  2.932726e+01  3.638552e+02
     vertex  2.115000e+02  3.034123e+01  3.631185e+02
   endloop
 endfacet
 facet normal  1.000000e+00  0.000000e+00  0.000000e+00
   outer loop
     vertex  2.115000e+02  3.275000e+01  3.674803e+02
     vertex  2.115000e+02  3.034123e+01  3.631185e+02
     vertex  2.115000e+02  3.150655e+01  3.626571e+02
   endloop
 endfacet
 facet normal  1.000000e+00  0.000000e+00  0.000000e+00
   outer loop
     vertex  2.115000e+02  3.275000e+01  3.674803e+02
     vertex  2.115000e+02  3.150655e+01  3.626571e+02
     vertex  2.115000e+02  3.275000e+01  3.625000e+02
   endloop
 endfacet
 facet normal -1.000000e+00 -0.000000e+00  0.000000e+00
   outer loop
     vertex -2.115000e+02  3.399345e+01  3.626571e+02
     vertex -2.115000e+02  3.275000e+01  3.625000e+02
     vertex -2.115000e+02  3.275000e+01  3.674803e+02
   endloop
 endfacet
 facet normal -1.000000e+00 -0.000000e+00  0.000000e+00
   outer loop
     vertex -2.115000e+02  3.515877e+01  3.631185e+02
     vertex -2.115000e+02  3.399345e+01  3.626571e+02
     vertex -2.115000e+02  3.275000e+01  3.674803e+02
   endloop
 endfacet
 facet normal -1.000000e+00 -0.000000e+00  0.000000e+00
   outer loop
     vertex -2.115000e+02  3.617274e+01  3.638552e+02
     vertex -2.115000e+02  3.515877e+01  3.631185e+02
     vertex -2.115000e+02  3.275000e+01  3.674803e+02
   endloop
 endfacet
 facet normal -1.000000e+00 -0.000000e+00  0.000000e+00
   outer loop
     vertex -2.115000e+02  3.697164e+01  3.648209e+02
     vertex -2.115000e+02  3.617274e+01  3.638552e+02
     vertex -2.115000e+02  3.275000e+01  3.674803e+02
   endloop
 endfacet
 facet normal -1.000000e+00 -0.000000e+00  0.000000e+00
   outer loop
     vertex -2.115000e+02  3.750528e+01  3.659549e+02
     vertex -2.115000e+02  3.697164e+01  3.648209e+02
     vertex -2.115000e+02  3.275000e+01  3.674803e+02
   endloop
 endfacet
 facet normal -1.000000e+00 -0.000000e+00  0.000000e+00
   outer loop
     vertex -2.115000e+02  3.774013e+01  3.671860e+02
     vertex -2.115000e+02  3.750528e+01  3.659549e+02
     vertex -2.115000e+02  3.275000e+01  3.674803e+02
   endloop
 endfacet
 facet normal -1.000000e+00 -0.000000e+00 -0.000000e+00
   outer loop
     vertex -2.115000e+02  3.766144e+01  3.684369e+02
     vertex -2.115000e+02  3.774013e+01  3.671860e+02
     vertex -2.115000e+02  3.275000e+01  3.674803e+02
   endloop
 endfacet
 facet normal -1.000000e+00  0.000000e+00 -0.000000e+00
   outer loop
     vertex -2.115000e+02  3.727414e+01  3.696289e+02
     vertex -2.115000e+02  3.766144e+01  3.684369e+02
     vertex -2.115000e+02  3.275000e+01  3.674803e+02
   endloop
 endfacet
 facet normal -1.000000e+00  0.000000e+00 -0.000000e+00
   outer loop
     vertex -2.115000e+02  3.660257e+01  3.706871e+02
     vertex -2.115000e+02  3.727414e+01  3.696289e+02
     vertex -2.115000e+02  3.275000e+01  3.674803e+02
   endloop
 endfacet
 facet normal -1.000000e+00  0.000000e+00 -0.000000e+00
   outer loop
     vertex -2.115000e+02  3.568893e+01  3.715451e+02
     vertex -2.115000e+02  3.660257e+01  3.706871e+02
     vertex -2.115000e+02  3.275000e+01  3.674803e+02
   endloop
 endfacet
 facet normal -1.000000e+00  0.000000e+00 -0.000000e+00
   outer loop
     vertex -2.115000e+02  3.459062e+01  3.721489e+02
     vertex -2.115000e+02  3.568893e+01  3.715451e+02
     vertex -2.115000e+02  3.275000e+01  3.674803e+02
   endloop
 endfacet
 facet normal -1.000000e+00  0.000000e+00 -0.000000e+00
   outer loop
     vertex -2.115000e+02  3.337667e+01  3.724606e+02
     vertex -2.115000e+02  3.459062e+01  3.721489e+02
     vertex -2.115000e+02  3.275000e+01  3.674803e+02
   endloop
 endfacet
 facet normal -1.000000e+00  0.000000e+00 -0.000000e+00
   outer loop
     vertex -2.115000e+02  3.212333e+01  3.724606e+02
     vertex -2.115000e+02  3.337667e+01  3.724606e+02
     vertex -2.115000e+02  3.275000e+01  3.674803e+02
   endloop
 endfacet
 facet normal -1.000000e+00  0.000000e+00  0.000000e+00
   outer loop
     vertex -2.115000e+02  3.090938e+01  3.721489e+02
     vertex -2.115000e+02  3.212333e+01  3.724606e+02
     vertex -2.115000e+02  3.275000e+01  3.674803e+02
   endloop
 endfacet
 facet normal -1.000000e+00  0.000000e+00  0.000000e+00
   outer loop
     vertex -2.115000e+02  2.981107e+01  3.715451e+02
     vertex -2.115000e+02  3.090938e+01  3.721489e+02
     vertex -2.115000e+02  3.275000e+01  3.674803e+02
   endloop
 endfacet
 facet normal -1.000000e+00  0.000000e+00  0.000000e+00
   outer loop
     vertex -2.115000e+02  2.889743e+01  3.706871e+02
     vertex -2.115000e+02  2.981107e+01  3.715451e+02
     vertex -2.115000e+02  3.275000e+01  3.674803e+02
   endloop
 endfacet
 facet normal -1.000000e+00  0.000000e+00  0.000000e+00
   outer loop
     vertex -2.115000e+02  2.822586e+01  3.696289e+02
     vertex -2.115000e+02  2.889743e+01  3.706871e+02
     vertex -2.115000e+02  3.275000e+01  3.674803e+02
   endloop
 endfacet
 facet normal -1.000000e+00  0.000000e+00  0.000000e+00
   outer loop
     vertex -2.115000e+02  2.783856e+01  3.684369e+02
     vertex -2.115000e+02  2.822586e+01  3.696289e+02
     vertex -2.115000e+02  3.275000e+01  3.674803e+02
   endloop
 endfacet
 facet normal -1.000000e+00  0.000000e+00  0.000000e+00
   outer loop
     vertex -2.115000e+02  2.775987e+01  3.671860e+02
     vertex -2.115000e+02  2.783856e+01  3.684369e+02
     vertex -2.115000e+02  3.275000e+01  3.674803e+02
   endloop
 endfacet
 facet normal -1.000000e+00  0.000000e+00  0.000000e+00
   outer loop
     vertex -2.115000e+02  2.799472e+01  3.659549e+02
     vertex -2.115000e+02  2.775987e+01  3.671860e+02
     vertex -2.115000e+02  3.275000e+01  3.674803e+02
   endloop
 endfacet
 facet normal -1.000000e+00  0.000000e+00  0.000000e+00
   outer loop
     vertex -2.115000e+02  2.852836e+01  3.648209e+02
     vertex -2.115000e+02  2.799472e+01  3.659549e+02
     vertex -2.115000e+02  3.275000e+01  3.674803e+02
   endloop
 endfacet
 facet normal -1.000000e+00  0.000000e+00  0.000000e+00
   outer loop
     vertex -2.115000e+02  2.932726e+01  3.638552e+02
     vertex -2.115000e+02  2.852836e+01  3.648209e+02
     vertex -2.115000e+02  3.275000e+01  3.674803e+02
   endloop
 endfacet
 facet normal -1.000000e+00  0.000000e+00  0.000000e+00
   outer loop
     vertex -2.115000e+02  3.034123e+01  3.631185e+02
     vertex -2.115000e+02  2.932726e+01  3.638552e+02
     vertex -2.115000e+02  3.275000e+01  3.674803e+02
   endloop
 endfacet
 facet normal -1.000000e+00  0.000000e+00  0.000000e+00
   outer loop
     vertex -2.115000e+02  3.150655e+01  3.626571e+02
     vertex -2.115000e+02  3.034123e+01  3.631185e+02
     vertex -2.115000e+02  3.275000e+01  3.674803e+02
   endloop
 endfacet
 facet normal -1.000000e+00  0.000000e+00  0.000000e+00
   outer loop
     vertex -2.115000e+02  3.275000e+01  3.625000e+02
     vertex -2.115000e+02  3.150655e+01  3.626571e+02
     vertex -2.115000e+02  3.275000e+01  3.674803e+02
   endloop
 endfacet
 facet normal  7.554181e-17 -9.822873e-01 -1.873813e-01
   outer loop
     vertex  2.115000e+02  2.799472e+01  2.959549e+02
     vertex  2.115000e+02  2.775987e+01  2.971860e+02
     vertex -2.115000e+02  2.775987e+01  2.971860e+02
   endloop
 endfacet
 facet normal  7.559809e-17 -9.822873e-01 -1.873813e-01
   outer loop
     vertex  2.115000e+02  2.799472e+01  2.959549e+02
     vertex -2.115000e+02  2.775987e+01  2.971860e+02
     vertex -2.115000e+02  2.799472e+01  2.959549e+02
   endloop
 endfacet
 facet normal  1.716507e-16 -9.048271e-01 -4.257793e-01
   outer loop
     vertex  2.115000e+02  2.799472e+01  2.959549e+02
     vertex -2.115000e+02  2.799472e+01  2.959549e+02
     vertex -2.115000e+02  2.852836e+01  2.948209e+02
   endloop
 endfacet
 facet normal  3.999659e-16  1.253332e-01 -9.921147e-01
   outer loop
     vertex  2.115000e+02  3.275000e+01  2.925000e+02
     vertex -2.115000e+02  3.275000e+01  2.925000e+02
     vertex -2.115000e+02  3.399345e+01  2.926571e+02
   endloop
 endfacet
 facet normal  1.143395e-16 -9.048271e-01 -4.257793e-01
   outer loop
     vertex  2.115000e+02  2.852836e+01  2.948209e+02
     vertex  2.115000e+02  2.799472e+01  2.959549e+02
     vertex -2.115000e+02  2.852836e+01  2.948209e+02
   endloop
 endfacet
 facet normal  3.999788e-16  1.253332e-01 -9.921147e-01
   outer loop
     vertex  2.115000e+02  3.399345e+01  2.926571e+02
     vertex  2.115000e+02  3.275000e+01  2.925000e+02
     vertex -2.115000e+02  3.399345e+01  2.926571e+02
   endloop
 endfacet
 facet normal  1.713161e-16 -7.705132e-01 -6.374240e-01
   outer loop
     vertex  2.115000e+02  2.932726e+01  2.938552e+02
     vertex  2.115000e+02  2.852836e+01  2.948209e+02
     vertex -2.115000e+02  2.852836e+01  2.948209e+02
   endloop
 endfacet
 facet normal  2.569497e-16 -7.705132e-01 -6.374240e-01
   outer loop
     vertex  2.115000e+02  2.932726e+01  2.938552e+02
     vertex -2.115000e+02  2.852836e+01  2.948209e+02
     vertex -2.115000e+02  2.932726e+01  2.938552e+02
   endloop
 endfacet
 facet normal  3.746398e-16  3.681246e-01 -9.297765e-01
   outer loop
     vertex  2.115000e+02  3.515877e+01  2.931185e+02
     vertex -2.115000e+02  3.399345e+01  2.926571e+02
     vertex -2.115000e+02  3.515877e+01  2.931185e+02
   endloop
 endfacet
 facet normal  3.748346e-16  3.681246e-01 -9.297765e-01
   outer loop
     vertex  2.115000e+02  3.515877e+01  2.931185e+02
     vertex  2.115000e+02  3.399345e+01  2.926571e+02
     vertex -2.115000e+02  3.399345e+01  2.926571e+02
   endloop
 endfacet
 facet normal  3.262654e-16 -5.877853e-01 -8.090170e-01
   outer loop
     vertex  2.115000e+02  3.034123e+01  2.931185e+02
     vertex -2.115000e+02  2.932726e+01  2.938552e+02
     vertex -2.115000e+02  3.034123e+01  2.931185e+02
   endloop
 endfacet
 facet normal  3.261510e-16 -5.877853e-01 -8.090170e-01
   outer loop
     vertex  2.115000e+02  3.034123e+01  2.931185e+02
     vertex  2.115000e+02  2.932726e+01  2.938552e+02
     vertex -2.115000e+02  2.932726e+01  2.938552e+02
   endloop
 endfacet
 facet normal  3.748346e-16 -3.681246e-01 -9.297765e-01
   outer loop
     vertex  2.115000e+02  3.034123e+01  2.931185e+02
     vertex -2.115000e+02  3.034123e+01  2.931185e+02
     vertex -2.115000e+02  3.150655e+01  2.926571e+02
   endloop
 endfacet
 facet normal  3.260560e-16  5.877853e-01 -8.090170e-01
   outer loop
     vertex  2.115000e+02  3.617274e+01  2.938552e+02
     vertex -2.115000e+02  3.515877e+01  2.931185e+02
     vertex -2.115000e+02  3.617274e+01  2.938552e+02
   endloop
 endfacet
 facet normal  3.261510e-16  5.877853e-01 -8.090170e-01
   outer loop
     vertex  2.115000e+02  3.617274e+01  2.938552e+02
     vertex  2.115000e+02  3.515877e+01  2.931185e+02
     vertex -2.115000e+02  3.515877e+01  2.931185e+02
   endloop
 endfacet
 facet normal  3.999659e-16 -1.253332e-01 -9.921147e-01
   outer loop
     vertex  2.115000e+02  3.150655e+01  2.926571e+02
     vertex -2.115000e+02  3.150655e+01  2.926571e+02
     vertex -2.115000e+02  3.275000e+01  2.925000e+02
   endloop
 endfacet
 facet normal  3.748493e-16 -3.681246e-01 -9.297765e-01
   outer loop
     vertex  2.115000e+02  3.150655e+01  2.926571e+02
     vertex  2.115000e+02  3.034123e+01  2.931185e+02
     vertex -2.115000e+02  3.150655e+01  2.926571e+02
   endloop
 endfacet
 facet normal  3.999788e-16 -1.253332e-01 -9.921147e-01
   outer loop
     vertex  2.115000e+02  3.275000e+01  2.925000e+02
     vertex  2.115000e+02  3.150655e+01  2.926571e+02
     vertex -2.115000e+02  3.275000e+01  2.925000e+02
   endloop
 endfacet
 facet normal  2.569497e-16  7.705132e-01 -6.374240e-01
   outer loop
     vertex  2.115000e+02  3.697164e+01  2.948209e+02
     vertex -2.115000e+02  3.617274e+01  2.938552e+02
     vertex -2.115000e+02  3.697164e+01  2.948209e+02
   endloop
 endfacet
 facet normal  2.569742e-16  7.705132e-01 -6.374240e-01
   outer loop
     vertex  2.115000e+02  3.697164e+01  2.948209e+02
     vertex  2.115000e+02  3.617274e+01  2.938552e+02
     vertex -2.115000e+02  3.617274e+01  2.938552e+02
   endloop
 endfacet
 facet normal  1.715092e-16  9.048271e-01 -4.257793e-01
   outer loop
     vertex  2.115000e+02  3.750528e+01  2.959549e+02
     vertex -2.115000e+02  3.697164e+01  2.948209e+02
     vertex -2.115000e+02  3.750528e+01  2.959549e+02
   endloop
 endfacet
 facet normal  7.554181e-17  9.822873e-01 -1.873813e-01
   outer loop
     vertex  2.115000e+02  3.750528e+01  2.959549e+02
     vertex -2.115000e+02  3.750528e+01  2.959549e+02
     vertex -2.115000e+02  3.774013e+01  2.971860e+02
   endloop
 endfacet
 facet normal  1.716507e-16  9.048271e-01 -4.257793e-01
   outer loop
     vertex  2.115000e+02  3.750528e+01  2.959549e+02
     vertex  2.115000e+02  3.697164e+01  2.948209e+02
     vertex -2.115000e+02  3.697164e+01  2.948209e+02
   endloop
 endfacet
 facet normal  7.559809e-17  9.822873e-01 -1.873813e-01
   outer loop
     vertex  2.115000e+02  3.774013e+01  2.971860e+02
     vertex  2.115000e+02  3.750528e+01  2.959549e+02
     vertex -2.115000e+02  3.774013e+01  2.971860e+02
   endloop
 endfacet
 facet normal -1.685775e-17  9.980267e-01  6.279052e-02
   outer loop
     vertex  2.115000e+02  3.766144e+01  2.984369e+02
     vertex -2.115000e+02  3.774013e+01  2.971860e+02
     vertex -2.115000e+02  3.766144e+01  2.984369e+02
   endloop
 endfacet
 facet normal -8.305240e-17  9.510565e-01  3.090170e-01
   outer loop
     vertex  2.115000e+02  3.766144e+01  2.984369e+02
     vertex -2.115000e+02  3.766144e+01  2.984369e+02
     vertex -2.115000e+02  3.727414e+01  2.996289e+02
   endloop
 endfacet
 facet normal -2.531367e-17  9.980267e-01  6.279052e-02
   outer loop
     vertex  2.115000e+02  3.766144e+01  2.984369e+02
     vertex  2.115000e+02  3.774013e+01  2.971860e+02
     vertex -2.115000e+02  3.774013e+01  2.971860e+02
   endloop
 endfacet
 facet normal -1.246007e-16  9.510565e-01  3.090170e-01
   outer loop
     vertex  2.115000e+02  3.727414e+01  2.996289e+02
     vertex  2.115000e+02  3.766144e+01  2.984369e+02
     vertex -2.115000e+02  3.727414e+01  2.996289e+02
   endloop
 endfacet
 facet normal -2.161142e-16  8.443279e-01  5.358268e-01
   outer loop
     vertex  2.115000e+02  3.660257e+01  3.006871e+02
     vertex -2.115000e+02  3.727414e+01  2.996289e+02
     vertex -2.115000e+02  3.660257e+01  3.006871e+02
   endloop
 endfacet
 facet normal -2.938799e-16  6.845471e-01  7.289686e-01
   outer loop
     vertex  2.115000e+02  3.660257e+01  3.006871e+02
     vertex -2.115000e+02  3.660257e+01  3.006871e+02
     vertex -2.115000e+02  3.568893e+01  3.015451e+02
   endloop
 endfacet
 facet normal -2.160158e-16  8.443279e-01  5.358268e-01
   outer loop
     vertex  2.115000e+02  3.660257e+01  3.006871e+02
     vertex  2.115000e+02  3.727414e+01  2.996289e+02
     vertex -2.115000e+02  3.727414e+01  2.996289e+02
   endloop
 endfacet
 facet normal -1.960106e-16  6.845471e-01  7.289686e-01
   outer loop
     vertex  2.115000e+02  3.568893e+01  3.015451e+02
     vertex  2.115000e+02  3.660257e+01  3.006871e+02
     vertex -2.115000e+02  3.568893e+01  3.015451e+02
   endloop
 endfacet
 facet normal -3.532797e-16  4.817537e-01  8.763067e-01
   outer loop
     vertex  2.115000e+02  3.459062e+01  3.021489e+02
     vertex -2.115000e+02  3.568893e+01  3.015451e+02
     vertex -2.115000e+02  3.459062e+01  3.021489e+02
   endloop
 endfacet
 facet normal -3.904793e-16  2.486899e-01  9.685832e-01
   outer loop
     vertex  2.115000e+02  3.459062e+01  3.021489e+02
     vertex -2.115000e+02  3.459062e+01  3.021489e+02
     vertex -2.115000e+02  3.337667e+01  3.024606e+02
   endloop
 endfacet
 facet normal -2.355190e-16  4.817537e-01  8.763067e-01
   outer loop
     vertex  2.115000e+02  3.459062e+01  3.021489e+02
     vertex  2.115000e+02  3.568893e+01  3.015451e+02
     vertex -2.115000e+02  3.568893e+01  3.015451e+02
   endloop
 endfacet
 facet normal -2.603003e-16  2.486899e-01  9.685832e-01
   outer loop
     vertex  2.115000e+02  3.337667e+01  3.024606e+02
     vertex  2.115000e+02  3.459062e+01  3.021489e+02
     vertex -2.115000e+02  3.337667e+01  3.024606e+02
   endloop
 endfacet
 facet normal -2.687632e-16  0.000000e+00  1.000000e+00
   outer loop
     vertex  2.115000e+02  3.212333e+01  3.024606e+02
     vertex  2.115000e+02  3.337667e+01  3.024606e+02
     vertex -2.115000e+02  3.337667e+01  3.024606e+02
   endloop
 endfacet
 facet normal -2.687632e-16  0.000000e+00  1.000000e+00
   outer loop
     vertex  2.115000e+02  3.212333e+01  3.024606e+02
     vertex -2.115000e+02  3.337667e+01  3.024606e+02
     vertex -2.115000e+02  3.212333e+01  3.024606e+02
   endloop
 endfacet
 facet normal -2.603195e-16 -2.486899e-01  9.685832e-01
   outer loop
     vertex  2.115000e+02  3.090938e+01  3.021489e+02
     vertex  2.115000e+02  3.212333e+01  3.024606e+02
     vertex -2.115000e+02  3.212333e+01  3.024606e+02
   endloop
 endfacet
 facet normal -3.904505e-16 -2.486899e-01  9.685832e-01
   outer loop
     vertex  2.115000e+02  3.090938e+01  3.021489e+02
     vertex -2.115000e+02  3.212333e+01  3.024606e+02
     vertex -2.115000e+02  3.090938e+01  3.021489e+02
   endloop
 endfacet
 facet normal -3.532785e-16 -4.817537e-01  8.763067e-01
   outer loop
     vertex  2.115000e+02  2.981107e+01  3.015451e+02
     vertex  2.115000e+02  3.090938e+01  3.021489e+02
     vertex -2.115000e+02  3.090938e+01  3.021489e+02
   endloop
 endfacet
 facet normal -3.532797e-16 -4.817537e-01  8.763067e-01
   outer loop
     vertex  2.115000e+02  2.981107e+01  3.015451e+02
     vertex -2.115000e+02  3.090938e+01  3.021489e+02
     vertex -2.115000e+02  2.981107e+01  3.015451e+02
   endloop
 endfacet
 facet normal -2.938799e-16 -6.845471e-01  7.289686e-01
   outer loop
     vertex  2.115000e+02  2.889743e+01  3.006871e+02
     vertex  2.115000e+02  2.981107e+01  3.015451e+02
     vertex -2.115000e+02  2.981107e+01  3.015451e+02
   endloop
 endfacet
 facet normal -2.938064e-16 -6.845471e-01  7.289686e-01
   outer loop
     vertex  2.115000e+02  2.889743e+01  3.006871e+02
     vertex -2.115000e+02  2.981107e+01  3.015451e+02
     vertex -2.115000e+02  2.889743e+01  3.006871e+02
   endloop
 endfacet
 facet normal -2.160158e-16 -8.443279e-01  5.358268e-01
   outer loop
     vertex  2.115000e+02  2.822586e+01  2.996289e+02
     vertex  2.115000e+02  2.889743e+01  3.006871e+02
     vertex -2.115000e+02  2.889743e+01  3.006871e+02
   endloop
 endfacet
 facet normal -2.159048e-16 -8.443279e-01  5.358268e-01
   outer loop
     vertex  2.115000e+02  2.822586e+01  2.996289e+02
     vertex -2.115000e+02  2.889743e+01  3.006871e+02
     vertex -2.115000e+02  2.822586e+01  2.996289e+02
   endloop
 endfacet
 facet normal -1.245786e-16 -9.510565e-01  3.090170e-01
   outer loop
     vertex  2.115000e+02  2.783856e+01  2.984369e+02
     vertex  2.115000e+02  2.822586e+01  2.996289e+02
     vertex -2.115000e+02  2.822586e+01  2.996289e+02
   endloop
 endfacet
 facet normal -8.303225e-17 -9.510565e-01  3.090170e-01
   outer loop
     vertex  2.115000e+02  2.783856e+01  2.984369e+02
     vertex -2.115000e+02  2.822586e+01  2.996289e+02
     vertex -2.115000e+02  2.783856e+01  2.984369e+02
   endloop
 endfacet
 facet normal -1.687578e-17 -9.980267e-01  6.279052e-02
   outer loop
     vertex  2.115000e+02  2.775987e+01  2.971860e+02
     vertex  2.115000e+02  2.783856e+01  2.984369e+02
     vertex -2.115000e+02  2.783856e+01  2.984369e+02
   endloop
 endfacet
 facet normal -2.531280e-17 -9.980267e-01  6.279052e-02
   outer loop
     vertex  2.115000e+02  2.775987e+01  2.971860e+02
     vertex -2.115000e+02  2.783856e+01  2.984369e+02
     vertex -2.115000e+02  2.775987e+01  2.971860e+02
   endloop
 endfacet
 facet normal  1.000000e+00 -0.000000e+00  0.000000e+00
   outer loop
     vertex  2.115000e+02  3.275000e+01  2.974803e+02
     vertex  2.115000e+02  3.275000e+01  2.925000e+02
     vertex  2.115000e+02  3.399345e+01  2.926571e+02
   endloop
 endfacet
 facet normal  1.000000e+00 -0.000000e+00  0.000000e+00
   outer loop
     vertex  2.115000e+02  3.275000e+01  2.974803e+02
     vertex  2.115000e+02  3.399345e+01  2.926571e+02
     vertex  2.115000e+02  3.515877e+01  2.931185e+02
   endloop
 endfacet
 facet normal  1.000000e+00 -0.000000e+00  0.000000e+00
   outer loop
     vertex  2.115000e+02  3.275000e+01  2.974803e+02
     vertex  2.115000e+02  3.515877e+01  2.931185e+02
     vertex  2.115000e+02  3.617274e+01  2.938552e+02
   endloop
 endfacet
 facet normal  1.000000e+00 -0.000000e+00  0.000000e+00
   outer loop
     vertex  2.115000e+02  3.275000e+01  2.974803e+02
     vertex  2.115000e+02  3.617274e+01  2.938552e+02
     vertex  2.115000e+02  3.697164e+01  2.948209e+02
   endloop
 endfacet
 facet normal  1.000000e+00 -0.000000e+00  0.000000e+00
   outer loop
     vertex  2.115000e+02  3.275000e+01  2.974803e+02
     vertex  2.115000e+02  3.697164e+01  2.948209e+02
     vertex  2.115000e+02  3.750528e+01  2.959549e+02
   endloop
 endfacet
 facet normal  1.000000e+00 -0.000000e+00  0.000000e+00
   outer loop
     vertex  2.115000e+02  3.275000e+01  2.974803e+02
     vertex  2.115000e+02  3.750528e+01  2.959549e+02
     vertex  2.115000e+02  3.774013e+01  2.971860e+02
   endloop
 endfacet
 facet normal  1.000000e+00 -0.000000e+00 -0.000000e+00
   outer loop
     vertex  2.115000e+02  3.275000e+01  2.974803e+02
     vertex  2.115000e+02  3.774013e+01  2.971860e+02
     vertex  2.115000e+02  3.766144e+01  2.984369e+02
   endloop
 endfacet
 facet normal  1.000000e+00  0.000000e+00 -0.000000e+00
   outer loop
     vertex  2.115000e+02  3.275000e+01  2.974803e+02
     vertex  2.115000e+02  3.766144e+01  2.984369e+02
     vertex  2.115000e+02  3.727414e+01  2.996289e+02
   endloop
 endfacet
 facet normal  1.000000e+00  0.000000e+00 -0.000000e+00
   outer loop
     vertex  2.115000e+02  3.275000e+01  2.974803e+02
     vertex  2.115000e+02  3.727414e+01  2.996289e+02
     vertex  2.115000e+02  3.660257e+01  3.006871e+02
   endloop
 endfacet
 facet normal  1.000000e+00  0.000000e+00 -0.000000e+00
   outer loop
     vertex  2.115000e+02  3.275000e+01  2.974803e+02
     vertex  2.115000e+02  3.660257e+01  3.006871e+02
     vertex  2.115000e+02  3.568893e+01  3.015451e+02
   endloop
 endfacet
 facet normal  1.000000e+00  0.000000e+00 -0.000000e+00
   outer loop
     vertex  2.115000e+02  3.275000e+01  2.974803e+02
     vertex  2.115000e+02  3.568893e+01  3.015451e+02
     vertex  2.115000e+02  3.459062e+01  3.021489e+02
   endloop
 endfacet
 facet normal  1.000000e+00  0.000000e+00 -0.000000e+00
   outer loop
     vertex  2.115000e+02  3.275000e+01  2.974803e+02
     vertex  2.115000e+02  3.459062e+01  3.021489e+02
     vertex  2.115000e+02  3.337667e+01  3.024606e+02
   endloop
 endfacet
 facet normal  1.000000e+00  0.000000e+00 -0.000000e+00
   outer loop
     vertex  2.115000e+02  3.275000e+01  2.974803e+02
     vertex  2.115000e+02  3.337667e+01  3.024606e+02
     vertex  2.115000e+02  3.212333e+01  3.024606e+02
   endloop
 endfacet
 facet normal  1.000000e+00  0.000000e+00  0.000000e+00
   outer loop
     vertex  2.115000e+02  3.275000e+01  2.974803e+02
     vertex  2.115000e+02  3.212333e+01  3.024606e+02
     vertex  2.115000e+02  3.090938e+01  3.021489e+02
   endloop
 endfacet
 facet normal  1.000000e+00  0.000000e+00  0.000000e+00
   outer loop
     vertex  2.115000e+02  3.275000e+01  2.974803e+02
     vertex  2.115000e+02  3.090938e+01  3.021489e+02
     vertex  2.115000e+02  2.981107e+01  3.015451e+02
   endloop
 endfacet
 facet normal  1.000000e+00  0.000000e+00  0.000000e+00
   outer loop
     vertex  2.115000e+02  3.275000e+01  2.974803e+02
     vertex  2.115000e+02  2.981107e+01  3.015451e+02
     vertex  2.115000e+02  2.889743e+01  3.006871e+02
   endloop
 endfacet
 facet normal  1.000000e+00  0.000000e+00  0.000000e+00
   outer loop
     vertex  2.115000e+02  3.275000e+01  2.974803e+02
     vertex  2.115000e+02  2.889743e+01  3.006871e+02
     vertex  2.115000e+02  2.822586e+01  2.996289e+02
   endloop
 endfacet
 facet normal  1.000000e+00  0.000000e+00  0.000000e+00
   outer loop
     vertex  2.115000e+02  3.275000e+01  2.974803e+02
     vertex  2.115000e+02  2.822586e+01  2.996289e+02
     vertex  2.115000e+02  2.783856e+01  2.984369e+02
   endloop
 endfacet
 facet normal  1.000000e+00  0.000000e+00  0.000000e+00
   outer loop
     vertex  2.115000e+02  3.275000e+01  2.974803e+02
     vertex  2.115000e+02  2.783856e+01  2.984369e+02
     vertex  2.115000e+02  2.775987e+01  2.971860e+02
   endloop
 endfacet
 facet normal  1.000000e+00  0.000000e+00  0.000000e+00
   outer loop
     vertex  2.115000e+02  3.275000e+01  2.974803e+02
     vertex  2.115000e+02  2.775987e+01  2.971860e+02
     vertex  2.115000e+02  2.799472e+01  2.959549e+02
   endloop
 endfacet
 facet normal  1.000000e+00  0.000000e+00  0.000000e+00
   outer loop
     vertex  2.115000e+02  3.275000e+01  2.974803e+02
     vertex  2.115000e+02  2.799472e+01  2.959549e+02
     vertex  2.115000e+02  2.852836e+01  2.948209e+02
   endloop
 endfacet
 facet normal  1.000000e+00  0.000000e+00  0.000000e+00
   outer loop
     vertex  2.115000e+02  3.275000e+01  2.974803e+02
     vertex  2.115000e+02  2.852836e+01  2.948209e+02
     vertex  2.115000e+02  2.932726e+01  2.938552e+02
   endloop
 endfacet
 facet normal  1.000000e+00  0.000000e+00  0.000000e+00
   outer loop
     vertex  2.115000e+02  3.275000e+01  2.974803e+02
     vertex  2.115000e+02  2.932726e+01  2.938552e+02
     vertex  2.115000e+02  3.034123e+01  2.931185e+02
   endloop
 endfacet
 facet normal  1.000000e+00  0.000000e+00  0.000000e+00
   outer loop
     vertex  2.115000e+02  3.275000e+01  2.974803e+02
     vertex  2.115000e+02  3.034123e+01  2.931185e+02
     vertex  2.115000e+02  3.150655e+01  2.926571e+02
   endloop
 endfacet
 facet normal  1.000000e+00  0.000000e+00  0.000000e+00
   outer loop
     vertex  2.115000e+02  3.275000e+01  2.974803e+02
     vertex  2.115000e+02  3.150655e+01  2.926571e+02
     vertex  2.115000e+02  3.275000e+01  2.925000e+02
   endloop
 endfacet
 facet normal -1.000000e+00 -0.000000e+00  0.000000e+00
   outer loop
     vertex -2.115000e+02  3.399345e+01  2.926571e+02
     vertex -2.115000e+02  3.275000e+01  2.925000e+02
     vertex -2.115000e+02  3.275000e+01  2.974803e+02
   endloop
 endfacet
 facet normal -1.000000e+00 -0.000000e+00  0.000000e+00
   outer loop
     vertex -2.115000e+02  3.515877e+01  2.931185e+02
     vertex -2.115000e+02  3.399345e+01  2.926571e+02
     vertex -2.115000e+02  3.275000e+01  2.974803e+02
   endloop
 endfacet
 facet normal -1.000000e+00 -0.000000e+00  0.000000e+00
   outer loop
     vertex -2.115000e+02  3.617274e+01  2.938552e+02
     vertex -2.115000e+02  3.515877e+01  2.931185e+02
     vertex -2.115000e+02  3.275000e+01  2.974803e+02
   endloop
 endfacet
 facet normal -1.000000e+00 -0.000000e+00  0.000000e+00
   outer loop
     vertex -2.115000e+02  3.697164e+01  2.948209e+02
     vertex -2.115000e+02  3.617274e+01  2.938552e+02
     vertex -2.115000e+02  3.275000e+01  2.974803e+02
   endloop
 endfacet
 facet normal -1.000000e+00 -0.000000e+00  0.000000e+00
   outer loop
     vertex -2.115000e+02  3.750528e+01  2.959549e+02
     vertex -2.115000e+02  3.697164e+01  2.948209e+02
     vertex -2.115000e+02  3.275000e+01  2.974803e+02
   endloop
 endfacet
 facet normal -1.000000e+00 -0.000000e+00  0.000000e+00
   outer loop
     vertex -2.115000e+02  3.774013e+01  2.971860e+02
     vertex -2.115000e+02  3.750528e+01  2.959549e+02
     vertex -2.115000e+02  3.275000e+01  2.974803e+02
   endloop
 endfacet
 facet normal -1.000000e+00 -0.000000e+00 -0.000000e+00
   outer loop
     vertex -2.115000e+02  3.766144e+01  2.984369e+02
     vertex -2.115000e+02  3.774013e+01  2.971860e+02
     vertex -2.115000e+02  3.275000e+01  2.974803e+02
   endloop
 endfacet
 facet normal -1.000000e+00  0.000000e+00 -0.000000e+00
   outer loop
     vertex -2.115000e+02  3.727414e+01  2.996289e+02
     vertex -2.115000e+02  3.766144e+01  2.984369e+02
     vertex -2.115000e+02  3.275000e+01  2.974803e+02
   endloop
 endfacet
 facet normal -1.000000e+00  0.000000e+00 -0.000000e+00
   outer loop
     vertex -2.115000e+02  3.660257e+01  3.006871e+02
     vertex -2.115000e+02  3.727414e+01  2.996289e+02
     vertex -2.115000e+02  3.275000e+01  2.974803e+02
   endloop
 endfacet
 facet normal -1.000000e+00  0.000000e+00 -0.000000e+00
   outer loop
     vertex -2.115000e+02  3.568893e+01  3.015451e+02
     vertex -2.115000e+02  3.660257e+01  3.006871e+02
     vertex -2.115000e+02  3.275000e+01  2.974803e+02
   endloop
 endfacet
 facet normal -1.000000e+00  0.000000e+00 -0.000000e+00
   outer loop
     vertex -2.115000e+02  3.459062e+01  3.021489e+02
     vertex -2.115000e+02  3.568893e+01  3.015451e+02
     vertex -2.115000e+02  3.275000e+01  2.974803e+02
   endloop
 endfacet
 facet normal -1.000000e+00  0.000000e+00 -0.000000e+00
   outer loop
     vertex -2.115000e+02  3.337667e+01  3.024606e+02
     vertex -2.115000e+02  3.459062e+01  3.021489e+02
     vertex -2.115000e+02  3.275000e+01  2.974803e+02
   endloop
 endfacet
 facet normal -1.000000e+00  0.000000e+00 -0.000000e+00
   outer loop
     vertex -2.115000e+02  3.212333e+01  3.024606e+02
     vertex -2.115000e+02  3.337667e+01  3.024606e+02
     vertex -2.115000e+02  3.275000e+01  2.974803e+02
   endloop
 endfacet
 facet normal -1.000000e+00  0.000000e+00  0.000000e+00
   outer loop
     vertex -2.115000e+02  3.090938e+01  3.021489e+02
     vertex -2.115000e+02  3.212333e+01  3.024606e+02
     vertex -2.115000e+02  3.275000e+01  2.974803e+02
   endloop
 endfacet
 facet normal -1.000000e+00  0.000000e+00  0.000000e+00
   outer loop
     vertex -2.115000e+02  2.981107e+01  3.015451e+02
     vertex -2.115000e+02  3.090938e+01  3.021489e+02
     vertex -2.115000e+02  3.275000e+01  2.974803e+02
   endloop
 endfacet
 facet normal -1.000000e+00  0.000000e+00  0.000000e+00
   outer loop
     vertex -2.115000e+02  2.889743e+01  3.006871e+02
     vertex -2.115000e+02  2.981107e+01  3.015451e+02
     vertex -2.115000e+02  3.275000e+01  2.974803e+02
   endloop
 endfacet
 facet normal -1.000000e+00  0.000000e+00  0.000000e+00
   outer loop
     vertex -2.115000e+02  2.822586e+01  2.996289e+02
     vertex -2.115000e+02  2.889743e+01  3.006871e+02
     vertex -2.115000e+02  3.275000e+01  2.974803e+02
   endloop
 endfacet
 facet normal -1.000000e+00  0.000000e+00  0.000000e+00
   outer loop
     vertex -2.115000e+02  2.783856e+01  2.984369e+02
     vertex -2.115000e+02  2.822586e+01  2.996289e+02
     vertex -2.115000e+02  3.275000e+01  2.974803e+02
   endloop
 endfacet
 facet normal -1.000000e+00  0.000000e+00  0.000000e+00
   outer loop
     vertex -2.115000e+02  2.775987e+01  2.971860e+02
     vertex -2.115000e+02  2.783856e+01  2.984369e+02
     vertex -2.115000e+02  3.275000e+01  2.974803e+02
   endloop
 endfacet
 facet normal -1.000000e+00  0.000000e+00  0.000000e+00
   outer loop
     vertex -2.115000e+02  2.799472e+01  2.959549e+02
     vertex -2.115000e+02  2.775987e+01  2.971860e+02
     vertex -2.115000e+02  3.275000e+01  2.974803e+02
   endloop
 endfacet
 facet normal -1.000000e+00  0.000000e+00  0.000000e+00
   outer loop
     vertex -2.115000e+02  2.852836e+01  2.948209e+02
     vertex -2.115000e+02  2.799472e+01  2.959549e+02
     vertex -2.115000e+02  3.275000e+01  2.974803e+02
   endloop
 endfacet
 facet normal -1.000000e+00  0.000000e+00  0.000000e+00
   outer loop
     vertex -2.115000e+02  2.932726e+01  2.938552e+02
     vertex -2.115000e+02  2.852836e+01  2.948209e+02
     vertex -2.115000e+02  3.275000e+01  2.974803e+02
   endloop
 endfacet
 facet normal -1.000000e+00  0.000000e+00  0.000000e+00
   outer loop
     vertex -2.115000e+02  3.034123e+01  2.931185e+02
     vertex -2.115000e+02  2.932726e+01  2.938552e+02
     vertex -2.115000e+02  3.275000e+01  2.974803e+02
   endloop
 endfacet
 facet normal -1.000000e+00  0.000000e+00  0.000000e+00
   outer loop
     vertex -2.115000e+02  3.150655e+01  2.926571e+02
     vertex -2.115000e+02  3.034123e+01  2.931185e+02
     vertex -2.115000e+02  3.275000e+01  2.974803e+02
   endloop
 endfacet
 facet normal -1.000000e+00  0.000000e+00  0.000000e+00
   outer loop
     vertex -2.115000e+02  3.275000e+01  2.925000e+02
     vertex -2.115000e+02  3.150655e+01  2.926571e+02
     vertex -2.115000e+02  3.275000e+01  2.974803e+02
   endloop
 endfacet
endsolid
