solid
 facet normal  1.178470e-17 -9.822873e-01 -1.873813e-01
   outer loop
     vertex  2.255000e+02  1.872447e+02  2.509549e+02
     vertex -2.255000e+02  1.870099e+02  2.521860e+02
     vertex -2.255000e+02  1.872447e+02  2.509549e+02
   endloop
 endfacet
 facet normal  2.683232e-17 -9.048271e-01 -4.257793e-01
   outer loop
     vertex  2.255000e+02  1.877784e+02  2.498209e+02
     vertex  2.255000e+02  1.872447e+02  2.509549e+02
     vertex -2.255000e+02  1.872447e+02  2.509549e+02
   endloop
 endfacet
 facet normal  5.362041e-17 -9.048271e-01 -4.257793e-01
   outer loop
     vertex  2.255000e+02  1.877784e+02  2.498209e+02
     vertex -2.255000e+02  1.872447e+02  2.509549e+02
     vertex -2.255000e+02  1.877784e+02  2.498209e+02
   endloop
 endfacet
 facet normal  8.034004e-17 -7.705132e-01 -6.374240e-01
   outer loop
     vertex  2.255000e+02  1.877784e+02  2.498209e+02
     vertex -2.255000e+02  1.877784e+02  2.498209e+02
     vertex -2.255000e+02  1.885773e+02  2.488552e+02
   endloop
 endfacet
 facet normal  8.033240e-17 -7.705132e-01 -6.374240e-01
   outer loop
     vertex  2.255000e+02  1.885773e+02  2.488552e+02
     vertex  2.255000e+02  1.877784e+02  2.498209e+02
     vertex -2.255000e+02  1.885773e+02  2.488552e+02
   endloop
 endfacet
 facet normal  6.250804e-17  1.253332e-01 -9.921147e-01
   outer loop
     vertex  2.255000e+02  1.932434e+02  2.476571e+02
     vertex -2.255000e+02  1.920000e+02  2.475000e+02
     vertex -2.255000e+02  1.932434e+02  2.476571e+02
   endloop
 endfacet
 facet normal  5.859387e-17  3.681246e-01 -9.297765e-01
   outer loop
     vertex  2.255000e+02  1.932434e+02  2.476571e+02
     vertex -2.255000e+02  1.932434e+02  2.476571e+02
     vertex -2.255000e+02  1.944088e+02  2.481185e+02
   endloop
 endfacet
 facet normal  1.250448e-16  1.253332e-01 -9.921147e-01
   outer loop
     vertex  2.255000e+02  1.932434e+02  2.476571e+02
     vertex  2.255000e+02  1.920000e+02  2.475000e+02
     vertex -2.255000e+02  1.920000e+02  2.475000e+02
   endloop
 endfacet
 facet normal  1.019674e-16 -5.877853e-01 -8.090170e-01
   outer loop
     vertex  2.255000e+02  1.895912e+02  2.481185e+02
     vertex  2.255000e+02  1.885773e+02  2.488552e+02
     vertex -2.255000e+02  1.885773e+02  2.488552e+02
   endloop
 endfacet
 facet normal  1.019377e-16 -5.877853e-01 -8.090170e-01
   outer loop
     vertex  2.255000e+02  1.895912e+02  2.481185e+02
     vertex -2.255000e+02  1.885773e+02  2.488552e+02
     vertex -2.255000e+02  1.895912e+02  2.481185e+02
   endloop
 endfacet
 facet normal  1.170614e-16  3.681246e-01 -9.297765e-01
   outer loop
     vertex  2.255000e+02  1.944088e+02  2.481185e+02
     vertex  2.255000e+02  1.932434e+02  2.476571e+02
     vertex -2.255000e+02  1.944088e+02  2.481185e+02
   endloop
 endfacet
 facet normal  1.171877e-16 -3.681246e-01 -9.297765e-01
   outer loop
     vertex  2.255000e+02  1.907566e+02  2.476571e+02
     vertex  2.255000e+02  1.895912e+02  2.481185e+02
     vertex -2.255000e+02  1.895912e+02  2.481185e+02
   endloop
 endfacet
 facet normal  5.853070e-17 -3.681246e-01 -9.297765e-01
   outer loop
     vertex  2.255000e+02  1.907566e+02  2.476571e+02
     vertex -2.255000e+02  1.895912e+02  2.481185e+02
     vertex -2.255000e+02  1.907566e+02  2.476571e+02
   endloop
 endfacet
 facet normal  6.252239e-17 -1.253332e-01 -9.921147e-01
   outer loop
     vertex  2.255000e+02  1.907566e+02  2.476571e+02
     vertex -2.255000e+02  1.907566e+02  2.476571e+02
     vertex -2.255000e+02  1.920000e+02  2.475000e+02
   endloop
 endfacet
 facet normal  5.087064e-17  5.877853e-01 -8.090170e-01
   outer loop
     vertex  2.255000e+02  1.954227e+02  2.488552e+02
     vertex -2.255000e+02  1.944088e+02  2.481185e+02
     vertex -2.255000e+02  1.954227e+02  2.488552e+02
   endloop
 endfacet
 facet normal  1.019674e-16  5.877853e-01 -8.090170e-01
   outer loop
     vertex  2.255000e+02  1.954227e+02  2.488552e+02
     vertex  2.255000e+02  1.944088e+02  2.481185e+02
     vertex -2.255000e+02  1.944088e+02  2.481185e+02
   endloop
 endfacet
 facet normal  1.250652e-16 -1.253332e-01 -9.921147e-01
   outer loop
     vertex  2.255000e+02  1.920000e+02  2.475000e+02
     vertex  2.255000e+02  1.907566e+02  2.476571e+02
     vertex -2.255000e+02  1.920000e+02  2.475000e+02
   endloop
 endfacet
 facet normal  8.033240e-17  7.705132e-01 -6.374240e-01
   outer loop
     vertex  2.255000e+02  1.962216e+02  2.498209e+02
     vertex -2.255000e+02  1.954227e+02  2.488552e+02
     vertex -2.255000e+02  1.962216e+02  2.498209e+02
   endloop
 endfacet
 facet normal  4.017002e-17  7.705132e-01 -6.374240e-01
   outer loop
     vertex  2.255000e+02  1.962216e+02  2.498209e+02
     vertex  2.255000e+02  1.954227e+02  2.488552e+02
     vertex -2.255000e+02  1.954227e+02  2.488552e+02
   endloop
 endfacet
 facet normal  2.671200e-17  9.048271e-01 -4.257793e-01
   outer loop
     vertex  2.255000e+02  1.967553e+02  2.509549e+02
     vertex -2.255000e+02  1.962216e+02  2.498209e+02
     vertex -2.255000e+02  1.967553e+02  2.509549e+02
   endloop
 endfacet
 facet normal  1.180864e-17  9.822873e-01 -1.873813e-01
   outer loop
     vertex  2.255000e+02  1.967553e+02  2.509549e+02
     vertex -2.255000e+02  1.967553e+02  2.509549e+02
     vertex -2.255000e+02  1.969901e+02  2.521860e+02
   endloop
 endfacet
 facet normal  5.366464e-17  9.048271e-01 -4.257793e-01
   outer loop
     vertex  2.255000e+02  1.967553e+02  2.509549e+02
     vertex  2.255000e+02  1.962216e+02  2.498209e+02
     vertex -2.255000e+02  1.962216e+02  2.498209e+02
   endloop
 endfacet
 facet normal  2.366761e-17  9.822873e-01 -1.873813e-01
   outer loop
     vertex  2.255000e+02  1.969901e+02  2.521860e+02
     vertex  2.255000e+02  1.967553e+02  2.509549e+02
     vertex -2.255000e+02  1.969901e+02  2.521860e+02
   endloop
 endfacet
 facet normal -7.930124e-18  9.980267e-01  6.279052e-02
   outer loop
     vertex  2.255000e+02  1.969114e+02  2.534369e+02
     vertex -2.255000e+02  1.969901e+02  2.521860e+02
     vertex -2.255000e+02  1.969114e+02  2.534369e+02
   endloop
 endfacet
 facet normal -3.894808e-17  9.510565e-01  3.090170e-01
   outer loop
     vertex  2.255000e+02  1.969114e+02  2.534369e+02
     vertex -2.255000e+02  1.969114e+02  2.534369e+02
     vertex -2.255000e+02  1.965241e+02  2.546289e+02
   endloop
 endfacet
 facet normal -7.914031e-18  9.980267e-01  6.279052e-02
   outer loop
     vertex  2.255000e+02  1.969114e+02  2.534369e+02
     vertex  2.255000e+02  1.969901e+02  2.521860e+02
     vertex -2.255000e+02  1.969901e+02  2.521860e+02
   endloop
 endfacet
 facet normal -3.888952e-17  9.510565e-01  3.090170e-01
   outer loop
     vertex  2.255000e+02  1.965241e+02  2.546289e+02
     vertex  2.255000e+02  1.969114e+02  2.534369e+02
     vertex -2.255000e+02  1.965241e+02  2.546289e+02
   endloop
 endfacet
 facet normal -3.378282e-17  8.443279e-01  5.358268e-01
   outer loop
     vertex  2.255000e+02  1.958526e+02  2.556871e+02
     vertex -2.255000e+02  1.965241e+02  2.546289e+02
     vertex -2.255000e+02  1.958526e+02  2.556871e+02
   endloop
 endfacet
 facet normal -4.593910e-17  6.845471e-01  7.289686e-01
   outer loop
     vertex  2.255000e+02  1.958526e+02  2.556871e+02
     vertex -2.255000e+02  1.958526e+02  2.556871e+02
     vertex -2.255000e+02  1.949389e+02  2.565451e+02
   endloop
 endfacet
 facet normal -6.753487e-17  8.443279e-01  5.358268e-01
   outer loop
     vertex  2.255000e+02  1.958526e+02  2.556871e+02
     vertex  2.255000e+02  1.965241e+02  2.546289e+02
     vertex -2.255000e+02  1.965241e+02  2.546289e+02
   endloop
 endfacet
 facet normal  0.000000e+00  4.817537e-01  8.763067e-01
   outer loop
     vertex  2.255000e+02  1.949389e+02  2.565451e+02
     vertex -2.255000e+02  1.949389e+02  2.565451e+02
     vertex -2.255000e+02  1.938406e+02  2.571489e+02
   endloop
 endfacet
 facet normal  0.000000e+00  6.845471e-01  7.289686e-01
   outer loop
     vertex  2.255000e+02  1.949389e+02  2.565451e+02
     vertex  2.255000e+02  1.958526e+02  2.556871e+02
     vertex -2.255000e+02  1.949389e+02  2.565451e+02
   endloop
 endfacet
 facet normal -2.441578e-16  2.486899e-01  9.685832e-01
   outer loop
     vertex  2.255000e+02  1.938406e+02  2.571489e+02
     vertex -2.255000e+02  1.938406e+02  2.571489e+02
     vertex -2.255000e+02  1.926267e+02  2.574606e+02
   endloop
 endfacet
 facet normal -2.209632e-16  4.817537e-01  8.763067e-01
   outer loop
     vertex  2.255000e+02  1.938406e+02  2.571489e+02
     vertex  2.255000e+02  1.949389e+02  2.565451e+02
     vertex -2.255000e+02  1.938406e+02  2.571489e+02
   endloop
 endfacet
 facet normal -1.220699e-16  2.486899e-01  9.685832e-01
   outer loop
     vertex  2.255000e+02  1.926267e+02  2.574606e+02
     vertex  2.255000e+02  1.938406e+02  2.571489e+02
     vertex -2.255000e+02  1.926267e+02  2.574606e+02
   endloop
 endfacet
 facet normal -1.260386e-16  0.000000e+00  1.000000e+00
   outer loop
     vertex  2.255000e+02  1.913733e+02  2.574606e+02
     vertex  2.255000e+02  1.926267e+02  2.574606e+02
     vertex -2.255000e+02  1.926267e+02  2.574606e+02
   endloop
 endfacet
 facet normal -1.260386e-16  0.000000e+00  1.000000e+00
   outer loop
     vertex  2.255000e+02  1.913733e+02  2.574606e+02
     vertex -2.255000e+02  1.926267e+02  2.574606e+02
     vertex -2.255000e+02  1.913733e+02  2.574606e+02
   endloop
 endfacet
 facet normal -1.220789e-16 -2.486899e-01  9.685832e-01
   outer loop
     vertex  2.255000e+02  1.913733e+02  2.574606e+02
     vertex -2.255000e+02  1.913733e+02  2.574606e+02
     vertex -2.255000e+02  1.901594e+02  2.571489e+02
   endloop
 endfacet
 facet normal -2.441398e-16 -2.486899e-01  9.685832e-01
   outer loop
     vertex  2.255000e+02  1.901594e+02  2.571489e+02
     vertex  2.255000e+02  1.913733e+02  2.574606e+02
     vertex -2.255000e+02  1.901594e+02  2.571489e+02
   endloop
 endfacet
 facet normal -2.208970e-16 -4.817537e-01  8.763067e-01
   outer loop
     vertex  2.255000e+02  1.901594e+02  2.571489e+02
     vertex -2.255000e+02  1.901594e+02  2.571489e+02
     vertex -2.255000e+02  1.890611e+02  2.565451e+02
   endloop
 endfacet
 facet normal -1.105798e-16 -4.817537e-01  8.763067e-01
   outer loop
     vertex  2.255000e+02  1.890611e+02  2.565451e+02
     vertex  2.255000e+02  1.901594e+02  2.571489e+02
     vertex -2.255000e+02  1.890611e+02  2.565451e+02
   endloop
 endfacet
 facet normal -9.187820e-17 -6.845471e-01  7.289686e-01
   outer loop
     vertex  2.255000e+02  1.881474e+02  2.556871e+02
     vertex  2.255000e+02  1.890611e+02  2.565451e+02
     vertex -2.255000e+02  1.890611e+02  2.565451e+02
   endloop
 endfacet
 facet normal -9.192069e-17 -6.845471e-01  7.289686e-01
   outer loop
     vertex  2.255000e+02  1.881474e+02  2.556871e+02
     vertex -2.255000e+02  1.890611e+02  2.565451e+02
     vertex -2.255000e+02  1.881474e+02  2.556871e+02
   endloop
 endfacet
 facet normal -6.753487e-17 -8.443279e-01  5.358268e-01
   outer loop
     vertex  2.255000e+02  1.881474e+02  2.556871e+02
     vertex -2.255000e+02  1.881474e+02  2.556871e+02
     vertex -2.255000e+02  1.874759e+02  2.546289e+02
   endloop
 endfacet
 facet normal -6.756564e-17 -8.443279e-01  5.358268e-01
   outer loop
     vertex  2.255000e+02  1.874759e+02  2.546289e+02
     vertex  2.255000e+02  1.881474e+02  2.556871e+02
     vertex -2.255000e+02  1.874759e+02  2.546289e+02
   endloop
 endfacet
 facet normal -3.894808e-17 -9.510565e-01  3.090170e-01
   outer loop
     vertex  2.255000e+02  1.870886e+02  2.534369e+02
     vertex  2.255000e+02  1.874759e+02  2.546289e+02
     vertex -2.255000e+02  1.874759e+02  2.546289e+02
   endloop
 endfacet
 facet normal -3.888952e-17 -9.510565e-01  3.090170e-01
   outer loop
     vertex  2.255000e+02  1.870886e+02  2.534369e+02
     vertex -2.255000e+02  1.874759e+02  2.546289e+02
     vertex -2.255000e+02  1.870886e+02  2.534369e+02
   endloop
 endfacet
 facet normal -7.914031e-18 -9.980267e-01  6.279052e-02
   outer loop
     vertex  2.255000e+02  1.870886e+02  2.534369e+02
     vertex -2.255000e+02  1.870886e+02  2.534369e+02
     vertex -2.255000e+02  1.870099e+02  2.521860e+02
   endloop
 endfacet
 facet normal -7.930124e-18 -9.980267e-01  6.279052e-02
   outer loop
     vertex  2.255000e+02  1.870099e+02  2.521860e+02
     vertex  2.255000e+02  1.870886e+02  2.534369e+02
     vertex -2.255000e+02  1.870099e+02  2.521860e+02
   endloop
 endfacet
 facet normal  2.361728e-17 -9.822873e-01 -1.873813e-01
   outer loop
     vertex  2.255000e+02  1.872447e+02  2.509549e+02
     vertex  2.255000e+02  1.870099e+02  2.521860e+02
     vertex -2.255000e+02  1.870099e+02  2.521860e+02
   endloop
 endfacet
 facet normal  1.000000e+00 -0.000000e+00  0.000000e+00
   outer loop
     vertex  2.255000e+02  1.920000e+02  2.524803e+02
     vertex  2.255000e+02  1.920000e+02  2.475000e+02
     vertex  2.255000e+02  1.932434e+02  2.476571e+02
   endloop
 endfacet
 facet normal  1.000000e+00 -0.000000e+00  0.000000e+00
   outer loop
     vertex  2.255000e+02  1.920000e+02  2.524803e+02
     vertex  2.255000e+02  1.932434e+02  2.476571e+02
     vertex  2.255000e+02  1.944088e+02  2.481185e+02
   endloop
 endfacet
 facet normal  1.000000e+00 -0.000000e+00  0.000000e+00
   outer loop
     vertex  2.255000e+02  1.920000e+02  2.524803e+02
     vertex  2.255000e+02  1.944088e+02  2.481185e+02
     vertex  2.255000e+02  1.954227e+02  2.488552e+02
   endloop
 endfacet
 facet normal  1.000000e+00 -0.000000e+00  0.000000e+00
   outer loop
     vertex  2.255000e+02  1.920000e+02  2.524803e+02
     vertex  2.255000e+02  1.954227e+02  2.488552e+02
     vertex  2.255000e+02  1.962216e+02  2.498209e+02
   endloop
 endfacet
 facet normal  1.000000e+00 -0.000000e+00  0.000000e+00
   outer loop
     vertex  2.255000e+02  1.920000e+02  2.524803e+02
     vertex  2.255000e+02  1.962216e+02  2.498209e+02
     vertex  2.255000e+02  1.967553e+02  2.509549e+02
   endloop
 endfacet
 facet normal  1.000000e+00 -0.000000e+00  0.000000e+00
   outer loop
     vertex  2.255000e+02  1.920000e+02  2.524803e+02
     vertex  2.255000e+02  1.967553e+02  2.509549e+02
     vertex  2.255000e+02  1.969901e+02  2.521860e+02
   endloop
 endfacet
 facet normal  1.000000e+00 -0.000000e+00 -0.000000e+00
   outer loop
     vertex  2.255000e+02  1.920000e+02  2.524803e+02
     vertex  2.255000e+02  1.969901e+02  2.521860e+02
     vertex  2.255000e+02  1.969114e+02  2.534369e+02
   endloop
 endfacet
 facet normal  1.000000e+00  0.000000e+00 -0.000000e+00
   outer loop
     vertex  2.255000e+02  1.920000e+02  2.524803e+02
     vertex  2.255000e+02  1.969114e+02  2.534369e+02
     vertex  2.255000e+02  1.965241e+02  2.546289e+02
   endloop
 endfacet
 facet normal  1.000000e+00  0.000000e+00 -0.000000e+00
   outer loop
     vertex  2.255000e+02  1.920000e+02  2.524803e+02
     vertex  2.255000e+02  1.965241e+02  2.546289e+02
     vertex  2.255000e+02  1.958526e+02  2.556871e+02
   endloop
 endfacet
 facet normal  1.000000e+00  0.000000e+00 -0.000000e+00
   outer loop
     vertex  2.255000e+02  1.920000e+02  2.524803e+02
     vertex  2.255000e+02  1.958526e+02  2.556871e+02
     vertex  2.255000e+02  1.949389e+02  2.565451e+02
   endloop
 endfacet
 facet normal  1.000000e+00  0.000000e+00 -0.000000e+00
   outer loop
     vertex  2.255000e+02  1.920000e+02  2.524803e+02
     vertex  2.255000e+02  1.949389e+02  2.565451e+02
     vertex  2.255000e+02  1.938406e+02  2.571489e+02
   endloop
 endfacet
 facet normal  1.000000e+00  0.000000e+00 -0.000000e+00
   outer loop
     vertex  2.255000e+02  1.920000e+02  2.524803e+02
     vertex  2.255000e+02  1.938406e+02  2.571489e+02
     vertex  2.255000e+02  1.926267e+02  2.574606e+02
   endloop
 endfacet
 facet normal  1.000000e+00  0.000000e+00 -0.000000e+00
   outer loop
     vertex  2.255000e+02  1.920000e+02  2.524803e+02
     vertex  2.255000e+02  1.926267e+02  2.574606e+02
     vertex  2.255000e+02  1.913733e+02  2.574606e+02
   endloop
 endfacet
 facet normal  1.000000e+00  0.000000e+00  0.000000e+00
   outer loop
     vertex  2.255000e+02  1.920000e+02  2.524803e+02
     vertex  2.255000e+02  1.913733e+02  2.574606e+02
     vertex  2.255000e+02  1.901594e+02  2.571489e+02
   endloop
 endfacet
 facet normal  1.000000e+00  0.000000e+00  0.000000e+00
   outer loop
     vertex  2.255000e+02  1.920000e+02  2.524803e+02
     vertex  2.255000e+02  1.901594e+02  2.571489e+02
     vertex  2.255000e+02  1.890611e+02  2.565451e+02
   endloop
 endfacet
 facet normal  1.000000e+00  0.000000e+00  0.000000e+00
   outer loop
     vertex  2.255000e+02  1.920000e+02  2.524803e+02
     vertex  2.255000e+02  1.890611e+02  2.565451e+02
     vertex  2.255000e+02  1.881474e+02  2.556871e+02
   endloop
 endfacet
 facet normal  1.000000e+00  0.000000e+00  0.000000e+00
   outer loop
     vertex  2.255000e+02  1.920000e+02  2.524803e+02
     vertex  2.255000e+02  1.881474e+02  2.556871e+02
     vertex  2.255000e+02  1.874759e+02  2.546289e+02
   endloop
 endfacet
 facet normal  1.000000e+00  0.000000e+00  0.000000e+00
   outer loop
     vertex  2.255000e+02  1.920000e+02  2.524803e+02
     vertex  2.255000e+02  1.874759e+02  2.546289e+02
     vertex  2.255000e+02  1.870886e+02  2.534369e+02
   endloop
 endfacet
 facet normal  1.000000e+00  0.000000e+00  0.000000e+00
   outer loop
     vertex  2.255000e+02  1.920000e+02  2.524803e+02
     vertex  2.255000e+02  1.870886e+02  2.534369e+02
     vertex  2.255000e+02  1.870099e+02  2.521860e+02
   endloop
 endfacet
 facet normal  1.000000e+00  0.000000e+00  0.000000e+00
   outer loop
     vertex  2.255000e+02  1.920000e+02  2.524803e+02
     vertex  2.255000e+02  1.870099e+02  2.521860e+02
     vertex  2.255000e+02  1.872447e+02  2.509549e+02
   endloop
 endfacet
 facet normal  1.000000e+00  0.000000e+00  0.000000e+00
   outer loop
     vertex  2.255000e+02  1.920000e+02  2.524803e+02
     vertex  2.255000e+02  1.872447e+02  2.509549e+02
     vertex  2.255000e+02  1.877784e+02  2.498209e+02
   endloop
 endfacet
 facet normal  1.000000e+00  0.000000e+00  0.000000e+00
   outer loop
     vertex  2.255000e+02  1.920000e+02  2.524803e+02
     vertex  2.255000e+02  1.877784e+02  2.498209e+02
     vertex  2.255000e+02  1.885773e+02  2.488552e+02
   endloop
 endfacet
 facet normal  1.000000e+00  0.000000e+00  0.000000e+00
   outer loop
     vertex  2.255000e+02  1.920000e+02  2.524803e+02
     vertex  2.255000e+02  1.885773e+02  2.488552e+02
     vertex  2.255000e+02  1.895912e+02  2.481185e+02
   endloop
 endfacet
 facet normal  1.000000e+00  0.000000e+00  0.000000e+00
   outer loop
     vertex  2.255000e+02  1.920000e+02  2.524803e+02
     vertex  2.255000e+02  1.895912e+02  2.481185e+02
     vertex  2.255000e+02  1.907566e+02  2.476571e+02
   endloop
 endfacet
 facet normal  1.000000e+00  0.000000e+00  0.000000e+00
   outer loop
     vertex  2.255000e+02  1.920000e+02  2.524803e+02
     vertex  2.255000e+02  1.907566e+02  2.476571e+02
     vertex  2.255000e+02  1.920000e+02  2.475000e+02
   endloop
 endfacet
 facet normal -1.000000e+00 -0.000000e+00  0.000000e+00
   outer loop
     vertex -2.255000e+02  1.932434e+02  2.476571e+02
     vertex -2.255000e+02  1.920000e+02  2.475000e+02
     vertex -2.255000e+02  1.920000e+02  2.524803e+02
   endloop
 endfacet
 facet normal -1.000000e+00 -0.000000e+00  0.000000e+00
   outer loop
     vertex -2.255000e+02  1.944088e+02  2.481185e+02
     vertex -2.255000e+02  1.932434e+02  2.476571e+02
     vertex -2.255000e+02  1.920000e+02  2.524803e+02
   endloop
 endfacet
 facet normal -1.000000e+00 -0.000000e+00  0.000000e+00
   outer loop
     vertex -2.255000e+02  1.954227e+02  2.488552e+02
     vertex -2.255000e+02  1.944088e+02  2.481185e+02
     vertex -2.255000e+02  1.920000e+02  2.524803e+02
   endloop
 endfacet
 facet normal -1.000000e+00 -0.000000e+00  0.000000e+00
   outer loop
     vertex -2.255000e+02  1.962216e+02  2.498209e+02
     vertex -2.255000e+02  1.954227e+02  2.488552e+02
     vertex -2.255000e+02  1.920000e+02  2.524803e+02
   endloop
 endfacet
 facet normal -1.000000e+00 -0.000000e+00  0.000000e+00
   outer loop
     vertex -2.255000e+02  1.967553e+02  2.509549e+02
     vertex -2.255000e+02  1.962216e+02  2.498209e+02
     vertex -2.255000e+02  1.920000e+02  2.524803e+02
   endloop
 endfacet
 facet normal -1.000000e+00 -0.000000e+00  0.000000e+00
   outer loop
     vertex -2.255000e+02  1.969901e+02  2.521860e+02
     vertex -2.255000e+02  1.967553e+02  2.509549e+02
     vertex -2.255000e+02  1.920000e+02  2.524803e+02
   endloop
 endfacet
 facet normal -1.000000e+00 -0.000000e+00 -0.000000e+00
   outer loop
     vertex -2.255000e+02  1.969114e+02  2.534369e+02
     vertex -2.255000e+02  1.969901e+02  2.521860e+02
     vertex -2.255000e+02  1.920000e+02  2.524803e+02
   endloop
 endfacet
 facet normal -1.000000e+00  0.000000e+00 -0.000000e+00
   outer loop
     vertex -2.255000e+02  1.965241e+02  2.546289e+02
     vertex -2.255000e+02  1.969114e+02  2.534369e+02
     vertex -2.255000e+02  1.920000e+02  2.524803e+02
   endloop
 endfacet
 facet normal -1.000000e+00  0.000000e+00 -0.000000e+00
   outer loop
     vertex -2.255000e+02  1.958526e+02  2.556871e+02
     vertex -2.255000e+02  1.965241e+02  2.546289e+02
     vertex -2.255000e+02  1.920000e+02  2.524803e+02
   endloop
 endfacet
 facet normal -1.000000e+00  0.000000e+00 -0.000000e+00
   outer loop
     vertex -2.255000e+02  1.949389e+02  2.565451e+02
     vertex -2.255000e+02  1.958526e+02  2.556871e+02
     vertex -2.255000e+02  1.920000e+02  2.524803e+02
   endloop
 endfacet
 facet normal -1.000000e+00  0.000000e+00 -0.000000e+00
   outer loop
     vertex -2.255000e+02  1.938406e+02  2.571489e+02
     vertex -2.255000e+02  1.949389e+02  2.565451e+02
     vertex -2.255000e+02  1.920000e+02  2.524803e+02
   endloop
 endfacet
 facet normal -1.000000e+00  0.000000e+00 -0.000000e+00
   outer loop
     vertex -2.255000e+02  1.926267e+02  2.574606e+02
     vertex -2.255000e+02  1.938406e+02  2.571489e+02
     vertex -2.255000e+02  1.920000e+02  2.524803e+02
   endloop
 endfacet
 facet normal -1.000000e+00  0.000000e+00 -0.000000e+00
   outer loop
     vertex -2.255000e+02  1.913733e+02  2.574606e+02
     vertex -2.255000e+02  1.926267e+02  2.574606e+02
     vertex -2.255000e+02  1.920000e+02  2.524803e+02
   endloop
 endfacet
 facet normal -1.000000e+00  0.000000e+00  0.000000e+00
   outer loop
     vertex -2.255000e+02  1.901594e+02  2.571489e+02
     vertex -2.255000e+02  1.913733e+02  2.574606e+02
     vertex -2.255000e+02  1.920000e+02  2.524803e+02
   endloop
 endfacet
 facet normal -1.000000e+00  0.000000e+00  0.000000e+00
   outer loop
     vertex -2.255000e+02  1.890611e+02  2.565451e+02
     vertex -2.255000e+02  1.901594e+02  2.571489e+02
     vertex -2.255000e+02  1.920000e+02  2.524803e+02
   endloop
 endfacet
 facet normal -1.000000e+00  0.000000e+00  0.000000e+00
   outer loop
     vertex -2.255000e+02  1.881474e+02  2.556871e+02
     vertex -2.255000e+02  1.890611e+02  2.565451e+02
     vertex -2.255000e+02  1.920000e+02  2.524803e+02
   endloop
 endfacet
 facet normal -1.000000e+00  0.000000e+00  0.000000e+00
   outer loop
     vertex -2.255000e+02  1.874759e+02  2.546289e+02
     vertex -2.255000e+02  1.881474e+02  2.556871e+02
     vertex -2.255000e+02  1.920000e+02  2.524803e+02
   endloop
 endfacet
 facet normal -1.000000e+00  0.000000e+00  0.000000e+00
   outer loop
     vertex -2.255000e+02  1.870886e+02  2.534369e+02
     vertex -2.255000e+02  1.874759e+02  2.546289e+02
     vertex -2.255000e+02  1.920000e+02  2.524803e+02
   endloop
 endfacet
 facet normal -1.000000e+00  0.000000e+00  0.000000e+00
   outer loop
     vertex -2.255000e+02  1.870099e+02  2.521860e+02
     vertex -2.255000e+02  1.870886e+02  2.534369e+02
     vertex -2.255000e+02  1.920000e+02  2.524803e+02
   endloop
 endfacet
 facet normal -1.000000e+00  0.000000e+00  0.000000e+00
   outer loop
     vertex -2.255000e+02  1.872447e+02  2.509549e+02
     vertex -2.255000e+02  1.870099e+02  2.521860e+02
     vertex -2.255000e+02  1.920000e+02  2.524803e+02
   endloop
 endfacet
 facet normal -1.000000e+00  0.000000e+00  0.000000e+00
   outer loop
     vertex -2.255000e+02  1.877784e+02  2.498209e+02
     vertex -2.255000e+02  1.872447e+02  2.509549e+02
     vertex -2.255000e+02  1.920000e+02  2.524803e+02
   endloop
 endfacet
 facet normal -1.000000e+00  0.000000e+00  0.000000e+00
   outer loop
     vertex -2.255000e+02  1.885773e+02  2.488552e+02
     vertex -2.255000e+02  1.877784e+02  2.498209e+02
     vertex -2.255000e+02  1.920000e+02  2.524803e+02
   endloop
 endfacet
 facet normal -1.000000e+00  0.000000e+00  0.000000e+00
   outer loop
     vertex -2.255000e+02  1.895912e+02  2.481185e+02
     vertex -2.255000e+02  1.885773e+02  2.488552e+02
     vertex -2.255000e+02  1.920000e+02  2.524803e+02
   endloop
 endfacet
 facet normal -1.000000e+00  0.000000e+00  0.000000e+00
   outer loop
     vertex -2.255000e+02  1.907566e+02  2.476571e+02
     vertex -2.255000e+02  1.895912e+02  2.481185e+02
     vertex -2.255000e+02  1.920000e+02  2.524803e+02
   endloop
 endfacet
 facet normal -1.000000e+00  0.000000e+00  0.000000e+00
   outer loop
     vertex -2.255000e+02  1.920000e+02  2.475000e+02
     vertex -2.255000e+02  1.907566e+02  2.476571e+02
     vertex -2.255000e+02  1.920000e+02  2.524803e+02
   endloop
 endfacet
 facet normal  1.178470e-17 -9.822873e-01 -1.873813e-01
   outer loop
     vertex  2.255000e+02 -1.542553e+02  2.509549e+02
     vertex -2.255000e+02 -1.544901e+02  2.521860e+02
     vertex -2.255000e+02 -1.542553e+02  2.509549e+02
   endloop
 endfacet
 facet normal  2.683232e-17 -9.048271e-01 -4.257793e-01
   outer loop
     vertex  2.255000e+02 -1.537216e+02  2.498209e+02
     vertex  2.255000e+02 -1.542553e+02  2.509549e+02
     vertex -2.255000e+02 -1.542553e+02  2.509549e+02
   endloop
 endfacet
 facet normal  5.362041e-17 -9.048271e-01 -4.257793e-01
   outer loop
     vertex  2.255000e+02 -1.537216e+02  2.498209e+02
     vertex -2.255000e+02 -1.542553e+02  2.509549e+02
     vertex -2.255000e+02 -1.537216e+02  2.498209e+02
   endloop
 endfacet
 facet normal  8.034004e-17 -7.705132e-01 -6.374240e-01
   outer loop
     vertex  2.255000e+02 -1.537216e+02  2.498209e+02
     vertex -2.255000e+02 -1.537216e+02  2.498209e+02
     vertex -2.255000e+02 -1.529227e+02  2.488552e+02
   endloop
 endfacet
 facet normal  8.033240e-17 -7.705132e-01 -6.374240e-01
   outer loop
     vertex  2.255000e+02 -1.529227e+02  2.488552e+02
     vertex  2.255000e+02 -1.537216e+02  2.498209e+02
     vertex -2.255000e+02 -1.529227e+02  2.488552e+02
   endloop
 endfacet
 facet normal  6.250804e-17  1.253332e-01 -9.921147e-01
   outer loop
     vertex  2.255000e+02 -1.482566e+02  2.476571e+02
     vertex -2.255000e+02 -1.495000e+02  2.475000e+02
     vertex -2.255000e+02 -1.482566e+02  2.476571e+02
   endloop
 endfacet
 facet normal  5.859387e-17  3.681246e-01 -9.297765e-01
   outer loop
     vertex  2.255000e+02 -1.482566e+02  2.476571e+02
     vertex -2.255000e+02 -1.482566e+02  2.476571e+02
     vertex -2.255000e+02 -1.470912e+02  2.481185e+02
   endloop
 endfacet
 facet normal  1.250448e-16  1.253332e-01 -9.921147e-01
   outer loop
     vertex  2.255000e+02 -1.482566e+02  2.476571e+02
     vertex  2.255000e+02 -1.495000e+02  2.475000e+02
     vertex -2.255000e+02 -1.495000e+02  2.475000e+02
   endloop
 endfacet
 facet normal  1.019674e-16 -5.877853e-01 -8.090170e-01
   outer loop
     vertex  2.255000e+02 -1.519088e+02  2.481185e+02
     vertex  2.255000e+02 -1.529227e+02  2.488552e+02
     vertex -2.255000e+02 -1.529227e+02  2.488552e+02
   endloop
 endfacet
 facet normal  1.019377e-16 -5.877853e-01 -8.090170e-01
   outer loop
     vertex  2.255000e+02 -1.519088e+02  2.481185e+02
     vertex -2.255000e+02 -1.529227e+02  2.488552e+02
     vertex -2.255000e+02 -1.519088e+02  2.481185e+02
   endloop
 endfacet
 facet normal  1.170614e-16  3.681246e-01 -9.297765e-01
   outer loop
     vertex  2.255000e+02 -1.470912e+02  2.481185e+02
     vertex  2.255000e+02 -1.482566e+02  2.476571e+02
     vertex -2.255000e+02 -1.470912e+02  2.481185e+02
   endloop
 endfacet
 facet normal  1.171877e-16 -3.681246e-01 -9.297765e-01
   outer loop
     vertex  2.255000e+02 -1.507434e+02  2.476571e+02
     vertex  2.255000e+02 -1.519088e+02  2.481185e+02
     vertex -2.255000e+02 -1.519088e+02  2.481185e+02
   endloop
 endfacet
 facet normal  5.853070e-17 -3.681246e-01 -9.297765e-01
   outer loop
     vertex  2.255000e+02 -1.507434e+02  2.476571e+02
     vertex -2.255000e+02 -1.519088e+02  2.481185e+02
     vertex -2.255000e+02 -1.507434e+02  2.476571e+02
   endloop
 endfacet
 facet normal  6.252239e-17 -1.253332e-01 -9.921147e-01
   outer loop
     vertex  2.255000e+02 -1.507434e+02  2.476571e+02
     vertex -2.255000e+02 -1.507434e+02  2.476571e+02
     vertex -2.255000e+02 -1.495000e+02  2.475000e+02
   endloop
 endfacet
 facet normal  5.087064e-17  5.877853e-01 -8.090170e-01
   outer loop
     vertex  2.255000e+02 -1.460773e+02  2.488552e+02
     vertex -2.255000e+02 -1.470912e+02  2.481185e+02
     vertex -2.255000e+02 -1.460773e+02  2.488552e+02
   endloop
 endfacet
 facet normal  1.019674e-16  5.877853e-01 -8.090170e-01
   outer loop
     vertex  2.255000e+02 -1.460773e+02  2.488552e+02
     vertex  2.255000e+02 -1.470912e+02  2.481185e+02
     vertex -2.255000e+02 -1.470912e+02  2.481185e+02
   endloop
 endfacet
 facet normal  1.250652e-16 -1.253332e-01 -9.921147e-01
   outer loop
     vertex  2.255000e+02 -1.495000e+02  2.475000e+02
     vertex  2.255000e+02 -1.507434e+02  2.476571e+02
     vertex -2.255000e+02 -1.495000e+02  2.475000e+02
   endloop
 endfacet
 facet normal  8.033240e-17  7.705132e-01 -6.374240e-01
   outer loop
     vertex  2.255000e+02 -1.452784e+02  2.498209e+02
     vertex -2.255000e+02 -1.460773e+02  2.488552e+02
     vertex -2.255000e+02 -1.452784e+02  2.498209e+02
   endloop
 endfacet
 facet normal  4.017002e-17  7.705132e-01 -6.374240e-01
   outer loop
     vertex  2.255000e+02 -1.452784e+02  2.498209e+02
     vertex  2.255000e+02 -1.460773e+02  2.488552e+02
     vertex -2.255000e+02 -1.460773e+02  2.488552e+02
   endloop
 endfacet
 facet normal  2.671200e-17  9.048271e-01 -4.257793e-01
   outer loop
     vertex  2.255000e+02 -1.447447e+02  2.509549e+02
     vertex -2.255000e+02 -1.452784e+02  2.498209e+02
     vertex -2.255000e+02 -1.447447e+02  2.509549e+02
   endloop
 endfacet
 facet normal  1.180864e-17  9.822873e-01 -1.873813e-01
   outer loop
     vertex  2.255000e+02 -1.447447e+02  2.509549e+02
     vertex -2.255000e+02 -1.447447e+02  2.509549e+02
     vertex -2.255000e+02 -1.445099e+02  2.521860e+02
   endloop
 endfacet
 facet normal  5.366464e-17  9.048271e-01 -4.257793e-01
   outer loop
     vertex  2.255000e+02 -1.447447e+02  2.509549e+02
     vertex  2.255000e+02 -1.452784e+02  2.498209e+02
     vertex -2.255000e+02 -1.452784e+02  2.498209e+02
   endloop
 endfacet
 facet normal  2.366761e-17  9.822873e-01 -1.873813e-01
   outer loop
     vertex  2.255000e+02 -1.445099e+02  2.521860e+02
     vertex  2.255000e+02 -1.447447e+02  2.509549e+02
     vertex -2.255000e+02 -1.445099e+02  2.521860e+02
   endloop
 endfacet
 facet normal -7.930124e-18  9.980267e-01  6.279052e-02
   outer loop
     vertex  2.255000e+02 -1.445886e+02  2.534369e+02
     vertex -2.255000e+02 -1.445099e+02  2.521860e+02
     vertex -2.255000e+02 -1.445886e+02  2.534369e+02
   endloop
 endfacet
 facet normal -3.894808e-17  9.510565e-01  3.090170e-01
   outer loop
     vertex  2.255000e+02 -1.445886e+02  2.534369e+02
     vertex -2.255000e+02 -1.445886e+02  2.534369e+02
     vertex -2.255000e+02 -1.449759e+02  2.546289e+02
   endloop
 endfacet
 facet normal -7.914031e-18  9.980267e-01  6.279052e-02
   outer loop
     vertex  2.255000e+02 -1.445886e+02  2.534369e+02
     vertex  2.255000e+02 -1.445099e+02  2.521860e+02
     vertex -2.255000e+02 -1.445099e+02  2.521860e+02
   endloop
 endfacet
 facet normal -3.888952e-17  9.510565e-01  3.090170e-01
   outer loop
     vertex  2.255000e+02 -1.449759e+02  2.546289e+02
     vertex  2.255000e+02 -1.445886e+02  2.534369e+02
     vertex -2.255000e+02 -1.449759e+02  2.546289e+02
   endloop
 endfacet
 facet normal -3.378282e-17  8.443279e-01  5.358268e-01
   outer loop
     vertex  2.255000e+02 -1.456474e+02  2.556871e+02
     vertex -2.255000e+02 -1.449759e+02  2.546289e+02
     vertex -2.255000e+02 -1.456474e+02  2.556871e+02
   endloop
 endfacet
 facet normal -4.593910e-17  6.845471e-01  7.289686e-01
   outer loop
     vertex  2.255000e+02 -1.456474e+02  2.556871e+02
     vertex -2.255000e+02 -1.456474e+02  2.556871e+02
     vertex -2.255000e+02 -1.465611e+02  2.565451e+02
   endloop
 endfacet
 facet normal -6.753487e-17  8.443279e-01  5.358268e-01
   outer loop
     vertex  2.255000e+02 -1.456474e+02  2.556871e+02
     vertex  2.255000e+02 -1.449759e+02  2.546289e+02
     vertex -2.255000e+02 -1.449759e+02  2.546289e+02
   endloop
 endfacet
 facet normal  0.000000e+00  4.817537e-01  8.763067e-01
   outer loop
     vertex  2.255000e+02 -1.465611e+02  2.565451e+02
     vertex -2.255000e+02 -1.465611e+02  2.565451e+02
     vertex -2.255000e+02 -1.476594e+02  2.571489e+02
   endloop
 endfacet
 facet normal  0.000000e+00  6.845471e-01  7.289686e-01
   outer loop
     vertex  2.255000e+02 -1.465611e+02  2.565451e+02
     vertex  2.255000e+02 -1.456474e+02  2.556871e+02
     vertex -2.255000e+02 -1.465611e+02  2.565451e+02
   endloop
 endfacet
 facet normal -2.441578e-16  2.486899e-01  9.685832e-01
   outer loop
     vertex  2.255000e+02 -1.476594e+02  2.571489e+02
     vertex -2.255000e+02 -1.476594e+02  2.571489e+02
     vertex -2.255000e+02 -1.488733e+02  2.574606e+02
   endloop
 endfacet
 facet normal -2.209632e-16  4.817537e-01  8.763067e-01
   outer loop
     vertex  2.255000e+02 -1.476594e+02  2.571489e+02
     vertex  2.255000e+02 -1.465611e+02  2.565451e+02
     vertex -2.255000e+02 -1.476594e+02  2.571489e+02
   endloop
 endfacet
 facet normal -1.220699e-16  2.486899e-01  9.685832e-01
   outer loop
     vertex  2.255000e+02 -1.488733e+02  2.574606e+02
     vertex  2.255000e+02 -1.476594e+02  2.571489e+02
     vertex -2.255000e+02 -1.488733e+02  2.574606e+02
   endloop
 endfacet
 facet normal -1.260386e-16  0.000000e+00  1.000000e+00
   outer loop
     vertex  2.255000e+02 -1.501267e+02  2.574606e+02
     vertex  2.255000e+02 -1.488733e+02  2.574606e+02
     vertex -2.255000e+02 -1.488733e+02  2.574606e+02
   endloop
 endfacet
 facet normal -1.260386e-16  0.000000e+00  1.000000e+00
   outer loop
     vertex  2.255000e+02 -1.501267e+02  2.574606e+02
     vertex -2.255000e+02 -1.488733e+02  2.574606e+02
     vertex -2.255000e+02 -1.501267e+02  2.574606e+02
   endloop
 endfacet
 facet normal -1.220789e-16 -2.486899e-01  9.685832e-01
   outer loop
     vertex  2.255000e+02 -1.501267e+02  2.574606e+02
     vertex -2.255000e+02 -1.501267e+02  2.574606e+02
     vertex -2.255000e+02 -1.513406e+02  2.571489e+02
   endloop
 endfacet
 facet normal -2.441398e-16 -2.486899e-01  9.685832e-01
   outer loop
     vertex  2.255000e+02 -1.513406e+02  2.571489e+02
     vertex  2.255000e+02 -1.501267e+02  2.574606e+02
     vertex -2.255000e+02 -1.513406e+02  2.571489e+02
   endloop
 endfacet
 facet normal -2.208970e-16 -4.817537e-01  8.763067e-01
   outer loop
     vertex  2.255000e+02 -1.513406e+02  2.571489e+02
     vertex -2.255000e+02 -1.513406e+02  2.571489e+02
     vertex -2.255000e+02 -1.524389e+02  2.565451e+02
   endloop
 endfacet
 facet normal -1.105798e-16 -4.817537e-01  8.763067e-01
   outer loop
     vertex  2.255000e+02 -1.524389e+02  2.565451e+02
     vertex  2.255000e+02 -1.513406e+02  2.571489e+02
     vertex -2.255000e+02 -1.524389e+02  2.565451e+02
   endloop
 endfacet
 facet normal -9.187820e-17 -6.845471e-01  7.289686e-01
   outer loop
     vertex  2.255000e+02 -1.533526e+02  2.556871e+02
     vertex  2.255000e+02 -1.524389e+02  2.565451e+02
     vertex -2.255000e+02 -1.524389e+02  2.565451e+02
   endloop
 endfacet
 facet normal -9.192069e-17 -6.845471e-01  7.289686e-01
   outer loop
     vertex  2.255000e+02 -1.533526e+02  2.556871e+02
     vertex -2.255000e+02 -1.524389e+02  2.565451e+02
     vertex -2.255000e+02 -1.533526e+02  2.556871e+02
   endloop
 endfacet
 facet normal -6.753487e-17 -8.443279e-01  5.358268e-01
   outer loop
     vertex  2.255000e+02 -1.533526e+02  2.556871e+02
     vertex -2.255000e+02 -1.533526e+02  2.556871e+02
     vertex -2.255000e+02 -1.540241e+02  2.546289e+02
   endloop
 endfacet
 facet normal -6.756564e-17 -8.443279e-01  5.358268e-01
   outer loop
     vertex  2.255000e+02 -1.540241e+02  2.546289e+02
     vertex  2.255000e+02 -1.533526e+02  2.556871e+02
     vertex -2.255000e+02 -1.540241e+02  2.546289e+02
   endloop
 endfacet
 facet normal -3.894808e-17 -9.510565e-01  3.090170e-01
   outer loop
     vertex  2.255000e+02 -1.544114e+02  2.534369e+02
     vertex  2.255000e+02 -1.540241e+02  2.546289e+02
     vertex -2.255000e+02 -1.540241e+02  2.546289e+02
   endloop
 endfacet
 facet normal -3.888952e-17 -9.510565e-01  3.090170e-01
   outer loop
     vertex  2.255000e+02 -1.544114e+02  2.534369e+02
     vertex -2.255000e+02 -1.540241e+02  2.546289e+02
     vertex -2.255000e+02 -1.544114e+02  2.534369e+02
   endloop
 endfacet
 facet normal -7.914031e-18 -9.980267e-01  6.279052e-02
   outer loop
     vertex  2.255000e+02 -1.544114e+02  2.534369e+02
     vertex -2.255000e+02 -1.544114e+02  2.534369e+02
     vertex -2.255000e+02 -1.544901e+02  2.521860e+02
   endloop
 endfacet
 facet normal -7.930124e-18 -9.980267e-01  6.279052e-02
   outer loop
     vertex  2.255000e+02 -1.544901e+02  2.521860e+02
     vertex  2.255000e+02 -1.544114e+02  2.534369e+02
     vertex -2.255000e+02 -1.544901e+02  2.521860e+02
   endloop
 endfacet
 facet normal  2.361728e-17 -9.822873e-01 -1.873813e-01
   outer loop
     vertex  2.255000e+02 -1.542553e+02  2.509549e+02
     vertex  2.255000e+02 -1.544901e+02  2.521860e+02
     vertex -2.255000e+02 -1.544901e+02  2.521860e+02
   endloop
 endfacet
 facet normal  1.000000e+00 -0.000000e+00  0.000000e+00
   outer loop
     vertex  2.255000e+02 -1.495000e+02  2.524803e+02
     vertex  2.255000e+02 -1.495000e+02  2.475000e+02
     vertex  2.255000e+02 -1.482566e+02  2.476571e+02
   endloop
 endfacet
 facet normal  1.000000e+00 -0.000000e+00  0.000000e+00
   outer loop
     vertex  2.255000e+02 -1.495000e+02  2.524803e+02
     vertex  2.255000e+02 -1.482566e+02  2.476571e+02
     vertex  2.255000e+02 -1.470912e+02  2.481185e+02
   endloop
 endfacet
 facet normal  1.000000e+00 -0.000000e+00  0.000000e+00
   outer loop
     vertex  2.255000e+02 -1.495000e+02  2.524803e+02
     vertex  2.255000e+02 -1.470912e+02  2.481185e+02
     vertex  2.255000e+02 -1.460773e+02  2.488552e+02
   endloop
 endfacet
 facet normal  1.000000e+00 -0.000000e+00  0.000000e+00
   outer loop
     vertex  2.255000e+02 -1.495000e+02  2.524803e+02
     vertex  2.255000e+02 -1.460773e+02  2.488552e+02
     vertex  2.255000e+02 -1.452784e+02  2.498209e+02
   endloop
 endfacet
 facet normal  1.000000e+00 -0.000000e+00  0.000000e+00
   outer loop
     vertex  2.255000e+02 -1.495000e+02  2.524803e+02
     vertex  2.255000e+02 -1.452784e+02  2.498209e+02
     vertex  2.255000e+02 -1.447447e+02  2.509549e+02
   endloop
 endfacet
 facet normal  1.000000e+00 -0.000000e+00  0.000000e+00
   outer loop
     vertex  2.255000e+02 -1.495000e+02  2.524803e+02
     vertex  2.255000e+02 -1.447447e+02  2.509549e+02
     vertex  2.255000e+02 -1.445099e+02  2.521860e+02
   endloop
 endfacet
 facet normal  1.000000e+00 -0.000000e+00 -0.000000e+00
   outer loop
     vertex  2.255000e+02 -1.495000e+02  2.524803e+02
     vertex  2.255000e+02 -1.445099e+02  2.521860e+02
     vertex  2.255000e+02 -1.445886e+02  2.534369e+02
   endloop
 endfacet
 facet normal  1.000000e+00  0.000000e+00 -0.000000e+00
   outer loop
     vertex  2.255000e+02 -1.495000e+02  2.524803e+02
     vertex  2.255000e+02 -1.445886e+02  2.534369e+02
     vertex  2.255000e+02 -1.449759e+02  2.546289e+02
   endloop
 endfacet
 facet normal  1.000000e+00  0.000000e+00 -0.000000e+00
   outer loop
     vertex  2.255000e+02 -1.495000e+02  2.524803e+02
     vertex  2.255000e+02 -1.449759e+02  2.546289e+02
     vertex  2.255000e+02 -1.456474e+02  2.556871e+02
   endloop
 endfacet
 facet normal  1.000000e+00  0.000000e+00 -0.000000e+00
   outer loop
     vertex  2.255000e+02 -1.495000e+02  2.524803e+02
     vertex  2.255000e+02 -1.456474e+02  2.556871e+02
     vertex  2.255000e+02 -1.465611e+02  2.565451e+02
   endloop
 endfacet
 facet normal  1.000000e+00  0.000000e+00 -0.000000e+00
   outer loop
     vertex  2.255000e+02 -1.495000e+02  2.524803e+02
     vertex  2.255000e+02 -1.465611e+02  2.565451e+02
     vertex  2.255000e+02 -1.476594e+02  2.571489e+02
   endloop
 endfacet
 facet normal  1.000000e+00  0.000000e+00 -0.000000e+00
   outer loop
     vertex  2.255000e+02 -1.495000e+02  2.524803e+02
     vertex  2.255000e+02 -1.476594e+02  2.571489e+02
     vertex  2.255000e+02 -1.488733e+02  2.574606e+02
   endloop
 endfacet
 facet normal  1.000000e+00  0.000000e+00 -0.000000e+00
   outer loop
     vertex  2.255000e+02 -1.495000e+02  2.524803e+02
     vertex  2.255000e+02 -1.488733e+02  2.574606e+02
     vertex  2.255000e+02 -1.501267e+02  2.574606e+02
   endloop
 endfacet
 facet normal  1.000000e+00  0.000000e+00  0.000000e+00
   outer loop
     vertex  2.255000e+02 -1.495000e+02  2.524803e+02
     vertex  2.255000e+02 -1.501267e+02  2.574606e+02
     vertex  2.255000e+02 -1.513406e+02  2.571489e+02
   endloop
 endfacet
 facet normal  1.000000e+00  0.000000e+00  0.000000e+00
   outer loop
     vertex  2.255000e+02 -1.495000e+02  2.524803e+02
     vertex  2.255000e+02 -1.513406e+02  2.571489e+02
     vertex  2.255000e+02 -1.524389e+02  2.565451e+02
   endloop
 endfacet
 facet normal  1.000000e+00  0.000000e+00  0.000000e+00
   outer loop
     vertex  2.255000e+02 -1.495000e+02  2.524803e+02
     vertex  2.255000e+02 -1.524389e+02  2.565451e+02
     vertex  2.255000e+02 -1.533526e+02  2.556871e+02
   endloop
 endfacet
 facet normal  1.000000e+00  0.000000e+00  0.000000e+00
   outer loop
     vertex  2.255000e+02 -1.495000e+02  2.524803e+02
     vertex  2.255000e+02 -1.533526e+02  2.556871e+02
     vertex  2.255000e+02 -1.540241e+02  2.546289e+02
   endloop
 endfacet
 facet normal  1.000000e+00  0.000000e+00  0.000000e+00
   outer loop
     vertex  2.255000e+02 -1.495000e+02  2.524803e+02
     vertex  2.255000e+02 -1.540241e+02  2.546289e+02
     vertex  2.255000e+02 -1.544114e+02  2.534369e+02
   endloop
 endfacet
 facet normal  1.000000e+00  0.000000e+00  0.000000e+00
   outer loop
     vertex  2.255000e+02 -1.495000e+02  2.524803e+02
     vertex  2.255000e+02 -1.544114e+02  2.534369e+02
     vertex  2.255000e+02 -1.544901e+02  2.521860e+02
   endloop
 endfacet
 facet normal  1.000000e+00  0.000000e+00  0.000000e+00
   outer loop
     vertex  2.255000e+02 -1.495000e+02  2.524803e+02
     vertex  2.255000e+02 -1.544901e+02  2.521860e+02
     vertex  2.255000e+02 -1.542553e+02  2.509549e+02
   endloop
 endfacet
 facet normal  1.000000e+00  0.000000e+00  0.000000e+00
   outer loop
     vertex  2.255000e+02 -1.495000e+02  2.524803e+02
     vertex  2.255000e+02 -1.542553e+02  2.509549e+02
     vertex  2.255000e+02 -1.537216e+02  2.498209e+02
   endloop
 endfacet
 facet normal  1.000000e+00  0.000000e+00  0.000000e+00
   outer loop
     vertex  2.255000e+02 -1.495000e+02  2.524803e+02
     vertex  2.255000e+02 -1.537216e+02  2.498209e+02
     vertex  2.255000e+02 -1.529227e+02  2.488552e+02
   endloop
 endfacet
 facet normal  1.000000e+00  0.000000e+00  0.000000e+00
   outer loop
     vertex  2.255000e+02 -1.495000e+02  2.524803e+02
     vertex  2.255000e+02 -1.529227e+02  2.488552e+02
     vertex  2.255000e+02 -1.519088e+02  2.481185e+02
   endloop
 endfacet
 facet normal  1.000000e+00  0.000000e+00  0.000000e+00
   outer loop
     vertex  2.255000e+02 -1.495000e+02  2.524803e+02
     vertex  2.255000e+02 -1.519088e+02  2.481185e+02
     vertex  2.255000e+02 -1.507434e+02  2.476571e+02
   endloop
 endfacet
 facet normal  1.000000e+00  0.000000e+00  0.000000e+00
   outer loop
     vertex  2.255000e+02 -1.495000e+02  2.524803e+02
     vertex  2.255000e+02 -1.507434e+02  2.476571e+02
     vertex  2.255000e+02 -1.495000e+02  2.475000e+02
   endloop
 endfacet
 facet normal -1.000000e+00 -0.000000e+00  0.000000e+00
   outer loop
     vertex -2.255000e+02 -1.482566e+02  2.476571e+02
     vertex -2.255000e+02 -1.495000e+02  2.475000e+02
     vertex -2.255000e+02 -1.495000e+02  2.524803e+02
   endloop
 endfacet
 facet normal -1.000000e+00 -0.000000e+00  0.000000e+00
   outer loop
     vertex -2.255000e+02 -1.470912e+02  2.481185e+02
     vertex -2.255000e+02 -1.482566e+02  2.476571e+02
     vertex -2.255000e+02 -1.495000e+02  2.524803e+02
   endloop
 endfacet
 facet normal -1.000000e+00 -0.000000e+00  0.000000e+00
   outer loop
     vertex -2.255000e+02 -1.460773e+02  2.488552e+02
     vertex -2.255000e+02 -1.470912e+02  2.481185e+02
     vertex -2.255000e+02 -1.495000e+02  2.524803e+02
   endloop
 endfacet
 facet normal -1.000000e+00 -0.000000e+00  0.000000e+00
   outer loop
     vertex -2.255000e+02 -1.452784e+02  2.498209e+02
     vertex -2.255000e+02 -1.460773e+02  2.488552e+02
     vertex -2.255000e+02 -1.495000e+02  2.524803e+02
   endloop
 endfacet
 facet normal -1.000000e+00 -0.000000e+00  0.000000e+00
   outer loop
     vertex -2.255000e+02 -1.447447e+02  2.509549e+02
     vertex -2.255000e+02 -1.452784e+02  2.498209e+02
     vertex -2.255000e+02 -1.495000e+02  2.524803e+02
   endloop
 endfacet
 facet normal -1.000000e+00 -0.000000e+00  0.000000e+00
   outer loop
     vertex -2.255000e+02 -1.445099e+02  2.521860e+02
     vertex -2.255000e+02 -1.447447e+02  2.509549e+02
     vertex -2.255000e+02 -1.495000e+02  2.524803e+02
   endloop
 endfacet
 facet normal -1.000000e+00 -0.000000e+00 -0.000000e+00
   outer loop
     vertex -2.255000e+02 -1.445886e+02  2.534369e+02
     vertex -2.255000e+02 -1.445099e+02  2.521860e+02
     vertex -2.255000e+02 -1.495000e+02  2.524803e+02
   endloop
 endfacet
 facet normal -1.000000e+00  0.000000e+00 -0.000000e+00
   outer loop
     vertex -2.255000e+02 -1.449759e+02  2.546289e+02
     vertex -2.255000e+02 -1.445886e+02  2.534369e+02
     vertex -2.255000e+02 -1.495000e+02  2.524803e+02
   endloop
 endfacet
 facet normal -1.000000e+00  0.000000e+00 -0.000000e+00
   outer loop
     vertex -2.255000e+02 -1.456474e+02  2.556871e+02
     vertex -2.255000e+02 -1.449759e+02  2.546289e+02
     vertex -2.255000e+02 -1.495000e+02  2.524803e+02
   endloop
 endfacet
 facet normal -1.000000e+00  0.000000e+00 -0.000000e+00
   outer loop
     vertex -2.255000e+02 -1.465611e+02  2.565451e+02
     vertex -2.255000e+02 -1.456474e+02  2.556871e+02
     vertex -2.255000e+02 -1.495000e+02  2.524803e+02
   endloop
 endfacet
 facet normal -1.000000e+00  0.000000e+00 -0.000000e+00
   outer loop
     vertex -2.255000e+02 -1.476594e+02  2.571489e+02
     vertex -2.255000e+02 -1.465611e+02  2.565451e+02
     vertex -2.255000e+02 -1.495000e+02  2.524803e+02
   endloop
 endfacet
 facet normal -1.000000e+00  0.000000e+00 -0.000000e+00
   outer loop
     vertex -2.255000e+02 -1.488733e+02  2.574606e+02
     vertex -2.255000e+02 -1.476594e+02  2.571489e+02
     vertex -2.255000e+02 -1.495000e+02  2.524803e+02
   endloop
 endfacet
 facet normal -1.000000e+00  0.000000e+00 -0.000000e+00
   outer loop
     vertex -2.255000e+02 -1.501267e+02  2.574606e+02
     vertex -2.255000e+02 -1.488733e+02  2.574606e+02
     vertex -2.255000e+02 -1.495000e+02  2.524803e+02
   endloop
 endfacet
 facet normal -1.000000e+00  0.000000e+00  0.000000e+00
   outer loop
     vertex -2.255000e+02 -1.513406e+02  2.571489e+02
     vertex -2.255000e+02 -1.501267e+02  2.574606e+02
     vertex -2.255000e+02 -1.495000e+02  2.524803e+02
   endloop
 endfacet
 facet normal -1.000000e+00  0.000000e+00  0.000000e+00
   outer loop
     vertex -2.255000e+02 -1.524389e+02  2.565451e+02
     vertex -2.255000e+02 -1.513406e+02  2.571489e+02
     vertex -2.255000e+02 -1.495000e+02  2.524803e+02
   endloop
 endfacet
 facet normal -1.000000e+00  0.000000e+00  0.000000e+00
   outer loop
     vertex -2.255000e+02 -1.533526e+02  2.556871e+02
     vertex -2.255000e+02 -1.524389e+02  2.565451e+02
     vertex -2.255000e+02 -1.495000e+02  2.524803e+02
   endloop
 endfacet
 facet normal -1.000000e+00  0.000000e+00  0.000000e+00
   outer loop
     vertex -2.255000e+02 -1.540241e+02  2.546289e+02
     vertex -2.255000e+02 -1.533526e+02  2.556871e+02
     vertex -2.255000e+02 -1.495000e+02  2.524803e+02
   endloop
 endfacet
 facet normal -1.000000e+00  0.000000e+00  0.000000e+00
   outer loop
     vertex -2.255000e+02 -1.544114e+02  2.534369e+02
     vertex -2.255000e+02 -1.540241e+02  2.546289e+02
     vertex -2.255000e+02 -1.495000e+02  2.524803e+02
   endloop
 endfacet
 facet normal -1.000000e+00  0.000000e+00  0.000000e+00
   outer loop
     vertex -2.255000e+02 -1.544901e+02  2.521860e+02
     vertex -2.255000e+02 -1.544114e+02  2.534369e+02
     vertex -2.255000e+02 -1.495000e+02  2.524803e+02
   endloop
 endfacet
 facet normal -1.000000e+00  0.000000e+00  0.000000e+00
   outer loop
     vertex -2.255000e+02 -1.542553e+02  2.509549e+02
     vertex -2.255000e+02 -1.544901e+02  2.521860e+02
     vertex -2.255000e+02 -1.495000e+02  2.524803e+02
   endloop
 endfacet
 facet normal -1.000000e+00  0.000000e+00  0.000000e+00
   outer loop
     vertex -2.255000e+02 -1.537216e+02  2.498209e+02
     vertex -2.255000e+02 -1.542553e+02  2.509549e+02
     vertex -2.255000e+02 -1.495000e+02  2.524803e+02
   endloop
 endfacet
 facet normal -1.000000e+00  0.000000e+00  0.000000e+00
   outer loop
     vertex -2.255000e+02 -1.529227e+02  2.488552e+02
     vertex -2.255000e+02 -1.537216e+02  2.498209e+02
     vertex -2.255000e+02 -1.495000e+02  2.524803e+02
   endloop
 endfacet
 facet normal -1.000000e+00  0.000000e+00  0.000000e+00
   outer loop
     vertex -2.255000e+02 -1.519088e+02  2.481185e+02
     vertex -2.255000e+02 -1.529227e+02  2.488552e+02
     vertex -2.255000e+02 -1.495000e+02  2.524803e+02
   endloop
 endfacet
 facet normal -1.000000e+00  0.000000e+00  0.000000e+00
   outer loop
     vertex -2.255000e+02 -1.507434e+02  2.476571e+02
     vertex -2.255000e+02 -1.519088e+02  2.481185e+02
     vertex -2.255000e+02 -1.495000e+02  2.524803e+02
   endloop
 endfacet
 facet normal -1.000000e+00  0.000000e+00  0.000000e+00
   outer loop
     vertex -2.255000e+02 -1.495000e+02  2.475000e+02
     vertex -2.255000e+02 -1.507434e+02  2.476571e+02
     vertex -2.255000e+02 -1.495000e+02  2.524803e+02
   endloop
 endfacet
endsolid
