solid
 facet normal  9.987165e-01  5.064917e-02  0.000000e+00
   outer loop
     vertex -1.680000e+02 -2.449294e-15 -5.450000e+01
     vertex -1.680000e+02 -2.449294e-15 -7.950000e+01
     vertex -1.680513e+02  1.011683e+00 -7.950000e+01
   endloop
 endfacet
 facet normal  9.987165e-01  5.064917e-02  0.000000e+00
   outer loop
     vertex -1.680513e+02  1.011683e+00 -5.450000e+01
     vertex -1.680000e+02 -2.449294e-15 -5.450000e+01
     vertex -1.680513e+02  1.011683e+00 -7.950000e+01
   endloop
 endfacet
 facet normal  9.884683e-01  1.514278e-01  0.000000e+00
   outer loop
     vertex -1.682047e+02  2.012985e+00 -5.450000e+01
     vertex -1.680513e+02  1.011683e+00 -5.450000e+01
     vertex -1.680513e+02  1.011683e+00 -7.950000e+01
   endloop
 endfacet
 facet normal  9.884683e-01  1.514278e-01  0.000000e+00
   outer loop
     vertex -1.682047e+02  2.012985e+00 -5.450000e+01
     vertex -1.680513e+02  1.011683e+00 -7.950000e+01
     vertex -1.682047e+02  2.012985e+00 -7.950000e+01
   endloop
 endfacet
 facet normal  9.680771e-01  2.506525e-01  0.000000e+00
   outer loop
     vertex -1.682047e+02  2.012985e+00 -5.450000e+01
     vertex -1.682047e+02  2.012985e+00 -7.950000e+01
     vertex -1.684586e+02  2.993631e+00 -7.950000e+01
   endloop
 endfacet
 facet normal  9.680771e-01  2.506525e-01  0.000000e+00
   outer loop
     vertex -1.684586e+02  2.993631e+00 -5.450000e+01
     vertex -1.682047e+02  2.012985e+00 -5.450000e+01
     vertex -1.684586e+02  2.993631e+00 -7.950000e+01
   endloop
 endfacet
 facet normal  9.377521e-01  3.473053e-01  0.000000e+00
   outer loop
     vertex -1.684586e+02  2.993631e+00 -5.450000e+01
     vertex -1.684586e+02  2.993631e+00 -7.950000e+01
     vertex -1.688104e+02  3.943559e+00 -7.950000e+01
   endloop
 endfacet
 facet normal  9.377521e-01  3.473053e-01  0.000000e+00
   outer loop
     vertex -1.688104e+02  3.943559e+00 -5.450000e+01
     vertex -1.684586e+02  2.993631e+00 -5.450000e+01
     vertex -1.688104e+02  3.943559e+00 -7.950000e+01
   endloop
 endfacet
 facet normal  8.978045e-01  4.403942e-01  0.000000e+00
   outer loop
     vertex -1.692565e+02  4.853020e+00 -5.450000e+01
     vertex -1.688104e+02  3.943559e+00 -5.450000e+01
     vertex -1.688104e+02  3.943559e+00 -7.950000e+01
   endloop
 endfacet
 facet normal  8.978045e-01  4.403942e-01  0.000000e+00
   outer loop
     vertex -1.692565e+02  4.853020e+00 -5.450000e+01
     vertex -1.688104e+02  3.943559e+00 -7.950000e+01
     vertex -1.692565e+02  4.853020e+00 -7.950000e+01
   endloop
 endfacet
 facet normal  8.486443e-01  5.289640e-01  0.000000e+00
   outer loop
     vertex -1.697924e+02  5.712682e+00 -5.450000e+01
     vertex -1.692565e+02  4.853020e+00 -5.450000e+01
     vertex -1.692565e+02  4.853020e+00 -7.950000e+01
   endloop
 endfacet
 facet normal  8.486443e-01  5.289640e-01  0.000000e+00
   outer loop
     vertex -1.697924e+02  5.712682e+00 -5.450000e+01
     vertex -1.692565e+02  4.853020e+00 -7.950000e+01
     vertex -1.697924e+02  5.712682e+00 -7.950000e+01
   endloop
 endfacet
 facet normal  7.907757e-01  6.121060e-01  0.000000e+00
   outer loop
     vertex -1.704124e+02  6.513725e+00 -5.450000e+01
     vertex -1.697924e+02  5.712682e+00 -5.450000e+01
     vertex -1.697924e+02  5.712682e+00 -7.950000e+01
   endloop
 endfacet
 facet normal  7.907757e-01  6.121060e-01  0.000000e+00
   outer loop
     vertex -1.704124e+02  6.513725e+00 -5.450000e+01
     vertex -1.697924e+02  5.712682e+00 -7.950000e+01
     vertex -1.704124e+02  6.513725e+00 -7.950000e+01
   endloop
 endfacet
 facet normal  7.247928e-01  6.889669e-01  0.000000e+00
   outer loop
     vertex -1.711103e+02  7.247928e+00 -5.450000e+01
     vertex -1.704124e+02  6.513725e+00 -5.450000e+01
     vertex -1.704124e+02  6.513725e+00 -7.950000e+01
   endloop
 endfacet
 facet normal  7.247928e-01  6.889669e-01  0.000000e+00
   outer loop
     vertex -1.711103e+02  7.247928e+00 -5.450000e+01
     vertex -1.704124e+02  6.513725e+00 -7.950000e+01
     vertex -1.711103e+02  7.247928e+00 -7.950000e+01
   endloop
 endfacet
 facet normal  6.513725e-01  7.587581e-01  0.000000e+00
   outer loop
     vertex -1.711103e+02  7.247928e+00 -5.450000e+01
     vertex -1.711103e+02  7.247928e+00 -7.950000e+01
     vertex -1.718789e+02  7.907757e+00 -7.950000e+01
   endloop
 endfacet
 facet normal  6.513725e-01  7.587581e-01  0.000000e+00
   outer loop
     vertex -1.718789e+02  7.907757e+00 -5.450000e+01
     vertex -1.711103e+02  7.247928e+00 -5.450000e+01
     vertex -1.718789e+02  7.907757e+00 -7.950000e+01
   endloop
 endfacet
 facet normal  5.712682e-01  8.207634e-01  0.000000e+00
   outer loop
     vertex -1.727104e+02  8.486443e+00 -5.450000e+01
     vertex -1.718789e+02  7.907757e+00 -5.450000e+01
     vertex -1.718789e+02  7.907757e+00 -7.950000e+01
   endloop
 endfacet
 facet normal  5.712682e-01  8.207634e-01  0.000000e+00
   outer loop
     vertex -1.727104e+02  8.486443e+00 -5.450000e+01
     vertex -1.718789e+02  7.907757e+00 -7.950000e+01
     vertex -1.727104e+02  8.486443e+00 -7.950000e+01
   endloop
 endfacet
 facet normal  4.853020e-01  8.743466e-01  0.000000e+00
   outer loop
     vertex -1.727104e+02  8.486443e+00 -5.450000e+01
     vertex -1.727104e+02  8.486443e+00 -7.950000e+01
     vertex -1.735961e+02  8.978045e+00 -7.950000e+01
   endloop
 endfacet
 facet normal  4.853020e-01  8.743466e-01  0.000000e+00
   outer loop
     vertex -1.735961e+02  8.978045e+00 -5.450000e+01
     vertex -1.727104e+02  8.486443e+00 -5.450000e+01
     vertex -1.735961e+02  8.978045e+00 -7.950000e+01
   endloop
 endfacet
 facet normal  3.943559e-01  9.189578e-01  0.000000e+00
   outer loop
     vertex -1.745269e+02  9.377521e+00 -5.450000e+01
     vertex -1.735961e+02  8.978045e+00 -7.950000e+01
     vertex -1.745269e+02  9.377521e+00 -7.950000e+01
   endloop
 endfacet
 facet normal  3.943559e-01  9.189578e-01  0.000000e+00
   outer loop
     vertex -1.745269e+02  9.377521e+00 -5.450000e+01
     vertex -1.735961e+02  8.978045e+00 -5.450000e+01
     vertex -1.735961e+02  8.978045e+00 -7.950000e+01
   endloop
 endfacet
 facet normal  2.993631e-01  9.541393e-01  0.000000e+00
   outer loop
     vertex -1.754935e+02  9.680771e+00 -5.450000e+01
     vertex -1.745269e+02  9.377521e+00 -7.950000e+01
     vertex -1.754935e+02  9.680771e+00 -7.950000e+01
   endloop
 endfacet
 facet normal  2.012985e-01  9.795299e-01  0.000000e+00
   outer loop
     vertex -1.754935e+02  9.680771e+00 -5.450000e+01
     vertex -1.754935e+02  9.680771e+00 -7.950000e+01
     vertex -1.764857e+02  9.884683e+00 -7.950000e+01
   endloop
 endfacet
 facet normal  2.993631e-01  9.541393e-01  0.000000e+00
   outer loop
     vertex -1.754935e+02  9.680771e+00 -5.450000e+01
     vertex -1.745269e+02  9.377521e+00 -5.450000e+01
     vertex -1.745269e+02  9.377521e+00 -7.950000e+01
   endloop
 endfacet
 facet normal  2.012985e-01  9.795299e-01  0.000000e+00
   outer loop
     vertex -1.764857e+02  9.884683e+00 -5.450000e+01
     vertex -1.754935e+02  9.680771e+00 -5.450000e+01
     vertex -1.764857e+02  9.884683e+00 -7.950000e+01
   endloop
 endfacet
 facet normal  1.011683e-01  9.948693e-01  0.000000e+00
   outer loop
     vertex -1.774935e+02  9.987165e+00 -5.450000e+01
     vertex -1.764857e+02  9.884683e+00 -7.950000e+01
     vertex -1.774935e+02  9.987165e+00 -7.950000e+01
   endloop
 endfacet
 facet normal  0.000000e+00  1.000000e+00  0.000000e+00
   outer loop
     vertex -1.774935e+02  9.987165e+00 -5.450000e+01
     vertex -1.774935e+02  9.987165e+00 -7.950000e+01
     vertex -1.785065e+02  9.987165e+00 -7.950000e+01
   endloop
 endfacet
 facet normal  1.011683e-01  9.948693e-01  0.000000e+00
   outer loop
     vertex -1.774935e+02  9.987165e+00 -5.450000e+01
     vertex -1.764857e+02  9.884683e+00 -5.450000e+01
     vertex -1.764857e+02  9.884683e+00 -7.950000e+01
   endloop
 endfacet
 facet normal -0.000000e+00  1.000000e+00  0.000000e+00
   outer loop
     vertex -1.785065e+02  9.987165e+00 -5.450000e+01
     vertex -1.774935e+02  9.987165e+00 -5.450000e+01
     vertex -1.785065e+02  9.987165e+00 -7.950000e+01
   endloop
 endfacet
 facet normal -1.011683e-01  9.948693e-01  0.000000e+00
   outer loop
     vertex -1.795143e+02  9.884683e+00 -5.450000e+01
     vertex -1.785065e+02  9.987165e+00 -7.950000e+01
     vertex -1.795143e+02  9.884683e+00 -7.950000e+01
   endloop
 endfacet
 facet normal -1.011683e-01  9.948693e-01  0.000000e+00
   outer loop
     vertex -1.795143e+02  9.884683e+00 -5.450000e+01
     vertex -1.785065e+02  9.987165e+00 -5.450000e+01
     vertex -1.785065e+02  9.987165e+00 -7.950000e+01
   endloop
 endfacet
 facet normal -2.012985e-01  9.795299e-01  0.000000e+00
   outer loop
     vertex -1.805065e+02  9.680771e+00 -5.450000e+01
     vertex -1.795143e+02  9.884683e+00 -7.950000e+01
     vertex -1.805065e+02  9.680771e+00 -7.950000e+01
   endloop
 endfacet
 facet normal -2.993631e-01  9.541393e-01  0.000000e+00
   outer loop
     vertex -1.805065e+02  9.680771e+00 -5.450000e+01
     vertex -1.805065e+02  9.680771e+00 -7.950000e+01
     vertex -1.814731e+02  9.377521e+00 -7.950000e+01
   endloop
 endfacet
 facet normal -2.012985e-01  9.795299e-01  0.000000e+00
   outer loop
     vertex -1.805065e+02  9.680771e+00 -5.450000e+01
     vertex -1.795143e+02  9.884683e+00 -5.450000e+01
     vertex -1.795143e+02  9.884683e+00 -7.950000e+01
   endloop
 endfacet
 facet normal -2.993631e-01  9.541393e-01  0.000000e+00
   outer loop
     vertex -1.814731e+02  9.377521e+00 -5.450000e+01
     vertex -1.805065e+02  9.680771e+00 -5.450000e+01
     vertex -1.814731e+02  9.377521e+00 -7.950000e+01
   endloop
 endfacet
 facet normal -3.943559e-01  9.189578e-01  0.000000e+00
   outer loop
     vertex -1.824039e+02  8.978045e+00 -5.450000e+01
     vertex -1.814731e+02  9.377521e+00 -5.450000e+01
     vertex -1.814731e+02  9.377521e+00 -7.950000e+01
   endloop
 endfacet
 facet normal -3.943559e-01  9.189578e-01  0.000000e+00
   outer loop
     vertex -1.824039e+02  8.978045e+00 -5.450000e+01
     vertex -1.814731e+02  9.377521e+00 -7.950000e+01
     vertex -1.824039e+02  8.978045e+00 -7.950000e+01
   endloop
 endfacet
 facet normal -4.853020e-01  8.743466e-01  0.000000e+00
   outer loop
     vertex -1.832896e+02  8.486443e+00 -5.450000e+01
     vertex -1.824039e+02  8.978045e+00 -5.450000e+01
     vertex -1.824039e+02  8.978045e+00 -7.950000e+01
   endloop
 endfacet
 facet normal -4.853020e-01  8.743466e-01  0.000000e+00
   outer loop
     vertex -1.832896e+02  8.486443e+00 -5.450000e+01
     vertex -1.824039e+02  8.978045e+00 -7.950000e+01
     vertex -1.832896e+02  8.486443e+00 -7.950000e+01
   endloop
 endfacet
 facet normal -5.712682e-01  8.207634e-01  0.000000e+00
   outer loop
     vertex -1.841211e+02  7.907757e+00 -5.450000e+01
     vertex -1.832896e+02  8.486443e+00 -5.450000e+01
     vertex -1.832896e+02  8.486443e+00 -7.950000e+01
   endloop
 endfacet
 facet normal -5.712682e-01  8.207634e-01  0.000000e+00
   outer loop
     vertex -1.841211e+02  7.907757e+00 -5.450000e+01
     vertex -1.832896e+02  8.486443e+00 -7.950000e+01
     vertex -1.841211e+02  7.907757e+00 -7.950000e+01
   endloop
 endfacet
 facet normal -6.513725e-01  7.587581e-01  0.000000e+00
   outer loop
     vertex -1.841211e+02  7.907757e+00 -5.450000e+01
     vertex -1.841211e+02  7.907757e+00 -7.950000e+01
     vertex -1.848897e+02  7.247928e+00 -7.950000e+01
   endloop
 endfacet
 facet normal -6.513725e-01  7.587581e-01  0.000000e+00
   outer loop
     vertex -1.848897e+02  7.247928e+00 -5.450000e+01
     vertex -1.841211e+02  7.907757e+00 -5.450000e+01
     vertex -1.848897e+02  7.247928e+00 -7.950000e+01
   endloop
 endfacet
 facet normal -7.247928e-01  6.889669e-01  0.000000e+00
   outer loop
     vertex -1.855876e+02  6.513725e+00 -5.450000e+01
     vertex -1.848897e+02  7.247928e+00 -5.450000e+01
     vertex -1.848897e+02  7.247928e+00 -7.950000e+01
   endloop
 endfacet
 facet normal -7.247928e-01  6.889669e-01  0.000000e+00
   outer loop
     vertex -1.855876e+02  6.513725e+00 -5.450000e+01
     vertex -1.848897e+02  7.247928e+00 -7.950000e+01
     vertex -1.855876e+02  6.513725e+00 -7.950000e+01
   endloop
 endfacet
 facet normal -7.907757e-01  6.121060e-01  0.000000e+00
   outer loop
     vertex -1.862076e+02  5.712682e+00 -5.450000e+01
     vertex -1.855876e+02  6.513725e+00 -5.450000e+01
     vertex -1.855876e+02  6.513725e+00 -7.950000e+01
   endloop
 endfacet
 facet normal -7.907757e-01  6.121060e-01  0.000000e+00
   outer loop
     vertex -1.862076e+02  5.712682e+00 -5.450000e+01
     vertex -1.855876e+02  6.513725e+00 -7.950000e+01
     vertex -1.862076e+02  5.712682e+00 -7.950000e+01
   endloop
 endfacet
 facet normal -8.486443e-01  5.289640e-01  0.000000e+00
   outer loop
     vertex -1.862076e+02  5.712682e+00 -5.450000e+01
     vertex -1.862076e+02  5.712682e+00 -7.950000e+01
     vertex -1.867435e+02  4.853020e+00 -7.950000e+01
   endloop
 endfacet
 facet normal -8.486443e-01  5.289640e-01  0.000000e+00
   outer loop
     vertex -1.867435e+02  4.853020e+00 -5.450000e+01
     vertex -1.862076e+02  5.712682e+00 -5.450000e+01
     vertex -1.867435e+02  4.853020e+00 -7.950000e+01
   endloop
 endfacet
 facet normal -8.978045e-01  4.403942e-01  0.000000e+00
   outer loop
     vertex -1.871896e+02  3.943559e+00 -5.450000e+01
     vertex -1.867435e+02  4.853020e+00 -5.450000e+01
     vertex -1.867435e+02  4.853020e+00 -7.950000e+01
   endloop
 endfacet
 facet normal -8.978045e-01  4.403942e-01  0.000000e+00
   outer loop
     vertex -1.871896e+02  3.943559e+00 -5.450000e+01
     vertex -1.867435e+02  4.853020e+00 -7.950000e+01
     vertex -1.871896e+02  3.943559e+00 -7.950000e+01
   endloop
 endfacet
 facet normal -9.377521e-01  3.473053e-01  0.000000e+00
   outer loop
     vertex -1.875414e+02  2.993631e+00 -5.450000e+01
     vertex -1.871896e+02  3.943559e+00 -5.450000e+01
     vertex -1.871896e+02  3.943559e+00 -7.950000e+01
   endloop
 endfacet
 facet normal -9.377521e-01  3.473053e-01  0.000000e+00
   outer loop
     vertex -1.875414e+02  2.993631e+00 -5.450000e+01
     vertex -1.871896e+02  3.943559e+00 -7.950000e+01
     vertex -1.875414e+02  2.993631e+00 -7.950000e+01
   endloop
 endfacet
 facet normal -9.680771e-01  2.506525e-01  0.000000e+00
   outer loop
     vertex -1.877953e+02  2.012985e+00 -5.450000e+01
     vertex -1.875414e+02  2.993631e+00 -5.450000e+01
     vertex -1.875414e+02  2.993631e+00 -7.950000e+01
   endloop
 endfacet
 facet normal -9.680771e-01  2.506525e-01  0.000000e+00
   outer loop
     vertex -1.877953e+02  2.012985e+00 -5.450000e+01
     vertex -1.875414e+02  2.993631e+00 -7.950000e+01
     vertex -1.877953e+02  2.012985e+00 -7.950000e+01
   endloop
 endfacet
 facet normal -9.884683e-01  1.514278e-01  0.000000e+00
   outer loop
     vertex -1.879487e+02  1.011683e+00 -5.450000e+01
     vertex -1.877953e+02  2.012985e+00 -5.450000e+01
     vertex -1.877953e+02  2.012985e+00 -7.950000e+01
   endloop
 endfacet
 facet normal -9.884683e-01  1.514278e-01  0.000000e+00
   outer loop
     vertex -1.879487e+02  1.011683e+00 -5.450000e+01
     vertex -1.877953e+02  2.012985e+00 -7.950000e+01
     vertex -1.879487e+02  1.011683e+00 -7.950000e+01
   endloop
 endfacet
 facet normal -9.987165e-01  5.064917e-02  0.000000e+00
   outer loop
     vertex -1.879487e+02  1.011683e+00 -5.450000e+01
     vertex -1.879487e+02  1.011683e+00 -7.950000e+01
     vertex -1.880000e+02  1.224647e-15 -7.950000e+01
   endloop
 endfacet
 facet normal -9.987165e-01  5.064917e-02  0.000000e+00
   outer loop
     vertex -1.880000e+02  1.224647e-15 -5.450000e+01
     vertex -1.879487e+02  1.011683e+00 -5.450000e+01
     vertex -1.880000e+02  1.224647e-15 -7.950000e+01
   endloop
 endfacet
 facet normal -9.987165e-01 -5.064917e-02 -0.000000e+00
   outer loop
     vertex -1.879487e+02 -1.011683e+00 -5.450000e+01
     vertex -1.880000e+02  1.224647e-15 -5.450000e+01
     vertex -1.880000e+02  1.224647e-15 -7.950000e+01
   endloop
 endfacet
 facet normal -9.987165e-01 -5.064917e-02  0.000000e+00
   outer loop
     vertex -1.879487e+02 -1.011683e+00 -5.450000e+01
     vertex -1.880000e+02  1.224647e-15 -7.950000e+01
     vertex -1.879487e+02 -1.011683e+00 -7.950000e+01
   endloop
 endfacet
 facet normal -9.884683e-01 -1.514278e-01 -0.000000e+00
   outer loop
     vertex -1.877953e+02 -2.012985e+00 -5.450000e+01
     vertex -1.879487e+02 -1.011683e+00 -5.450000e+01
     vertex -1.879487e+02 -1.011683e+00 -7.950000e+01
   endloop
 endfacet
 facet normal -9.884683e-01 -1.514278e-01  0.000000e+00
   outer loop
     vertex -1.877953e+02 -2.012985e+00 -5.450000e+01
     vertex -1.879487e+02 -1.011683e+00 -7.950000e+01
     vertex -1.877953e+02 -2.012985e+00 -7.950000e+01
   endloop
 endfacet
 facet normal -9.680771e-01 -2.506525e-01 -0.000000e+00
   outer loop
     vertex -1.877953e+02 -2.012985e+00 -5.450000e+01
     vertex -1.877953e+02 -2.012985e+00 -7.950000e+01
     vertex -1.875414e+02 -2.993631e+00 -7.950000e+01
   endloop
 endfacet
 facet normal -9.680771e-01 -2.506525e-01  0.000000e+00
   outer loop
     vertex -1.875414e+02 -2.993631e+00 -5.450000e+01
     vertex -1.877953e+02 -2.012985e+00 -5.450000e+01
     vertex -1.875414e+02 -2.993631e+00 -7.950000e+01
   endloop
 endfacet
 facet normal -9.377521e-01 -3.473053e-01 -0.000000e+00
   outer loop
     vertex -1.871896e+02 -3.943559e+00 -5.450000e+01
     vertex -1.875414e+02 -2.993631e+00 -5.450000e+01
     vertex -1.875414e+02 -2.993631e+00 -7.950000e+01
   endloop
 endfacet
 facet normal -9.377521e-01 -3.473053e-01  0.000000e+00
   outer loop
     vertex -1.871896e+02 -3.943559e+00 -5.450000e+01
     vertex -1.875414e+02 -2.993631e+00 -7.950000e+01
     vertex -1.871896e+02 -3.943559e+00 -7.950000e+01
   endloop
 endfacet
 facet normal -8.978045e-01 -4.403942e-01 -0.000000e+00
   outer loop
     vertex -1.867435e+02 -4.853020e+00 -5.450000e+01
     vertex -1.871896e+02 -3.943559e+00 -5.450000e+01
     vertex -1.871896e+02 -3.943559e+00 -7.950000e+01
   endloop
 endfacet
 facet normal -8.978045e-01 -4.403942e-01  0.000000e+00
   outer loop
     vertex -1.867435e+02 -4.853020e+00 -5.450000e+01
     vertex -1.871896e+02 -3.943559e+00 -7.950000e+01
     vertex -1.867435e+02 -4.853020e+00 -7.950000e+01
   endloop
 endfacet
 facet normal -8.486443e-01 -5.289640e-01 -0.000000e+00
   outer loop
     vertex -1.867435e+02 -4.853020e+00 -5.450000e+01
     vertex -1.867435e+02 -4.853020e+00 -7.950000e+01
     vertex -1.862076e+02 -5.712682e+00 -7.950000e+01
   endloop
 endfacet
 facet normal -8.486443e-01 -5.289640e-01  0.000000e+00
   outer loop
     vertex -1.862076e+02 -5.712682e+00 -5.450000e+01
     vertex -1.867435e+02 -4.853020e+00 -5.450000e+01
     vertex -1.862076e+02 -5.712682e+00 -7.950000e+01
   endloop
 endfacet
 facet normal -7.907757e-01 -6.121060e-01  0.000000e+00
   outer loop
     vertex -1.855876e+02 -6.513725e+00 -5.450000e+01
     vertex -1.862076e+02 -5.712682e+00 -7.950000e+01
     vertex -1.855876e+02 -6.513725e+00 -7.950000e+01
   endloop
 endfacet
 facet normal -7.907757e-01 -6.121060e-01 -0.000000e+00
   outer loop
     vertex -1.855876e+02 -6.513725e+00 -5.450000e+01
     vertex -1.862076e+02 -5.712682e+00 -5.450000e+01
     vertex -1.862076e+02 -5.712682e+00 -7.950000e+01
   endloop
 endfacet
 facet normal -7.247928e-01 -6.889669e-01  0.000000e+00
   outer loop
     vertex -1.848897e+02 -7.247928e+00 -5.450000e+01
     vertex -1.855876e+02 -6.513725e+00 -7.950000e+01
     vertex -1.848897e+02 -7.247928e+00 -7.950000e+01
   endloop
 endfacet
 facet normal -6.513725e-01 -7.587581e-01 -0.000000e+00
   outer loop
     vertex -1.848897e+02 -7.247928e+00 -5.450000e+01
     vertex -1.848897e+02 -7.247928e+00 -7.950000e+01
     vertex -1.841211e+02 -7.907757e+00 -7.950000e+01
   endloop
 endfacet
 facet normal -7.247928e-01 -6.889669e-01 -0.000000e+00
   outer loop
     vertex -1.848897e+02 -7.247928e+00 -5.450000e+01
     vertex -1.855876e+02 -6.513725e+00 -5.450000e+01
     vertex -1.855876e+02 -6.513725e+00 -7.950000e+01
   endloop
 endfacet
 facet normal -5.712682e-01 -8.207634e-01 -0.000000e+00
   outer loop
     vertex -1.841211e+02 -7.907757e+00 -5.450000e+01
     vertex -1.841211e+02 -7.907757e+00 -7.950000e+01
     vertex -1.832896e+02 -8.486443e+00 -7.950000e+01
   endloop
 endfacet
 facet normal -6.513725e-01 -7.587581e-01  0.000000e+00
   outer loop
     vertex -1.841211e+02 -7.907757e+00 -5.450000e+01
     vertex -1.848897e+02 -7.247928e+00 -5.450000e+01
     vertex -1.841211e+02 -7.907757e+00 -7.950000e+01
   endloop
 endfacet
 facet normal -5.712682e-01 -8.207634e-01  0.000000e+00
   outer loop
     vertex -1.832896e+02 -8.486443e+00 -5.450000e+01
     vertex -1.841211e+02 -7.907757e+00 -5.450000e+01
     vertex -1.832896e+02 -8.486443e+00 -7.950000e+01
   endloop
 endfacet
 facet normal -4.853020e-01 -8.743466e-01  0.000000e+00
   outer loop
     vertex -1.824039e+02 -8.978045e+00 -5.450000e+01
     vertex -1.832896e+02 -8.486443e+00 -7.950000e+01
     vertex -1.824039e+02 -8.978045e+00 -7.950000e+01
   endloop
 endfacet
 facet normal -3.943559e-01 -9.189578e-01 -0.000000e+00
   outer loop
     vertex -1.824039e+02 -8.978045e+00 -5.450000e+01
     vertex -1.824039e+02 -8.978045e+00 -7.950000e+01
     vertex -1.814731e+02 -9.377521e+00 -7.950000e+01
   endloop
 endfacet
 facet normal -4.853020e-01 -8.743466e-01 -0.000000e+00
   outer loop
     vertex -1.824039e+02 -8.978045e+00 -5.450000e+01
     vertex -1.832896e+02 -8.486443e+00 -5.450000e+01
     vertex -1.832896e+02 -8.486443e+00 -7.950000e+01
   endloop
 endfacet
 facet normal -2.993631e-01 -9.541393e-01 -0.000000e+00
   outer loop
     vertex -1.814731e+02 -9.377521e+00 -5.450000e+01
     vertex -1.814731e+02 -9.377521e+00 -7.950000e+01
     vertex -1.805065e+02 -9.680771e+00 -7.950000e+01
   endloop
 endfacet
 facet normal -3.943559e-01 -9.189578e-01  0.000000e+00
   outer loop
     vertex -1.814731e+02 -9.377521e+00 -5.450000e+01
     vertex -1.824039e+02 -8.978045e+00 -5.450000e+01
     vertex -1.814731e+02 -9.377521e+00 -7.950000e+01
   endloop
 endfacet
 facet normal -2.993631e-01 -9.541393e-01  0.000000e+00
   outer loop
     vertex -1.805065e+02 -9.680771e+00 -5.450000e+01
     vertex -1.814731e+02 -9.377521e+00 -5.450000e+01
     vertex -1.805065e+02 -9.680771e+00 -7.950000e+01
   endloop
 endfacet
 facet normal -2.012985e-01 -9.795299e-01 -0.000000e+00
   outer loop
     vertex -1.795143e+02 -9.884683e+00 -5.450000e+01
     vertex -1.805065e+02 -9.680771e+00 -5.450000e+01
     vertex -1.805065e+02 -9.680771e+00 -7.950000e+01
   endloop
 endfacet
 facet normal -2.012985e-01 -9.795299e-01  0.000000e+00
   outer loop
     vertex -1.795143e+02 -9.884683e+00 -5.450000e+01
     vertex -1.805065e+02 -9.680771e+00 -7.950000e+01
     vertex -1.795143e+02 -9.884683e+00 -7.950000e+01
   endloop
 endfacet
 facet normal -1.011683e-01 -9.948693e-01 -0.000000e+00
   outer loop
     vertex -1.795143e+02 -9.884683e+00 -5.450000e+01
     vertex -1.795143e+02 -9.884683e+00 -7.950000e+01
     vertex -1.785065e+02 -9.987165e+00 -7.950000e+01
   endloop
 endfacet
 facet normal  3.507179e-15 -1.000000e+00  0.000000e+00
   outer loop
     vertex -1.785065e+02 -9.987165e+00 -5.450000e+01
     vertex -1.785065e+02 -9.987165e+00 -7.950000e+01
     vertex -1.774935e+02 -9.987165e+00 -7.950000e+01
   endloop
 endfacet
 facet normal -1.011683e-01 -9.948693e-01  0.000000e+00
   outer loop
     vertex -1.785065e+02 -9.987165e+00 -5.450000e+01
     vertex -1.795143e+02 -9.884683e+00 -5.450000e+01
     vertex -1.785065e+02 -9.987165e+00 -7.950000e+01
   endloop
 endfacet
 facet normal  3.507179e-15 -1.000000e+00  0.000000e+00
   outer loop
     vertex -1.774935e+02 -9.987165e+00 -5.450000e+01
     vertex -1.785065e+02 -9.987165e+00 -5.450000e+01
     vertex -1.774935e+02 -9.987165e+00 -7.950000e+01
   endloop
 endfacet
 facet normal  1.011683e-01 -9.948693e-01  0.000000e+00
   outer loop
     vertex -1.764857e+02 -9.884683e+00 -5.450000e+01
     vertex -1.774935e+02 -9.987165e+00 -7.950000e+01
     vertex -1.764857e+02 -9.884683e+00 -7.950000e+01
   endloop
 endfacet
 facet normal  2.012985e-01 -9.795299e-01  0.000000e+00
   outer loop
     vertex -1.764857e+02 -9.884683e+00 -5.450000e+01
     vertex -1.764857e+02 -9.884683e+00 -7.950000e+01
     vertex -1.754935e+02 -9.680771e+00 -7.950000e+01
   endloop
 endfacet
 facet normal  1.011683e-01 -9.948693e-01  0.000000e+00
   outer loop
     vertex -1.764857e+02 -9.884683e+00 -5.450000e+01
     vertex -1.774935e+02 -9.987165e+00 -5.450000e+01
     vertex -1.774935e+02 -9.987165e+00 -7.950000e+01
   endloop
 endfacet
 facet normal  2.993631e-01 -9.541393e-01  0.000000e+00
   outer loop
     vertex -1.754935e+02 -9.680771e+00 -5.450000e+01
     vertex -1.754935e+02 -9.680771e+00 -7.950000e+01
     vertex -1.745269e+02 -9.377521e+00 -7.950000e+01
   endloop
 endfacet
 facet normal  2.012985e-01 -9.795299e-01  0.000000e+00
   outer loop
     vertex -1.754935e+02 -9.680771e+00 -5.450000e+01
     vertex -1.764857e+02 -9.884683e+00 -5.450000e+01
     vertex -1.754935e+02 -9.680771e+00 -7.950000e+01
   endloop
 endfacet
 facet normal  2.993631e-01 -9.541393e-01  0.000000e+00
   outer loop
     vertex -1.745269e+02 -9.377521e+00 -5.450000e+01
     vertex -1.754935e+02 -9.680771e+00 -5.450000e+01
     vertex -1.745269e+02 -9.377521e+00 -7.950000e+01
   endloop
 endfacet
 facet normal  3.943559e-01 -9.189578e-01  0.000000e+00
   outer loop
     vertex -1.735961e+02 -8.978045e+00 -5.450000e+01
     vertex -1.745269e+02 -9.377521e+00 -7.950000e+01
     vertex -1.735961e+02 -8.978045e+00 -7.950000e+01
   endloop
 endfacet
 facet normal  4.853020e-01 -8.743466e-01  0.000000e+00
   outer loop
     vertex -1.735961e+02 -8.978045e+00 -5.450000e+01
     vertex -1.735961e+02 -8.978045e+00 -7.950000e+01
     vertex -1.727104e+02 -8.486443e+00 -7.950000e+01
   endloop
 endfacet
 facet normal  3.943559e-01 -9.189578e-01  0.000000e+00
   outer loop
     vertex -1.735961e+02 -8.978045e+00 -5.450000e+01
     vertex -1.745269e+02 -9.377521e+00 -5.450000e+01
     vertex -1.745269e+02 -9.377521e+00 -7.950000e+01
   endloop
 endfacet
 facet normal  5.712682e-01 -8.207634e-01  0.000000e+00
   outer loop
     vertex -1.727104e+02 -8.486443e+00 -5.450000e+01
     vertex -1.727104e+02 -8.486443e+00 -7.950000e+01
     vertex -1.718789e+02 -7.907757e+00 -7.950000e+01
   endloop
 endfacet
 facet normal  4.853020e-01 -8.743466e-01  0.000000e+00
   outer loop
     vertex -1.727104e+02 -8.486443e+00 -5.450000e+01
     vertex -1.735961e+02 -8.978045e+00 -5.450000e+01
     vertex -1.727104e+02 -8.486443e+00 -7.950000e+01
   endloop
 endfacet
 facet normal  5.712682e-01 -8.207634e-01  0.000000e+00
   outer loop
     vertex -1.718789e+02 -7.907757e+00 -5.450000e+01
     vertex -1.727104e+02 -8.486443e+00 -5.450000e+01
     vertex -1.718789e+02 -7.907757e+00 -7.950000e+01
   endloop
 endfacet
 facet normal  6.513725e-01 -7.587581e-01  0.000000e+00
   outer loop
     vertex -1.711103e+02 -7.247928e+00 -5.450000e+01
     vertex -1.718789e+02 -7.907757e+00 -7.950000e+01
     vertex -1.711103e+02 -7.247928e+00 -7.950000e+01
   endloop
 endfacet
 facet normal  7.247928e-01 -6.889669e-01  0.000000e+00
   outer loop
     vertex -1.711103e+02 -7.247928e+00 -5.450000e+01
     vertex -1.711103e+02 -7.247928e+00 -7.950000e+01
     vertex -1.704124e+02 -6.513725e+00 -7.950000e+01
   endloop
 endfacet
 facet normal  6.513725e-01 -7.587581e-01  0.000000e+00
   outer loop
     vertex -1.711103e+02 -7.247928e+00 -5.450000e+01
     vertex -1.718789e+02 -7.907757e+00 -5.450000e+01
     vertex -1.718789e+02 -7.907757e+00 -7.950000e+01
   endloop
 endfacet
 facet normal  7.907757e-01 -6.121060e-01  0.000000e+00
   outer loop
     vertex -1.704124e+02 -6.513725e+00 -5.450000e+01
     vertex -1.704124e+02 -6.513725e+00 -7.950000e+01
     vertex -1.697924e+02 -5.712682e+00 -7.950000e+01
   endloop
 endfacet
 facet normal  7.247928e-01 -6.889669e-01  0.000000e+00
   outer loop
     vertex -1.704124e+02 -6.513725e+00 -5.450000e+01
     vertex -1.711103e+02 -7.247928e+00 -5.450000e+01
     vertex -1.704124e+02 -6.513725e+00 -7.950000e+01
   endloop
 endfacet
 facet normal  7.907757e-01 -6.121060e-01  0.000000e+00
   outer loop
     vertex -1.697924e+02 -5.712682e+00 -5.450000e+01
     vertex -1.704124e+02 -6.513725e+00 -5.450000e+01
     vertex -1.697924e+02 -5.712682e+00 -7.950000e+01
   endloop
 endfacet
 facet normal  8.486443e-01 -5.289640e-01  0.000000e+00
   outer loop
     vertex -1.692565e+02 -4.853020e+00 -5.450000e+01
     vertex -1.697924e+02 -5.712682e+00 -7.950000e+01
     vertex -1.692565e+02 -4.853020e+00 -7.950000e+01
   endloop
 endfacet
 facet normal  8.978045e-01 -4.403942e-01  0.000000e+00
   outer loop
     vertex -1.692565e+02 -4.853020e+00 -5.450000e+01
     vertex -1.692565e+02 -4.853020e+00 -7.950000e+01
     vertex -1.688104e+02 -3.943559e+00 -7.950000e+01
   endloop
 endfacet
 facet normal  8.486443e-01 -5.289640e-01  0.000000e+00
   outer loop
     vertex -1.692565e+02 -4.853020e+00 -5.450000e+01
     vertex -1.697924e+02 -5.712682e+00 -5.450000e+01
     vertex -1.697924e+02 -5.712682e+00 -7.950000e+01
   endloop
 endfacet
 facet normal  8.978045e-01 -4.403942e-01  0.000000e+00
   outer loop
     vertex -1.688104e+02 -3.943559e+00 -5.450000e+01
     vertex -1.692565e+02 -4.853020e+00 -5.450000e+01
     vertex -1.688104e+02 -3.943559e+00 -7.950000e+01
   endloop
 endfacet
 facet normal  9.377521e-01 -3.473053e-01  0.000000e+00
   outer loop
     vertex -1.684586e+02 -2.993631e+00 -5.450000e+01
     vertex -1.688104e+02 -3.943559e+00 -7.950000e+01
     vertex -1.684586e+02 -2.993631e+00 -7.950000e+01
   endloop
 endfacet
 facet normal  9.377521e-01 -3.473053e-01  0.000000e+00
   outer loop
     vertex -1.684586e+02 -2.993631e+00 -5.450000e+01
     vertex -1.688104e+02 -3.943559e+00 -5.450000e+01
     vertex -1.688104e+02 -3.943559e+00 -7.950000e+01
   endloop
 endfacet
 facet normal  9.680771e-01 -2.506525e-01  0.000000e+00
   outer loop
     vertex -1.682047e+02 -2.012985e+00 -5.450000e+01
     vertex -1.684586e+02 -2.993631e+00 -7.950000e+01
     vertex -1.682047e+02 -2.012985e+00 -7.950000e+01
   endloop
 endfacet
 facet normal  9.884683e-01 -1.514278e-01  0.000000e+00
   outer loop
     vertex -1.682047e+02 -2.012985e+00 -5.450000e+01
     vertex -1.682047e+02 -2.012985e+00 -7.950000e+01
     vertex -1.680513e+02 -1.011683e+00 -7.950000e+01
   endloop
 endfacet
 facet normal  9.680771e-01 -2.506525e-01  0.000000e+00
   outer loop
     vertex -1.682047e+02 -2.012985e+00 -5.450000e+01
     vertex -1.684586e+02 -2.993631e+00 -5.450000e+01
     vertex -1.684586e+02 -2.993631e+00 -7.950000e+01
   endloop
 endfacet
 facet normal  9.884683e-01 -1.514278e-01  0.000000e+00
   outer loop
     vertex -1.680513e+02 -1.011683e+00 -5.450000e+01
     vertex -1.682047e+02 -2.012985e+00 -5.450000e+01
     vertex -1.680513e+02 -1.011683e+00 -7.950000e+01
   endloop
 endfacet
 facet normal  9.987165e-01 -5.064917e-02  0.000000e+00
   outer loop
     vertex -1.680000e+02 -2.449294e-15 -5.450000e+01
     vertex -1.680513e+02 -1.011683e+00 -7.950000e+01
     vertex -1.680000e+02 -2.449294e-15 -7.950000e+01
   endloop
 endfacet
 facet normal  9.987165e-01 -5.064917e-02  0.000000e+00
   outer loop
     vertex -1.680000e+02 -2.449294e-15 -5.450000e+01
     vertex -1.680513e+02 -1.011683e+00 -5.450000e+01
     vertex -1.680513e+02 -1.011683e+00 -7.950000e+01
   endloop
 endfacet
 facet normal -0.000000e+00 -0.000000e+00  1.000000e+00
   outer loop
     vertex -1.780000e+02 -8.881784e-16 -5.450000e+01
     vertex -1.680000e+02 -2.449294e-15 -5.450000e+01
     vertex -1.680513e+02  1.011683e+00 -5.450000e+01
   endloop
 endfacet
 facet normal  0.000000e+00 -0.000000e+00  1.000000e+00
   outer loop
     vertex -1.780000e+02 -8.881784e-16 -5.450000e+01
     vertex -1.680513e+02  1.011683e+00 -5.450000e+01
     vertex -1.682047e+02  2.012985e+00 -5.450000e+01
   endloop
 endfacet
 facet normal  0.000000e+00 -0.000000e+00  1.000000e+00
   outer loop
     vertex -1.780000e+02 -8.881784e-16 -5.450000e+01
     vertex -1.682047e+02  2.012985e+00 -5.450000e+01
     vertex -1.684586e+02  2.993631e+00 -5.450000e+01
   endloop
 endfacet
 facet normal  0.000000e+00 -0.000000e+00  1.000000e+00
   outer loop
     vertex -1.780000e+02 -8.881784e-16 -5.450000e+01
     vertex -1.684586e+02  2.993631e+00 -5.450000e+01
     vertex -1.688104e+02  3.943559e+00 -5.450000e+01
   endloop
 endfacet
 facet normal  0.000000e+00 -0.000000e+00  1.000000e+00
   outer loop
     vertex -1.780000e+02 -8.881784e-16 -5.450000e+01
     vertex -1.688104e+02  3.943559e+00 -5.450000e+01
     vertex -1.692565e+02  4.853020e+00 -5.450000e+01
   endloop
 endfacet
 facet normal  0.000000e+00 -0.000000e+00  1.000000e+00
   outer loop
     vertex -1.780000e+02 -8.881784e-16 -5.450000e+01
     vertex -1.692565e+02  4.853020e+00 -5.450000e+01
     vertex -1.697924e+02  5.712682e+00 -5.450000e+01
   endloop
 endfacet
 facet normal  0.000000e+00 -0.000000e+00  1.000000e+00
   outer loop
     vertex -1.780000e+02 -8.881784e-16 -5.450000e+01
     vertex -1.697924e+02  5.712682e+00 -5.450000e+01
     vertex -1.704124e+02  6.513725e+00 -5.450000e+01
   endloop
 endfacet
 facet normal  0.000000e+00 -0.000000e+00  1.000000e+00
   outer loop
     vertex -1.780000e+02 -8.881784e-16 -5.450000e+01
     vertex -1.704124e+02  6.513725e+00 -5.450000e+01
     vertex -1.711103e+02  7.247928e+00 -5.450000e+01
   endloop
 endfacet
 facet normal  0.000000e+00 -0.000000e+00  1.000000e+00
   outer loop
     vertex -1.780000e+02 -8.881784e-16 -5.450000e+01
     vertex -1.711103e+02  7.247928e+00 -5.450000e+01
     vertex -1.718789e+02  7.907757e+00 -5.450000e+01
   endloop
 endfacet
 facet normal  0.000000e+00 -0.000000e+00  1.000000e+00
   outer loop
     vertex -1.780000e+02 -8.881784e-16 -5.450000e+01
     vertex -1.718789e+02  7.907757e+00 -5.450000e+01
     vertex -1.727104e+02  8.486443e+00 -5.450000e+01
   endloop
 endfacet
 facet normal  0.000000e+00 -0.000000e+00  1.000000e+00
   outer loop
     vertex -1.780000e+02 -8.881784e-16 -5.450000e+01
     vertex -1.727104e+02  8.486443e+00 -5.450000e+01
     vertex -1.735961e+02  8.978045e+00 -5.450000e+01
   endloop
 endfacet
 facet normal  0.000000e+00 -0.000000e+00  1.000000e+00
   outer loop
     vertex -1.780000e+02 -8.881784e-16 -5.450000e+01
     vertex -1.735961e+02  8.978045e+00 -5.450000e+01
     vertex -1.745269e+02  9.377521e+00 -5.450000e+01
   endloop
 endfacet
 facet normal  0.000000e+00 -0.000000e+00  1.000000e+00
   outer loop
     vertex -1.780000e+02 -8.881784e-16 -5.450000e+01
     vertex -1.745269e+02  9.377521e+00 -5.450000e+01
     vertex -1.754935e+02  9.680771e+00 -5.450000e+01
   endloop
 endfacet
 facet normal  0.000000e+00 -0.000000e+00  1.000000e+00
   outer loop
     vertex -1.780000e+02 -8.881784e-16 -5.450000e+01
     vertex -1.754935e+02  9.680771e+00 -5.450000e+01
     vertex -1.764857e+02  9.884683e+00 -5.450000e+01
   endloop
 endfacet
 facet normal  0.000000e+00 -0.000000e+00  1.000000e+00
   outer loop
     vertex -1.780000e+02 -8.881784e-16 -5.450000e+01
     vertex -1.764857e+02  9.884683e+00 -5.450000e+01
     vertex -1.774935e+02  9.987165e+00 -5.450000e+01
   endloop
 endfacet
 facet normal  0.000000e+00 -0.000000e+00  1.000000e+00
   outer loop
     vertex -1.780000e+02 -8.881784e-16 -5.450000e+01
     vertex -1.774935e+02  9.987165e+00 -5.450000e+01
     vertex -1.785065e+02  9.987165e+00 -5.450000e+01
   endloop
 endfacet
 facet normal  0.000000e+00  0.000000e+00  1.000000e+00
   outer loop
     vertex -1.780000e+02 -8.881784e-16 -5.450000e+01
     vertex -1.785065e+02  9.987165e+00 -5.450000e+01
     vertex -1.795143e+02  9.884683e+00 -5.450000e+01
   endloop
 endfacet
 facet normal  0.000000e+00  0.000000e+00  1.000000e+00
   outer loop
     vertex -1.780000e+02 -8.881784e-16 -5.450000e+01
     vertex -1.795143e+02  9.884683e+00 -5.450000e+01
     vertex -1.805065e+02  9.680771e+00 -5.450000e+01
   endloop
 endfacet
 facet normal  0.000000e+00  0.000000e+00  1.000000e+00
   outer loop
     vertex -1.780000e+02 -8.881784e-16 -5.450000e+01
     vertex -1.805065e+02  9.680771e+00 -5.450000e+01
     vertex -1.814731e+02  9.377521e+00 -5.450000e+01
   endloop
 endfacet
 facet normal  0.000000e+00  0.000000e+00  1.000000e+00
   outer loop
     vertex -1.780000e+02 -8.881784e-16 -5.450000e+01
     vertex -1.814731e+02  9.377521e+00 -5.450000e+01
     vertex -1.824039e+02  8.978045e+00 -5.450000e+01
   endloop
 endfacet
 facet normal  0.000000e+00  0.000000e+00  1.000000e+00
   outer loop
     vertex -1.780000e+02 -8.881784e-16 -5.450000e+01
     vertex -1.824039e+02  8.978045e+00 -5.450000e+01
     vertex -1.832896e+02  8.486443e+00 -5.450000e+01
   endloop
 endfacet
 facet normal  0.000000e+00  0.000000e+00  1.000000e+00
   outer loop
     vertex -1.780000e+02 -8.881784e-16 -5.450000e+01
     vertex -1.832896e+02  8.486443e+00 -5.450000e+01
     vertex -1.841211e+02  7.907757e+00 -5.450000e+01
   endloop
 endfacet
 facet normal  0.000000e+00  0.000000e+00  1.000000e+00
   outer loop
     vertex -1.780000e+02 -8.881784e-16 -5.450000e+01
     vertex -1.841211e+02  7.907757e+00 -5.450000e+01
     vertex -1.848897e+02  7.247928e+00 -5.450000e+01
   endloop
 endfacet
 facet normal  0.000000e+00  0.000000e+00  1.000000e+00
   outer loop
     vertex -1.780000e+02 -8.881784e-16 -5.450000e+01
     vertex -1.848897e+02  7.247928e+00 -5.450000e+01
     vertex -1.855876e+02  6.513725e+00 -5.450000e+01
   endloop
 endfacet
 facet normal  0.000000e+00  0.000000e+00  1.000000e+00
   outer loop
     vertex -1.780000e+02 -8.881784e-16 -5.450000e+01
     vertex -1.855876e+02  6.513725e+00 -5.450000e+01
     vertex -1.862076e+02  5.712682e+00 -5.450000e+01
   endloop
 endfacet
 facet normal  0.000000e+00  0.000000e+00  1.000000e+00
   outer loop
     vertex -1.780000e+02 -8.881784e-16 -5.450000e+01
     vertex -1.862076e+02  5.712682e+00 -5.450000e+01
     vertex -1.867435e+02  4.853020e+00 -5.450000e+01
   endloop
 endfacet
 facet normal  0.000000e+00  0.000000e+00  1.000000e+00
   outer loop
     vertex -1.780000e+02 -8.881784e-16 -5.450000e+01
     vertex -1.867435e+02  4.853020e+00 -5.450000e+01
     vertex -1.871896e+02  3.943559e+00 -5.450000e+01
   endloop
 endfacet
 facet normal  0.000000e+00  0.000000e+00  1.000000e+00
   outer loop
     vertex -1.780000e+02 -8.881784e-16 -5.450000e+01
     vertex -1.871896e+02  3.943559e+00 -5.450000e+01
     vertex -1.875414e+02  2.993631e+00 -5.450000e+01
   endloop
 endfacet
 facet normal  0.000000e+00  0.000000e+00  1.000000e+00
   outer loop
     vertex -1.780000e+02 -8.881784e-16 -5.450000e+01
     vertex -1.875414e+02  2.993631e+00 -5.450000e+01
     vertex -1.877953e+02  2.012985e+00 -5.450000e+01
   endloop
 endfacet
 facet normal  0.000000e+00  0.000000e+00  1.000000e+00
   outer loop
     vertex -1.780000e+02 -8.881784e-16 -5.450000e+01
     vertex -1.877953e+02  2.012985e+00 -5.450000e+01
     vertex -1.879487e+02  1.011683e+00 -5.450000e+01
   endloop
 endfacet
 facet normal  0.000000e+00  0.000000e+00  1.000000e+00
   outer loop
     vertex -1.780000e+02 -8.881784e-16 -5.450000e+01
     vertex -1.879487e+02  1.011683e+00 -5.450000e+01
     vertex -1.880000e+02  1.224647e-15 -5.450000e+01
   endloop
 endfacet
 facet normal  0.000000e+00  0.000000e+00  1.000000e+00
   outer loop
     vertex -1.780000e+02 -8.881784e-16 -5.450000e+01
     vertex -1.880000e+02  1.224647e-15 -5.450000e+01
     vertex -1.879487e+02 -1.011683e+00 -5.450000e+01
   endloop
 endfacet
 facet normal  0.000000e+00  0.000000e+00  1.000000e+00
   outer loop
     vertex -1.780000e+02 -8.881784e-16 -5.450000e+01
     vertex -1.879487e+02 -1.011683e+00 -5.450000e+01
     vertex -1.877953e+02 -2.012985e+00 -5.450000e+01
   endloop
 endfacet
 facet normal  0.000000e+00  0.000000e+00  1.000000e+00
   outer loop
     vertex -1.780000e+02 -8.881784e-16 -5.450000e+01
     vertex -1.877953e+02 -2.012985e+00 -5.450000e+01
     vertex -1.875414e+02 -2.993631e+00 -5.450000e+01
   endloop
 endfacet
 facet normal  0.000000e+00  0.000000e+00  1.000000e+00
   outer loop
     vertex -1.780000e+02 -8.881784e-16 -5.450000e+01
     vertex -1.875414e+02 -2.993631e+00 -5.450000e+01
     vertex -1.871896e+02 -3.943559e+00 -5.450000e+01
   endloop
 endfacet
 facet normal  0.000000e+00  0.000000e+00  1.000000e+00
   outer loop
     vertex -1.780000e+02 -8.881784e-16 -5.450000e+01
     vertex -1.871896e+02 -3.943559e+00 -5.450000e+01
     vertex -1.867435e+02 -4.853020e+00 -5.450000e+01
   endloop
 endfacet
 facet normal  0.000000e+00  0.000000e+00  1.000000e+00
   outer loop
     vertex -1.780000e+02 -8.881784e-16 -5.450000e+01
     vertex -1.867435e+02 -4.853020e+00 -5.450000e+01
     vertex -1.862076e+02 -5.712682e+00 -5.450000e+01
   endloop
 endfacet
 facet normal  0.000000e+00  0.000000e+00  1.000000e+00
   outer loop
     vertex -1.780000e+02 -8.881784e-16 -5.450000e+01
     vertex -1.862076e+02 -5.712682e+00 -5.450000e+01
     vertex -1.855876e+02 -6.513725e+00 -5.450000e+01
   endloop
 endfacet
 facet normal  0.000000e+00  0.000000e+00  1.000000e+00
   outer loop
     vertex -1.780000e+02 -8.881784e-16 -5.450000e+01
     vertex -1.855876e+02 -6.513725e+00 -5.450000e+01
     vertex -1.848897e+02 -7.247928e+00 -5.450000e+01
   endloop
 endfacet
 facet normal  0.000000e+00  0.000000e+00  1.000000e+00
   outer loop
     vertex -1.780000e+02 -8.881784e-16 -5.450000e+01
     vertex -1.848897e+02 -7.247928e+00 -5.450000e+01
     vertex -1.841211e+02 -7.907757e+00 -5.450000e+01
   endloop
 endfacet
 facet normal  0.000000e+00  0.000000e+00  1.000000e+00
   outer loop
     vertex -1.780000e+02 -8.881784e-16 -5.450000e+01
     vertex -1.841211e+02 -7.907757e+00 -5.450000e+01
     vertex -1.832896e+02 -8.486443e+00 -5.450000e+01
   endloop
 endfacet
 facet normal  0.000000e+00  0.000000e+00  1.000000e+00
   outer loop
     vertex -1.780000e+02 -8.881784e-16 -5.450000e+01
     vertex -1.832896e+02 -8.486443e+00 -5.450000e+01
     vertex -1.824039e+02 -8.978045e+00 -5.450000e+01
   endloop
 endfacet
 facet normal  0.000000e+00  0.000000e+00  1.000000e+00
   outer loop
     vertex -1.780000e+02 -8.881784e-16 -5.450000e+01
     vertex -1.824039e+02 -8.978045e+00 -5.450000e+01
     vertex -1.814731e+02 -9.377521e+00 -5.450000e+01
   endloop
 endfacet
 facet normal  0.000000e+00  0.000000e+00  1.000000e+00
   outer loop
     vertex -1.780000e+02 -8.881784e-16 -5.450000e+01
     vertex -1.814731e+02 -9.377521e+00 -5.450000e+01
     vertex -1.805065e+02 -9.680771e+00 -5.450000e+01
   endloop
 endfacet
 facet normal  0.000000e+00  0.000000e+00  1.000000e+00
   outer loop
     vertex -1.780000e+02 -8.881784e-16 -5.450000e+01
     vertex -1.805065e+02 -9.680771e+00 -5.450000e+01
     vertex -1.795143e+02 -9.884683e+00 -5.450000e+01
   endloop
 endfacet
 facet normal  0.000000e+00  0.000000e+00  1.000000e+00
   outer loop
     vertex -1.780000e+02 -8.881784e-16 -5.450000e+01
     vertex -1.795143e+02 -9.884683e+00 -5.450000e+01
     vertex -1.785065e+02 -9.987165e+00 -5.450000e+01
   endloop
 endfacet
 facet normal -0.000000e+00  0.000000e+00  1.000000e+00
   outer loop
     vertex -1.780000e+02 -8.881784e-16 -5.450000e+01
     vertex -1.785065e+02 -9.987165e+00 -5.450000e+01
     vertex -1.774935e+02 -9.987165e+00 -5.450000e+01
   endloop
 endfacet
 facet normal -0.000000e+00  0.000000e+00  1.000000e+00
   outer loop
     vertex -1.780000e+02 -8.881784e-16 -5.450000e+01
     vertex -1.774935e+02 -9.987165e+00 -5.450000e+01
     vertex -1.764857e+02 -9.884683e+00 -5.450000e+01
   endloop
 endfacet
 facet normal -0.000000e+00  0.000000e+00  1.000000e+00
   outer loop
     vertex -1.780000e+02 -8.881784e-16 -5.450000e+01
     vertex -1.764857e+02 -9.884683e+00 -5.450000e+01
     vertex -1.754935e+02 -9.680771e+00 -5.450000e+01
   endloop
 endfacet
 facet normal -0.000000e+00  0.000000e+00  1.000000e+00
   outer loop
     vertex -1.780000e+02 -8.881784e-16 -5.450000e+01
     vertex -1.754935e+02 -9.680771e+00 -5.450000e+01
     vertex -1.745269e+02 -9.377521e+00 -5.450000e+01
   endloop
 endfacet
 facet normal -0.000000e+00  0.000000e+00  1.000000e+00
   outer loop
     vertex -1.780000e+02 -8.881784e-16 -5.450000e+01
     vertex -1.745269e+02 -9.377521e+00 -5.450000e+01
     vertex -1.735961e+02 -8.978045e+00 -5.450000e+01
   endloop
 endfacet
 facet normal -0.000000e+00  0.000000e+00  1.000000e+00
   outer loop
     vertex -1.780000e+02 -8.881784e-16 -5.450000e+01
     vertex -1.735961e+02 -8.978045e+00 -5.450000e+01
     vertex -1.727104e+02 -8.486443e+00 -5.450000e+01
   endloop
 endfacet
 facet normal -0.000000e+00  0.000000e+00  1.000000e+00
   outer loop
     vertex -1.780000e+02 -8.881784e-16 -5.450000e+01
     vertex -1.727104e+02 -8.486443e+00 -5.450000e+01
     vertex -1.718789e+02 -7.907757e+00 -5.450000e+01
   endloop
 endfacet
 facet normal -0.000000e+00  0.000000e+00  1.000000e+00
   outer loop
     vertex -1.780000e+02 -8.881784e-16 -5.450000e+01
     vertex -1.718789e+02 -7.907757e+00 -5.450000e+01
     vertex -1.711103e+02 -7.247928e+00 -5.450000e+01
   endloop
 endfacet
 facet normal -0.000000e+00  0.000000e+00  1.000000e+00
   outer loop
     vertex -1.780000e+02 -8.881784e-16 -5.450000e+01
     vertex -1.711103e+02 -7.247928e+00 -5.450000e+01
     vertex -1.704124e+02 -6.513725e+00 -5.450000e+01
   endloop
 endfacet
 facet normal -0.000000e+00  0.000000e+00  1.000000e+00
   outer loop
     vertex -1.780000e+02 -8.881784e-16 -5.450000e+01
     vertex -1.704124e+02 -6.513725e+00 -5.450000e+01
     vertex -1.697924e+02 -5.712682e+00 -5.450000e+01
   endloop
 endfacet
 facet normal -0.000000e+00  0.000000e+00  1.000000e+00
   outer loop
     vertex -1.780000e+02 -8.881784e-16 -5.450000e+01
     vertex -1.697924e+02 -5.712682e+00 -5.450000e+01
     vertex -1.692565e+02 -4.853020e+00 -5.450000e+01
   endloop
 endfacet
 facet normal -0.000000e+00  0.000000e+00  1.000000e+00
   outer loop
     vertex -1.780000e+02 -8.881784e-16 -5.450000e+01
     vertex -1.692565e+02 -4.853020e+00 -5.450000e+01
     vertex -1.688104e+02 -3.943559e+00 -5.450000e+01
   endloop
 endfacet
 facet normal -0.000000e+00  0.000000e+00  1.000000e+00
   outer loop
     vertex -1.780000e+02 -8.881784e-16 -5.450000e+01
     vertex -1.688104e+02 -3.943559e+00 -5.450000e+01
     vertex -1.684586e+02 -2.993631e+00 -5.450000e+01
   endloop
 endfacet
 facet normal -0.000000e+00  0.000000e+00  1.000000e+00
   outer loop
     vertex -1.780000e+02 -8.881784e-16 -5.450000e+01
     vertex -1.684586e+02 -2.993631e+00 -5.450000e+01
     vertex -1.682047e+02 -2.012985e+00 -5.450000e+01
   endloop
 endfacet
 facet normal -0.000000e+00  0.000000e+00  1.000000e+00
   outer loop
     vertex -1.780000e+02 -8.881784e-16 -5.450000e+01
     vertex -1.682047e+02 -2.012985e+00 -5.450000e+01
     vertex -1.680513e+02 -1.011683e+00 -5.450000e+01
   endloop
 endfacet
 facet normal -0.000000e+00  0.000000e+00  1.000000e+00
   outer loop
     vertex -1.780000e+02 -8.881784e-16 -5.450000e+01
     vertex -1.680513e+02 -1.011683e+00 -5.450000e+01
     vertex -1.680000e+02 -2.449294e-15 -5.450000e+01
   endloop
 endfacet
 facet normal -0.000000e+00 -0.000000e+00 -1.000000e+00
   outer loop
     vertex -1.680513e+02  1.011683e+00 -7.950000e+01
     vertex -1.680000e+02 -2.449294e-15 -7.950000e+01
     vertex -1.780000e+02 -8.881784e-16 -7.950000e+01
   endloop
 endfacet
 facet normal  0.000000e+00 -0.000000e+00 -1.000000e+00
   outer loop
     vertex -1.682047e+02  2.012985e+00 -7.950000e+01
     vertex -1.680513e+02  1.011683e+00 -7.950000e+01
     vertex -1.780000e+02 -8.881784e-16 -7.950000e+01
   endloop
 endfacet
 facet normal  0.000000e+00 -0.000000e+00 -1.000000e+00
   outer loop
     vertex -1.684586e+02  2.993631e+00 -7.950000e+01
     vertex -1.682047e+02  2.012985e+00 -7.950000e+01
     vertex -1.780000e+02 -8.881784e-16 -7.950000e+01
   endloop
 endfacet
 facet normal  0.000000e+00 -0.000000e+00 -1.000000e+00
   outer loop
     vertex -1.688104e+02  3.943559e+00 -7.950000e+01
     vertex -1.684586e+02  2.993631e+00 -7.950000e+01
     vertex -1.780000e+02 -8.881784e-16 -7.950000e+01
   endloop
 endfacet
 facet normal  0.000000e+00 -0.000000e+00 -1.000000e+00
   outer loop
     vertex -1.692565e+02  4.853020e+00 -7.950000e+01
     vertex -1.688104e+02  3.943559e+00 -7.950000e+01
     vertex -1.780000e+02 -8.881784e-16 -7.950000e+01
   endloop
 endfacet
 facet normal  0.000000e+00 -0.000000e+00 -1.000000e+00
   outer loop
     vertex -1.697924e+02  5.712682e+00 -7.950000e+01
     vertex -1.692565e+02  4.853020e+00 -7.950000e+01
     vertex -1.780000e+02 -8.881784e-16 -7.950000e+01
   endloop
 endfacet
 facet normal  0.000000e+00 -0.000000e+00 -1.000000e+00
   outer loop
     vertex -1.704124e+02  6.513725e+00 -7.950000e+01
     vertex -1.697924e+02  5.712682e+00 -7.950000e+01
     vertex -1.780000e+02 -8.881784e-16 -7.950000e+01
   endloop
 endfacet
 facet normal  0.000000e+00 -0.000000e+00 -1.000000e+00
   outer loop
     vertex -1.711103e+02  7.247928e+00 -7.950000e+01
     vertex -1.704124e+02  6.513725e+00 -7.950000e+01
     vertex -1.780000e+02 -8.881784e-16 -7.950000e+01
   endloop
 endfacet
 facet normal  0.000000e+00 -0.000000e+00 -1.000000e+00
   outer loop
     vertex -1.718789e+02  7.907757e+00 -7.950000e+01
     vertex -1.711103e+02  7.247928e+00 -7.950000e+01
     vertex -1.780000e+02 -8.881784e-16 -7.950000e+01
   endloop
 endfacet
 facet normal  0.000000e+00 -0.000000e+00 -1.000000e+00
   outer loop
     vertex -1.727104e+02  8.486443e+00 -7.950000e+01
     vertex -1.718789e+02  7.907757e+00 -7.950000e+01
     vertex -1.780000e+02 -8.881784e-16 -7.950000e+01
   endloop
 endfacet
 facet normal  0.000000e+00 -0.000000e+00 -1.000000e+00
   outer loop
     vertex -1.735961e+02  8.978045e+00 -7.950000e+01
     vertex -1.727104e+02  8.486443e+00 -7.950000e+01
     vertex -1.780000e+02 -8.881784e-16 -7.950000e+01
   endloop
 endfacet
 facet normal  0.000000e+00 -0.000000e+00 -1.000000e+00
   outer loop
     vertex -1.745269e+02  9.377521e+00 -7.950000e+01
     vertex -1.735961e+02  8.978045e+00 -7.950000e+01
     vertex -1.780000e+02 -8.881784e-16 -7.950000e+01
   endloop
 endfacet
 facet normal  0.000000e+00 -0.000000e+00 -1.000000e+00
   outer loop
     vertex -1.754935e+02  9.680771e+00 -7.950000e+01
     vertex -1.745269e+02  9.377521e+00 -7.950000e+01
     vertex -1.780000e+02 -8.881784e-16 -7.950000e+01
   endloop
 endfacet
 facet normal  0.000000e+00 -0.000000e+00 -1.000000e+00
   outer loop
     vertex -1.764857e+02  9.884683e+00 -7.950000e+01
     vertex -1.754935e+02  9.680771e+00 -7.950000e+01
     vertex -1.780000e+02 -8.881784e-16 -7.950000e+01
   endloop
 endfacet
 facet normal  0.000000e+00 -0.000000e+00 -1.000000e+00
   outer loop
     vertex -1.774935e+02  9.987165e+00 -7.950000e+01
     vertex -1.764857e+02  9.884683e+00 -7.950000e+01
     vertex -1.780000e+02 -8.881784e-16 -7.950000e+01
   endloop
 endfacet
 facet normal  0.000000e+00 -0.000000e+00 -1.000000e+00
   outer loop
     vertex -1.785065e+02  9.987165e+00 -7.950000e+01
     vertex -1.774935e+02  9.987165e+00 -7.950000e+01
     vertex -1.780000e+02 -8.881784e-16 -7.950000e+01
   endloop
 endfacet
 facet normal  0.000000e+00  0.000000e+00 -1.000000e+00
   outer loop
     vertex -1.795143e+02  9.884683e+00 -7.950000e+01
     vertex -1.785065e+02  9.987165e+00 -7.950000e+01
     vertex -1.780000e+02 -8.881784e-16 -7.950000e+01
   endloop
 endfacet
 facet normal  0.000000e+00  0.000000e+00 -1.000000e+00
   outer loop
     vertex -1.805065e+02  9.680771e+00 -7.950000e+01
     vertex -1.795143e+02  9.884683e+00 -7.950000e+01
     vertex -1.780000e+02 -8.881784e-16 -7.950000e+01
   endloop
 endfacet
 facet normal  0.000000e+00  0.000000e+00 -1.000000e+00
   outer loop
     vertex -1.814731e+02  9.377521e+00 -7.950000e+01
     vertex -1.805065e+02  9.680771e+00 -7.950000e+01
     vertex -1.780000e+02 -8.881784e-16 -7.950000e+01
   endloop
 endfacet
 facet normal  0.000000e+00  0.000000e+00 -1.000000e+00
   outer loop
     vertex -1.824039e+02  8.978045e+00 -7.950000e+01
     vertex -1.814731e+02  9.377521e+00 -7.950000e+01
     vertex -1.780000e+02 -8.881784e-16 -7.950000e+01
   endloop
 endfacet
 facet normal  0.000000e+00  0.000000e+00 -1.000000e+00
   outer loop
     vertex -1.832896e+02  8.486443e+00 -7.950000e+01
     vertex -1.824039e+02  8.978045e+00 -7.950000e+01
     vertex -1.780000e+02 -8.881784e-16 -7.950000e+01
   endloop
 endfacet
 facet normal  0.000000e+00  0.000000e+00 -1.000000e+00
   outer loop
     vertex -1.841211e+02  7.907757e+00 -7.950000e+01
     vertex -1.832896e+02  8.486443e+00 -7.950000e+01
     vertex -1.780000e+02 -8.881784e-16 -7.950000e+01
   endloop
 endfacet
 facet normal  0.000000e+00  0.000000e+00 -1.000000e+00
   outer loop
     vertex -1.848897e+02  7.247928e+00 -7.950000e+01
     vertex -1.841211e+02  7.907757e+00 -7.950000e+01
     vertex -1.780000e+02 -8.881784e-16 -7.950000e+01
   endloop
 endfacet
 facet normal  0.000000e+00  0.000000e+00 -1.000000e+00
   outer loop
     vertex -1.855876e+02  6.513725e+00 -7.950000e+01
     vertex -1.848897e+02  7.247928e+00 -7.950000e+01
     vertex -1.780000e+02 -8.881784e-16 -7.950000e+01
   endloop
 endfacet
 facet normal  0.000000e+00  0.000000e+00 -1.000000e+00
   outer loop
     vertex -1.862076e+02  5.712682e+00 -7.950000e+01
     vertex -1.855876e+02  6.513725e+00 -7.950000e+01
     vertex -1.780000e+02 -8.881784e-16 -7.950000e+01
   endloop
 endfacet
 facet normal  0.000000e+00  0.000000e+00 -1.000000e+00
   outer loop
     vertex -1.867435e+02  4.853020e+00 -7.950000e+01
     vertex -1.862076e+02  5.712682e+00 -7.950000e+01
     vertex -1.780000e+02 -8.881784e-16 -7.950000e+01
   endloop
 endfacet
 facet normal  0.000000e+00  0.000000e+00 -1.000000e+00
   outer loop
     vertex -1.871896e+02  3.943559e+00 -7.950000e+01
     vertex -1.867435e+02  4.853020e+00 -7.950000e+01
     vertex -1.780000e+02 -8.881784e-16 -7.950000e+01
   endloop
 endfacet
 facet normal  0.000000e+00  0.000000e+00 -1.000000e+00
   outer loop
     vertex -1.875414e+02  2.993631e+00 -7.950000e+01
     vertex -1.871896e+02  3.943559e+00 -7.950000e+01
     vertex -1.780000e+02 -8.881784e-16 -7.950000e+01
   endloop
 endfacet
 facet normal  0.000000e+00  0.000000e+00 -1.000000e+00
   outer loop
     vertex -1.877953e+02  2.012985e+00 -7.950000e+01
     vertex -1.875414e+02  2.993631e+00 -7.950000e+01
     vertex -1.780000e+02 -8.881784e-16 -7.950000e+01
   endloop
 endfacet
 facet normal  0.000000e+00  0.000000e+00 -1.000000e+00
   outer loop
     vertex -1.879487e+02  1.011683e+00 -7.950000e+01
     vertex -1.877953e+02  2.012985e+00 -7.950000e+01
     vertex -1.780000e+02 -8.881784e-16 -7.950000e+01
   endloop
 endfacet
 facet normal  0.000000e+00  0.000000e+00 -1.000000e+00
   outer loop
     vertex -1.880000e+02  1.224647e-15 -7.950000e+01
     vertex -1.879487e+02  1.011683e+00 -7.950000e+01
     vertex -1.780000e+02 -8.881784e-16 -7.950000e+01
   endloop
 endfacet
 facet normal  0.000000e+00  0.000000e+00 -1.000000e+00
   outer loop
     vertex -1.879487e+02 -1.011683e+00 -7.950000e+01
     vertex -1.880000e+02  1.224647e-15 -7.950000e+01
     vertex -1.780000e+02 -8.881784e-16 -7.950000e+01
   endloop
 endfacet
 facet normal  0.000000e+00  0.000000e+00 -1.000000e+00
   outer loop
     vertex -1.877953e+02 -2.012985e+00 -7.950000e+01
     vertex -1.879487e+02 -1.011683e+00 -7.950000e+01
     vertex -1.780000e+02 -8.881784e-16 -7.950000e+01
   endloop
 endfacet
 facet normal  0.000000e+00  0.000000e+00 -1.000000e+00
   outer loop
     vertex -1.875414e+02 -2.993631e+00 -7.950000e+01
     vertex -1.877953e+02 -2.012985e+00 -7.950000e+01
     vertex -1.780000e+02 -8.881784e-16 -7.950000e+01
   endloop
 endfacet
 facet normal  0.000000e+00  0.000000e+00 -1.000000e+00
   outer loop
     vertex -1.871896e+02 -3.943559e+00 -7.950000e+01
     vertex -1.875414e+02 -2.993631e+00 -7.950000e+01
     vertex -1.780000e+02 -8.881784e-16 -7.950000e+01
   endloop
 endfacet
 facet normal  0.000000e+00  0.000000e+00 -1.000000e+00
   outer loop
     vertex -1.867435e+02 -4.853020e+00 -7.950000e+01
     vertex -1.871896e+02 -3.943559e+00 -7.950000e+01
     vertex -1.780000e+02 -8.881784e-16 -7.950000e+01
   endloop
 endfacet
 facet normal  0.000000e+00  0.000000e+00 -1.000000e+00
   outer loop
     vertex -1.862076e+02 -5.712682e+00 -7.950000e+01
     vertex -1.867435e+02 -4.853020e+00 -7.950000e+01
     vertex -1.780000e+02 -8.881784e-16 -7.950000e+01
   endloop
 endfacet
 facet normal  0.000000e+00  0.000000e+00 -1.000000e+00
   outer loop
     vertex -1.855876e+02 -6.513725e+00 -7.950000e+01
     vertex -1.862076e+02 -5.712682e+00 -7.950000e+01
     vertex -1.780000e+02 -8.881784e-16 -7.950000e+01
   endloop
 endfacet
 facet normal  0.000000e+00  0.000000e+00 -1.000000e+00
   outer loop
     vertex -1.848897e+02 -7.247928e+00 -7.950000e+01
     vertex -1.855876e+02 -6.513725e+00 -7.950000e+01
     vertex -1.780000e+02 -8.881784e-16 -7.950000e+01
   endloop
 endfacet
 facet normal  0.000000e+00  0.000000e+00 -1.000000e+00
   outer loop
     vertex -1.841211e+02 -7.907757e+00 -7.950000e+01
     vertex -1.848897e+02 -7.247928e+00 -7.950000e+01
     vertex -1.780000e+02 -8.881784e-16 -7.950000e+01
   endloop
 endfacet
 facet normal  0.000000e+00  0.000000e+00 -1.000000e+00
   outer loop
     vertex -1.832896e+02 -8.486443e+00 -7.950000e+01
     vertex -1.841211e+02 -7.907757e+00 -7.950000e+01
     vertex -1.780000e+02 -8.881784e-16 -7.950000e+01
   endloop
 endfacet
 facet normal  0.000000e+00  0.000000e+00 -1.000000e+00
   outer loop
     vertex -1.824039e+02 -8.978045e+00 -7.950000e+01
     vertex -1.832896e+02 -8.486443e+00 -7.950000e+01
     vertex -1.780000e+02 -8.881784e-16 -7.950000e+01
   endloop
 endfacet
 facet normal  0.000000e+00  0.000000e+00 -1.000000e+00
   outer loop
     vertex -1.814731e+02 -9.377521e+00 -7.950000e+01
     vertex -1.824039e+02 -8.978045e+00 -7.950000e+01
     vertex -1.780000e+02 -8.881784e-16 -7.950000e+01
   endloop
 endfacet
 facet normal  0.000000e+00  0.000000e+00 -1.000000e+00
   outer loop
     vertex -1.805065e+02 -9.680771e+00 -7.950000e+01
     vertex -1.814731e+02 -9.377521e+00 -7.950000e+01
     vertex -1.780000e+02 -8.881784e-16 -7.950000e+01
   endloop
 endfacet
 facet normal  0.000000e+00  0.000000e+00 -1.000000e+00
   outer loop
     vertex -1.795143e+02 -9.884683e+00 -7.950000e+01
     vertex -1.805065e+02 -9.680771e+00 -7.950000e+01
     vertex -1.780000e+02 -8.881784e-16 -7.950000e+01
   endloop
 endfacet
 facet normal  0.000000e+00  0.000000e+00 -1.000000e+00
   outer loop
     vertex -1.785065e+02 -9.987165e+00 -7.950000e+01
     vertex -1.795143e+02 -9.884683e+00 -7.950000e+01
     vertex -1.780000e+02 -8.881784e-16 -7.950000e+01
   endloop
 endfacet
 facet normal -0.000000e+00  0.000000e+00 -1.000000e+00
   outer loop
     vertex -1.774935e+02 -9.987165e+00 -7.950000e+01
     vertex -1.785065e+02 -9.987165e+00 -7.950000e+01
     vertex -1.780000e+02 -8.881784e-16 -7.950000e+01
   endloop
 endfacet
 facet normal -0.000000e+00  0.000000e+00 -1.000000e+00
   outer loop
     vertex -1.764857e+02 -9.884683e+00 -7.950000e+01
     vertex -1.774935e+02 -9.987165e+00 -7.950000e+01
     vertex -1.780000e+02 -8.881784e-16 -7.950000e+01
   endloop
 endfacet
 facet normal -0.000000e+00  0.000000e+00 -1.000000e+00
   outer loop
     vertex -1.754935e+02 -9.680771e+00 -7.950000e+01
     vertex -1.764857e+02 -9.884683e+00 -7.950000e+01
     vertex -1.780000e+02 -8.881784e-16 -7.950000e+01
   endloop
 endfacet
 facet normal -0.000000e+00  0.000000e+00 -1.000000e+00
   outer loop
     vertex -1.745269e+02 -9.377521e+00 -7.950000e+01
     vertex -1.754935e+02 -9.680771e+00 -7.950000e+01
     vertex -1.780000e+02 -8.881784e-16 -7.950000e+01
   endloop
 endfacet
 facet normal -0.000000e+00  0.000000e+00 -1.000000e+00
   outer loop
     vertex -1.735961e+02 -8.978045e+00 -7.950000e+01
     vertex -1.745269e+02 -9.377521e+00 -7.950000e+01
     vertex -1.780000e+02 -8.881784e-16 -7.950000e+01
   endloop
 endfacet
 facet normal -0.000000e+00  0.000000e+00 -1.000000e+00
   outer loop
     vertex -1.727104e+02 -8.486443e+00 -7.950000e+01
     vertex -1.735961e+02 -8.978045e+00 -7.950000e+01
     vertex -1.780000e+02 -8.881784e-16 -7.950000e+01
   endloop
 endfacet
 facet normal -0.000000e+00  0.000000e+00 -1.000000e+00
   outer loop
     vertex -1.718789e+02 -7.907757e+00 -7.950000e+01
     vertex -1.727104e+02 -8.486443e+00 -7.950000e+01
     vertex -1.780000e+02 -8.881784e-16 -7.950000e+01
   endloop
 endfacet
 facet normal -0.000000e+00  0.000000e+00 -1.000000e+00
   outer loop
     vertex -1.711103e+02 -7.247928e+00 -7.950000e+01
     vertex -1.718789e+02 -7.907757e+00 -7.950000e+01
     vertex -1.780000e+02 -8.881784e-16 -7.950000e+01
   endloop
 endfacet
 facet normal -0.000000e+00  0.000000e+00 -1.000000e+00
   outer loop
     vertex -1.704124e+02 -6.513725e+00 -7.950000e+01
     vertex -1.711103e+02 -7.247928e+00 -7.950000e+01
     vertex -1.780000e+02 -8.881784e-16 -7.950000e+01
   endloop
 endfacet
 facet normal -0.000000e+00  0.000000e+00 -1.000000e+00
   outer loop
     vertex -1.697924e+02 -5.712682e+00 -7.950000e+01
     vertex -1.704124e+02 -6.513725e+00 -7.950000e+01
     vertex -1.780000e+02 -8.881784e-16 -7.950000e+01
   endloop
 endfacet
 facet normal -0.000000e+00  0.000000e+00 -1.000000e+00
   outer loop
     vertex -1.692565e+02 -4.853020e+00 -7.950000e+01
     vertex -1.697924e+02 -5.712682e+00 -7.950000e+01
     vertex -1.780000e+02 -8.881784e-16 -7.950000e+01
   endloop
 endfacet
 facet normal -0.000000e+00  0.000000e+00 -1.000000e+00
   outer loop
     vertex -1.688104e+02 -3.943559e+00 -7.950000e+01
     vertex -1.692565e+02 -4.853020e+00 -7.950000e+01
     vertex -1.780000e+02 -8.881784e-16 -7.950000e+01
   endloop
 endfacet
 facet normal -0.000000e+00  0.000000e+00 -1.000000e+00
   outer loop
     vertex -1.684586e+02 -2.993631e+00 -7.950000e+01
     vertex -1.688104e+02 -3.943559e+00 -7.950000e+01
     vertex -1.780000e+02 -8.881784e-16 -7.950000e+01
   endloop
 endfacet
 facet normal -0.000000e+00  0.000000e+00 -1.000000e+00
   outer loop
     vertex -1.682047e+02 -2.012985e+00 -7.950000e+01
     vertex -1.684586e+02 -2.993631e+00 -7.950000e+01
     vertex -1.780000e+02 -8.881784e-16 -7.950000e+01
   endloop
 endfacet
 facet normal -0.000000e+00  0.000000e+00 -1.000000e+00
   outer loop
     vertex -1.680513e+02 -1.011683e+00 -7.950000e+01
     vertex -1.682047e+02 -2.012985e+00 -7.950000e+01
     vertex -1.780000e+02 -8.881784e-16 -7.950000e+01
   endloop
 endfacet
 facet normal -0.000000e+00  0.000000e+00 -1.000000e+00
   outer loop
     vertex -1.680000e+02 -2.449294e-15 -7.950000e+01
     vertex -1.680513e+02 -1.011683e+00 -7.950000e+01
     vertex -1.780000e+02 -8.881784e-16 -7.950000e+01
   endloop
 endfacet
endsolid
