solid
 facet normal -2.220446e-16  0.000000e+00  1.000000e+00
   outer loop
     vertex -1.100000e+01  1.750000e+01  2.100000e+01
     vertex -5.900000e+01  1.750000e+01  2.100000e+01
     vertex -1.100000e+01 -1.750000e+01  2.100000e+01
   endloop
 endfacet
 facet normal -2.220446e-16  0.000000e+00  1.000000e+00
   outer loop
     vertex -5.900000e+01  1.750000e+01  2.100000e+01
     vertex -5.900000e+01 -1.750000e+01  2.100000e+01
     vertex -1.100000e+01 -1.750000e+01  2.100000e+01
   endloop
 endfacet
 facet normal  1.000000e+00 -7.055567e-17 -3.015084e-16
   outer loop
     vertex -1.100000e+01 -1.984441e+00 -1.284765e+01
     vertex -1.100000e+01 -3.922368e+00 -1.239415e+01
     vertex -1.100000e+01 -1.750000e+01 -2.100000e+01
   endloop
 endfacet
 facet normal  1.000000e+00 -2.645281e-16  2.645281e-16
   outer loop
     vertex -1.100000e+01 -9.705192e+00  8.649234e+00
     vertex -1.100000e+01 -1.750000e+01  2.100000e+01
     vertex -1.100000e+01 -2.100000e+01  1.750000e+01
   endloop
 endfacet
 facet normal  1.000000e+00  6.349485e-16  1.231410e-16
   outer loop
     vertex -1.100000e+01  1.291423e+01  1.490885e+00
     vertex -1.100000e+01  2.100000e+01  1.750000e+01
     vertex -1.100000e+01  1.253530e+01  3.444760e+00
   endloop
 endfacet
 facet normal  1.000000e+00 -2.583409e-16  2.684330e-16
   outer loop
     vertex -1.100000e+01 -8.271152e+00  1.002936e+01
     vertex -1.100000e+01 -1.750000e+01  2.100000e+01
     vertex -1.100000e+01 -9.705192e+00  8.649234e+00
   endloop
 endfacet
 facet normal  1.000000e+00 -2.919209e-17 -3.802315e-16
   outer loop
     vertex -1.100000e+01 -3.184082e-15 -1.300000e+01
     vertex -1.100000e+01 -1.984441e+00 -1.284765e+01
     vertex -1.100000e+01 -1.750000e+01 -2.100000e+01
   endloop
 endfacet
 facet normal  1.000000e+00 -2.953792e-16  2.251578e-16
   outer loop
     vertex -1.100000e+01 -1.091175e+01  7.066378e+00
     vertex -1.100000e+01 -9.705192e+00  8.649234e+00
     vertex -1.100000e+01 -2.100000e+01  1.750000e+01
   endloop
 endfacet
 facet normal  1.000000e+00 -2.146587e-16  3.051798e-16
   outer loop
     vertex -1.100000e+01 -6.643243e+00  1.117440e+01
     vertex -1.100000e+01 -1.750000e+01  2.100000e+01
     vertex -1.100000e+01 -8.271152e+00  1.002936e+01
   endloop
 endfacet
 facet normal  1.000000e+00  8.167706e-16  3.130752e-17
   outer loop
     vertex -1.100000e+01  1.299046e+01 -4.979355e-01
     vertex -1.100000e+01  2.100000e+01  1.750000e+01
     vertex -1.100000e+01  1.291423e+01  1.490885e+00
   endloop
 endfacet
 facet normal  1.000000e+00 -3.380988e-16  1.838523e-16
   outer loop
     vertex -1.100000e+01 -1.186255e+01  5.317892e+00
     vertex -1.100000e+01 -1.091175e+01  7.066378e+00
     vertex -1.100000e+01 -2.100000e+01  1.750000e+01
   endloop
 endfacet
 facet normal  1.000000e+00  4.701620e-16  1.061870e-15
   outer loop
     vertex -1.100000e+01 -4.859622e+00  1.205753e+01
     vertex -1.100000e+01 -1.750000e+01  2.100000e+01
     vertex -1.100000e+01 -6.643243e+00  1.117440e+01
   endloop
 endfacet
 facet normal  1.000000e+00  4.605761e-16  7.829157e-16
   outer loop
     vertex -1.100000e+01 -1.253530e+01  3.444760e+00
     vertex -1.100000e+01 -1.186255e+01  5.317892e+00
     vertex -1.100000e+01 -2.100000e+01  1.750000e+01
   endloop
 endfacet
 facet normal  1.000000e+00 -8.686900e-17  2.744943e-16
   outer loop
     vertex -1.100000e+01 -2.962096e+00  1.265804e+01
     vertex -1.100000e+01 -1.750000e+01  2.100000e+01
     vertex -1.100000e+01 -4.859622e+00  1.205753e+01
   endloop
 endfacet
 facet normal  1.000000e+00 -6.349485e-16  1.231410e-16
   outer loop
     vertex -1.100000e+01 -1.291423e+01  1.490885e+00
     vertex -1.100000e+01 -1.253530e+01  3.444760e+00
     vertex -1.100000e+01 -2.100000e+01  1.750000e+01
   endloop
 endfacet
 facet normal  1.000000e+00 -5.183013e-17  3.355581e-16
   outer loop
     vertex -1.100000e+01 -9.951403e-01  1.296186e+01
     vertex -1.100000e+01 -1.750000e+01  2.100000e+01
     vertex -1.100000e+01 -2.962096e+00  1.265804e+01
   endloop
 endfacet
 facet normal  1.000000e+00 -8.167706e-16  3.130752e-17
   outer loop
     vertex -1.100000e+01 -1.299046e+01 -4.979355e-01
     vertex -1.100000e+01 -1.291423e+01  1.490885e+00
     vertex -1.100000e+01 -2.100000e+01  1.750000e+01
   endloop
 endfacet
 facet normal  1.000000e+00  2.919209e-17 -3.802315e-16
   outer loop
     vertex -1.100000e+01  1.750000e+01 -2.100000e+01
     vertex -1.100000e+01  1.984441e+00 -1.284765e+01
     vertex -1.100000e+01 -3.184082e-15 -1.300000e+01
   endloop
 endfacet
 facet normal  1.000000e+00  7.055567e-17 -3.015084e-16
   outer loop
     vertex -1.100000e+01  1.750000e+01 -2.100000e+01
     vertex -1.100000e+01  3.922368e+00 -1.239415e+01
     vertex -1.100000e+01  1.984441e+00 -1.284765e+01
   endloop
 endfacet
 facet normal  1.000000e+00  6.899424e-16  6.757116e-16
   outer loop
     vertex -1.100000e+01  1.750000e+01 -2.100000e+01
     vertex -1.100000e+01  5.768358e+00 -1.165015e+01
     vertex -1.100000e+01  3.922368e+00 -1.239415e+01
   endloop
 endfacet
 facet normal  1.000000e+00  6.469184e-17 -1.088162e-16
   outer loop
     vertex -1.100000e+01  1.750000e+01 -2.100000e+01
     vertex -1.100000e+01  7.479143e+00 -1.063308e+01
     vertex -1.100000e+01  5.768358e+00 -1.165015e+01
   endloop
 endfacet
 facet normal  1.000000e+00  7.862949e-17 -9.534385e-17
   outer loop
     vertex -1.100000e+01  1.750000e+01 -2.100000e+01
     vertex -1.100000e+01  9.014623e+00 -9.366781e+00
     vertex -1.100000e+01  7.479143e+00 -1.063308e+01
   endloop
 endfacet
 facet normal  1.000000e+00  0.000000e+00 -4.440892e-16
   outer loop
     vertex -1.100000e+01  1.750000e+01 -2.100000e+01
     vertex -1.100000e+01 -3.184082e-15 -1.300000e+01
     vertex -1.100000e+01 -1.750000e+01 -2.100000e+01
   endloop
 endfacet
 facet normal  1.000000e+00  9.235660e-17 -8.230789e-17
   outer loop
     vertex -1.100000e+01  2.100000e+01 -1.750000e+01
     vertex -1.100000e+01  1.033881e+01 -7.880930e+00
     vertex -1.100000e+01  9.014623e+00 -9.366781e+00
   endloop
 endfacet
 facet normal  1.000000e+00  1.051694e-16 -6.810699e-17
   outer loop
     vertex -1.100000e+01  2.100000e+01 -1.750000e+01
     vertex -1.100000e+01  1.142066e+01 -6.210358e+00
     vertex -1.100000e+01  1.033881e+01 -7.880930e+00
   endloop
 endfacet
 facet normal  1.000000e+00  1.213325e-16 -5.439246e-17
   outer loop
     vertex -1.100000e+01  2.100000e+01 -1.750000e+01
     vertex -1.100000e+01  1.223482e+01 -4.394219e+00
     vertex -1.100000e+01  1.142066e+01 -6.210358e+00
   endloop
 endfacet
 facet normal  1.000000e+00  1.124560e-15  6.165684e-16
   outer loop
     vertex -1.100000e+01  2.100000e+01 -1.750000e+01
     vertex -1.100000e+01  1.276221e+01 -2.475084e+00
     vertex -1.100000e+01  1.223482e+01 -4.394219e+00
   endloop
 endfacet
 facet normal  1.000000e+00  0.000000e+00  0.000000e+00
   outer loop
     vertex -1.100000e+01  2.100000e+01 -1.750000e+01
     vertex -1.100000e+01  1.299046e+01 -4.979355e-01
     vertex -1.100000e+01  1.276221e+01 -2.475084e+00
   endloop
 endfacet
 facet normal  1.000000e+00  4.309395e-16  2.030122e-16
   outer loop
     vertex -1.100000e+01  2.100000e+01 -1.750000e+01
     vertex -1.100000e+01  2.100000e+01  1.750000e+01
     vertex -1.100000e+01  1.299046e+01 -4.979355e-01
   endloop
 endfacet
 facet normal  1.000000e+00  8.829427e-17 -8.829427e-17
   outer loop
     vertex -1.100000e+01  2.100000e+01 -1.750000e+01
     vertex -1.100000e+01  9.014623e+00 -9.366781e+00
     vertex -1.100000e+01  1.750000e+01 -2.100000e+01
   endloop
 endfacet
 facet normal  1.000000e+00  0.000000e+00 -0.000000e+00
   outer loop
     vertex -1.100000e+01 -2.100000e+01 -1.750000e+01
     vertex -1.100000e+01 -1.276221e+01 -2.475084e+00
     vertex -1.100000e+01 -1.299046e+01 -4.979355e-01
   endloop
 endfacet
 facet normal  1.000000e+00 -1.124560e-15  6.165684e-16
   outer loop
     vertex -1.100000e+01 -2.100000e+01 -1.750000e+01
     vertex -1.100000e+01 -1.223482e+01 -4.394219e+00
     vertex -1.100000e+01 -1.276221e+01 -2.475084e+00
   endloop
 endfacet
 facet normal  1.000000e+00 -1.213325e-16 -5.439246e-17
   outer loop
     vertex -1.100000e+01 -2.100000e+01 -1.750000e+01
     vertex -1.100000e+01 -1.142066e+01 -6.210358e+00
     vertex -1.100000e+01 -1.223482e+01 -4.394219e+00
   endloop
 endfacet
 facet normal  1.000000e+00 -4.309395e-16  2.030122e-16
   outer loop
     vertex -1.100000e+01 -2.100000e+01 -1.750000e+01
     vertex -1.100000e+01 -1.299046e+01 -4.979355e-01
     vertex -1.100000e+01 -2.100000e+01  1.750000e+01
   endloop
 endfacet
 facet normal  1.000000e+00 -4.701620e-16  1.061870e-15
   outer loop
     vertex -1.100000e+01  1.750000e+01  2.100000e+01
     vertex -1.100000e+01  4.859622e+00  1.205753e+01
     vertex -1.100000e+01  6.643243e+00  1.117440e+01
   endloop
 endfacet
 facet normal  1.000000e+00  8.686900e-17  2.744943e-16
   outer loop
     vertex -1.100000e+01  1.750000e+01  2.100000e+01
     vertex -1.100000e+01  2.962096e+00  1.265804e+01
     vertex -1.100000e+01  4.859622e+00  1.205753e+01
   endloop
 endfacet
 facet normal  1.000000e+00  5.183013e-17  3.355581e-16
   outer loop
     vertex -1.100000e+01  1.750000e+01  2.100000e+01
     vertex -1.100000e+01  9.951403e-01  1.296186e+01
     vertex -1.100000e+01  2.962096e+00  1.265804e+01
   endloop
 endfacet
 facet normal  1.000000e+00  3.944757e-31  4.419818e-16
   outer loop
     vertex -1.100000e+01  1.750000e+01  2.100000e+01
     vertex -1.100000e+01 -9.951403e-01  1.296186e+01
     vertex -1.100000e+01  9.951403e-01  1.296186e+01
   endloop
 endfacet
 facet normal  1.000000e+00  0.000000e+00  4.419818e-16
   outer loop
     vertex -1.100000e+01  1.750000e+01  2.100000e+01
     vertex -1.100000e+01 -1.750000e+01  2.100000e+01
     vertex -1.100000e+01 -9.951403e-01  1.296186e+01
   endloop
 endfacet
 facet normal  1.000000e+00 -1.051694e-16 -6.810699e-17
   outer loop
     vertex -1.100000e+01 -1.033881e+01 -7.880930e+00
     vertex -1.100000e+01 -1.142066e+01 -6.210358e+00
     vertex -1.100000e+01 -2.100000e+01 -1.750000e+01
   endloop
 endfacet
 facet normal  1.000000e+00  2.146587e-16  3.051798e-16
   outer loop
     vertex -1.100000e+01  8.271152e+00  1.002936e+01
     vertex -1.100000e+01  1.750000e+01  2.100000e+01
     vertex -1.100000e+01  6.643243e+00  1.117440e+01
   endloop
 endfacet
 facet normal  1.000000e+00 -9.235660e-17 -8.230789e-17
   outer loop
     vertex -1.100000e+01 -9.014623e+00 -9.366781e+00
     vertex -1.100000e+01 -1.033881e+01 -7.880930e+00
     vertex -1.100000e+01 -2.100000e+01 -1.750000e+01
   endloop
 endfacet
 facet normal  1.000000e+00  2.583409e-16  2.684330e-16
   outer loop
     vertex -1.100000e+01  9.705192e+00  8.649234e+00
     vertex -1.100000e+01  1.750000e+01  2.100000e+01
     vertex -1.100000e+01  8.271152e+00  1.002936e+01
   endloop
 endfacet
 facet normal  1.000000e+00 -8.829427e-17 -8.829427e-17
   outer loop
     vertex -1.100000e+01 -1.750000e+01 -2.100000e+01
     vertex -1.100000e+01 -9.014623e+00 -9.366781e+00
     vertex -1.100000e+01 -2.100000e+01 -1.750000e+01
   endloop
 endfacet
 facet normal  1.000000e+00 -7.862949e-17 -9.534385e-17
   outer loop
     vertex -1.100000e+01 -1.750000e+01 -2.100000e+01
     vertex -1.100000e+01 -7.479143e+00 -1.063308e+01
     vertex -1.100000e+01 -9.014623e+00 -9.366781e+00
   endloop
 endfacet
 facet normal  1.000000e+00  2.645281e-16  2.645281e-16
   outer loop
     vertex -1.100000e+01  2.100000e+01  1.750000e+01
     vertex -1.100000e+01  1.750000e+01  2.100000e+01
     vertex -1.100000e+01  9.705192e+00  8.649234e+00
   endloop
 endfacet
 facet normal  1.000000e+00  2.953792e-16  2.251578e-16
   outer loop
     vertex -1.100000e+01  1.091175e+01  7.066378e+00
     vertex -1.100000e+01  2.100000e+01  1.750000e+01
     vertex -1.100000e+01  9.705192e+00  8.649234e+00
   endloop
 endfacet
 facet normal  1.000000e+00 -6.469184e-17 -1.088162e-16
   outer loop
     vertex -1.100000e+01 -5.768358e+00 -1.165015e+01
     vertex -1.100000e+01 -7.479143e+00 -1.063308e+01
     vertex -1.100000e+01 -1.750000e+01 -2.100000e+01
   endloop
 endfacet
 facet normal  1.000000e+00  3.380988e-16  1.838523e-16
   outer loop
     vertex -1.100000e+01  1.186255e+01  5.317892e+00
     vertex -1.100000e+01  2.100000e+01  1.750000e+01
     vertex -1.100000e+01  1.091175e+01  7.066378e+00
   endloop
 endfacet
 facet normal  1.000000e+00 -6.899424e-16  6.757116e-16
   outer loop
     vertex -1.100000e+01 -3.922368e+00 -1.239415e+01
     vertex -1.100000e+01 -5.768358e+00 -1.165015e+01
     vertex -1.100000e+01 -1.750000e+01 -2.100000e+01
   endloop
 endfacet
 facet normal  1.000000e+00 -4.605761e-16  7.829157e-16
   outer loop
     vertex -1.100000e+01  1.253530e+01  3.444760e+00
     vertex -1.100000e+01  2.100000e+01  1.750000e+01
     vertex -1.100000e+01  1.186255e+01  5.317892e+00
   endloop
 endfacet
 facet normal -1.570092e-16 -7.071068e-01  7.071068e-01
   outer loop
     vertex -5.900000e+01 -1.750000e+01  2.100000e+01
     vertex -5.900000e+01 -2.100000e+01  1.750000e+01
     vertex -1.100000e+01 -2.100000e+01  1.750000e+01
   endloop
 endfacet
 facet normal -1.570092e-16 -7.071068e-01  7.071068e-01
   outer loop
     vertex -1.100000e+01 -1.750000e+01  2.100000e+01
     vertex -5.900000e+01 -1.750000e+01  2.100000e+01
     vertex -1.100000e+01 -2.100000e+01  1.750000e+01
   endloop
 endfacet
 facet normal -2.093457e-16  7.071068e-01  7.071068e-01
   outer loop
     vertex -1.100000e+01  2.100000e+01  1.750000e+01
     vertex -5.900000e+01  2.100000e+01  1.750000e+01
     vertex -5.900000e+01  1.750000e+01  2.100000e+01
   endloop
 endfacet
 facet normal -1.570092e-16  7.071068e-01  7.071068e-01
   outer loop
     vertex -1.100000e+01  2.100000e+01  1.750000e+01
     vertex -5.900000e+01  1.750000e+01  2.100000e+01
     vertex -1.100000e+01  1.750000e+01  2.100000e+01
   endloop
 endfacet
 facet normal -1.000000e+00  0.000000e+00 -3.383537e-16
   outer loop
     vertex -5.900000e+01 -1.750000e+01  2.100000e+01
     vertex -5.900000e+01  1.750000e+01  2.100000e+01
     vertex -5.900000e+01  0.000000e+00 -1.065814e-14
   endloop
 endfacet
 facet normal -1.000000e+00  1.845566e-16 -1.845566e-16
   outer loop
     vertex -5.900000e+01 -2.100000e+01  1.750000e+01
     vertex -5.900000e+01 -1.750000e+01  2.100000e+01
     vertex -5.900000e+01  0.000000e+00 -1.065814e-14
   endloop
 endfacet
 facet normal -1.000000e+00 -1.845566e-16 -1.845566e-16
   outer loop
     vertex -5.900000e+01  1.750000e+01  2.100000e+01
     vertex -5.900000e+01  2.100000e+01  1.750000e+01
     vertex -5.900000e+01  0.000000e+00 -1.065814e-14
   endloop
 endfacet
 facet normal -1.000000e+00  5.075305e-16  2.030122e-16
   outer loop
     vertex -5.900000e+01 -2.100000e+01 -1.750000e+01
     vertex -5.900000e+01 -2.100000e+01  1.750000e+01
     vertex -5.900000e+01  0.000000e+00 -1.065814e-14
   endloop
 endfacet
 facet normal -1.000000e+00 -5.075305e-16  2.030122e-16
   outer loop
     vertex -5.900000e+01  2.100000e+01  1.750000e+01
     vertex -5.900000e+01  2.100000e+01 -1.750000e+01
     vertex -5.900000e+01  0.000000e+00 -1.065814e-14
   endloop
 endfacet
 facet normal -1.000000e+00  3.691131e-16  3.691131e-16
   outer loop
     vertex -5.900000e+01 -1.750000e+01 -2.100000e+01
     vertex -5.900000e+01 -2.100000e+01 -1.750000e+01
     vertex -5.900000e+01  0.000000e+00 -1.065814e-14
   endloop
 endfacet
 facet normal -1.000000e+00 -3.691131e-16  3.691131e-16
   outer loop
     vertex -5.900000e+01  2.100000e+01 -1.750000e+01
     vertex -5.900000e+01  1.750000e+01 -2.100000e+01
     vertex -5.900000e+01  0.000000e+00 -1.065814e-14
   endloop
 endfacet
 facet normal -1.000000e+00  0.000000e+00  6.767074e-16
   outer loop
     vertex -5.900000e+01  1.750000e+01 -2.100000e+01
     vertex -5.900000e+01 -1.750000e+01 -2.100000e+01
     vertex -5.900000e+01  0.000000e+00 -1.065814e-14
   endloop
 endfacet
 facet normal  0.000000e+00  1.526493e-01  9.882804e-01
   outer loop
     vertex -9.000000e+00  9.951403e-01  1.296186e+01
     vertex -9.000000e+00  2.962096e+00  1.265804e+01
     vertex -1.100000e+01  2.962096e+00  1.265804e+01
   endloop
 endfacet
 facet normal  0.000000e+00  8.925158e-16  1.000000e+00
   outer loop
     vertex -9.000000e+00 -9.951403e-01  1.296186e+01
     vertex -1.100000e+01  9.951403e-01  1.296186e+01
     vertex -1.100000e+01 -9.951403e-01  1.296186e+01
   endloop
 endfacet
 facet normal  0.000000e+00  7.654925e-02 -9.970658e-01
   outer loop
     vertex -9.000000e+00 -3.184082e-15 -1.300000e+01
     vertex -1.100000e+01 -3.184082e-15 -1.300000e+01
     vertex -1.100000e+01  1.984441e+00 -1.284765e+01
   endloop
 endfacet
 facet normal  0.000000e+00 -1.526493e-01  9.882804e-01
   outer loop
     vertex -9.000000e+00 -9.951403e-01  1.296186e+01
     vertex -1.100000e+01 -9.951403e-01  1.296186e+01
     vertex -1.100000e+01 -2.962096e+00  1.265804e+01
   endloop
 endfacet
 facet normal  0.000000e+00  8.925158e-16  1.000000e+00
   outer loop
     vertex -9.000000e+00 -9.951403e-01  1.296186e+01
     vertex -9.000000e+00  9.951403e-01  1.296186e+01
     vertex -1.100000e+01  9.951403e-01  1.296186e+01
   endloop
 endfacet
 facet normal  0.000000e+00  2.278535e-01 -9.736954e-01
   outer loop
     vertex -9.000000e+00  1.984441e+00 -1.284765e+01
     vertex -1.100000e+01  1.984441e+00 -1.284765e+01
     vertex -1.100000e+01  3.922368e+00 -1.239415e+01
   endloop
 endfacet
 facet normal  0.000000e+00 -1.526493e-01  9.882804e-01
   outer loop
     vertex -9.000000e+00 -2.962096e+00  1.265804e+01
     vertex -9.000000e+00 -9.951403e-01  1.296186e+01
     vertex -1.100000e+01 -2.962096e+00  1.265804e+01
   endloop
 endfacet
 facet normal  0.000000e+00  7.654925e-02 -9.970658e-01
   outer loop
     vertex -9.000000e+00  1.984441e+00 -1.284765e+01
     vertex -9.000000e+00 -3.184082e-15 -1.300000e+01
     vertex -1.100000e+01  1.984441e+00 -1.284765e+01
   endloop
 endfacet
 facet normal  0.000000e+00 -3.017206e-01  9.533964e-01
   outer loop
     vertex -9.000000e+00 -4.859622e+00  1.205753e+01
     vertex -1.100000e+01 -2.962096e+00  1.265804e+01
     vertex -1.100000e+01 -4.859622e+00  1.205753e+01
   endloop
 endfacet
 facet normal  0.000000e+00 -3.017206e-01  9.533964e-01
   outer loop
     vertex -9.000000e+00 -4.859622e+00  1.205753e+01
     vertex -9.000000e+00 -2.962096e+00  1.265804e+01
     vertex -1.100000e+01 -2.962096e+00  1.265804e+01
   endloop
 endfacet
 facet normal  0.000000e+00  2.278535e-01 -9.736954e-01
   outer loop
     vertex -9.000000e+00  3.922368e+00 -1.239415e+01
     vertex -9.000000e+00  1.984441e+00 -1.284765e+01
     vertex -1.100000e+01  3.922368e+00 -1.239415e+01
   endloop
 endfacet
 facet normal  0.000000e+00 -4.437198e-01  8.961656e-01
   outer loop
     vertex -9.000000e+00 -6.643243e+00  1.117440e+01
     vertex -1.100000e+01 -4.859622e+00  1.205753e+01
     vertex -1.100000e+01 -6.643243e+00  1.117440e+01
   endloop
 endfacet
 facet normal  0.000000e+00 -5.753187e-01  8.179294e-01
   outer loop
     vertex -9.000000e+00 -6.643243e+00  1.117440e+01
     vertex -1.100000e+01 -6.643243e+00  1.117440e+01
     vertex -1.100000e+01 -8.271152e+00  1.002936e+01
   endloop
 endfacet
 facet normal  0.000000e+00  3.738171e-01 -9.275025e-01
   outer loop
     vertex -9.000000e+00  5.768358e+00 -1.165015e+01
     vertex -1.100000e+01  3.922368e+00 -1.239415e+01
     vertex -1.100000e+01  5.768358e+00 -1.165015e+01
   endloop
 endfacet
 facet normal  0.000000e+00 -4.437198e-01  8.961656e-01
   outer loop
     vertex -9.000000e+00 -6.643243e+00  1.117440e+01
     vertex -9.000000e+00 -4.859622e+00  1.205753e+01
     vertex -1.100000e+01 -4.859622e+00  1.205753e+01
   endloop
 endfacet
 facet normal  0.000000e+00  3.738171e-01 -9.275025e-01
   outer loop
     vertex -9.000000e+00  5.768358e+00 -1.165015e+01
     vertex -9.000000e+00  3.922368e+00 -1.239415e+01
     vertex -1.100000e+01  3.922368e+00 -1.239415e+01
   endloop
 endfacet
 facet normal  0.000000e+00  5.110187e-01 -8.595696e-01
   outer loop
     vertex -9.000000e+00  7.479143e+00 -1.063308e+01
     vertex -9.000000e+00  5.768358e+00 -1.165015e+01
     vertex -1.100000e+01  5.768358e+00 -1.165015e+01
   endloop
 endfacet
 facet normal  0.000000e+00 -5.753187e-01  8.179294e-01
   outer loop
     vertex -9.000000e+00 -8.271152e+00  1.002936e+01
     vertex -9.000000e+00 -6.643243e+00  1.117440e+01
     vertex -1.100000e+01 -8.271152e+00  1.002936e+01
   endloop
 endfacet
 facet normal  0.000000e+00  5.110187e-01 -8.595696e-01
   outer loop
     vertex -9.000000e+00  7.479143e+00 -1.063308e+01
     vertex -1.100000e+01  5.768358e+00 -1.165015e+01
     vertex -1.100000e+01  7.479143e+00 -1.063308e+01
   endloop
 endfacet
 facet normal  0.000000e+00 -6.934325e-01  7.205216e-01
   outer loop
     vertex -9.000000e+00 -9.705192e+00  8.649234e+00
     vertex -1.100000e+01 -8.271152e+00  1.002936e+01
     vertex -1.100000e+01 -9.705192e+00  8.649234e+00
   endloop
 endfacet
 facet normal  0.000000e+00  6.362424e-01 -7.714892e-01
   outer loop
     vertex -9.000000e+00  9.014623e+00 -9.366781e+00
     vertex -9.000000e+00  7.479143e+00 -1.063308e+01
     vertex -1.100000e+01  7.479143e+00 -1.063308e+01
   endloop
 endfacet
 facet normal  0.000000e+00  6.362424e-01 -7.714892e-01
   outer loop
     vertex -9.000000e+00  9.014623e+00 -9.366781e+00
     vertex -1.100000e+01  7.479143e+00 -1.063308e+01
     vertex -1.100000e+01  9.014623e+00 -9.366781e+00
   endloop
 endfacet
 facet normal  0.000000e+00 -6.934325e-01  7.205216e-01
   outer loop
     vertex -9.000000e+00 -9.705192e+00  8.649234e+00
     vertex -9.000000e+00 -8.271152e+00  1.002936e+01
     vertex -1.100000e+01 -8.271152e+00  1.002936e+01
   endloop
 endfacet
 facet normal  0.000000e+00  7.465532e-01 -6.653257e-01
   outer loop
     vertex -9.000000e+00  9.014623e+00 -9.366781e+00
     vertex -1.100000e+01  9.014623e+00 -9.366781e+00
     vertex -1.100000e+01  1.033881e+01 -7.880930e+00
   endloop
 endfacet
 facet normal -2.789112e-16 -7.952929e-01  6.062254e-01
   outer loop
     vertex -9.000000e+00 -1.091175e+01  7.066378e+00
     vertex -1.100000e+01 -9.705192e+00  8.649234e+00
     vertex -1.100000e+01 -1.091175e+01  7.066378e+00
   endloop
 endfacet
 facet normal  3.346934e-16  7.465532e-01 -6.653257e-01
   outer loop
     vertex -9.000000e+00  1.033881e+01 -7.880930e+00
     vertex -9.000000e+00  9.014623e+00 -9.366781e+00
     vertex -1.100000e+01  1.033881e+01 -7.880930e+00
   endloop
 endfacet
 facet normal  0.000000e+00 -7.952929e-01  6.062254e-01
   outer loop
     vertex -9.000000e+00 -1.091175e+01  7.066378e+00
     vertex -9.000000e+00 -9.705192e+00  8.649234e+00
     vertex -1.100000e+01 -9.705192e+00  8.649234e+00
   endloop
 endfacet
 facet normal  2.789112e-16  8.393654e-01 -5.435676e-01
   outer loop
     vertex -9.000000e+00  1.142066e+01 -6.210358e+00
     vertex -1.100000e+01  1.033881e+01 -7.880930e+00
     vertex -1.100000e+01  1.142066e+01 -6.210358e+00
   endloop
 endfacet
 facet normal  0.000000e+00 -8.785123e-01  4.777198e-01
   outer loop
     vertex -9.000000e+00 -1.186255e+01  5.317892e+00
     vertex -1.100000e+01 -1.091175e+01  7.066378e+00
     vertex -1.100000e+01 -1.186255e+01  5.317892e+00
   endloop
 endfacet
 facet normal  2.413925e-16  8.393654e-01 -5.435676e-01
   outer loop
     vertex -9.000000e+00  1.142066e+01 -6.210358e+00
     vertex -9.000000e+00  1.033881e+01 -7.880930e+00
     vertex -1.100000e+01  1.033881e+01 -7.880930e+00
   endloop
 endfacet
 facet normal  0.000000e+00 -9.411400e-01  3.380169e-01
   outer loop
     vertex -9.000000e+00 -1.186255e+01  5.317892e+00
     vertex -1.100000e+01 -1.186255e+01  5.317892e+00
     vertex -1.100000e+01 -1.253530e+01  3.444760e+00
   endloop
 endfacet
 facet normal -2.121502e-16 -8.785123e-01  4.777198e-01
   outer loop
     vertex -9.000000e+00 -1.186255e+01  5.317892e+00
     vertex -9.000000e+00 -1.091175e+01  7.066378e+00
     vertex -1.100000e+01 -1.091175e+01  7.066378e+00
   endloop
 endfacet
 facet normal -1.673467e-16  9.125036e-01 -4.090686e-01
   outer loop
     vertex -9.000000e+00  1.223482e+01 -4.394219e+00
     vertex -1.100000e+01  1.142066e+01 -6.210358e+00
     vertex -1.100000e+01  1.223482e+01 -4.394219e+00
   endloop
 endfacet
 facet normal  1.816630e-16  9.125036e-01 -4.090686e-01
   outer loop
     vertex -9.000000e+00  1.223482e+01 -4.394219e+00
     vertex -9.000000e+00  1.142066e+01 -6.210358e+00
     vertex -1.100000e+01  1.142066e+01 -6.210358e+00
   endloop
 endfacet
 facet normal -5.578224e-17 -9.411400e-01  3.380169e-01
   outer loop
     vertex -9.000000e+00 -1.253530e+01  3.444760e+00
     vertex -9.000000e+00 -1.186255e+01  5.317892e+00
     vertex -1.100000e+01 -1.253530e+01  3.444760e+00
   endloop
 endfacet
 facet normal -4.227532e-17 -9.817083e-01  1.903911e-01
   outer loop
     vertex -9.000000e+00 -1.291423e+01  1.490885e+00
     vertex -9.000000e+00 -1.253530e+01  3.444760e+00
     vertex -1.100000e+01 -1.253530e+01  3.444760e+00
   endloop
 endfacet
 facet normal  5.578224e-17  9.642535e-01 -2.649815e-01
   outer loop
     vertex -9.000000e+00  1.276221e+01 -2.475084e+00
     vertex -1.100000e+01  1.223482e+01 -4.394219e+00
     vertex -1.100000e+01  1.276221e+01 -2.475084e+00
   endloop
 endfacet
 facet normal  2.546484e-17  9.934021e-01 -1.146834e-01
   outer loop
     vertex -9.000000e+00  1.276221e+01 -2.475084e+00
     vertex -1.100000e+01  1.276221e+01 -2.475084e+00
     vertex -1.100000e+01  1.299046e+01 -4.979355e-01
   endloop
 endfacet
 facet normal -5.578224e-17 -9.817083e-01  1.903911e-01
   outer loop
     vertex -9.000000e+00 -1.291423e+01  1.490885e+00
     vertex -1.100000e+01 -1.253530e+01  3.444760e+00
     vertex -1.100000e+01 -1.291423e+01  1.490885e+00
   endloop
 endfacet
 facet normal -1.176754e-16  9.642535e-01 -2.649815e-01
   outer loop
     vertex -9.000000e+00  1.276221e+01 -2.475084e+00
     vertex -9.000000e+00  1.223482e+01 -4.394219e+00
     vertex -1.100000e+01  1.223482e+01 -4.394219e+00
   endloop
 endfacet
 facet normal -8.504915e-18 -9.992662e-01  3.830273e-02
   outer loop
     vertex -9.000000e+00 -1.299046e+01 -4.979355e-01
     vertex -9.000000e+00 -1.291423e+01  1.490885e+00
     vertex -1.100000e+01 -1.291423e+01  1.490885e+00
   endloop
 endfacet
 facet normal  2.789112e-17  9.934021e-01 -1.146834e-01
   outer loop
     vertex -9.000000e+00  1.299046e+01 -4.979355e-01
     vertex -9.000000e+00  1.276221e+01 -2.475084e+00
     vertex -1.100000e+01  1.299046e+01 -4.979355e-01
   endloop
 endfacet
 facet normal -6.972780e-18 -9.992662e-01  3.830273e-02
   outer loop
     vertex -9.000000e+00 -1.299046e+01 -4.979355e-01
     vertex -1.100000e+01 -1.291423e+01  1.490885e+00
     vertex -1.100000e+01 -1.299046e+01 -4.979355e-01
   endloop
 endfacet
 facet normal -6.972780e-18  9.992662e-01  3.830273e-02
   outer loop
     vertex -9.000000e+00  1.291423e+01  1.490885e+00
     vertex -1.100000e+01  1.299046e+01 -4.979355e-01
     vertex -1.100000e+01  1.291423e+01  1.490885e+00
   endloop
 endfacet
 facet normal  2.546484e-17 -9.934021e-01 -1.146834e-01
   outer loop
     vertex -9.000000e+00 -1.276221e+01 -2.475084e+00
     vertex -9.000000e+00 -1.299046e+01 -4.979355e-01
     vertex -1.100000e+01 -1.299046e+01 -4.979355e-01
   endloop
 endfacet
 facet normal -4.227532e-17  9.817083e-01  1.903911e-01
   outer loop
     vertex -9.000000e+00  1.291423e+01  1.490885e+00
     vertex -1.100000e+01  1.291423e+01  1.490885e+00
     vertex -1.100000e+01  1.253530e+01  3.444760e+00
   endloop
 endfacet
 facet normal -8.504915e-18  9.992662e-01  3.830273e-02
   outer loop
     vertex -9.000000e+00  1.291423e+01  1.490885e+00
     vertex -9.000000e+00  1.299046e+01 -4.979355e-01
     vertex -1.100000e+01  1.299046e+01 -4.979355e-01
   endloop
 endfacet
 facet normal  2.789112e-17 -9.934021e-01 -1.146834e-01
   outer loop
     vertex -9.000000e+00 -1.276221e+01 -2.475084e+00
     vertex -1.100000e+01 -1.299046e+01 -4.979355e-01
     vertex -1.100000e+01 -1.276221e+01 -2.475084e+00
   endloop
 endfacet
 facet normal -7.505482e-17  9.411400e-01  3.380169e-01
   outer loop
     vertex -9.000000e+00  1.253530e+01  3.444760e+00
     vertex -1.100000e+01  1.253530e+01  3.444760e+00
     vertex -1.100000e+01  1.186255e+01  5.317892e+00
   endloop
 endfacet
 facet normal  5.883771e-17 -9.642535e-01 -2.649815e-01
   outer loop
     vertex -9.000000e+00 -1.223482e+01 -4.394219e+00
     vertex -9.000000e+00 -1.276221e+01 -2.475084e+00
     vertex -1.100000e+01 -1.276221e+01 -2.475084e+00
   endloop
 endfacet
 facet normal -5.578224e-17  9.817083e-01  1.903911e-01
   outer loop
     vertex -9.000000e+00  1.253530e+01  3.444760e+00
     vertex -9.000000e+00  1.291423e+01  1.490885e+00
     vertex -1.100000e+01  1.253530e+01  3.444760e+00
   endloop
 endfacet
 facet normal -2.231289e-16 -9.642535e-01 -2.649815e-01
   outer loop
     vertex -9.000000e+00 -1.223482e+01 -4.394219e+00
     vertex -1.100000e+01 -1.276221e+01 -2.475084e+00
     vertex -1.100000e+01 -1.223482e+01 -4.394219e+00
   endloop
 endfacet
 facet normal -1.673467e-16  9.411400e-01  3.380169e-01
   outer loop
     vertex -9.000000e+00  1.186255e+01  5.317892e+00
     vertex -9.000000e+00  1.253530e+01  3.444760e+00
     vertex -1.100000e+01  1.186255e+01  5.317892e+00
   endloop
 endfacet
 facet normal -3.633259e-16 -9.125036e-01 -4.090686e-01
   outer loop
     vertex -9.000000e+00 -1.142066e+01 -6.210358e+00
     vertex -9.000000e+00 -1.223482e+01 -4.394219e+00
     vertex -1.100000e+01 -1.223482e+01 -4.394219e+00
   endloop
 endfacet
 facet normal  2.231289e-16 -9.125036e-01 -4.090686e-01
   outer loop
     vertex -9.000000e+00 -1.142066e+01 -6.210358e+00
     vertex -1.100000e+01 -1.223482e+01 -4.394219e+00
     vertex -1.100000e+01 -1.142066e+01 -6.210358e+00
   endloop
 endfacet
 facet normal -1.673467e-16  8.785123e-01  4.777198e-01
   outer loop
     vertex -9.000000e+00  1.091175e+01  7.066378e+00
     vertex -1.100000e+01  1.186255e+01  5.317892e+00
     vertex -1.100000e+01  1.091175e+01  7.066378e+00
   endloop
 endfacet
 facet normal -2.121502e-16  8.785123e-01  4.777198e-01
   outer loop
     vertex -9.000000e+00  1.091175e+01  7.066378e+00
     vertex -9.000000e+00  1.186255e+01  5.317892e+00
     vertex -1.100000e+01  1.186255e+01  5.317892e+00
   endloop
 endfacet
 facet normal  2.413925e-16 -8.393654e-01 -5.435676e-01
   outer loop
     vertex -9.000000e+00 -1.033881e+01 -7.880930e+00
     vertex -9.000000e+00 -1.142066e+01 -6.210358e+00
     vertex -1.100000e+01 -1.142066e+01 -6.210358e+00
   endloop
 endfacet
 facet normal  2.231289e-16 -8.393654e-01 -5.435676e-01
   outer loop
     vertex -9.000000e+00 -1.033881e+01 -7.880930e+00
     vertex -1.100000e+01 -1.142066e+01 -6.210358e+00
     vertex -1.100000e+01 -1.033881e+01 -7.880930e+00
   endloop
 endfacet
 facet normal  2.954640e-16 -7.465532e-01 -6.653257e-01
   outer loop
     vertex -9.000000e+00 -1.033881e+01 -7.880930e+00
     vertex -1.100000e+01 -1.033881e+01 -7.880930e+00
     vertex -1.100000e+01 -9.014623e+00 -9.366781e+00
   endloop
 endfacet
 facet normal  0.000000e+00  7.952929e-01  6.062254e-01
   outer loop
     vertex -9.000000e+00  9.705192e+00  8.649234e+00
     vertex -1.100000e+01  1.091175e+01  7.066378e+00
     vertex -1.100000e+01  9.705192e+00  8.649234e+00
   endloop
 endfacet
 facet normal  0.000000e+00  6.934325e-01  7.205216e-01
   outer loop
     vertex -9.000000e+00  9.705192e+00  8.649234e+00
     vertex -1.100000e+01  9.705192e+00  8.649234e+00
     vertex -1.100000e+01  8.271152e+00  1.002936e+01
   endloop
 endfacet
 facet normal -2.692182e-16  7.952929e-01  6.062254e-01
   outer loop
     vertex -9.000000e+00  9.705192e+00  8.649234e+00
     vertex -9.000000e+00  1.091175e+01  7.066378e+00
     vertex -1.100000e+01  1.091175e+01  7.066378e+00
   endloop
 endfacet
 facet normal  0.000000e+00 -7.465532e-01 -6.653257e-01
   outer loop
     vertex -9.000000e+00 -9.014623e+00 -9.366781e+00
     vertex -9.000000e+00 -1.033881e+01 -7.880930e+00
     vertex -1.100000e+01 -9.014623e+00 -9.366781e+00
   endloop
 endfacet
 facet normal  0.000000e+00  6.934325e-01  7.205216e-01
   outer loop
     vertex -9.000000e+00  8.271152e+00  1.002936e+01
     vertex -9.000000e+00  9.705192e+00  8.649234e+00
     vertex -1.100000e+01  8.271152e+00  1.002936e+01
   endloop
 endfacet
 facet normal -0.000000e+00 -6.362424e-01 -7.714892e-01
   outer loop
     vertex -9.000000e+00 -7.479143e+00 -1.063308e+01
     vertex -9.000000e+00 -9.014623e+00 -9.366781e+00
     vertex -1.100000e+01 -9.014623e+00 -9.366781e+00
   endloop
 endfacet
 facet normal  0.000000e+00 -6.362424e-01 -7.714892e-01
   outer loop
     vertex -9.000000e+00 -7.479143e+00 -1.063308e+01
     vertex -1.100000e+01 -9.014623e+00 -9.366781e+00
     vertex -1.100000e+01 -7.479143e+00 -1.063308e+01
   endloop
 endfacet
 facet normal  0.000000e+00  5.753187e-01  8.179294e-01
   outer loop
     vertex -9.000000e+00  6.643243e+00  1.117440e+01
     vertex -1.100000e+01  8.271152e+00  1.002936e+01
     vertex -1.100000e+01  6.643243e+00  1.117440e+01
   endloop
 endfacet
 facet normal -0.000000e+00 -5.110187e-01 -8.595696e-01
   outer loop
     vertex -9.000000e+00 -5.768358e+00 -1.165015e+01
     vertex -9.000000e+00 -7.479143e+00 -1.063308e+01
     vertex -1.100000e+01 -7.479143e+00 -1.063308e+01
   endloop
 endfacet
 facet normal  0.000000e+00  5.753187e-01  8.179294e-01
   outer loop
     vertex -9.000000e+00  6.643243e+00  1.117440e+01
     vertex -9.000000e+00  8.271152e+00  1.002936e+01
     vertex -1.100000e+01  8.271152e+00  1.002936e+01
   endloop
 endfacet
 facet normal  0.000000e+00 -5.110187e-01 -8.595696e-01
   outer loop
     vertex -9.000000e+00 -5.768358e+00 -1.165015e+01
     vertex -1.100000e+01 -7.479143e+00 -1.063308e+01
     vertex -1.100000e+01 -5.768358e+00 -1.165015e+01
   endloop
 endfacet
 facet normal  0.000000e+00  4.437198e-01  8.961656e-01
   outer loop
     vertex -9.000000e+00  4.859622e+00  1.205753e+01
     vertex -1.100000e+01  6.643243e+00  1.117440e+01
     vertex -1.100000e+01  4.859622e+00  1.205753e+01
   endloop
 endfacet
 facet normal -0.000000e+00 -3.738171e-01 -9.275025e-01
   outer loop
     vertex -9.000000e+00 -3.922368e+00 -1.239415e+01
     vertex -9.000000e+00 -5.768358e+00 -1.165015e+01
     vertex -1.100000e+01 -5.768358e+00 -1.165015e+01
   endloop
 endfacet
 facet normal  0.000000e+00  3.017206e-01  9.533964e-01
   outer loop
     vertex -9.000000e+00  4.859622e+00  1.205753e+01
     vertex -1.100000e+01  4.859622e+00  1.205753e+01
     vertex -1.100000e+01  2.962096e+00  1.265804e+01
   endloop
 endfacet
 facet normal  0.000000e+00 -3.738171e-01 -9.275025e-01
   outer loop
     vertex -9.000000e+00 -3.922368e+00 -1.239415e+01
     vertex -1.100000e+01 -5.768358e+00 -1.165015e+01
     vertex -1.100000e+01 -3.922368e+00 -1.239415e+01
   endloop
 endfacet
 facet normal  0.000000e+00  4.437198e-01  8.961656e-01
   outer loop
     vertex -9.000000e+00  4.859622e+00  1.205753e+01
     vertex -9.000000e+00  6.643243e+00  1.117440e+01
     vertex -1.100000e+01  6.643243e+00  1.117440e+01
   endloop
 endfacet
 facet normal  0.000000e+00 -2.278535e-01 -9.736954e-01
   outer loop
     vertex -9.000000e+00 -1.984441e+00 -1.284765e+01
     vertex -1.100000e+01 -3.922368e+00 -1.239415e+01
     vertex -1.100000e+01 -1.984441e+00 -1.284765e+01
   endloop
 endfacet
 facet normal  0.000000e+00  3.017206e-01  9.533964e-01
   outer loop
     vertex -9.000000e+00  2.962096e+00  1.265804e+01
     vertex -9.000000e+00  4.859622e+00  1.205753e+01
     vertex -1.100000e+01  2.962096e+00  1.265804e+01
   endloop
 endfacet
 facet normal -0.000000e+00 -2.278535e-01 -9.736954e-01
   outer loop
     vertex -9.000000e+00 -1.984441e+00 -1.284765e+01
     vertex -9.000000e+00 -3.922368e+00 -1.239415e+01
     vertex -1.100000e+01 -3.922368e+00 -1.239415e+01
   endloop
 endfacet
 facet normal  0.000000e+00 -7.654925e-02 -9.970658e-01
   outer loop
     vertex -9.000000e+00 -3.184082e-15 -1.300000e+01
     vertex -1.100000e+01 -1.984441e+00 -1.284765e+01
     vertex -1.100000e+01 -3.184082e-15 -1.300000e+01
   endloop
 endfacet
 facet normal -0.000000e+00 -7.654925e-02 -9.970658e-01
   outer loop
     vertex -9.000000e+00 -3.184082e-15 -1.300000e+01
     vertex -9.000000e+00 -1.984441e+00 -1.284765e+01
     vertex -1.100000e+01 -1.984441e+00 -1.284765e+01
   endloop
 endfacet
 facet normal  0.000000e+00  1.526493e-01  9.882804e-01
   outer loop
     vertex -9.000000e+00  9.951403e-01  1.296186e+01
     vertex -1.100000e+01  2.962096e+00  1.265804e+01
     vertex -1.100000e+01  9.951403e-01  1.296186e+01
   endloop
 endfacet
 facet normal  0.000000e+00 -1.000000e+00 -0.000000e+00
   outer loop
     vertex -5.900000e+01 -2.100000e+01  1.750000e+01
     vertex -5.900000e+01 -2.100000e+01 -1.750000e+01
     vertex -1.100000e+01 -2.100000e+01 -1.750000e+01
   endloop
 endfacet
 facet normal  0.000000e+00 -1.000000e+00 -0.000000e+00
   outer loop
     vertex -1.100000e+01 -2.100000e+01  1.750000e+01
     vertex -5.900000e+01 -2.100000e+01  1.750000e+01
     vertex -1.100000e+01 -2.100000e+01 -1.750000e+01
   endloop
 endfacet
 facet normal  0.000000e+00  1.000000e+00 -0.000000e+00
   outer loop
     vertex -1.100000e+01  2.100000e+01 -1.750000e+01
     vertex -5.900000e+01  2.100000e+01 -1.750000e+01
     vertex -5.900000e+01  2.100000e+01  1.750000e+01
   endloop
 endfacet
 facet normal  0.000000e+00  1.000000e+00 -0.000000e+00
   outer loop
     vertex -1.100000e+01  2.100000e+01 -1.750000e+01
     vertex -5.900000e+01  2.100000e+01  1.750000e+01
     vertex -1.100000e+01  2.100000e+01  1.750000e+01
   endloop
 endfacet
 facet normal  2.093457e-16 -7.071068e-01 -7.071068e-01
   outer loop
     vertex -1.100000e+01 -2.100000e+01 -1.750000e+01
     vertex -5.900000e+01 -2.100000e+01 -1.750000e+01
     vertex -5.900000e+01 -1.750000e+01 -2.100000e+01
   endloop
 endfacet
 facet normal  1.046728e-16 -7.071068e-01 -7.071068e-01
   outer loop
     vertex -1.100000e+01 -2.100000e+01 -1.750000e+01
     vertex -5.900000e+01 -1.750000e+01 -2.100000e+01
     vertex -1.100000e+01 -1.750000e+01 -2.100000e+01
   endloop
 endfacet
 facet normal  2.093457e-16  7.071068e-01 -7.071068e-01
   outer loop
     vertex -5.900000e+01  1.750000e+01 -2.100000e+01
     vertex -5.900000e+01  2.100000e+01 -1.750000e+01
     vertex -1.100000e+01  2.100000e+01 -1.750000e+01
   endloop
 endfacet
 facet normal  1.046728e-16  7.071068e-01 -7.071068e-01
   outer loop
     vertex -1.100000e+01  1.750000e+01 -2.100000e+01
     vertex -5.900000e+01  1.750000e+01 -2.100000e+01
     vertex -1.100000e+01  2.100000e+01 -1.750000e+01
   endloop
 endfacet
 facet normal  1.480297e-16  0.000000e+00 -1.000000e+00
   outer loop
     vertex -1.100000e+01 -1.750000e+01 -2.100000e+01
     vertex -5.900000e+01  1.750000e+01 -2.100000e+01
     vertex -1.100000e+01  1.750000e+01 -2.100000e+01
   endloop
 endfacet
 facet normal  1.480297e-16  0.000000e+00 -1.000000e+00
   outer loop
     vertex -1.100000e+01 -1.750000e+01 -2.100000e+01
     vertex -5.900000e+01 -1.750000e+01 -2.100000e+01
     vertex -5.900000e+01  1.750000e+01 -2.100000e+01
   endloop
 endfacet
 facet normal  1.000000e+00  0.000000e+00 -0.000000e+00
   outer loop
     vertex -9.000000e+00  1.276221e+01 -2.475084e+00
     vertex -9.000000e+00  1.299046e+01 -4.979355e-01
     vertex -9.000000e+00  2.500000e+00  1.248151e-15
   endloop
 endfacet
 facet normal  1.000000e+00  0.000000e+00  0.000000e+00
   outer loop
     vertex -9.000000e+00 -2.414815e+00 -6.470476e-01
     vertex -9.000000e+00 -2.500000e+00  1.056413e-15
     vertex -9.000000e+00 -1.276221e+01 -2.475084e+00
   endloop
 endfacet
 facet normal  1.000000e+00 -7.736675e-17  3.306144e-16
   outer loop
     vertex -9.000000e+00  3.922368e+00 -1.239415e+01
     vertex -9.000000e+00  6.470476e-01 -2.414815e+00
     vertex -9.000000e+00  1.984441e+00 -1.284765e+01
   endloop
 endfacet
 facet normal  1.000000e+00  4.415458e-17  3.353873e-16
   outer loop
     vertex -9.000000e+00  6.470476e-01  2.414815e+00
     vertex -9.000000e+00  9.951403e-01  1.296186e+01
     vertex -9.000000e+00  4.592425e-16  2.500000e+00
   endloop
 endfacet
 facet normal  1.000000e+00  1.024360e-16  3.236841e-16
   outer loop
     vertex -9.000000e+00  6.470476e-01  2.414815e+00
     vertex -9.000000e+00  4.859622e+00  1.205753e+01
     vertex -9.000000e+00  2.962096e+00  1.265804e+01
   endloop
 endfacet
 facet normal  1.000000e+00  0.000000e+00  0.000000e+00
   outer loop
     vertex -9.000000e+00  1.223482e+01 -4.394219e+00
     vertex -9.000000e+00  2.414815e+00 -6.470476e-01
     vertex -9.000000e+00  2.165064e+00 -1.250000e+00
   endloop
 endfacet
 facet normal  1.000000e+00  5.176496e-17  3.351362e-16
   outer loop
     vertex -9.000000e+00  6.470476e-01  2.414815e+00
     vertex -9.000000e+00  2.962096e+00  1.265804e+01
     vertex -9.000000e+00  9.951403e-01  1.296186e+01
   endloop
 endfacet
 facet normal  1.000000e+00  0.000000e+00 -0.000000e+00
   outer loop
     vertex -9.000000e+00  1.223482e+01 -4.394219e+00
     vertex -9.000000e+00  1.276221e+01 -2.475084e+00
     vertex -9.000000e+00  2.414815e+00 -6.470476e-01
   endloop
 endfacet
 facet normal  1.000000e+00 -1.295789e-16  3.128310e-16
   outer loop
     vertex -9.000000e+00  5.768358e+00 -1.165015e+01
     vertex -9.000000e+00  1.250000e+00 -2.165064e+00
     vertex -9.000000e+00  6.470476e-01 -2.414815e+00
   endloop
 endfacet
 facet normal  1.000000e+00  0.000000e+00  0.000000e+00
   outer loop
     vertex -9.000000e+00 -2.165064e+00 -1.250000e+00
     vertex -9.000000e+00 -2.414815e+00 -6.470476e-01
     vertex -9.000000e+00 -1.223482e+01 -4.394219e+00
   endloop
 endfacet
 facet normal  1.000000e+00 -2.679040e-16  8.579962e-16
   outer loop
     vertex -9.000000e+00 -2.165064e+00 -1.250000e+00
     vertex -9.000000e+00 -1.223482e+01 -4.394219e+00
     vertex -9.000000e+00 -1.142066e+01 -6.210358e+00
   endloop
 endfacet
 facet normal  1.000000e+00 -1.267210e-16  3.144158e-16
   outer loop
     vertex -9.000000e+00  5.768358e+00 -1.165015e+01
     vertex -9.000000e+00  6.470476e-01 -2.414815e+00
     vertex -9.000000e+00  3.922368e+00 -1.239415e+01
   endloop
 endfacet
 facet normal  1.000000e+00  1.424745e-16  9.226557e-17
   outer loop
     vertex -9.000000e+00 -2.165064e+00 -1.250000e+00
     vertex -9.000000e+00 -1.142066e+01 -6.210358e+00
     vertex -9.000000e+00 -1.033881e+01 -7.880930e+00
   endloop
 endfacet
 facet normal  1.000000e+00  2.679040e-16  8.579962e-16
   outer loop
     vertex -9.000000e+00  1.142066e+01 -6.210358e+00
     vertex -9.000000e+00  1.223482e+01 -4.394219e+00
     vertex -9.000000e+00  2.165064e+00 -1.250000e+00
   endloop
 endfacet
 facet normal  1.000000e+00  1.292265e-16  3.119803e-16
   outer loop
     vertex -9.000000e+00  1.250000e+00  2.165064e+00
     vertex -9.000000e+00  4.859622e+00  1.205753e+01
     vertex -9.000000e+00  6.470476e-01  2.414815e+00
   endloop
 endfacet
 facet normal  1.000000e+00  9.759235e-17  1.387468e-16
   outer loop
     vertex -9.000000e+00  1.250000e+00  2.165064e+00
     vertex -9.000000e+00  8.271152e+00  1.002936e+01
     vertex -9.000000e+00  6.643243e+00  1.117440e+01
   endloop
 endfacet
 facet normal  1.000000e+00 -1.028885e-16  1.340869e-16
   outer loop
     vertex -9.000000e+00  7.479143e+00 -1.063308e+01
     vertex -9.000000e+00  1.767767e+00 -1.767767e+00
     vertex -9.000000e+00  1.250000e+00 -2.165064e+00
   endloop
 endfacet
 facet normal  1.000000e+00 -6.929215e-16  6.119704e-16
   outer loop
     vertex -9.000000e+00  1.250000e+00  2.165064e+00
     vertex -9.000000e+00  6.643243e+00  1.117440e+01
     vertex -9.000000e+00  4.859622e+00  1.205753e+01
   endloop
 endfacet
 facet normal  1.000000e+00  6.356386e-16  6.773533e-16
   outer loop
     vertex -9.000000e+00  7.479143e+00 -1.063308e+01
     vertex -9.000000e+00  1.250000e+00 -2.165064e+00
     vertex -9.000000e+00  5.768358e+00 -1.165015e+01
   endloop
 endfacet
 facet normal  1.000000e+00 -1.339450e-16  1.027796e-16
   outer loop
     vertex -9.000000e+00  1.033881e+01 -7.880930e+00
     vertex -9.000000e+00  2.165064e+00 -1.250000e+00
     vertex -9.000000e+00  1.767767e+00 -1.767767e+00
   endloop
 endfacet
 facet normal  1.000000e+00  1.028573e-16  1.340463e-16
   outer loop
     vertex -9.000000e+00  1.767767e+00  1.767767e+00
     vertex -9.000000e+00  8.271152e+00  1.002936e+01
     vertex -9.000000e+00  1.250000e+00  2.165064e+00
   endloop
 endfacet
 facet normal  1.000000e+00 -1.424745e-16  9.226557e-17
   outer loop
     vertex -9.000000e+00  1.033881e+01 -7.880930e+00
     vertex -9.000000e+00  1.142066e+01 -6.210358e+00
     vertex -9.000000e+00  2.165064e+00 -1.250000e+00
   endloop
 endfacet
 facet normal  1.000000e+00  1.339450e-16  1.027796e-16
   outer loop
     vertex -9.000000e+00 -1.767767e+00 -1.767767e+00
     vertex -9.000000e+00 -2.165064e+00 -1.250000e+00
     vertex -9.000000e+00 -1.033881e+01 -7.880930e+00
   endloop
 endfacet
 facet normal  1.000000e+00 -1.267100e-16  1.129235e-16
   outer loop
     vertex -9.000000e+00  9.014623e+00 -9.366781e+00
     vertex -9.000000e+00  1.033881e+01 -7.880930e+00
     vertex -9.000000e+00  1.767767e+00 -1.767767e+00
   endloop
 endfacet
 facet normal  1.000000e+00 -1.079117e-16  1.308507e-16
   outer loop
     vertex -9.000000e+00  9.014623e+00 -9.366781e+00
     vertex -9.000000e+00  1.767767e+00 -1.767767e+00
     vertex -9.000000e+00  7.479143e+00 -1.063308e+01
   endloop
 endfacet
 facet normal  1.000000e+00  1.267100e-16  1.129235e-16
   outer loop
     vertex -9.000000e+00 -9.014623e+00 -9.366781e+00
     vertex -9.000000e+00 -1.767767e+00 -1.767767e+00
     vertex -9.000000e+00 -1.033881e+01 -7.880930e+00
   endloop
 endfacet
 facet normal  1.000000e+00  1.343917e-16  1.031224e-16
   outer loop
     vertex -9.000000e+00  9.705192e+00  8.649234e+00
     vertex -9.000000e+00  1.767767e+00  1.767767e+00
     vertex -9.000000e+00  2.165064e+00  1.250000e+00
   endloop
 endfacet
 facet normal  1.000000e+00  1.177353e-16  1.223346e-16
   outer loop
     vertex -9.000000e+00  9.705192e+00  8.649234e+00
     vertex -9.000000e+00  8.271152e+00  1.002936e+01
     vertex -9.000000e+00  1.767767e+00  1.767767e+00
   endloop
 endfacet
 facet normal  1.000000e+00  1.028885e-16  1.340869e-16
   outer loop
     vertex -9.000000e+00 -7.479143e+00 -1.063308e+01
     vertex -9.000000e+00 -1.250000e+00 -2.165064e+00
     vertex -9.000000e+00 -1.767767e+00 -1.767767e+00
   endloop
 endfacet
 facet normal  1.000000e+00  1.079117e-16  1.308507e-16
   outer loop
     vertex -9.000000e+00 -7.479143e+00 -1.063308e+01
     vertex -9.000000e+00 -1.767767e+00 -1.767767e+00
     vertex -9.000000e+00 -9.014623e+00 -9.366781e+00
   endloop
 endfacet
 facet normal  1.000000e+00 -1.177353e-16  1.223346e-16
   outer loop
     vertex -9.000000e+00 -1.767767e+00  1.767767e+00
     vertex -9.000000e+00 -8.271152e+00  1.002936e+01
     vertex -9.000000e+00 -9.705192e+00  8.649234e+00
   endloop
 endfacet
 facet normal  1.000000e+00  1.347734e-16  1.027333e-16
   outer loop
     vertex -9.000000e+00  1.091175e+01  7.066378e+00
     vertex -9.000000e+00  9.705192e+00  8.649234e+00
     vertex -9.000000e+00  2.165064e+00  1.250000e+00
   endloop
 endfacet
 facet normal  1.000000e+00  1.295789e-16  3.128310e-16
   outer loop
     vertex -9.000000e+00 -5.768358e+00 -1.165015e+01
     vertex -9.000000e+00 -6.470476e-01 -2.414815e+00
     vertex -9.000000e+00 -1.250000e+00 -2.165064e+00
   endloop
 endfacet
 facet normal  1.000000e+00 -1.347734e-16  1.027333e-16
   outer loop
     vertex -9.000000e+00 -2.165064e+00  1.250000e+00
     vertex -9.000000e+00 -9.705192e+00  8.649234e+00
     vertex -9.000000e+00 -1.091175e+01  7.066378e+00
   endloop
 endfacet
 facet normal  1.000000e+00 -1.491542e-16  8.110748e-17
   outer loop
     vertex -9.000000e+00 -2.165064e+00  1.250000e+00
     vertex -9.000000e+00 -1.091175e+01  7.066378e+00
     vertex -9.000000e+00 -1.186255e+01  5.317892e+00
   endloop
 endfacet
 facet normal  1.000000e+00 -6.356386e-16  6.773533e-16
   outer loop
     vertex -9.000000e+00 -5.768358e+00 -1.165015e+01
     vertex -9.000000e+00 -1.250000e+00 -2.165064e+00
     vertex -9.000000e+00 -7.479143e+00 -1.063308e+01
   endloop
 endfacet
 facet normal  1.000000e+00 -1.343917e-16  1.031224e-16
   outer loop
     vertex -9.000000e+00 -2.165064e+00  1.250000e+00
     vertex -9.000000e+00 -1.767767e+00  1.767767e+00
     vertex -9.000000e+00 -9.705192e+00  8.649234e+00
   endloop
 endfacet
 facet normal  1.000000e+00  1.560609e-16  6.464254e-17
   outer loop
     vertex -9.000000e+00  1.186255e+01  5.317892e+00
     vertex -9.000000e+00  2.165064e+00  1.250000e+00
     vertex -9.000000e+00  2.414815e+00  6.470476e-01
   endloop
 endfacet
 facet normal  1.000000e+00  1.491542e-16  8.110748e-17
   outer loop
     vertex -9.000000e+00  1.186255e+01  5.317892e+00
     vertex -9.000000e+00  1.091175e+01  7.066378e+00
     vertex -9.000000e+00  2.165064e+00  1.250000e+00
   endloop
 endfacet
 facet normal  1.000000e+00  1.267210e-16  3.144158e-16
   outer loop
     vertex -9.000000e+00 -3.922368e+00 -1.239415e+01
     vertex -9.000000e+00 -6.470476e-01 -2.414815e+00
     vertex -9.000000e+00 -5.768358e+00 -1.165015e+01
   endloop
 endfacet
 facet normal  1.000000e+00  6.929215e-16  6.119704e-16
   outer loop
     vertex -9.000000e+00 -1.250000e+00  2.165064e+00
     vertex -9.000000e+00 -4.859622e+00  1.205753e+01
     vertex -9.000000e+00 -6.643243e+00  1.117440e+01
   endloop
 endfacet
 facet normal  1.000000e+00 -9.759235e-17  1.387468e-16
   outer loop
     vertex -9.000000e+00 -1.250000e+00  2.165064e+00
     vertex -9.000000e+00 -6.643243e+00  1.117440e+01
     vertex -9.000000e+00 -8.271152e+00  1.002936e+01
   endloop
 endfacet
 facet normal  1.000000e+00 -1.028573e-16  1.340463e-16
   outer loop
     vertex -9.000000e+00 -1.250000e+00  2.165064e+00
     vertex -9.000000e+00 -8.271152e+00  1.002936e+01
     vertex -9.000000e+00 -1.767767e+00  1.767767e+00
   endloop
 endfacet
 facet normal  1.000000e+00  2.384806e-16  8.626828e-16
   outer loop
     vertex -9.000000e+00 -2.414815e+00  6.470476e-01
     vertex -9.000000e+00 -1.186255e+01  5.317892e+00
     vertex -9.000000e+00 -1.253530e+01  3.444760e+00
   endloop
 endfacet
 facet normal  1.000000e+00 -2.384806e-16  8.626828e-16
   outer loop
     vertex -9.000000e+00  1.253530e+01  3.444760e+00
     vertex -9.000000e+00  1.186255e+01  5.317892e+00
     vertex -9.000000e+00  2.414815e+00  6.470476e-01
   endloop
 endfacet
 facet normal  1.000000e+00  0.000000e+00  0.000000e+00
   outer loop
     vertex -9.000000e+00 -2.414815e+00  6.470476e-01
     vertex -9.000000e+00 -1.253530e+01  3.444760e+00
     vertex -9.000000e+00 -1.291423e+01  1.490885e+00
   endloop
 endfacet
 facet normal  1.000000e+00 -1.560609e-16  6.464254e-17
   outer loop
     vertex -9.000000e+00 -2.414815e+00  6.470476e-01
     vertex -9.000000e+00 -2.165064e+00  1.250000e+00
     vertex -9.000000e+00 -1.186255e+01  5.317892e+00
   endloop
 endfacet
 facet normal  1.000000e+00  4.408784e-17  3.348804e-16
   outer loop
     vertex -9.000000e+00 -1.984441e+00 -1.284765e+01
     vertex -9.000000e+00 -6.123234e-16 -2.500000e+00
     vertex -9.000000e+00 -6.470476e-01 -2.414815e+00
   endloop
 endfacet
 facet normal  1.000000e+00  7.736675e-17  3.306144e-16
   outer loop
     vertex -9.000000e+00 -1.984441e+00 -1.284765e+01
     vertex -9.000000e+00 -6.470476e-01 -2.414815e+00
     vertex -9.000000e+00 -3.922368e+00 -1.239415e+01
   endloop
 endfacet
 facet normal  1.000000e+00 -5.176496e-17  3.351362e-16
   outer loop
     vertex -9.000000e+00 -6.470476e-01  2.414815e+00
     vertex -9.000000e+00 -9.951403e-01  1.296186e+01
     vertex -9.000000e+00 -2.962096e+00  1.265804e+01
   endloop
 endfacet
 facet normal  1.000000e+00 -1.024360e-16  3.236841e-16
   outer loop
     vertex -9.000000e+00 -6.470476e-01  2.414815e+00
     vertex -9.000000e+00 -2.962096e+00  1.265804e+01
     vertex -9.000000e+00 -4.859622e+00  1.205753e+01
   endloop
 endfacet
 facet normal  1.000000e+00  0.000000e+00  0.000000e+00
   outer loop
     vertex -9.000000e+00  1.291423e+01  1.490885e+00
     vertex -9.000000e+00  2.414815e+00  6.470476e-01
     vertex -9.000000e+00  2.500000e+00  1.248151e-15
   endloop
 endfacet
 facet normal  1.000000e+00  0.000000e+00  0.000000e+00
   outer loop
     vertex -9.000000e+00  1.291423e+01  1.490885e+00
     vertex -9.000000e+00  1.253530e+01  3.444760e+00
     vertex -9.000000e+00  2.414815e+00  6.470476e-01
   endloop
 endfacet
 facet normal  1.000000e+00 -1.292265e-16  3.119803e-16
   outer loop
     vertex -9.000000e+00 -6.470476e-01  2.414815e+00
     vertex -9.000000e+00 -4.859622e+00  1.205753e+01
     vertex -9.000000e+00 -1.250000e+00  2.165064e+00
   endloop
 endfacet
 facet normal  1.000000e+00  2.597694e-17  3.383537e-16
   outer loop
     vertex -9.000000e+00 -3.184082e-15 -1.300000e+01
     vertex -9.000000e+00 -6.123234e-16 -2.500000e+00
     vertex -9.000000e+00 -1.984441e+00 -1.284765e+01
   endloop
 endfacet
 facet normal  1.000000e+00  3.030871e-31  3.395873e-16
   outer loop
     vertex -9.000000e+00  4.592425e-16  2.500000e+00
     vertex -9.000000e+00  9.951403e-01  1.296186e+01
     vertex -9.000000e+00 -9.951403e-01  1.296186e+01
   endloop
 endfacet
 facet normal  1.000000e+00 -4.415458e-17  3.353873e-16
   outer loop
     vertex -9.000000e+00  4.592425e-16  2.500000e+00
     vertex -9.000000e+00 -9.951403e-01  1.296186e+01
     vertex -9.000000e+00 -6.470476e-01  2.414815e+00
   endloop
 endfacet
 facet normal  1.000000e+00  0.000000e+00  0.000000e+00
   outer loop
     vertex -9.000000e+00  1.299046e+01 -4.979355e-01
     vertex -9.000000e+00  1.291423e+01  1.490885e+00
     vertex -9.000000e+00  2.500000e+00  1.248151e-15
   endloop
 endfacet
 facet normal  1.000000e+00  0.000000e+00  0.000000e+00
   outer loop
     vertex -9.000000e+00 -2.500000e+00  1.056413e-15
     vertex -9.000000e+00 -1.291423e+01  1.490885e+00
     vertex -9.000000e+00 -1.299046e+01 -4.979355e-01
   endloop
 endfacet
 facet normal  1.000000e+00  0.000000e+00  0.000000e+00
   outer loop
     vertex -9.000000e+00 -2.500000e+00  1.056413e-15
     vertex -9.000000e+00 -1.299046e+01 -4.979355e-01
     vertex -9.000000e+00 -1.276221e+01 -2.475084e+00
   endloop
 endfacet
 facet normal  1.000000e+00 -4.408784e-17  3.348804e-16
   outer loop
     vertex -9.000000e+00  1.984441e+00 -1.284765e+01
     vertex -9.000000e+00  6.470476e-01 -2.414815e+00
     vertex -9.000000e+00 -6.123234e-16 -2.500000e+00
   endloop
 endfacet
 facet normal  1.000000e+00  0.000000e+00 -0.000000e+00
   outer loop
     vertex -9.000000e+00 -2.500000e+00  1.056413e-15
     vertex -9.000000e+00 -2.414815e+00  6.470476e-01
     vertex -9.000000e+00 -1.291423e+01  1.490885e+00
   endloop
 endfacet
 facet normal  1.000000e+00 -2.597694e-17  3.383537e-16
   outer loop
     vertex -9.000000e+00  1.984441e+00 -1.284765e+01
     vertex -9.000000e+00 -6.123234e-16 -2.500000e+00
     vertex -9.000000e+00 -3.184082e-15 -1.300000e+01
   endloop
 endfacet
 facet normal  1.000000e+00  0.000000e+00  0.000000e+00
   outer loop
     vertex -9.000000e+00  1.276221e+01 -2.475084e+00
     vertex -9.000000e+00  2.500000e+00  1.248151e-15
     vertex -9.000000e+00  2.414815e+00 -6.470476e-01
   endloop
 endfacet
 facet normal  1.000000e+00  0.000000e+00  0.000000e+00
   outer loop
     vertex -9.000000e+00 -2.414815e+00 -6.470476e-01
     vertex -9.000000e+00 -1.276221e+01 -2.475084e+00
     vertex -9.000000e+00 -1.223482e+01 -4.394219e+00
   endloop
 endfacet
 facet normal -5.948338e-04 -9.238794e-01 -3.826834e-01
   outer loop
     vertex  1.400000e+01 -2.377641e+00 -7.725425e-01
     vertex -9.000000e+00 -2.414815e+00 -6.470476e-01
     vertex -9.000000e+00 -2.165064e+00 -1.250000e+00
   endloop
 endfacet
 facet normal  5.651929e-04 -9.822871e-01 -1.873813e-01
   outer loop
     vertex  1.400000e+01 -2.377641e+00 -7.725425e-01
     vertex  1.400000e+01 -2.495067e+00 -1.569763e-01
     vertex -9.000000e+00 -2.414815e+00 -6.470476e-01
   endloop
 endfacet
 facet normal -4.995873e-04 -7.933532e-01 -6.087614e-01
   outer loop
     vertex  1.400000e+01 -2.110820e+00 -1.339567e+00
     vertex -9.000000e+00 -2.165064e+00 -1.250000e+00
     vertex -9.000000e+00 -1.767767e+00 -1.767767e+00
   endloop
 endfacet
 facet normal  4.758867e-04 -9.048270e-01 -4.257792e-01
   outer loop
     vertex  1.400000e+01 -2.110820e+00 -1.339567e+00
     vertex  1.400000e+01 -2.377641e+00 -7.725425e-01
     vertex -9.000000e+00 -2.165064e+00 -1.250000e+00
   endloop
 endfacet
 facet normal -3.924683e-04 -6.087614e-01 -7.933533e-01
   outer loop
     vertex  1.400000e+01 -1.711368e+00 -1.822422e+00
     vertex -9.000000e+00 -1.767767e+00 -1.767767e+00
     vertex -9.000000e+00 -1.250000e+00 -2.165064e+00
   endloop
 endfacet
 facet normal  2.107157e-16  1.253332e-01 -9.921147e-01
   outer loop
     vertex  1.400000e+01  6.217247e-01 -2.421458e+00
     vertex  1.400000e+01 -6.123234e-16 -2.500000e+00
     vertex -9.000000e+00 -6.123234e-16 -2.500000e+00
   endloop
 endfacet
 facet normal  3.747025e-04 -7.705132e-01 -6.374239e-01
   outer loop
     vertex  1.400000e+01 -1.711368e+00 -1.822422e+00
     vertex  1.400000e+01 -2.110820e+00 -1.339567e+00
     vertex -9.000000e+00 -1.767767e+00 -1.767767e+00
   endloop
 endfacet
 facet normal -1.426609e-04  1.305262e-01 -9.914449e-01
   outer loop
     vertex  1.400000e+01  6.217247e-01 -2.421458e+00
     vertex -9.000000e+00 -6.123234e-16 -2.500000e+00
     vertex -9.000000e+00  6.470476e-01 -2.414815e+00
   endloop
 endfacet
 facet normal  2.616515e-04 -5.877852e-01 -8.090170e-01
   outer loop
     vertex  1.400000e+01 -1.204384e+00 -2.190767e+00
     vertex  1.400000e+01 -1.711368e+00 -1.822422e+00
     vertex -9.000000e+00 -1.250000e+00 -2.165064e+00
   endloop
 endfacet
 facet normal -2.734885e-04 -3.826834e-01 -9.238795e-01
   outer loop
     vertex  1.400000e+01 -1.204384e+00 -2.190767e+00
     vertex -9.000000e+00 -1.250000e+00 -2.165064e+00
     vertex -9.000000e+00 -6.470476e-01 -2.414815e+00
   endloop
 endfacet
 facet normal -2.734885e-04  3.826834e-01 -9.238795e-01
   outer loop
     vertex  1.400000e+01  1.204384e+00 -2.190767e+00
     vertex -9.000000e+00  6.470476e-01 -2.414815e+00
     vertex -9.000000e+00  1.250000e+00 -2.165064e+00
   endloop
 endfacet
 facet normal  1.367461e-04  3.681245e-01 -9.297765e-01
   outer loop
     vertex  1.400000e+01  1.204384e+00 -2.190767e+00
     vertex  1.400000e+01  6.217247e-01 -2.421458e+00
     vertex -9.000000e+00  6.470476e-01 -2.414815e+00
   endloop
 endfacet
 facet normal -1.426609e-04 -1.305262e-01 -9.914449e-01
   outer loop
     vertex  1.400000e+01 -6.217247e-01 -2.421458e+00
     vertex -9.000000e+00 -6.470476e-01 -2.414815e+00
     vertex -9.000000e+00 -6.123234e-16 -2.500000e+00
   endloop
 endfacet
 facet normal  1.367461e-04 -3.681245e-01 -9.297765e-01
   outer loop
     vertex  1.400000e+01 -6.217247e-01 -2.421458e+00
     vertex  1.400000e+01 -1.204384e+00 -2.190767e+00
     vertex -9.000000e+00 -6.470476e-01 -2.414815e+00
   endloop
 endfacet
 facet normal -3.924683e-04  6.087614e-01 -7.933533e-01
   outer loop
     vertex  1.400000e+01  1.711368e+00 -1.822422e+00
     vertex -9.000000e+00  1.250000e+00 -2.165064e+00
     vertex -9.000000e+00  1.767767e+00 -1.767767e+00
   endloop
 endfacet
 facet normal  2.108629e-16 -1.253332e-01 -9.921147e-01
   outer loop
     vertex  1.400000e+01 -6.123234e-16 -2.500000e+00
     vertex  1.400000e+01 -6.217247e-01 -2.421458e+00
     vertex -9.000000e+00 -6.123234e-16 -2.500000e+00
   endloop
 endfacet
 facet normal  2.616515e-04  5.877852e-01 -8.090170e-01
   outer loop
     vertex  1.400000e+01  1.711368e+00 -1.822422e+00
     vertex  1.400000e+01  1.204384e+00 -2.190767e+00
     vertex -9.000000e+00  1.250000e+00 -2.165064e+00
   endloop
 endfacet
 facet normal -4.995873e-04  7.933532e-01 -6.087614e-01
   outer loop
     vertex  1.400000e+01  2.110820e+00 -1.339567e+00
     vertex -9.000000e+00  1.767767e+00 -1.767767e+00
     vertex -9.000000e+00  2.165064e+00 -1.250000e+00
   endloop
 endfacet
 facet normal  3.747025e-04  7.705132e-01 -6.374239e-01
   outer loop
     vertex  1.400000e+01  2.110820e+00 -1.339567e+00
     vertex  1.400000e+01  1.711368e+00 -1.822422e+00
     vertex -9.000000e+00  1.767767e+00 -1.767767e+00
   endloop
 endfacet
 facet normal -5.948338e-04  9.238794e-01 -3.826834e-01
   outer loop
     vertex  1.400000e+01  2.377641e+00 -7.725425e-01
     vertex -9.000000e+00  2.165064e+00 -1.250000e+00
     vertex -9.000000e+00  2.414815e+00 -6.470476e-01
   endloop
 endfacet
 facet normal  4.758867e-04  9.048270e-01 -4.257792e-01
   outer loop
     vertex  1.400000e+01  2.377641e+00 -7.725425e-01
     vertex  1.400000e+01  2.110820e+00 -1.339567e+00
     vertex -9.000000e+00  2.165064e+00 -1.250000e+00
   endloop
 endfacet
 facet normal -6.781974e-04  9.914446e-01 -1.305262e-01
   outer loop
     vertex  1.400000e+01  2.495067e+00 -1.569763e-01
     vertex -9.000000e+00  2.414815e+00 -6.470476e-01
     vertex -9.000000e+00  2.500000e+00  1.248151e-15
   endloop
 endfacet
 facet normal  5.651929e-04  9.822871e-01 -1.873813e-01
   outer loop
     vertex  1.400000e+01  2.495067e+00 -1.569763e-01
     vertex  1.400000e+01  2.377641e+00 -7.725425e-01
     vertex -9.000000e+00  2.414815e+00 -6.470476e-01
   endloop
 endfacet
 facet normal -7.496688e-04  9.914446e-01  1.305262e-01
   outer loop
     vertex  1.400000e+01  2.455718e+00  4.684533e-01
     vertex -9.000000e+00  2.500000e+00  1.248151e-15
     vertex -9.000000e+00  2.414815e+00  6.470476e-01
   endloop
 endfacet
 facet normal  6.426115e-04  9.980265e-01  6.279051e-02
   outer loop
     vertex  1.400000e+01  2.455718e+00  4.684533e-01
     vertex  1.400000e+01  2.495067e+00 -1.569763e-01
     vertex -9.000000e+00  2.500000e+00  1.248151e-15
   endloop
 endfacet
 facet normal -8.092403e-04  9.238792e-01  3.826833e-01
   outer loop
     vertex  1.400000e+01  2.262068e+00  1.064448e+00
     vertex -9.000000e+00  2.414815e+00  6.470476e-01
     vertex -9.000000e+00  2.165064e+00  1.250000e+00
   endloop
 endfacet
 facet normal  7.081339e-04  9.510563e-01  3.090169e-01
   outer loop
     vertex  1.400000e+01  2.262068e+00  1.064448e+00
     vertex  1.400000e+01  2.455718e+00  4.684533e-01
     vertex -9.000000e+00  2.414815e+00  6.470476e-01
   endloop
 endfacet
 facet normal -8.569054e-04  7.933530e-01  6.087612e-01
   outer loop
     vertex  1.400000e+01  1.926283e+00  1.593560e+00
     vertex -9.000000e+00  2.165064e+00  1.250000e+00
     vertex -9.000000e+00  1.767767e+00  1.767767e+00
   endloop
 endfacet
 facet normal  7.617529e-04  8.443277e-01  5.358266e-01
   outer loop
     vertex  1.400000e+01  1.926283e+00  1.593560e+00
     vertex  1.400000e+01  2.262068e+00  1.064448e+00
     vertex -9.000000e+00  2.165064e+00  1.250000e+00
   endloop
 endfacet
 facet normal -8.926587e-04  6.087612e-01  7.933530e-01
   outer loop
     vertex  1.400000e+01  1.469463e+00  2.022542e+00
     vertex -9.000000e+00  1.767767e+00  1.767767e+00
     vertex -9.000000e+00  1.250000e+00  2.165064e+00
   endloop
 endfacet
 facet normal  8.034627e-04  6.845469e-01  7.289684e-01
   outer loop
     vertex  1.400000e+01  1.469463e+00  2.022542e+00
     vertex  1.400000e+01  1.926283e+00  1.593560e+00
     vertex -9.000000e+00  1.767767e+00  1.767767e+00
   endloop
 endfacet
 facet normal -9.164965e-04  3.826833e-01  9.238791e-01
   outer loop
     vertex  1.400000e+01  9.203114e-01  2.324441e+00
     vertex -9.000000e+00  1.250000e+00  2.165064e+00
     vertex -9.000000e+00  6.470476e-01  2.414815e+00
   endloop
 endfacet
 facet normal  8.332586e-04  4.817535e-01  8.763064e-01
   outer loop
     vertex  1.400000e+01  9.203114e-01  2.324441e+00
     vertex  1.400000e+01  1.469463e+00  2.022542e+00
     vertex -9.000000e+00  1.250000e+00  2.165064e+00
   endloop
 endfacet
 facet normal  8.511375e-04  2.486898e-01  9.685828e-01
   outer loop
     vertex  1.400000e+01  3.133331e-01  2.480287e+00
     vertex  1.400000e+01  9.203114e-01  2.324441e+00
     vertex -9.000000e+00  6.470476e-01  2.414815e+00
   endloop
 endfacet
 facet normal -9.284160e-04  1.305261e-01  9.914444e-01
   outer loop
     vertex  1.400000e+01  3.133331e-01  2.480287e+00
     vertex -9.000000e+00  6.470476e-01  2.414815e+00
     vertex -9.000000e+00  4.592425e-16  2.500000e+00
   endloop
 endfacet
 facet normal  8.570974e-04 -0.000000e+00  9.999996e-01
   outer loop
     vertex  1.400000e+01 -3.133331e-01  2.480287e+00
     vertex  1.400000e+01  3.133331e-01  2.480287e+00
     vertex -9.000000e+00  4.592425e-16  2.500000e+00
   endloop
 endfacet
 facet normal -9.284160e-04 -1.305261e-01  9.914444e-01
   outer loop
     vertex  1.400000e+01 -3.133331e-01  2.480287e+00
     vertex -9.000000e+00  4.592425e-16  2.500000e+00
     vertex -9.000000e+00 -6.470476e-01  2.414815e+00
   endloop
 endfacet
 facet normal  8.511375e-04 -2.486898e-01  9.685828e-01
   outer loop
     vertex  1.400000e+01 -9.203114e-01  2.324441e+00
     vertex  1.400000e+01 -3.133331e-01  2.480287e+00
     vertex -9.000000e+00 -6.470476e-01  2.414815e+00
   endloop
 endfacet
 facet normal -9.164965e-04 -3.826833e-01  9.238791e-01
   outer loop
     vertex  1.400000e+01 -9.203114e-01  2.324441e+00
     vertex -9.000000e+00 -6.470476e-01  2.414815e+00
     vertex -9.000000e+00 -1.250000e+00  2.165064e+00
   endloop
 endfacet
 facet normal  8.332586e-04 -4.817535e-01  8.763064e-01
   outer loop
     vertex  1.400000e+01 -1.469463e+00  2.022542e+00
     vertex  1.400000e+01 -9.203114e-01  2.324441e+00
     vertex -9.000000e+00 -1.250000e+00  2.165064e+00
   endloop
 endfacet
 facet normal -8.926587e-04 -6.087612e-01  7.933530e-01
   outer loop
     vertex  1.400000e+01 -1.469463e+00  2.022542e+00
     vertex -9.000000e+00 -1.250000e+00  2.165064e+00
     vertex -9.000000e+00 -1.767767e+00  1.767767e+00
   endloop
 endfacet
 facet normal  8.034627e-04 -6.845469e-01  7.289684e-01
   outer loop
     vertex  1.400000e+01 -1.926283e+00  1.593560e+00
     vertex  1.400000e+01 -1.469463e+00  2.022542e+00
     vertex -9.000000e+00 -1.767767e+00  1.767767e+00
   endloop
 endfacet
 facet normal -8.569054e-04 -7.933530e-01  6.087612e-01
   outer loop
     vertex  1.400000e+01 -1.926283e+00  1.593560e+00
     vertex -9.000000e+00 -1.767767e+00  1.767767e+00
     vertex -9.000000e+00 -2.165064e+00  1.250000e+00
   endloop
 endfacet
 facet normal  7.617529e-04 -8.443277e-01  5.358266e-01
   outer loop
     vertex  1.400000e+01 -2.262068e+00  1.064448e+00
     vertex  1.400000e+01 -1.926283e+00  1.593560e+00
     vertex -9.000000e+00 -2.165064e+00  1.250000e+00
   endloop
 endfacet
 facet normal -8.092403e-04 -9.238792e-01  3.826833e-01
   outer loop
     vertex  1.400000e+01 -2.262068e+00  1.064448e+00
     vertex -9.000000e+00 -2.165064e+00  1.250000e+00
     vertex -9.000000e+00 -2.414815e+00  6.470476e-01
   endloop
 endfacet
 facet normal  7.081339e-04 -9.510563e-01  3.090169e-01
   outer loop
     vertex  1.400000e+01 -2.455718e+00  4.684533e-01
     vertex  1.400000e+01 -2.262068e+00  1.064448e+00
     vertex -9.000000e+00 -2.414815e+00  6.470476e-01
   endloop
 endfacet
 facet normal -7.496688e-04 -9.914446e-01  1.305262e-01
   outer loop
     vertex  1.400000e+01 -2.455718e+00  4.684533e-01
     vertex -9.000000e+00 -2.414815e+00  6.470476e-01
     vertex -9.000000e+00 -2.500000e+00  1.056413e-15
   endloop
 endfacet
 facet normal  6.426115e-04 -9.980265e-01  6.279051e-02
   outer loop
     vertex  1.400000e+01 -2.495067e+00 -1.569763e-01
     vertex  1.400000e+01 -2.455718e+00  4.684533e-01
     vertex -9.000000e+00 -2.500000e+00  1.056413e-15
   endloop
 endfacet
 facet normal -6.781974e-04 -9.914446e-01 -1.305262e-01
   outer loop
     vertex  1.400000e+01 -2.495067e+00 -1.569763e-01
     vertex -9.000000e+00 -2.500000e+00  1.056413e-15
     vertex -9.000000e+00 -2.414815e+00 -6.470476e-01
   endloop
 endfacet
 facet normal  1.000000e+00 -0.000000e+00  0.000000e+00
   outer loop
     vertex  1.400000e+01  0.000000e+00 -9.856623e-03
     vertex  1.400000e+01 -6.123234e-16 -2.500000e+00
     vertex  1.400000e+01  6.217247e-01 -2.421458e+00
   endloop
 endfacet
 facet normal  1.000000e+00 -0.000000e+00  0.000000e+00
   outer loop
     vertex  1.400000e+01  0.000000e+00 -9.856623e-03
     vertex  1.400000e+01  6.217247e-01 -2.421458e+00
     vertex  1.400000e+01  1.204384e+00 -2.190767e+00
   endloop
 endfacet
 facet normal  1.000000e+00 -0.000000e+00  0.000000e+00
   outer loop
     vertex  1.400000e+01  0.000000e+00 -9.856623e-03
     vertex  1.400000e+01  1.204384e+00 -2.190767e+00
     vertex  1.400000e+01  1.711368e+00 -1.822422e+00
   endloop
 endfacet
 facet normal  1.000000e+00 -0.000000e+00  0.000000e+00
   outer loop
     vertex  1.400000e+01  0.000000e+00 -9.856623e-03
     vertex  1.400000e+01  1.711368e+00 -1.822422e+00
     vertex  1.400000e+01  2.110820e+00 -1.339567e+00
   endloop
 endfacet
 facet normal  1.000000e+00 -0.000000e+00  0.000000e+00
   outer loop
     vertex  1.400000e+01  0.000000e+00 -9.856623e-03
     vertex  1.400000e+01  2.110820e+00 -1.339567e+00
     vertex  1.400000e+01  2.377641e+00 -7.725425e-01
   endloop
 endfacet
 facet normal  1.000000e+00 -0.000000e+00  0.000000e+00
   outer loop
     vertex  1.400000e+01  0.000000e+00 -9.856623e-03
     vertex  1.400000e+01  2.377641e+00 -7.725425e-01
     vertex  1.400000e+01  2.495067e+00 -1.569763e-01
   endloop
 endfacet
 facet normal  1.000000e+00 -0.000000e+00 -0.000000e+00
   outer loop
     vertex  1.400000e+01  0.000000e+00 -9.856623e-03
     vertex  1.400000e+01  2.495067e+00 -1.569763e-01
     vertex  1.400000e+01  2.455718e+00  4.684533e-01
   endloop
 endfacet
 facet normal  1.000000e+00  0.000000e+00 -0.000000e+00
   outer loop
     vertex  1.400000e+01  0.000000e+00 -9.856623e-03
     vertex  1.400000e+01  2.455718e+00  4.684533e-01
     vertex  1.400000e+01  2.262068e+00  1.064448e+00
   endloop
 endfacet
 facet normal  1.000000e+00  0.000000e+00 -0.000000e+00
   outer loop
     vertex  1.400000e+01  0.000000e+00 -9.856623e-03
     vertex  1.400000e+01  2.262068e+00  1.064448e+00
     vertex  1.400000e+01  1.926283e+00  1.593560e+00
   endloop
 endfacet
 facet normal  1.000000e+00  0.000000e+00 -0.000000e+00
   outer loop
     vertex  1.400000e+01  0.000000e+00 -9.856623e-03
     vertex  1.400000e+01  1.926283e+00  1.593560e+00
     vertex  1.400000e+01  1.469463e+00  2.022542e+00
   endloop
 endfacet
 facet normal  1.000000e+00  0.000000e+00 -0.000000e+00
   outer loop
     vertex  1.400000e+01  0.000000e+00 -9.856623e-03
     vertex  1.400000e+01  1.469463e+00  2.022542e+00
     vertex  1.400000e+01  9.203114e-01  2.324441e+00
   endloop
 endfacet
 facet normal  1.000000e+00  0.000000e+00 -0.000000e+00
   outer loop
     vertex  1.400000e+01  0.000000e+00 -9.856623e-03
     vertex  1.400000e+01  9.203114e-01  2.324441e+00
     vertex  1.400000e+01  3.133331e-01  2.480287e+00
   endloop
 endfacet
 facet normal  1.000000e+00  0.000000e+00 -0.000000e+00
   outer loop
     vertex  1.400000e+01  0.000000e+00 -9.856623e-03
     vertex  1.400000e+01  3.133331e-01  2.480287e+00
     vertex  1.400000e+01 -3.133331e-01  2.480287e+00
   endloop
 endfacet
 facet normal  1.000000e+00  0.000000e+00  0.000000e+00
   outer loop
     vertex  1.400000e+01  0.000000e+00 -9.856623e-03
     vertex  1.400000e+01 -3.133331e-01  2.480287e+00
     vertex  1.400000e+01 -9.203114e-01  2.324441e+00
   endloop
 endfacet
 facet normal  1.000000e+00  0.000000e+00  0.000000e+00
   outer loop
     vertex  1.400000e+01  0.000000e+00 -9.856623e-03
     vertex  1.400000e+01 -9.203114e-01  2.324441e+00
     vertex  1.400000e+01 -1.469463e+00  2.022542e+00
   endloop
 endfacet
 facet normal  1.000000e+00  0.000000e+00  0.000000e+00
   outer loop
     vertex  1.400000e+01  0.000000e+00 -9.856623e-03
     vertex  1.400000e+01 -1.469463e+00  2.022542e+00
     vertex  1.400000e+01 -1.926283e+00  1.593560e+00
   endloop
 endfacet
 facet normal  1.000000e+00  0.000000e+00  0.000000e+00
   outer loop
     vertex  1.400000e+01  0.000000e+00 -9.856623e-03
     vertex  1.400000e+01 -1.926283e+00  1.593560e+00
     vertex  1.400000e+01 -2.262068e+00  1.064448e+00
   endloop
 endfacet
 facet normal  1.000000e+00  0.000000e+00  0.000000e+00
   outer loop
     vertex  1.400000e+01  0.000000e+00 -9.856623e-03
     vertex  1.400000e+01 -2.262068e+00  1.064448e+00
     vertex  1.400000e+01 -2.455718e+00  4.684533e-01
   endloop
 endfacet
 facet normal  1.000000e+00  0.000000e+00  0.000000e+00
   outer loop
     vertex  1.400000e+01  0.000000e+00 -9.856623e-03
     vertex  1.400000e+01 -2.455718e+00  4.684533e-01
     vertex  1.400000e+01 -2.495067e+00 -1.569763e-01
   endloop
 endfacet
 facet normal  1.000000e+00  0.000000e+00  0.000000e+00
   outer loop
     vertex  1.400000e+01  0.000000e+00 -9.856623e-03
     vertex  1.400000e+01 -2.495067e+00 -1.569763e-01
     vertex  1.400000e+01 -2.377641e+00 -7.725425e-01
   endloop
 endfacet
 facet normal  1.000000e+00  0.000000e+00  0.000000e+00
   outer loop
     vertex  1.400000e+01  0.000000e+00 -9.856623e-03
     vertex  1.400000e+01 -2.377641e+00 -7.725425e-01
     vertex  1.400000e+01 -2.110820e+00 -1.339567e+00
   endloop
 endfacet
 facet normal  1.000000e+00  0.000000e+00  0.000000e+00
   outer loop
     vertex  1.400000e+01  0.000000e+00 -9.856623e-03
     vertex  1.400000e+01 -2.110820e+00 -1.339567e+00
     vertex  1.400000e+01 -1.711368e+00 -1.822422e+00
   endloop
 endfacet
 facet normal  1.000000e+00  0.000000e+00  0.000000e+00
   outer loop
     vertex  1.400000e+01  0.000000e+00 -9.856623e-03
     vertex  1.400000e+01 -1.711368e+00 -1.822422e+00
     vertex  1.400000e+01 -1.204384e+00 -2.190767e+00
   endloop
 endfacet
 facet normal  1.000000e+00  0.000000e+00  0.000000e+00
   outer loop
     vertex  1.400000e+01  0.000000e+00 -9.856623e-03
     vertex  1.400000e+01 -1.204384e+00 -2.190767e+00
     vertex  1.400000e+01 -6.217247e-01 -2.421458e+00
   endloop
 endfacet
 facet normal  1.000000e+00  0.000000e+00  0.000000e+00
   outer loop
     vertex  1.400000e+01  0.000000e+00 -9.856623e-03
     vertex  1.400000e+01 -6.217247e-01 -2.421458e+00
     vertex  1.400000e+01 -6.123234e-16 -2.500000e+00
   endloop
 endfacet
endsolid
