solid
 facet normal  1.873813e-01 -1.348709e-16  9.822873e-01
   outer loop
     vertex  2.145451e+02  2.282500e+02  2.417553e+02
     vertex  2.133140e+02  2.282500e+02  2.419901e+02
     vertex  2.133140e+02 -1.857500e+02  2.419901e+02
   endloop
 endfacet
 facet normal  1.873813e-01 -1.347982e-16  9.822873e-01
   outer loop
     vertex  2.145451e+02  2.282500e+02  2.417553e+02
     vertex  2.133140e+02 -1.857500e+02  2.419901e+02
     vertex  2.145451e+02 -1.857500e+02  2.417553e+02
   endloop
 endfacet
 facet normal  4.257793e-01 -1.242354e-16  9.048271e-01
   outer loop
     vertex  2.156791e+02  2.282500e+02  2.412216e+02
     vertex  2.145451e+02  2.282500e+02  2.417553e+02
     vertex  2.145451e+02 -1.857500e+02  2.417553e+02
   endloop
 endfacet
 facet normal  4.257793e-01 -6.226394e-17  9.048271e-01
   outer loop
     vertex  2.156791e+02  2.282500e+02  2.412216e+02
     vertex  2.145451e+02 -1.857500e+02  2.417553e+02
     vertex  2.156791e+02 -1.857500e+02  2.412216e+02
   endloop
 endfacet
 facet normal  9.921147e-01  8.612109e-18 -1.253332e-01
   outer loop
     vertex  2.178429e+02  2.282500e+02  2.357566e+02
     vertex  2.180000e+02 -1.857500e+02  2.370000e+02
     vertex  2.178429e+02 -1.857500e+02  2.357566e+02
   endloop
 endfacet
 facet normal  9.921147e-01  1.720862e-17 -1.253332e-01
   outer loop
     vertex  2.178429e+02  2.282500e+02  2.357566e+02
     vertex  2.180000e+02  2.282500e+02  2.370000e+02
     vertex  2.180000e+02 -1.857500e+02  2.370000e+02
   endloop
 endfacet
 facet normal  6.374240e-01 -5.289687e-17  7.705132e-01
   outer loop
     vertex  2.166448e+02  2.282500e+02  2.404227e+02
     vertex  2.156791e+02  2.282500e+02  2.412216e+02
     vertex  2.156791e+02 -1.857500e+02  2.412216e+02
   endloop
 endfacet
 facet normal  6.374240e-01 -1.059129e-16  7.705132e-01
   outer loop
     vertex  2.166448e+02  2.282500e+02  2.404227e+02
     vertex  2.156791e+02 -1.857500e+02  2.412216e+02
     vertex  2.166448e+02 -1.857500e+02  2.404227e+02
   endloop
 endfacet
 facet normal  9.297765e-01  2.524792e-17 -3.681246e-01
   outer loop
     vertex  2.173815e+02  2.282500e+02  2.345912e+02
     vertex  2.178429e+02 -1.857500e+02  2.357566e+02
     vertex  2.173815e+02 -1.857500e+02  2.345912e+02
   endloop
 endfacet
 facet normal  9.297765e-01  2.527229e-17 -3.681246e-01
   outer loop
     vertex  2.173815e+02  2.282500e+02  2.345912e+02
     vertex  2.178429e+02  2.282500e+02  2.357566e+02
     vertex  2.178429e+02 -1.857500e+02  2.357566e+02
   endloop
 endfacet
 facet normal  8.090170e-01 -8.066497e-17  5.877853e-01
   outer loop
     vertex  2.173815e+02  2.282500e+02  2.394088e+02
     vertex  2.166448e+02 -1.857500e+02  2.404227e+02
     vertex  2.173815e+02 -1.857500e+02  2.394088e+02
   endloop
 endfacet
 facet normal  8.090170e-01 -8.070465e-17  5.877853e-01
   outer loop
     vertex  2.173815e+02  2.282500e+02  2.394088e+02
     vertex  2.166448e+02  2.282500e+02  2.404227e+02
     vertex  2.166448e+02 -1.857500e+02  2.404227e+02
   endloop
 endfacet
 facet normal  8.090170e-01  4.043947e-17 -5.877853e-01
   outer loop
     vertex  2.166448e+02  2.282500e+02  2.335773e+02
     vertex  2.173815e+02 -1.857500e+02  2.345912e+02
     vertex  2.166448e+02 -1.857500e+02  2.335773e+02
   endloop
 endfacet
 facet normal  8.090170e-01  4.035232e-17 -5.877853e-01
   outer loop
     vertex  2.166448e+02  2.282500e+02  2.335773e+02
     vertex  2.173815e+02  2.282500e+02  2.345912e+02
     vertex  2.173815e+02 -1.857500e+02  2.345912e+02
   endloop
 endfacet
 facet normal  9.297765e-01 -5.054458e-17  3.681246e-01
   outer loop
     vertex  2.178429e+02  2.282500e+02  2.382434e+02
     vertex  2.173815e+02  2.282500e+02  2.394088e+02
     vertex  2.173815e+02 -1.857500e+02  2.394088e+02
   endloop
 endfacet
 facet normal  9.297765e-01 -5.049585e-17  3.681246e-01
   outer loop
     vertex  2.178429e+02  2.282500e+02  2.382434e+02
     vertex  2.173815e+02 -1.857500e+02  2.394088e+02
     vertex  2.178429e+02 -1.857500e+02  2.382434e+02
   endloop
 endfacet
 facet normal  9.921147e-01 -1.722422e-17  1.253332e-01
   outer loop
     vertex  2.180000e+02  2.282500e+02  2.370000e+02
     vertex  2.178429e+02 -1.857500e+02  2.382434e+02
     vertex  2.180000e+02 -1.857500e+02  2.370000e+02
   endloop
 endfacet
 facet normal  6.374240e-01  1.056989e-16 -7.705132e-01
   outer loop
     vertex  2.156791e+02  2.282500e+02  2.327784e+02
     vertex  2.166448e+02 -1.857500e+02  2.335773e+02
     vertex  2.156791e+02 -1.857500e+02  2.327784e+02
   endloop
 endfacet
 facet normal  9.921147e-01 -1.720862e-17  1.253332e-01
   outer loop
     vertex  2.180000e+02  2.282500e+02  2.370000e+02
     vertex  2.178429e+02  2.282500e+02  2.382434e+02
     vertex  2.178429e+02 -1.857500e+02  2.382434e+02
   endloop
 endfacet
 facet normal  6.374240e-01  5.289687e-17 -7.705132e-01
   outer loop
     vertex  2.156791e+02  2.282500e+02  2.327784e+02
     vertex  2.166448e+02  2.282500e+02  2.335773e+02
     vertex  2.166448e+02 -1.857500e+02  2.335773e+02
   endloop
 endfacet
 facet normal  4.257793e-01  1.243139e-16 -9.048271e-01
   outer loop
     vertex  2.145451e+02  2.282500e+02  2.322447e+02
     vertex  2.156791e+02 -1.857500e+02  2.327784e+02
     vertex  2.145451e+02 -1.857500e+02  2.322447e+02
   endloop
 endfacet
 facet normal  1.873813e-01  1.348709e-16 -9.822873e-01
   outer loop
     vertex  2.145451e+02  2.282500e+02  2.322447e+02
     vertex  2.145451e+02 -1.857500e+02  2.322447e+02
     vertex  2.133140e+02 -1.857500e+02  2.320099e+02
   endloop
 endfacet
 facet normal  4.257793e-01  1.242354e-16 -9.048271e-01
   outer loop
     vertex  2.145451e+02  2.282500e+02  2.322447e+02
     vertex  2.156791e+02  2.282500e+02  2.327784e+02
     vertex  2.156791e+02 -1.857500e+02  2.327784e+02
   endloop
 endfacet
 facet normal  1.873813e-01  1.349052e-16 -9.822873e-01
   outer loop
     vertex  2.133140e+02  2.282500e+02  2.320099e+02
     vertex  2.145451e+02  2.282500e+02  2.322447e+02
     vertex  2.133140e+02 -1.857500e+02  2.320099e+02
   endloop
 endfacet
 facet normal -6.279052e-02  1.370449e-16 -9.980267e-01
   outer loop
     vertex  2.120631e+02  2.282500e+02  2.320886e+02
     vertex  2.133140e+02 -1.857500e+02  2.320099e+02
     vertex  2.120631e+02 -1.857500e+02  2.320886e+02
   endloop
 endfacet
 facet normal -6.279052e-02  1.370320e-16 -9.980267e-01
   outer loop
     vertex  2.120631e+02  2.282500e+02  2.320886e+02
     vertex  2.133140e+02  2.282500e+02  2.320099e+02
     vertex  2.133140e+02 -1.857500e+02  2.320099e+02
   endloop
 endfacet
 facet normal -3.090170e-01  1.306259e-16 -9.510565e-01
   outer loop
     vertex  2.108711e+02  2.282500e+02  2.324759e+02
     vertex  2.120631e+02 -1.857500e+02  2.320886e+02
     vertex  2.108711e+02 -1.857500e+02  2.324759e+02
   endloop
 endfacet
 facet normal -3.090170e-01  1.305829e-16 -9.510565e-01
   outer loop
     vertex  2.108711e+02  2.282500e+02  2.324759e+02
     vertex  2.120631e+02  2.282500e+02  2.320886e+02
     vertex  2.120631e+02 -1.857500e+02  2.320886e+02
   endloop
 endfacet
 facet normal -5.358268e-01  1.159693e-16 -8.443279e-01
   outer loop
     vertex  2.098129e+02  2.282500e+02  2.331474e+02
     vertex  2.108711e+02 -1.857500e+02  2.324759e+02
     vertex  2.098129e+02 -1.857500e+02  2.331474e+02
   endloop
 endfacet
 facet normal -7.289686e-01  9.399033e-17 -6.845471e-01
   outer loop
     vertex  2.098129e+02  2.282500e+02  2.331474e+02
     vertex  2.098129e+02 -1.857500e+02  2.331474e+02
     vertex  2.089549e+02 -1.857500e+02  2.340611e+02
   endloop
 endfacet
 facet normal -5.358268e-01  1.159287e-16 -8.443279e-01
   outer loop
     vertex  2.098129e+02  2.282500e+02  2.331474e+02
     vertex  2.108711e+02  2.282500e+02  2.324759e+02
     vertex  2.108711e+02 -1.857500e+02  2.324759e+02
   endloop
 endfacet
 facet normal -7.289686e-01  9.414480e-17 -6.845471e-01
   outer loop
     vertex  2.089549e+02  2.282500e+02  2.340611e+02
     vertex  2.098129e+02  2.282500e+02  2.331474e+02
     vertex  2.089549e+02 -1.857500e+02  2.340611e+02
   endloop
 endfacet
 facet normal -8.763067e-01  6.611532e-17 -4.817537e-01
   outer loop
     vertex  2.083511e+02  2.282500e+02  2.351594e+02
     vertex  2.089549e+02 -1.857500e+02  2.340611e+02
     vertex  2.083511e+02 -1.857500e+02  2.351594e+02
   endloop
 endfacet
 facet normal -8.763067e-01  6.614620e-17 -4.817537e-01
   outer loop
     vertex  2.083511e+02  2.282500e+02  2.351594e+02
     vertex  2.089549e+02  2.282500e+02  2.340611e+02
     vertex  2.089549e+02 -1.857500e+02  2.340611e+02
   endloop
 endfacet
 facet normal -9.685832e-01  3.414585e-17 -2.486899e-01
   outer loop
     vertex  2.080394e+02  2.282500e+02  2.363733e+02
     vertex  2.083511e+02  2.282500e+02  2.351594e+02
     vertex  2.083511e+02 -1.857500e+02  2.351594e+02
   endloop
 endfacet
 facet normal -9.685832e-01  3.412749e-17 -2.486899e-01
   outer loop
     vertex  2.080394e+02  2.282500e+02  2.363733e+02
     vertex  2.083511e+02 -1.857500e+02  2.351594e+02
     vertex  2.080394e+02 -1.857500e+02  2.363733e+02
   endloop
 endfacet
 facet normal -1.000000e+00 -0.000000e+00  0.000000e+00
   outer loop
     vertex  2.080394e+02  2.282500e+02  2.363733e+02
     vertex  2.080394e+02 -1.857500e+02  2.363733e+02
     vertex  2.080394e+02 -1.857500e+02  2.376267e+02
   endloop
 endfacet
 facet normal -1.000000e+00 -0.000000e+00 -0.000000e+00
   outer loop
     vertex  2.080394e+02  2.282500e+02  2.376267e+02
     vertex  2.080394e+02  2.282500e+02  2.363733e+02
     vertex  2.080394e+02 -1.857500e+02  2.376267e+02
   endloop
 endfacet
 facet normal -9.685832e-01 -1.707293e-17  2.486899e-01
   outer loop
     vertex  2.083511e+02  2.282500e+02  2.388406e+02
     vertex  2.080394e+02  2.282500e+02  2.376267e+02
     vertex  2.080394e+02 -1.857500e+02  2.376267e+02
   endloop
 endfacet
 facet normal -9.685832e-01 -1.701025e-17  2.486899e-01
   outer loop
     vertex  2.083511e+02  2.282500e+02  2.388406e+02
     vertex  2.080394e+02 -1.857500e+02  2.376267e+02
     vertex  2.083511e+02 -1.857500e+02  2.388406e+02
   endloop
 endfacet
 facet normal -8.763067e-01 -3.307310e-17  4.817537e-01
   outer loop
     vertex  2.089549e+02  2.282500e+02  2.399389e+02
     vertex  2.083511e+02  2.282500e+02  2.388406e+02
     vertex  2.083511e+02 -1.857500e+02  2.388406e+02
   endloop
 endfacet
 facet normal -8.763067e-01 -3.295068e-17  4.817537e-01
   outer loop
     vertex  2.089549e+02  2.282500e+02  2.399389e+02
     vertex  2.083511e+02 -1.857500e+02  2.388406e+02
     vertex  2.089549e+02 -1.857500e+02  2.399389e+02
   endloop
 endfacet
 facet normal -7.289686e-01 -4.699517e-17  6.845471e-01
   outer loop
     vertex  2.098129e+02  2.282500e+02  2.408526e+02
     vertex  2.089549e+02  2.282500e+02  2.399389e+02
     vertex  2.089549e+02 -1.857500e+02  2.399389e+02
   endloop
 endfacet
 facet normal -7.289686e-01 -4.685843e-17  6.845471e-01
   outer loop
     vertex  2.098129e+02  2.282500e+02  2.408526e+02
     vertex  2.089549e+02 -1.857500e+02  2.399389e+02
     vertex  2.098129e+02 -1.857500e+02  2.408526e+02
   endloop
 endfacet
 facet normal -5.358268e-01 -5.796435e-17  8.443279e-01
   outer loop
     vertex  2.108711e+02  2.282500e+02  2.415241e+02
     vertex  2.098129e+02  2.282500e+02  2.408526e+02
     vertex  2.098129e+02 -1.857500e+02  2.408526e+02
   endloop
 endfacet
 facet normal -5.358268e-01 -5.798464e-17  8.443279e-01
   outer loop
     vertex  2.108711e+02  2.282500e+02  2.415241e+02
     vertex  2.098129e+02 -1.857500e+02  2.408526e+02
     vertex  2.108711e+02 -1.857500e+02  2.415241e+02
   endloop
 endfacet
 facet normal -3.090170e-01 -6.529143e-17  9.510565e-01
   outer loop
     vertex  2.120631e+02  2.282500e+02  2.419114e+02
     vertex  2.108711e+02  2.282500e+02  2.415241e+02
     vertex  2.108711e+02 -1.857500e+02  2.415241e+02
   endloop
 endfacet
 facet normal -3.090170e-01 -1.306259e-16  9.510565e-01
   outer loop
     vertex  2.120631e+02  2.282500e+02  2.419114e+02
     vertex  2.108711e+02 -1.857500e+02  2.415241e+02
     vertex  2.120631e+02 -1.857500e+02  2.419114e+02
   endloop
 endfacet
 facet normal -6.279052e-02 -1.370320e-16  9.980267e-01
   outer loop
     vertex  2.133140e+02  2.282500e+02  2.419901e+02
     vertex  2.120631e+02  2.282500e+02  2.419114e+02
     vertex  2.120631e+02 -1.857500e+02  2.419114e+02
   endloop
 endfacet
 facet normal -6.279052e-02 -1.370449e-16  9.980267e-01
   outer loop
     vertex  2.133140e+02  2.282500e+02  2.419901e+02
     vertex  2.120631e+02 -1.857500e+02  2.419114e+02
     vertex  2.133140e+02 -1.857500e+02  2.419901e+02
   endloop
 endfacet
 facet normal -0.000000e+00  1.000000e+00  0.000000e+00
   outer loop
     vertex  2.130197e+02  2.282500e+02  2.370000e+02
     vertex  2.180000e+02  2.282500e+02  2.370000e+02
     vertex  2.178429e+02  2.282500e+02  2.357566e+02
   endloop
 endfacet
 facet normal  0.000000e+00  1.000000e+00  0.000000e+00
   outer loop
     vertex  2.130197e+02  2.282500e+02  2.370000e+02
     vertex  2.178429e+02  2.282500e+02  2.357566e+02
     vertex  2.173815e+02  2.282500e+02  2.345912e+02
   endloop
 endfacet
 facet normal  0.000000e+00  1.000000e+00  0.000000e+00
   outer loop
     vertex  2.130197e+02  2.282500e+02  2.370000e+02
     vertex  2.173815e+02  2.282500e+02  2.345912e+02
     vertex  2.166448e+02  2.282500e+02  2.335773e+02
   endloop
 endfacet
 facet normal  0.000000e+00  1.000000e+00  0.000000e+00
   outer loop
     vertex  2.130197e+02  2.282500e+02  2.370000e+02
     vertex  2.166448e+02  2.282500e+02  2.335773e+02
     vertex  2.156791e+02  2.282500e+02  2.327784e+02
   endloop
 endfacet
 facet normal  0.000000e+00  1.000000e+00  0.000000e+00
   outer loop
     vertex  2.130197e+02  2.282500e+02  2.370000e+02
     vertex  2.156791e+02  2.282500e+02  2.327784e+02
     vertex  2.145451e+02  2.282500e+02  2.322447e+02
   endloop
 endfacet
 facet normal  0.000000e+00  1.000000e+00  0.000000e+00
   outer loop
     vertex  2.130197e+02  2.282500e+02  2.370000e+02
     vertex  2.145451e+02  2.282500e+02  2.322447e+02
     vertex  2.133140e+02  2.282500e+02  2.320099e+02
   endloop
 endfacet
 facet normal  0.000000e+00  1.000000e+00  0.000000e+00
   outer loop
     vertex  2.130197e+02  2.282500e+02  2.370000e+02
     vertex  2.133140e+02  2.282500e+02  2.320099e+02
     vertex  2.120631e+02  2.282500e+02  2.320886e+02
   endloop
 endfacet
 facet normal  0.000000e+00  1.000000e+00  0.000000e+00
   outer loop
     vertex  2.130197e+02  2.282500e+02  2.370000e+02
     vertex  2.120631e+02  2.282500e+02  2.320886e+02
     vertex  2.108711e+02  2.282500e+02  2.324759e+02
   endloop
 endfacet
 facet normal  0.000000e+00  1.000000e+00  0.000000e+00
   outer loop
     vertex  2.130197e+02  2.282500e+02  2.370000e+02
     vertex  2.108711e+02  2.282500e+02  2.324759e+02
     vertex  2.098129e+02  2.282500e+02  2.331474e+02
   endloop
 endfacet
 facet normal  0.000000e+00  1.000000e+00  0.000000e+00
   outer loop
     vertex  2.130197e+02  2.282500e+02  2.370000e+02
     vertex  2.098129e+02  2.282500e+02  2.331474e+02
     vertex  2.089549e+02  2.282500e+02  2.340611e+02
   endloop
 endfacet
 facet normal  0.000000e+00  1.000000e+00  0.000000e+00
   outer loop
     vertex  2.130197e+02  2.282500e+02  2.370000e+02
     vertex  2.089549e+02  2.282500e+02  2.340611e+02
     vertex  2.083511e+02  2.282500e+02  2.351594e+02
   endloop
 endfacet
 facet normal  0.000000e+00  1.000000e+00  0.000000e+00
   outer loop
     vertex  2.130197e+02  2.282500e+02  2.370000e+02
     vertex  2.083511e+02  2.282500e+02  2.351594e+02
     vertex  2.080394e+02  2.282500e+02  2.363733e+02
   endloop
 endfacet
 facet normal  0.000000e+00  1.000000e+00 -0.000000e+00
   outer loop
     vertex  2.130197e+02  2.282500e+02  2.370000e+02
     vertex  2.080394e+02  2.282500e+02  2.363733e+02
     vertex  2.080394e+02  2.282500e+02  2.376267e+02
   endloop
 endfacet
 facet normal  0.000000e+00  1.000000e+00 -0.000000e+00
   outer loop
     vertex  2.130197e+02  2.282500e+02  2.370000e+02
     vertex  2.080394e+02  2.282500e+02  2.376267e+02
     vertex  2.083511e+02  2.282500e+02  2.388406e+02
   endloop
 endfacet
 facet normal  0.000000e+00  1.000000e+00 -0.000000e+00
   outer loop
     vertex  2.130197e+02  2.282500e+02  2.370000e+02
     vertex  2.083511e+02  2.282500e+02  2.388406e+02
     vertex  2.089549e+02  2.282500e+02  2.399389e+02
   endloop
 endfacet
 facet normal  0.000000e+00  1.000000e+00 -0.000000e+00
   outer loop
     vertex  2.130197e+02  2.282500e+02  2.370000e+02
     vertex  2.089549e+02  2.282500e+02  2.399389e+02
     vertex  2.098129e+02  2.282500e+02  2.408526e+02
   endloop
 endfacet
 facet normal  0.000000e+00  1.000000e+00 -0.000000e+00
   outer loop
     vertex  2.130197e+02  2.282500e+02  2.370000e+02
     vertex  2.098129e+02  2.282500e+02  2.408526e+02
     vertex  2.108711e+02  2.282500e+02  2.415241e+02
   endloop
 endfacet
 facet normal  0.000000e+00  1.000000e+00 -0.000000e+00
   outer loop
     vertex  2.130197e+02  2.282500e+02  2.370000e+02
     vertex  2.108711e+02  2.282500e+02  2.415241e+02
     vertex  2.120631e+02  2.282500e+02  2.419114e+02
   endloop
 endfacet
 facet normal  0.000000e+00  1.000000e+00 -0.000000e+00
   outer loop
     vertex  2.130197e+02  2.282500e+02  2.370000e+02
     vertex  2.120631e+02  2.282500e+02  2.419114e+02
     vertex  2.133140e+02  2.282500e+02  2.419901e+02
   endloop
 endfacet
 facet normal -0.000000e+00  1.000000e+00  0.000000e+00
   outer loop
     vertex  2.130197e+02  2.282500e+02  2.370000e+02
     vertex  2.133140e+02  2.282500e+02  2.419901e+02
     vertex  2.145451e+02  2.282500e+02  2.417553e+02
   endloop
 endfacet
 facet normal -0.000000e+00  1.000000e+00  0.000000e+00
   outer loop
     vertex  2.130197e+02  2.282500e+02  2.370000e+02
     vertex  2.145451e+02  2.282500e+02  2.417553e+02
     vertex  2.156791e+02  2.282500e+02  2.412216e+02
   endloop
 endfacet
 facet normal -0.000000e+00  1.000000e+00  0.000000e+00
   outer loop
     vertex  2.130197e+02  2.282500e+02  2.370000e+02
     vertex  2.156791e+02  2.282500e+02  2.412216e+02
     vertex  2.166448e+02  2.282500e+02  2.404227e+02
   endloop
 endfacet
 facet normal -0.000000e+00  1.000000e+00  0.000000e+00
   outer loop
     vertex  2.130197e+02  2.282500e+02  2.370000e+02
     vertex  2.166448e+02  2.282500e+02  2.404227e+02
     vertex  2.173815e+02  2.282500e+02  2.394088e+02
   endloop
 endfacet
 facet normal -0.000000e+00  1.000000e+00  0.000000e+00
   outer loop
     vertex  2.130197e+02  2.282500e+02  2.370000e+02
     vertex  2.173815e+02  2.282500e+02  2.394088e+02
     vertex  2.178429e+02  2.282500e+02  2.382434e+02
   endloop
 endfacet
 facet normal -0.000000e+00  1.000000e+00  0.000000e+00
   outer loop
     vertex  2.130197e+02  2.282500e+02  2.370000e+02
     vertex  2.178429e+02  2.282500e+02  2.382434e+02
     vertex  2.180000e+02  2.282500e+02  2.370000e+02
   endloop
 endfacet
 facet normal  0.000000e+00 -1.000000e+00  0.000000e+00
   outer loop
     vertex  2.178429e+02 -1.857500e+02  2.357566e+02
     vertex  2.180000e+02 -1.857500e+02  2.370000e+02
     vertex  2.130197e+02 -1.857500e+02  2.370000e+02
   endloop
 endfacet
 facet normal  0.000000e+00 -1.000000e+00  0.000000e+00
   outer loop
     vertex  2.173815e+02 -1.857500e+02  2.345912e+02
     vertex  2.178429e+02 -1.857500e+02  2.357566e+02
     vertex  2.130197e+02 -1.857500e+02  2.370000e+02
   endloop
 endfacet
 facet normal  0.000000e+00 -1.000000e+00  0.000000e+00
   outer loop
     vertex  2.166448e+02 -1.857500e+02  2.335773e+02
     vertex  2.173815e+02 -1.857500e+02  2.345912e+02
     vertex  2.130197e+02 -1.857500e+02  2.370000e+02
   endloop
 endfacet
 facet normal  0.000000e+00 -1.000000e+00  0.000000e+00
   outer loop
     vertex  2.156791e+02 -1.857500e+02  2.327784e+02
     vertex  2.166448e+02 -1.857500e+02  2.335773e+02
     vertex  2.130197e+02 -1.857500e+02  2.370000e+02
   endloop
 endfacet
 facet normal  0.000000e+00 -1.000000e+00  0.000000e+00
   outer loop
     vertex  2.145451e+02 -1.857500e+02  2.322447e+02
     vertex  2.156791e+02 -1.857500e+02  2.327784e+02
     vertex  2.130197e+02 -1.857500e+02  2.370000e+02
   endloop
 endfacet
 facet normal  0.000000e+00 -1.000000e+00  0.000000e+00
   outer loop
     vertex  2.133140e+02 -1.857500e+02  2.320099e+02
     vertex  2.145451e+02 -1.857500e+02  2.322447e+02
     vertex  2.130197e+02 -1.857500e+02  2.370000e+02
   endloop
 endfacet
 facet normal  0.000000e+00 -1.000000e+00  0.000000e+00
   outer loop
     vertex  2.120631e+02 -1.857500e+02  2.320886e+02
     vertex  2.133140e+02 -1.857500e+02  2.320099e+02
     vertex  2.130197e+02 -1.857500e+02  2.370000e+02
   endloop
 endfacet
 facet normal  0.000000e+00 -1.000000e+00  0.000000e+00
   outer loop
     vertex  2.108711e+02 -1.857500e+02  2.324759e+02
     vertex  2.120631e+02 -1.857500e+02  2.320886e+02
     vertex  2.130197e+02 -1.857500e+02  2.370000e+02
   endloop
 endfacet
 facet normal  0.000000e+00 -1.000000e+00  0.000000e+00
   outer loop
     vertex  2.098129e+02 -1.857500e+02  2.331474e+02
     vertex  2.108711e+02 -1.857500e+02  2.324759e+02
     vertex  2.130197e+02 -1.857500e+02  2.370000e+02
   endloop
 endfacet
 facet normal  0.000000e+00 -1.000000e+00  0.000000e+00
   outer loop
     vertex  2.089549e+02 -1.857500e+02  2.340611e+02
     vertex  2.098129e+02 -1.857500e+02  2.331474e+02
     vertex  2.130197e+02 -1.857500e+02  2.370000e+02
   endloop
 endfacet
 facet normal  0.000000e+00 -1.000000e+00  0.000000e+00
   outer loop
     vertex  2.083511e+02 -1.857500e+02  2.351594e+02
     vertex  2.089549e+02 -1.857500e+02  2.340611e+02
     vertex  2.130197e+02 -1.857500e+02  2.370000e+02
   endloop
 endfacet
 facet normal  0.000000e+00 -1.000000e+00  0.000000e+00
   outer loop
     vertex  2.080394e+02 -1.857500e+02  2.363733e+02
     vertex  2.083511e+02 -1.857500e+02  2.351594e+02
     vertex  2.130197e+02 -1.857500e+02  2.370000e+02
   endloop
 endfacet
 facet normal  0.000000e+00 -1.000000e+00  0.000000e+00
   outer loop
     vertex  2.080394e+02 -1.857500e+02  2.376267e+02
     vertex  2.080394e+02 -1.857500e+02  2.363733e+02
     vertex  2.130197e+02 -1.857500e+02  2.370000e+02
   endloop
 endfacet
 facet normal  0.000000e+00 -1.000000e+00 -0.000000e+00
   outer loop
     vertex  2.083511e+02 -1.857500e+02  2.388406e+02
     vertex  2.080394e+02 -1.857500e+02  2.376267e+02
     vertex  2.130197e+02 -1.857500e+02  2.370000e+02
   endloop
 endfacet
 facet normal  0.000000e+00 -1.000000e+00 -0.000000e+00
   outer loop
     vertex  2.089549e+02 -1.857500e+02  2.399389e+02
     vertex  2.083511e+02 -1.857500e+02  2.388406e+02
     vertex  2.130197e+02 -1.857500e+02  2.370000e+02
   endloop
 endfacet
 facet normal  0.000000e+00 -1.000000e+00 -0.000000e+00
   outer loop
     vertex  2.098129e+02 -1.857500e+02  2.408526e+02
     vertex  2.089549e+02 -1.857500e+02  2.399389e+02
     vertex  2.130197e+02 -1.857500e+02  2.370000e+02
   endloop
 endfacet
 facet normal  0.000000e+00 -1.000000e+00 -0.000000e+00
   outer loop
     vertex  2.108711e+02 -1.857500e+02  2.415241e+02
     vertex  2.098129e+02 -1.857500e+02  2.408526e+02
     vertex  2.130197e+02 -1.857500e+02  2.370000e+02
   endloop
 endfacet
 facet normal  0.000000e+00 -1.000000e+00 -0.000000e+00
   outer loop
     vertex  2.120631e+02 -1.857500e+02  2.419114e+02
     vertex  2.108711e+02 -1.857500e+02  2.415241e+02
     vertex  2.130197e+02 -1.857500e+02  2.370000e+02
   endloop
 endfacet
 facet normal  0.000000e+00 -1.000000e+00 -0.000000e+00
   outer loop
     vertex  2.133140e+02 -1.857500e+02  2.419901e+02
     vertex  2.120631e+02 -1.857500e+02  2.419114e+02
     vertex  2.130197e+02 -1.857500e+02  2.370000e+02
   endloop
 endfacet
 facet normal -0.000000e+00 -1.000000e+00  0.000000e+00
   outer loop
     vertex  2.145451e+02 -1.857500e+02  2.417553e+02
     vertex  2.133140e+02 -1.857500e+02  2.419901e+02
     vertex  2.130197e+02 -1.857500e+02  2.370000e+02
   endloop
 endfacet
 facet normal -0.000000e+00 -1.000000e+00  0.000000e+00
   outer loop
     vertex  2.156791e+02 -1.857500e+02  2.412216e+02
     vertex  2.145451e+02 -1.857500e+02  2.417553e+02
     vertex  2.130197e+02 -1.857500e+02  2.370000e+02
   endloop
 endfacet
 facet normal -0.000000e+00 -1.000000e+00  0.000000e+00
   outer loop
     vertex  2.166448e+02 -1.857500e+02  2.404227e+02
     vertex  2.156791e+02 -1.857500e+02  2.412216e+02
     vertex  2.130197e+02 -1.857500e+02  2.370000e+02
   endloop
 endfacet
 facet normal -0.000000e+00 -1.000000e+00  0.000000e+00
   outer loop
     vertex  2.173815e+02 -1.857500e+02  2.394088e+02
     vertex  2.166448e+02 -1.857500e+02  2.404227e+02
     vertex  2.130197e+02 -1.857500e+02  2.370000e+02
   endloop
 endfacet
 facet normal -0.000000e+00 -1.000000e+00  0.000000e+00
   outer loop
     vertex  2.178429e+02 -1.857500e+02  2.382434e+02
     vertex  2.173815e+02 -1.857500e+02  2.394088e+02
     vertex  2.130197e+02 -1.857500e+02  2.370000e+02
   endloop
 endfacet
 facet normal -0.000000e+00 -1.000000e+00  0.000000e+00
   outer loop
     vertex  2.180000e+02 -1.857500e+02  2.370000e+02
     vertex  2.178429e+02 -1.857500e+02  2.382434e+02
     vertex  2.130197e+02 -1.857500e+02  2.370000e+02
   endloop
 endfacet
 facet normal -1.873813e-01 -1.348709e-16  9.822873e-01
   outer loop
     vertex -2.133140e+02 -1.857500e+02  2.419901e+02
     vertex -2.133140e+02  2.282500e+02  2.419901e+02
     vertex -2.145451e+02  2.282500e+02  2.417553e+02
   endloop
 endfacet
 facet normal -1.873813e-01 -1.349052e-16  9.822873e-01
   outer loop
     vertex -2.145451e+02 -1.857500e+02  2.417553e+02
     vertex -2.133140e+02 -1.857500e+02  2.419901e+02
     vertex -2.145451e+02  2.282500e+02  2.417553e+02
   endloop
 endfacet
 facet normal -4.257793e-01 -1.242354e-16  9.048271e-01
   outer loop
     vertex -2.145451e+02 -1.857500e+02  2.417553e+02
     vertex -2.145451e+02  2.282500e+02  2.417553e+02
     vertex -2.156791e+02  2.282500e+02  2.412216e+02
   endloop
 endfacet
 facet normal -4.257793e-01 -6.226394e-17  9.048271e-01
   outer loop
     vertex -2.156791e+02 -1.857500e+02  2.412216e+02
     vertex -2.145451e+02 -1.857500e+02  2.417553e+02
     vertex -2.156791e+02  2.282500e+02  2.412216e+02
   endloop
 endfacet
 facet normal -9.921147e-01  8.612109e-18 -1.253332e-01
   outer loop
     vertex -2.178429e+02 -1.857500e+02  2.357566e+02
     vertex -2.180000e+02 -1.857500e+02  2.370000e+02
     vertex -2.178429e+02  2.282500e+02  2.357566e+02
   endloop
 endfacet
 facet normal -9.921147e-01  1.720862e-17 -1.253332e-01
   outer loop
     vertex -2.180000e+02 -1.857500e+02  2.370000e+02
     vertex -2.180000e+02  2.282500e+02  2.370000e+02
     vertex -2.178429e+02  2.282500e+02  2.357566e+02
   endloop
 endfacet
 facet normal -6.374240e-01 -5.289687e-17  7.705132e-01
   outer loop
     vertex -2.156791e+02 -1.857500e+02  2.412216e+02
     vertex -2.156791e+02  2.282500e+02  2.412216e+02
     vertex -2.166448e+02  2.282500e+02  2.404227e+02
   endloop
 endfacet
 facet normal -6.374240e-01 -1.059129e-16  7.705132e-01
   outer loop
     vertex -2.166448e+02 -1.857500e+02  2.404227e+02
     vertex -2.156791e+02 -1.857500e+02  2.412216e+02
     vertex -2.166448e+02  2.282500e+02  2.404227e+02
   endloop
 endfacet
 facet normal -9.297765e-01  2.524792e-17 -3.681246e-01
   outer loop
     vertex -2.173815e+02 -1.857500e+02  2.345912e+02
     vertex -2.178429e+02 -1.857500e+02  2.357566e+02
     vertex -2.173815e+02  2.282500e+02  2.345912e+02
   endloop
 endfacet
 facet normal -9.297765e-01  2.527229e-17 -3.681246e-01
   outer loop
     vertex -2.178429e+02 -1.857500e+02  2.357566e+02
     vertex -2.178429e+02  2.282500e+02  2.357566e+02
     vertex -2.173815e+02  2.282500e+02  2.345912e+02
   endloop
 endfacet
 facet normal -8.090170e-01 -8.087894e-17  5.877853e-01
   outer loop
     vertex -2.173815e+02 -1.857500e+02  2.394088e+02
     vertex -2.166448e+02 -1.857500e+02  2.404227e+02
     vertex -2.173815e+02  2.282500e+02  2.394088e+02
   endloop
 endfacet
 facet normal -8.090170e-01 -8.070465e-17  5.877853e-01
   outer loop
     vertex -2.166448e+02 -1.857500e+02  2.404227e+02
     vertex -2.166448e+02  2.282500e+02  2.404227e+02
     vertex -2.173815e+02  2.282500e+02  2.394088e+02
   endloop
 endfacet
 facet normal -8.090170e-01  4.043947e-17 -5.877853e-01
   outer loop
     vertex -2.166448e+02 -1.857500e+02  2.335773e+02
     vertex -2.173815e+02 -1.857500e+02  2.345912e+02
     vertex -2.166448e+02  2.282500e+02  2.335773e+02
   endloop
 endfacet
 facet normal -8.090170e-01  4.035232e-17 -5.877853e-01
   outer loop
     vertex -2.173815e+02 -1.857500e+02  2.345912e+02
     vertex -2.173815e+02  2.282500e+02  2.345912e+02
     vertex -2.166448e+02  2.282500e+02  2.335773e+02
   endloop
 endfacet
 facet normal -9.297765e-01 -5.054458e-17  3.681246e-01
   outer loop
     vertex -2.173815e+02 -1.857500e+02  2.394088e+02
     vertex -2.173815e+02  2.282500e+02  2.394088e+02
     vertex -2.178429e+02  2.282500e+02  2.382434e+02
   endloop
 endfacet
 facet normal -9.297765e-01 -5.049585e-17  3.681246e-01
   outer loop
     vertex -2.178429e+02 -1.857500e+02  2.382434e+02
     vertex -2.173815e+02 -1.857500e+02  2.394088e+02
     vertex -2.178429e+02  2.282500e+02  2.382434e+02
   endloop
 endfacet
 facet normal -9.921147e-01 -1.722422e-17  1.253332e-01
   outer loop
     vertex -2.180000e+02 -1.857500e+02  2.370000e+02
     vertex -2.178429e+02 -1.857500e+02  2.382434e+02
     vertex -2.180000e+02  2.282500e+02  2.370000e+02
   endloop
 endfacet
 facet normal -6.374240e-01  1.059129e-16 -7.705132e-01
   outer loop
     vertex -2.156791e+02 -1.857500e+02  2.327784e+02
     vertex -2.166448e+02 -1.857500e+02  2.335773e+02
     vertex -2.156791e+02  2.282500e+02  2.327784e+02
   endloop
 endfacet
 facet normal -9.921147e-01 -1.720862e-17  1.253332e-01
   outer loop
     vertex -2.178429e+02 -1.857500e+02  2.382434e+02
     vertex -2.178429e+02  2.282500e+02  2.382434e+02
     vertex -2.180000e+02  2.282500e+02  2.370000e+02
   endloop
 endfacet
 facet normal -6.374240e-01  5.289687e-17 -7.705132e-01
   outer loop
     vertex -2.166448e+02 -1.857500e+02  2.335773e+02
     vertex -2.166448e+02  2.282500e+02  2.335773e+02
     vertex -2.156791e+02  2.282500e+02  2.327784e+02
   endloop
 endfacet
 facet normal -4.257793e-01  1.243139e-16 -9.048271e-01
   outer loop
     vertex -2.145451e+02 -1.857500e+02  2.322447e+02
     vertex -2.156791e+02 -1.857500e+02  2.327784e+02
     vertex -2.145451e+02  2.282500e+02  2.322447e+02
   endloop
 endfacet
 facet normal -1.873813e-01  1.348709e-16 -9.822873e-01
   outer loop
     vertex -2.133140e+02 -1.857500e+02  2.320099e+02
     vertex -2.145451e+02 -1.857500e+02  2.322447e+02
     vertex -2.145451e+02  2.282500e+02  2.322447e+02
   endloop
 endfacet
 facet normal -4.257793e-01  1.242354e-16 -9.048271e-01
   outer loop
     vertex -2.156791e+02 -1.857500e+02  2.327784e+02
     vertex -2.156791e+02  2.282500e+02  2.327784e+02
     vertex -2.145451e+02  2.282500e+02  2.322447e+02
   endloop
 endfacet
 facet normal -1.873813e-01  1.347982e-16 -9.822873e-01
   outer loop
     vertex -2.133140e+02 -1.857500e+02  2.320099e+02
     vertex -2.145451e+02  2.282500e+02  2.322447e+02
     vertex -2.133140e+02  2.282500e+02  2.320099e+02
   endloop
 endfacet
 facet normal  6.279052e-02  1.370181e-16 -9.980267e-01
   outer loop
     vertex -2.120631e+02 -1.857500e+02  2.320886e+02
     vertex -2.133140e+02 -1.857500e+02  2.320099e+02
     vertex -2.120631e+02  2.282500e+02  2.320886e+02
   endloop
 endfacet
 facet normal  6.279052e-02  1.370320e-16 -9.980267e-01
   outer loop
     vertex -2.133140e+02 -1.857500e+02  2.320099e+02
     vertex -2.133140e+02  2.282500e+02  2.320099e+02
     vertex -2.120631e+02  2.282500e+02  2.320886e+02
   endloop
 endfacet
 facet normal  3.090170e-01  1.305189e-16 -9.510565e-01
   outer loop
     vertex -2.108711e+02 -1.857500e+02  2.324759e+02
     vertex -2.120631e+02 -1.857500e+02  2.320886e+02
     vertex -2.108711e+02  2.282500e+02  2.324759e+02
   endloop
 endfacet
 facet normal  3.090170e-01  1.305829e-16 -9.510565e-01
   outer loop
     vertex -2.120631e+02 -1.857500e+02  2.320886e+02
     vertex -2.120631e+02  2.282500e+02  2.320886e+02
     vertex -2.108711e+02  2.282500e+02  2.324759e+02
   endloop
 endfacet
 facet normal  5.358268e-01  1.157553e-16 -8.443279e-01
   outer loop
     vertex -2.098129e+02 -1.857500e+02  2.331474e+02
     vertex -2.108711e+02 -1.857500e+02  2.324759e+02
     vertex -2.098129e+02  2.282500e+02  2.331474e+02
   endloop
 endfacet
 facet normal  7.289686e-01  9.399033e-17 -6.845471e-01
   outer loop
     vertex -2.089549e+02 -1.857500e+02  2.340611e+02
     vertex -2.098129e+02 -1.857500e+02  2.331474e+02
     vertex -2.098129e+02  2.282500e+02  2.331474e+02
   endloop
 endfacet
 facet normal  5.358268e-01  1.159287e-16 -8.443279e-01
   outer loop
     vertex -2.108711e+02 -1.857500e+02  2.324759e+02
     vertex -2.108711e+02  2.282500e+02  2.324759e+02
     vertex -2.098129e+02  2.282500e+02  2.331474e+02
   endloop
 endfacet
 facet normal  7.289686e-01  9.393083e-17 -6.845471e-01
   outer loop
     vertex -2.089549e+02 -1.857500e+02  2.340611e+02
     vertex -2.098129e+02  2.282500e+02  2.331474e+02
     vertex -2.089549e+02  2.282500e+02  2.340611e+02
   endloop
 endfacet
 facet normal  8.763067e-01  6.632929e-17 -4.817537e-01
   outer loop
     vertex -2.083511e+02 -1.857500e+02  2.351594e+02
     vertex -2.089549e+02 -1.857500e+02  2.340611e+02
     vertex -2.083511e+02  2.282500e+02  2.351594e+02
   endloop
 endfacet
 facet normal  8.763067e-01  6.614620e-17 -4.817537e-01
   outer loop
     vertex -2.089549e+02 -1.857500e+02  2.340611e+02
     vertex -2.089549e+02  2.282500e+02  2.340611e+02
     vertex -2.083511e+02  2.282500e+02  2.351594e+02
   endloop
 endfacet
 facet normal  9.685832e-01  3.414585e-17 -2.486899e-01
   outer loop
     vertex -2.083511e+02 -1.857500e+02  2.351594e+02
     vertex -2.083511e+02  2.282500e+02  2.351594e+02
     vertex -2.080394e+02  2.282500e+02  2.363733e+02
   endloop
 endfacet
 facet normal  9.685832e-01  3.412749e-17 -2.486899e-01
   outer loop
     vertex -2.080394e+02 -1.857500e+02  2.363733e+02
     vertex -2.083511e+02 -1.857500e+02  2.351594e+02
     vertex -2.080394e+02  2.282500e+02  2.363733e+02
   endloop
 endfacet
 facet normal  1.000000e+00 -0.000000e+00  0.000000e+00
   outer loop
     vertex -2.080394e+02 -1.857500e+02  2.376267e+02
     vertex -2.080394e+02 -1.857500e+02  2.363733e+02
     vertex -2.080394e+02  2.282500e+02  2.363733e+02
   endloop
 endfacet
 facet normal  1.000000e+00 -0.000000e+00  0.000000e+00
   outer loop
     vertex -2.080394e+02 -1.857500e+02  2.376267e+02
     vertex -2.080394e+02  2.282500e+02  2.363733e+02
     vertex -2.080394e+02  2.282500e+02  2.376267e+02
   endloop
 endfacet
 facet normal  9.685832e-01 -1.707293e-17  2.486899e-01
   outer loop
     vertex -2.080394e+02 -1.857500e+02  2.376267e+02
     vertex -2.080394e+02  2.282500e+02  2.376267e+02
     vertex -2.083511e+02  2.282500e+02  2.388406e+02
   endloop
 endfacet
 facet normal  9.685832e-01 -1.701025e-17  2.486899e-01
   outer loop
     vertex -2.083511e+02 -1.857500e+02  2.388406e+02
     vertex -2.080394e+02 -1.857500e+02  2.376267e+02
     vertex -2.083511e+02  2.282500e+02  2.388406e+02
   endloop
 endfacet
 facet normal  8.763067e-01 -3.307310e-17  4.817537e-01
   outer loop
     vertex -2.083511e+02 -1.857500e+02  2.388406e+02
     vertex -2.083511e+02  2.282500e+02  2.388406e+02
     vertex -2.089549e+02  2.282500e+02  2.399389e+02
   endloop
 endfacet
 facet normal  8.763067e-01 -3.316464e-17  4.817537e-01
   outer loop
     vertex -2.089549e+02 -1.857500e+02  2.399389e+02
     vertex -2.083511e+02 -1.857500e+02  2.388406e+02
     vertex -2.089549e+02  2.282500e+02  2.399389e+02
   endloop
 endfacet
 facet normal  7.289686e-01 -4.699517e-17  6.845471e-01
   outer loop
     vertex -2.089549e+02 -1.857500e+02  2.399389e+02
     vertex -2.089549e+02  2.282500e+02  2.399389e+02
     vertex -2.098129e+02  2.282500e+02  2.408526e+02
   endloop
 endfacet
 facet normal  7.289686e-01 -4.707240e-17  6.845471e-01
   outer loop
     vertex -2.098129e+02 -1.857500e+02  2.408526e+02
     vertex -2.089549e+02 -1.857500e+02  2.399389e+02
     vertex -2.098129e+02  2.282500e+02  2.408526e+02
   endloop
 endfacet
 facet normal  5.358268e-01 -5.796435e-17  8.443279e-01
   outer loop
     vertex -2.098129e+02 -1.857500e+02  2.408526e+02
     vertex -2.098129e+02  2.282500e+02  2.408526e+02
     vertex -2.108711e+02  2.282500e+02  2.415241e+02
   endloop
 endfacet
 facet normal  5.358268e-01 -5.777067e-17  8.443279e-01
   outer loop
     vertex -2.108711e+02 -1.857500e+02  2.415241e+02
     vertex -2.098129e+02 -1.857500e+02  2.408526e+02
     vertex -2.108711e+02  2.282500e+02  2.415241e+02
   endloop
 endfacet
 facet normal  3.090170e-01 -6.529143e-17  9.510565e-01
   outer loop
     vertex -2.108711e+02 -1.857500e+02  2.415241e+02
     vertex -2.108711e+02  2.282500e+02  2.415241e+02
     vertex -2.120631e+02  2.282500e+02  2.419114e+02
   endloop
 endfacet
 facet normal  3.090170e-01 -1.305189e-16  9.510565e-01
   outer loop
     vertex -2.120631e+02 -1.857500e+02  2.419114e+02
     vertex -2.108711e+02 -1.857500e+02  2.415241e+02
     vertex -2.120631e+02  2.282500e+02  2.419114e+02
   endloop
 endfacet
 facet normal  6.279052e-02 -1.370320e-16  9.980267e-01
   outer loop
     vertex -2.120631e+02 -1.857500e+02  2.419114e+02
     vertex -2.120631e+02  2.282500e+02  2.419114e+02
     vertex -2.133140e+02  2.282500e+02  2.419901e+02
   endloop
 endfacet
 facet normal  6.279052e-02 -1.370181e-16  9.980267e-01
   outer loop
     vertex -2.133140e+02 -1.857500e+02  2.419901e+02
     vertex -2.120631e+02 -1.857500e+02  2.419114e+02
     vertex -2.133140e+02  2.282500e+02  2.419901e+02
   endloop
 endfacet
 facet normal  0.000000e+00  1.000000e+00 -0.000000e+00
   outer loop
     vertex -2.178429e+02  2.282500e+02  2.357566e+02
     vertex -2.180000e+02  2.282500e+02  2.370000e+02
     vertex -2.130197e+02  2.282500e+02  2.370000e+02
   endloop
 endfacet
 facet normal  0.000000e+00  1.000000e+00 -0.000000e+00
   outer loop
     vertex -2.173815e+02  2.282500e+02  2.345912e+02
     vertex -2.178429e+02  2.282500e+02  2.357566e+02
     vertex -2.130197e+02  2.282500e+02  2.370000e+02
   endloop
 endfacet
 facet normal  0.000000e+00  1.000000e+00 -0.000000e+00
   outer loop
     vertex -2.166448e+02  2.282500e+02  2.335773e+02
     vertex -2.173815e+02  2.282500e+02  2.345912e+02
     vertex -2.130197e+02  2.282500e+02  2.370000e+02
   endloop
 endfacet
 facet normal  0.000000e+00  1.000000e+00 -0.000000e+00
   outer loop
     vertex -2.156791e+02  2.282500e+02  2.327784e+02
     vertex -2.166448e+02  2.282500e+02  2.335773e+02
     vertex -2.130197e+02  2.282500e+02  2.370000e+02
   endloop
 endfacet
 facet normal  0.000000e+00  1.000000e+00 -0.000000e+00
   outer loop
     vertex -2.145451e+02  2.282500e+02  2.322447e+02
     vertex -2.156791e+02  2.282500e+02  2.327784e+02
     vertex -2.130197e+02  2.282500e+02  2.370000e+02
   endloop
 endfacet
 facet normal  0.000000e+00  1.000000e+00 -0.000000e+00
   outer loop
     vertex -2.133140e+02  2.282500e+02  2.320099e+02
     vertex -2.145451e+02  2.282500e+02  2.322447e+02
     vertex -2.130197e+02  2.282500e+02  2.370000e+02
   endloop
 endfacet
 facet normal  0.000000e+00  1.000000e+00 -0.000000e+00
   outer loop
     vertex -2.120631e+02  2.282500e+02  2.320886e+02
     vertex -2.133140e+02  2.282500e+02  2.320099e+02
     vertex -2.130197e+02  2.282500e+02  2.370000e+02
   endloop
 endfacet
 facet normal  0.000000e+00  1.000000e+00  0.000000e+00
   outer loop
     vertex -2.108711e+02  2.282500e+02  2.324759e+02
     vertex -2.120631e+02  2.282500e+02  2.320886e+02
     vertex -2.130197e+02  2.282500e+02  2.370000e+02
   endloop
 endfacet
 facet normal  0.000000e+00  1.000000e+00  0.000000e+00
   outer loop
     vertex -2.098129e+02  2.282500e+02  2.331474e+02
     vertex -2.108711e+02  2.282500e+02  2.324759e+02
     vertex -2.130197e+02  2.282500e+02  2.370000e+02
   endloop
 endfacet
 facet normal  0.000000e+00  1.000000e+00  0.000000e+00
   outer loop
     vertex -2.089549e+02  2.282500e+02  2.340611e+02
     vertex -2.098129e+02  2.282500e+02  2.331474e+02
     vertex -2.130197e+02  2.282500e+02  2.370000e+02
   endloop
 endfacet
 facet normal  0.000000e+00  1.000000e+00  0.000000e+00
   outer loop
     vertex -2.083511e+02  2.282500e+02  2.351594e+02
     vertex -2.089549e+02  2.282500e+02  2.340611e+02
     vertex -2.130197e+02  2.282500e+02  2.370000e+02
   endloop
 endfacet
 facet normal  0.000000e+00  1.000000e+00  0.000000e+00
   outer loop
     vertex -2.080394e+02  2.282500e+02  2.363733e+02
     vertex -2.083511e+02  2.282500e+02  2.351594e+02
     vertex -2.130197e+02  2.282500e+02  2.370000e+02
   endloop
 endfacet
 facet normal  0.000000e+00  1.000000e+00  0.000000e+00
   outer loop
     vertex -2.080394e+02  2.282500e+02  2.376267e+02
     vertex -2.080394e+02  2.282500e+02  2.363733e+02
     vertex -2.130197e+02  2.282500e+02  2.370000e+02
   endloop
 endfacet
 facet normal  0.000000e+00  1.000000e+00  0.000000e+00
   outer loop
     vertex -2.083511e+02  2.282500e+02  2.388406e+02
     vertex -2.080394e+02  2.282500e+02  2.376267e+02
     vertex -2.130197e+02  2.282500e+02  2.370000e+02
   endloop
 endfacet
 facet normal  0.000000e+00  1.000000e+00  0.000000e+00
   outer loop
     vertex -2.089549e+02  2.282500e+02  2.399389e+02
     vertex -2.083511e+02  2.282500e+02  2.388406e+02
     vertex -2.130197e+02  2.282500e+02  2.370000e+02
   endloop
 endfacet
 facet normal  0.000000e+00  1.000000e+00  0.000000e+00
   outer loop
     vertex -2.098129e+02  2.282500e+02  2.408526e+02
     vertex -2.089549e+02  2.282500e+02  2.399389e+02
     vertex -2.130197e+02  2.282500e+02  2.370000e+02
   endloop
 endfacet
 facet normal  0.000000e+00  1.000000e+00  0.000000e+00
   outer loop
     vertex -2.108711e+02  2.282500e+02  2.415241e+02
     vertex -2.098129e+02  2.282500e+02  2.408526e+02
     vertex -2.130197e+02  2.282500e+02  2.370000e+02
   endloop
 endfacet
 facet normal  0.000000e+00  1.000000e+00  0.000000e+00
   outer loop
     vertex -2.120631e+02  2.282500e+02  2.419114e+02
     vertex -2.108711e+02  2.282500e+02  2.415241e+02
     vertex -2.130197e+02  2.282500e+02  2.370000e+02
   endloop
 endfacet
 facet normal  0.000000e+00  1.000000e+00  0.000000e+00
   outer loop
     vertex -2.133140e+02  2.282500e+02  2.419901e+02
     vertex -2.120631e+02  2.282500e+02  2.419114e+02
     vertex -2.130197e+02  2.282500e+02  2.370000e+02
   endloop
 endfacet
 facet normal -0.000000e+00  1.000000e+00  0.000000e+00
   outer loop
     vertex -2.145451e+02  2.282500e+02  2.417553e+02
     vertex -2.133140e+02  2.282500e+02  2.419901e+02
     vertex -2.130197e+02  2.282500e+02  2.370000e+02
   endloop
 endfacet
 facet normal -0.000000e+00  1.000000e+00  0.000000e+00
   outer loop
     vertex -2.156791e+02  2.282500e+02  2.412216e+02
     vertex -2.145451e+02  2.282500e+02  2.417553e+02
     vertex -2.130197e+02  2.282500e+02  2.370000e+02
   endloop
 endfacet
 facet normal -0.000000e+00  1.000000e+00  0.000000e+00
   outer loop
     vertex -2.166448e+02  2.282500e+02  2.404227e+02
     vertex -2.156791e+02  2.282500e+02  2.412216e+02
     vertex -2.130197e+02  2.282500e+02  2.370000e+02
   endloop
 endfacet
 facet normal -0.000000e+00  1.000000e+00  0.000000e+00
   outer loop
     vertex -2.173815e+02  2.282500e+02  2.394088e+02
     vertex -2.166448e+02  2.282500e+02  2.404227e+02
     vertex -2.130197e+02  2.282500e+02  2.370000e+02
   endloop
 endfacet
 facet normal -0.000000e+00  1.000000e+00  0.000000e+00
   outer loop
     vertex -2.178429e+02  2.282500e+02  2.382434e+02
     vertex -2.173815e+02  2.282500e+02  2.394088e+02
     vertex -2.130197e+02  2.282500e+02  2.370000e+02
   endloop
 endfacet
 facet normal -0.000000e+00  1.000000e+00  0.000000e+00
   outer loop
     vertex -2.180000e+02  2.282500e+02  2.370000e+02
     vertex -2.178429e+02  2.282500e+02  2.382434e+02
     vertex -2.130197e+02  2.282500e+02  2.370000e+02
   endloop
 endfacet
 facet normal -0.000000e+00 -1.000000e+00 -0.000000e+00
   outer loop
     vertex -2.130197e+02 -1.857500e+02  2.370000e+02
     vertex -2.180000e+02 -1.857500e+02  2.370000e+02
     vertex -2.178429e+02 -1.857500e+02  2.357566e+02
   endloop
 endfacet
 facet normal  0.000000e+00 -1.000000e+00 -0.000000e+00
   outer loop
     vertex -2.130197e+02 -1.857500e+02  2.370000e+02
     vertex -2.178429e+02 -1.857500e+02  2.357566e+02
     vertex -2.173815e+02 -1.857500e+02  2.345912e+02
   endloop
 endfacet
 facet normal  0.000000e+00 -1.000000e+00 -0.000000e+00
   outer loop
     vertex -2.130197e+02 -1.857500e+02  2.370000e+02
     vertex -2.173815e+02 -1.857500e+02  2.345912e+02
     vertex -2.166448e+02 -1.857500e+02  2.335773e+02
   endloop
 endfacet
 facet normal  0.000000e+00 -1.000000e+00 -0.000000e+00
   outer loop
     vertex -2.130197e+02 -1.857500e+02  2.370000e+02
     vertex -2.166448e+02 -1.857500e+02  2.335773e+02
     vertex -2.156791e+02 -1.857500e+02  2.327784e+02
   endloop
 endfacet
 facet normal  0.000000e+00 -1.000000e+00 -0.000000e+00
   outer loop
     vertex -2.130197e+02 -1.857500e+02  2.370000e+02
     vertex -2.156791e+02 -1.857500e+02  2.327784e+02
     vertex -2.145451e+02 -1.857500e+02  2.322447e+02
   endloop
 endfacet
 facet normal  0.000000e+00 -1.000000e+00 -0.000000e+00
   outer loop
     vertex -2.130197e+02 -1.857500e+02  2.370000e+02
     vertex -2.145451e+02 -1.857500e+02  2.322447e+02
     vertex -2.133140e+02 -1.857500e+02  2.320099e+02
   endloop
 endfacet
 facet normal  0.000000e+00 -1.000000e+00 -0.000000e+00
   outer loop
     vertex -2.130197e+02 -1.857500e+02  2.370000e+02
     vertex -2.133140e+02 -1.857500e+02  2.320099e+02
     vertex -2.120631e+02 -1.857500e+02  2.320886e+02
   endloop
 endfacet
 facet normal  0.000000e+00 -1.000000e+00  0.000000e+00
   outer loop
     vertex -2.130197e+02 -1.857500e+02  2.370000e+02
     vertex -2.120631e+02 -1.857500e+02  2.320886e+02
     vertex -2.108711e+02 -1.857500e+02  2.324759e+02
   endloop
 endfacet
 facet normal  0.000000e+00 -1.000000e+00  0.000000e+00
   outer loop
     vertex -2.130197e+02 -1.857500e+02  2.370000e+02
     vertex -2.108711e+02 -1.857500e+02  2.324759e+02
     vertex -2.098129e+02 -1.857500e+02  2.331474e+02
   endloop
 endfacet
 facet normal  0.000000e+00 -1.000000e+00  0.000000e+00
   outer loop
     vertex -2.130197e+02 -1.857500e+02  2.370000e+02
     vertex -2.098129e+02 -1.857500e+02  2.331474e+02
     vertex -2.089549e+02 -1.857500e+02  2.340611e+02
   endloop
 endfacet
 facet normal  0.000000e+00 -1.000000e+00  0.000000e+00
   outer loop
     vertex -2.130197e+02 -1.857500e+02  2.370000e+02
     vertex -2.089549e+02 -1.857500e+02  2.340611e+02
     vertex -2.083511e+02 -1.857500e+02  2.351594e+02
   endloop
 endfacet
 facet normal  0.000000e+00 -1.000000e+00  0.000000e+00
   outer loop
     vertex -2.130197e+02 -1.857500e+02  2.370000e+02
     vertex -2.083511e+02 -1.857500e+02  2.351594e+02
     vertex -2.080394e+02 -1.857500e+02  2.363733e+02
   endloop
 endfacet
 facet normal  0.000000e+00 -1.000000e+00  0.000000e+00
   outer loop
     vertex -2.130197e+02 -1.857500e+02  2.370000e+02
     vertex -2.080394e+02 -1.857500e+02  2.363733e+02
     vertex -2.080394e+02 -1.857500e+02  2.376267e+02
   endloop
 endfacet
 facet normal  0.000000e+00 -1.000000e+00  0.000000e+00
   outer loop
     vertex -2.130197e+02 -1.857500e+02  2.370000e+02
     vertex -2.080394e+02 -1.857500e+02  2.376267e+02
     vertex -2.083511e+02 -1.857500e+02  2.388406e+02
   endloop
 endfacet
 facet normal  0.000000e+00 -1.000000e+00  0.000000e+00
   outer loop
     vertex -2.130197e+02 -1.857500e+02  2.370000e+02
     vertex -2.083511e+02 -1.857500e+02  2.388406e+02
     vertex -2.089549e+02 -1.857500e+02  2.399389e+02
   endloop
 endfacet
 facet normal  0.000000e+00 -1.000000e+00  0.000000e+00
   outer loop
     vertex -2.130197e+02 -1.857500e+02  2.370000e+02
     vertex -2.089549e+02 -1.857500e+02  2.399389e+02
     vertex -2.098129e+02 -1.857500e+02  2.408526e+02
   endloop
 endfacet
 facet normal  0.000000e+00 -1.000000e+00  0.000000e+00
   outer loop
     vertex -2.130197e+02 -1.857500e+02  2.370000e+02
     vertex -2.098129e+02 -1.857500e+02  2.408526e+02
     vertex -2.108711e+02 -1.857500e+02  2.415241e+02
   endloop
 endfacet
 facet normal  0.000000e+00 -1.000000e+00  0.000000e+00
   outer loop
     vertex -2.130197e+02 -1.857500e+02  2.370000e+02
     vertex -2.108711e+02 -1.857500e+02  2.415241e+02
     vertex -2.120631e+02 -1.857500e+02  2.419114e+02
   endloop
 endfacet
 facet normal  0.000000e+00 -1.000000e+00  0.000000e+00
   outer loop
     vertex -2.130197e+02 -1.857500e+02  2.370000e+02
     vertex -2.120631e+02 -1.857500e+02  2.419114e+02
     vertex -2.133140e+02 -1.857500e+02  2.419901e+02
   endloop
 endfacet
 facet normal -0.000000e+00 -1.000000e+00  0.000000e+00
   outer loop
     vertex -2.130197e+02 -1.857500e+02  2.370000e+02
     vertex -2.133140e+02 -1.857500e+02  2.419901e+02
     vertex -2.145451e+02 -1.857500e+02  2.417553e+02
   endloop
 endfacet
 facet normal -0.000000e+00 -1.000000e+00  0.000000e+00
   outer loop
     vertex -2.130197e+02 -1.857500e+02  2.370000e+02
     vertex -2.145451e+02 -1.857500e+02  2.417553e+02
     vertex -2.156791e+02 -1.857500e+02  2.412216e+02
   endloop
 endfacet
 facet normal -0.000000e+00 -1.000000e+00  0.000000e+00
   outer loop
     vertex -2.130197e+02 -1.857500e+02  2.370000e+02
     vertex -2.156791e+02 -1.857500e+02  2.412216e+02
     vertex -2.166448e+02 -1.857500e+02  2.404227e+02
   endloop
 endfacet
 facet normal -0.000000e+00 -1.000000e+00  0.000000e+00
   outer loop
     vertex -2.130197e+02 -1.857500e+02  2.370000e+02
     vertex -2.166448e+02 -1.857500e+02  2.404227e+02
     vertex -2.173815e+02 -1.857500e+02  2.394088e+02
   endloop
 endfacet
 facet normal -0.000000e+00 -1.000000e+00  0.000000e+00
   outer loop
     vertex -2.130197e+02 -1.857500e+02  2.370000e+02
     vertex -2.173815e+02 -1.857500e+02  2.394088e+02
     vertex -2.178429e+02 -1.857500e+02  2.382434e+02
   endloop
 endfacet
 facet normal -0.000000e+00 -1.000000e+00  0.000000e+00
   outer loop
     vertex -2.130197e+02 -1.857500e+02  2.370000e+02
     vertex -2.178429e+02 -1.857500e+02  2.382434e+02
     vertex -2.180000e+02 -1.857500e+02  2.370000e+02
   endloop
 endfacet
endsolid
