solid
 facet normal -1.000000e+00 -0.000000e+00 -0.000000e+00
   outer loop
     vertex -1.525000e+02  1.602500e+02  1.635000e+02
     vertex -1.525000e+02  1.602500e+02  1.575000e+02
     vertex -1.525000e+02 -1.602500e+02  1.635000e+02
   endloop
 endfacet
 facet normal -1.000000e+00  0.000000e+00  0.000000e+00
   outer loop
     vertex -1.525000e+02  1.602500e+02  1.575000e+02
     vertex -1.525000e+02 -1.602500e+02  1.575000e+02
     vertex -1.525000e+02 -1.602500e+02  1.635000e+02
   endloop
 endfacet
 facet normal  0.000000e+00  0.000000e+00  1.000000e+00
   outer loop
     vertex -1.521651e+02 -1.615000e+02  1.635000e+02
     vertex -1.517678e+02 -1.620178e+02  1.635000e+02
     vertex -1.512500e+02 -1.624151e+02  1.635000e+02
   endloop
 endfacet
 facet normal  0.000000e+00  0.000000e+00  1.000000e+00
   outer loop
     vertex -1.500000e+02 -1.627500e+02  1.635000e+02
     vertex -1.512500e+02 -1.624151e+02  1.635000e+02
     vertex -1.506470e+02 -1.626648e+02  1.635000e+02
   endloop
 endfacet
 facet normal  0.000000e+00  0.000000e+00  1.000000e+00
   outer loop
     vertex -1.525000e+02 -1.602500e+02  1.635000e+02
     vertex -1.524148e+02 -1.608970e+02  1.635000e+02
     vertex -1.521651e+02 -1.615000e+02  1.635000e+02
   endloop
 endfacet
 facet normal  0.000000e+00  0.000000e+00  1.000000e+00
   outer loop
     vertex -1.525000e+02 -1.602500e+02  1.635000e+02
     vertex -1.521651e+02 -1.615000e+02  1.635000e+02
     vertex -1.512500e+02 -1.624151e+02  1.635000e+02
   endloop
 endfacet
 facet normal  0.000000e+00  0.000000e+00  1.000000e+00
   outer loop
     vertex -1.525000e+02 -1.602500e+02  1.635000e+02
     vertex -1.512500e+02 -1.624151e+02  1.635000e+02
     vertex -1.500000e+02 -1.627500e+02  1.635000e+02
   endloop
 endfacet
 facet normal -0.000000e+00  0.000000e+00  1.000000e+00
   outer loop
     vertex  1.521651e+02 -1.615000e+02  1.635000e+02
     vertex  1.512500e+02 -1.624151e+02  1.635000e+02
     vertex  1.517678e+02 -1.620178e+02  1.635000e+02
   endloop
 endfacet
 facet normal -0.000000e+00  0.000000e+00  1.000000e+00
   outer loop
     vertex  1.525000e+02 -1.602500e+02  1.635000e+02
     vertex  1.521651e+02 -1.615000e+02  1.635000e+02
     vertex  1.524148e+02 -1.608970e+02  1.635000e+02
   endloop
 endfacet
 facet normal -0.000000e+00  0.000000e+00  1.000000e+00
   outer loop
     vertex  1.525000e+02 -1.602500e+02  1.635000e+02
     vertex  1.506470e+02 -1.626648e+02  1.635000e+02
     vertex  1.512500e+02 -1.624151e+02  1.635000e+02
   endloop
 endfacet
 facet normal -0.000000e+00  0.000000e+00  1.000000e+00
   outer loop
     vertex  1.525000e+02 -1.602500e+02  1.635000e+02
     vertex  1.500000e+02 -1.627500e+02  1.635000e+02
     vertex  1.506470e+02 -1.626648e+02  1.635000e+02
   endloop
 endfacet
 facet normal -0.000000e+00  0.000000e+00  1.000000e+00
   outer loop
     vertex  1.525000e+02 -1.602500e+02  1.635000e+02
     vertex  1.512500e+02 -1.624151e+02  1.635000e+02
     vertex  1.521651e+02 -1.615000e+02  1.635000e+02
   endloop
 endfacet
 facet normal  0.000000e+00  0.000000e+00  1.000000e+00
   outer loop
     vertex -1.512500e+02  1.624151e+02  1.635000e+02
     vertex -1.517678e+02  1.620178e+02  1.635000e+02
     vertex -1.521651e+02  1.615000e+02  1.635000e+02
   endloop
 endfacet
 facet normal  0.000000e+00  0.000000e+00  1.000000e+00
   outer loop
     vertex -1.500000e+02  1.627500e+02  1.635000e+02
     vertex -1.524148e+02  1.608970e+02  1.635000e+02
     vertex -1.525000e+02  1.602500e+02  1.635000e+02
   endloop
 endfacet
 facet normal  0.000000e+00  0.000000e+00  1.000000e+00
   outer loop
     vertex -1.500000e+02  1.627500e+02  1.635000e+02
     vertex -1.521651e+02  1.615000e+02  1.635000e+02
     vertex -1.524148e+02  1.608970e+02  1.635000e+02
   endloop
 endfacet
 facet normal  0.000000e+00  0.000000e+00  1.000000e+00
   outer loop
     vertex -1.500000e+02  1.627500e+02  1.635000e+02
     vertex -1.506470e+02  1.626648e+02  1.635000e+02
     vertex -1.512500e+02  1.624151e+02  1.635000e+02
   endloop
 endfacet
 facet normal  0.000000e+00  0.000000e+00  1.000000e+00
   outer loop
     vertex -1.500000e+02  1.627500e+02  1.635000e+02
     vertex -1.512500e+02  1.624151e+02  1.635000e+02
     vertex -1.521651e+02  1.615000e+02  1.635000e+02
   endloop
 endfacet
 facet normal  0.000000e+00  0.000000e+00  1.000000e+00
   outer loop
     vertex  1.524148e+02  1.608970e+02  1.635000e+02
     vertex  1.506470e+02  1.626648e+02  1.635000e+02
     vertex  1.500000e+02  1.627500e+02  1.635000e+02
   endloop
 endfacet
 facet normal  0.000000e+00  0.000000e+00  1.000000e+00
   outer loop
     vertex  1.524148e+02  1.608970e+02  1.635000e+02
     vertex  1.500000e+02  1.627500e+02  1.635000e+02
     vertex  1.525000e+02  1.602500e+02  1.635000e+02
   endloop
 endfacet
 facet normal  0.000000e+00  0.000000e+00  1.000000e+00
   outer loop
     vertex  1.512500e+02  1.624151e+02  1.635000e+02
     vertex  1.506470e+02  1.626648e+02  1.635000e+02
     vertex  1.524148e+02  1.608970e+02  1.635000e+02
   endloop
 endfacet
 facet normal  0.000000e+00  0.000000e+00  1.000000e+00
   outer loop
     vertex  1.521651e+02  1.615000e+02  1.635000e+02
     vertex  1.512500e+02  1.624151e+02  1.635000e+02
     vertex  1.524148e+02  1.608970e+02  1.635000e+02
   endloop
 endfacet
 facet normal  0.000000e+00  0.000000e+00  1.000000e+00
   outer loop
     vertex  1.517678e+02  1.620178e+02  1.635000e+02
     vertex  1.512500e+02  1.624151e+02  1.635000e+02
     vertex  1.521651e+02  1.615000e+02  1.635000e+02
   endloop
 endfacet
 facet normal  0.000000e+00  0.000000e+00  1.000000e+00
   outer loop
     vertex  0.000000e+00  0.000000e+00  1.635000e+02
     vertex -1.525000e+02  1.602500e+02  1.635000e+02
     vertex -1.525000e+02 -1.602500e+02  1.635000e+02
   endloop
 endfacet
 facet normal -0.000000e+00  0.000000e+00  1.000000e+00
   outer loop
     vertex  0.000000e+00  0.000000e+00  1.635000e+02
     vertex -1.500000e+02 -1.627500e+02  1.635000e+02
     vertex  1.500000e+02 -1.627500e+02  1.635000e+02
   endloop
 endfacet
 facet normal  0.000000e+00 -0.000000e+00  1.000000e+00
   outer loop
     vertex  0.000000e+00  0.000000e+00  1.635000e+02
     vertex  1.500000e+02  1.627500e+02  1.635000e+02
     vertex -1.500000e+02  1.627500e+02  1.635000e+02
   endloop
 endfacet
 facet normal -0.000000e+00  0.000000e+00  1.000000e+00
   outer loop
     vertex  0.000000e+00  0.000000e+00  1.635000e+02
     vertex  1.525000e+02 -1.602500e+02  1.635000e+02
     vertex  1.525000e+02  1.602500e+02  1.635000e+02
   endloop
 endfacet
 facet normal  0.000000e+00  0.000000e+00  1.000000e+00
   outer loop
     vertex  0.000000e+00  0.000000e+00  1.635000e+02
     vertex -1.525000e+02 -1.602500e+02  1.635000e+02
     vertex -1.500000e+02 -1.627500e+02  1.635000e+02
   endloop
 endfacet
 facet normal -0.000000e+00  0.000000e+00  1.000000e+00
   outer loop
     vertex  0.000000e+00  0.000000e+00  1.635000e+02
     vertex  1.500000e+02 -1.627500e+02  1.635000e+02
     vertex  1.525000e+02 -1.602500e+02  1.635000e+02
   endloop
 endfacet
 facet normal  0.000000e+00  0.000000e+00  1.000000e+00
   outer loop
     vertex  0.000000e+00  0.000000e+00  1.635000e+02
     vertex -1.500000e+02  1.627500e+02  1.635000e+02
     vertex -1.525000e+02  1.602500e+02  1.635000e+02
   endloop
 endfacet
 facet normal  0.000000e+00 -0.000000e+00  1.000000e+00
   outer loop
     vertex  0.000000e+00  0.000000e+00  1.635000e+02
     vertex  1.525000e+02  1.602500e+02  1.635000e+02
     vertex  1.500000e+02  1.627500e+02  1.635000e+02
   endloop
 endfacet
 facet normal -9.914449e-01 -1.305262e-01  0.000000e+00
   outer loop
     vertex -1.524148e+02 -1.608970e+02  1.635000e+02
     vertex -1.525000e+02 -1.602500e+02  1.575000e+02
     vertex -1.524148e+02 -1.608970e+02  1.575000e+02
   endloop
 endfacet
 facet normal -9.914449e-01 -1.305262e-01 -0.000000e+00
   outer loop
     vertex -1.524148e+02 -1.608970e+02  1.635000e+02
     vertex -1.525000e+02 -1.602500e+02  1.635000e+02
     vertex -1.525000e+02 -1.602500e+02  1.575000e+02
   endloop
 endfacet
 facet normal -9.238795e-01 -3.826834e-01  0.000000e+00
   outer loop
     vertex -1.521651e+02 -1.615000e+02  1.635000e+02
     vertex -1.524148e+02 -1.608970e+02  1.575000e+02
     vertex -1.521651e+02 -1.615000e+02  1.575000e+02
   endloop
 endfacet
 facet normal -9.238795e-01 -3.826834e-01 -0.000000e+00
   outer loop
     vertex -1.521651e+02 -1.615000e+02  1.635000e+02
     vertex -1.524148e+02 -1.608970e+02  1.635000e+02
     vertex -1.524148e+02 -1.608970e+02  1.575000e+02
   endloop
 endfacet
 facet normal -7.933533e-01 -6.087614e-01  0.000000e+00
   outer loop
     vertex -1.517678e+02 -1.620178e+02  1.635000e+02
     vertex -1.521651e+02 -1.615000e+02  1.575000e+02
     vertex -1.517678e+02 -1.620178e+02  1.575000e+02
   endloop
 endfacet
 facet normal -7.933533e-01 -6.087614e-01 -0.000000e+00
   outer loop
     vertex -1.517678e+02 -1.620178e+02  1.635000e+02
     vertex -1.521651e+02 -1.615000e+02  1.635000e+02
     vertex -1.521651e+02 -1.615000e+02  1.575000e+02
   endloop
 endfacet
 facet normal -6.087614e-01 -7.933533e-01  0.000000e+00
   outer loop
     vertex -1.512500e+02 -1.624151e+02  1.635000e+02
     vertex -1.517678e+02 -1.620178e+02  1.575000e+02
     vertex -1.512500e+02 -1.624151e+02  1.575000e+02
   endloop
 endfacet
 facet normal -6.087614e-01 -7.933533e-01 -0.000000e+00
   outer loop
     vertex -1.512500e+02 -1.624151e+02  1.635000e+02
     vertex -1.517678e+02 -1.620178e+02  1.635000e+02
     vertex -1.517678e+02 -1.620178e+02  1.575000e+02
   endloop
 endfacet
 facet normal -3.826834e-01 -9.238795e-01  0.000000e+00
   outer loop
     vertex -1.506470e+02 -1.626648e+02  1.635000e+02
     vertex -1.512500e+02 -1.624151e+02  1.575000e+02
     vertex -1.506470e+02 -1.626648e+02  1.575000e+02
   endloop
 endfacet
 facet normal -1.305262e-01 -9.914449e-01 -0.000000e+00
   outer loop
     vertex -1.506470e+02 -1.626648e+02  1.635000e+02
     vertex -1.506470e+02 -1.626648e+02  1.575000e+02
     vertex -1.500000e+02 -1.627500e+02  1.575000e+02
   endloop
 endfacet
 facet normal -3.826834e-01 -9.238795e-01 -0.000000e+00
   outer loop
     vertex -1.506470e+02 -1.626648e+02  1.635000e+02
     vertex -1.512500e+02 -1.624151e+02  1.635000e+02
     vertex -1.512500e+02 -1.624151e+02  1.575000e+02
   endloop
 endfacet
 facet normal -1.305262e-01 -9.914449e-01  0.000000e+00
   outer loop
     vertex -1.500000e+02 -1.627500e+02  1.635000e+02
     vertex -1.506470e+02 -1.626648e+02  1.635000e+02
     vertex -1.500000e+02 -1.627500e+02  1.575000e+02
   endloop
 endfacet
 facet normal -9.914449e-01  1.305262e-01  0.000000e+00
   outer loop
     vertex -1.524148e+02  1.608970e+02  1.575000e+02
     vertex -1.525000e+02  1.602500e+02  1.575000e+02
     vertex -1.524148e+02  1.608970e+02  1.635000e+02
   endloop
 endfacet
 facet normal -9.238795e-01  3.826834e-01  0.000000e+00
   outer loop
     vertex -1.521651e+02  1.615000e+02  1.575000e+02
     vertex -1.524148e+02  1.608970e+02  1.575000e+02
     vertex -1.524148e+02  1.608970e+02  1.635000e+02
   endloop
 endfacet
 facet normal -9.914449e-01  1.305262e-01  0.000000e+00
   outer loop
     vertex -1.525000e+02  1.602500e+02  1.575000e+02
     vertex -1.525000e+02  1.602500e+02  1.635000e+02
     vertex -1.524148e+02  1.608970e+02  1.635000e+02
   endloop
 endfacet
 facet normal -9.238795e-01  3.826834e-01  0.000000e+00
   outer loop
     vertex -1.521651e+02  1.615000e+02  1.575000e+02
     vertex -1.524148e+02  1.608970e+02  1.635000e+02
     vertex -1.521651e+02  1.615000e+02  1.635000e+02
   endloop
 endfacet
 facet normal -7.933533e-01  6.087614e-01  0.000000e+00
   outer loop
     vertex -1.517678e+02  1.620178e+02  1.575000e+02
     vertex -1.521651e+02  1.615000e+02  1.575000e+02
     vertex -1.517678e+02  1.620178e+02  1.635000e+02
   endloop
 endfacet
 facet normal -7.933533e-01  6.087614e-01  0.000000e+00
   outer loop
     vertex -1.521651e+02  1.615000e+02  1.575000e+02
     vertex -1.521651e+02  1.615000e+02  1.635000e+02
     vertex -1.517678e+02  1.620178e+02  1.635000e+02
   endloop
 endfacet
 facet normal -6.087614e-01  7.933533e-01  0.000000e+00
   outer loop
     vertex -1.512500e+02  1.624151e+02  1.575000e+02
     vertex -1.517678e+02  1.620178e+02  1.575000e+02
     vertex -1.512500e+02  1.624151e+02  1.635000e+02
   endloop
 endfacet
 facet normal -3.826834e-01  9.238795e-01  0.000000e+00
   outer loop
     vertex -1.506470e+02  1.626648e+02  1.575000e+02
     vertex -1.512500e+02  1.624151e+02  1.575000e+02
     vertex -1.512500e+02  1.624151e+02  1.635000e+02
   endloop
 endfacet
 facet normal -6.087614e-01  7.933533e-01  0.000000e+00
   outer loop
     vertex -1.517678e+02  1.620178e+02  1.575000e+02
     vertex -1.517678e+02  1.620178e+02  1.635000e+02
     vertex -1.512500e+02  1.624151e+02  1.635000e+02
   endloop
 endfacet
 facet normal -3.826834e-01  9.238795e-01  0.000000e+00
   outer loop
     vertex -1.506470e+02  1.626648e+02  1.575000e+02
     vertex -1.512500e+02  1.624151e+02  1.635000e+02
     vertex -1.506470e+02  1.626648e+02  1.635000e+02
   endloop
 endfacet
 facet normal -1.305262e-01  9.914449e-01  0.000000e+00
   outer loop
     vertex -1.500000e+02  1.627500e+02  1.575000e+02
     vertex -1.506470e+02  1.626648e+02  1.575000e+02
     vertex -1.500000e+02  1.627500e+02  1.635000e+02
   endloop
 endfacet
 facet normal -1.305262e-01  9.914449e-01  0.000000e+00
   outer loop
     vertex -1.506470e+02  1.626648e+02  1.575000e+02
     vertex -1.506470e+02  1.626648e+02  1.635000e+02
     vertex -1.500000e+02  1.627500e+02  1.635000e+02
   endloop
 endfacet
 facet normal  0.000000e+00  0.000000e+00 -1.000000e+00
   outer loop
     vertex -1.512500e+02 -1.624151e+02  1.575000e+02
     vertex -1.517678e+02 -1.620178e+02  1.575000e+02
     vertex -1.521651e+02 -1.615000e+02  1.575000e+02
   endloop
 endfacet
 facet normal  0.000000e+00  0.000000e+00 -1.000000e+00
   outer loop
     vertex -1.506470e+02 -1.626648e+02  1.575000e+02
     vertex -1.512500e+02 -1.624151e+02  1.575000e+02
     vertex -1.500000e+02 -1.627500e+02  1.575000e+02
   endloop
 endfacet
 facet normal  0.000000e+00  0.000000e+00 -1.000000e+00
   outer loop
     vertex -1.521651e+02 -1.615000e+02  1.575000e+02
     vertex -1.524148e+02 -1.608970e+02  1.575000e+02
     vertex -1.525000e+02 -1.602500e+02  1.575000e+02
   endloop
 endfacet
 facet normal  0.000000e+00  0.000000e+00 -1.000000e+00
   outer loop
     vertex -1.512500e+02 -1.624151e+02  1.575000e+02
     vertex -1.521651e+02 -1.615000e+02  1.575000e+02
     vertex -1.525000e+02 -1.602500e+02  1.575000e+02
   endloop
 endfacet
 facet normal  0.000000e+00  0.000000e+00 -1.000000e+00
   outer loop
     vertex -1.500000e+02 -1.627500e+02  1.575000e+02
     vertex -1.512500e+02 -1.624151e+02  1.575000e+02
     vertex -1.525000e+02 -1.602500e+02  1.575000e+02
   endloop
 endfacet
 facet normal -0.000000e+00  0.000000e+00 -1.000000e+00
   outer loop
     vertex  1.517678e+02 -1.620178e+02  1.575000e+02
     vertex  1.512500e+02 -1.624151e+02  1.575000e+02
     vertex  1.521651e+02 -1.615000e+02  1.575000e+02
   endloop
 endfacet
 facet normal -0.000000e+00  0.000000e+00 -1.000000e+00
   outer loop
     vertex  1.524148e+02 -1.608970e+02  1.575000e+02
     vertex  1.521651e+02 -1.615000e+02  1.575000e+02
     vertex  1.525000e+02 -1.602500e+02  1.575000e+02
   endloop
 endfacet
 facet normal -0.000000e+00  0.000000e+00 -1.000000e+00
   outer loop
     vertex  1.512500e+02 -1.624151e+02  1.575000e+02
     vertex  1.506470e+02 -1.626648e+02  1.575000e+02
     vertex  1.525000e+02 -1.602500e+02  1.575000e+02
   endloop
 endfacet
 facet normal -0.000000e+00  0.000000e+00 -1.000000e+00
   outer loop
     vertex  1.506470e+02 -1.626648e+02  1.575000e+02
     vertex  1.500000e+02 -1.627500e+02  1.575000e+02
     vertex  1.525000e+02 -1.602500e+02  1.575000e+02
   endloop
 endfacet
 facet normal -0.000000e+00  0.000000e+00 -1.000000e+00
   outer loop
     vertex  1.521651e+02 -1.615000e+02  1.575000e+02
     vertex  1.512500e+02 -1.624151e+02  1.575000e+02
     vertex  1.525000e+02 -1.602500e+02  1.575000e+02
   endloop
 endfacet
 facet normal  0.000000e+00  0.000000e+00 -1.000000e+00
   outer loop
     vertex -1.521651e+02  1.615000e+02  1.575000e+02
     vertex -1.517678e+02  1.620178e+02  1.575000e+02
     vertex -1.512500e+02  1.624151e+02  1.575000e+02
   endloop
 endfacet
 facet normal  0.000000e+00  0.000000e+00 -1.000000e+00
   outer loop
     vertex -1.525000e+02  1.602500e+02  1.575000e+02
     vertex -1.524148e+02  1.608970e+02  1.575000e+02
     vertex -1.500000e+02  1.627500e+02  1.575000e+02
   endloop
 endfacet
 facet normal  0.000000e+00  0.000000e+00 -1.000000e+00
   outer loop
     vertex -1.524148e+02  1.608970e+02  1.575000e+02
     vertex -1.521651e+02  1.615000e+02  1.575000e+02
     vertex -1.500000e+02  1.627500e+02  1.575000e+02
   endloop
 endfacet
 facet normal  0.000000e+00  0.000000e+00 -1.000000e+00
   outer loop
     vertex -1.512500e+02  1.624151e+02  1.575000e+02
     vertex -1.506470e+02  1.626648e+02  1.575000e+02
     vertex -1.500000e+02  1.627500e+02  1.575000e+02
   endloop
 endfacet
 facet normal  0.000000e+00  0.000000e+00 -1.000000e+00
   outer loop
     vertex -1.521651e+02  1.615000e+02  1.575000e+02
     vertex -1.512500e+02  1.624151e+02  1.575000e+02
     vertex -1.500000e+02  1.627500e+02  1.575000e+02
   endloop
 endfacet
 facet normal  0.000000e+00  0.000000e+00 -1.000000e+00
   outer loop
     vertex  1.500000e+02  1.627500e+02  1.575000e+02
     vertex  1.506470e+02  1.626648e+02  1.575000e+02
     vertex  1.524148e+02  1.608970e+02  1.575000e+02
   endloop
 endfacet
 facet normal  0.000000e+00  0.000000e+00 -1.000000e+00
   outer loop
     vertex  1.525000e+02  1.602500e+02  1.575000e+02
     vertex  1.500000e+02  1.627500e+02  1.575000e+02
     vertex  1.524148e+02  1.608970e+02  1.575000e+02
   endloop
 endfacet
 facet normal  0.000000e+00  0.000000e+00 -1.000000e+00
   outer loop
     vertex  1.524148e+02  1.608970e+02  1.575000e+02
     vertex  1.506470e+02  1.626648e+02  1.575000e+02
     vertex  1.512500e+02  1.624151e+02  1.575000e+02
   endloop
 endfacet
 facet normal  0.000000e+00  0.000000e+00 -1.000000e+00
   outer loop
     vertex  1.524148e+02  1.608970e+02  1.575000e+02
     vertex  1.512500e+02  1.624151e+02  1.575000e+02
     vertex  1.521651e+02  1.615000e+02  1.575000e+02
   endloop
 endfacet
 facet normal  0.000000e+00  0.000000e+00 -1.000000e+00
   outer loop
     vertex  1.521651e+02  1.615000e+02  1.575000e+02
     vertex  1.512500e+02  1.624151e+02  1.575000e+02
     vertex  1.517678e+02  1.620178e+02  1.575000e+02
   endloop
 endfacet
 facet normal  0.000000e+00  0.000000e+00 -1.000000e+00
   outer loop
     vertex -1.525000e+02 -1.602500e+02  1.575000e+02
     vertex -1.525000e+02  1.602500e+02  1.575000e+02
     vertex  0.000000e+00  0.000000e+00  1.575000e+02
   endloop
 endfacet
 facet normal  0.000000e+00  0.000000e+00 -1.000000e+00
   outer loop
     vertex  1.500000e+02 -1.627500e+02  1.575000e+02
     vertex -1.500000e+02 -1.627500e+02  1.575000e+02
     vertex  0.000000e+00  0.000000e+00  1.575000e+02
   endloop
 endfacet
 facet normal  0.000000e+00 -0.000000e+00 -1.000000e+00
   outer loop
     vertex -1.500000e+02  1.627500e+02  1.575000e+02
     vertex  1.500000e+02  1.627500e+02  1.575000e+02
     vertex  0.000000e+00  0.000000e+00  1.575000e+02
   endloop
 endfacet
 facet normal -0.000000e+00 -0.000000e+00 -1.000000e+00
   outer loop
     vertex  1.525000e+02  1.602500e+02  1.575000e+02
     vertex  1.525000e+02 -1.602500e+02  1.575000e+02
     vertex  0.000000e+00  0.000000e+00  1.575000e+02
   endloop
 endfacet
 facet normal  0.000000e+00  0.000000e+00 -1.000000e+00
   outer loop
     vertex -1.500000e+02 -1.627500e+02  1.575000e+02
     vertex -1.525000e+02 -1.602500e+02  1.575000e+02
     vertex  0.000000e+00  0.000000e+00  1.575000e+02
   endloop
 endfacet
 facet normal -0.000000e+00  0.000000e+00 -1.000000e+00
   outer loop
     vertex  1.525000e+02 -1.602500e+02  1.575000e+02
     vertex  1.500000e+02 -1.627500e+02  1.575000e+02
     vertex  0.000000e+00  0.000000e+00  1.575000e+02
   endloop
 endfacet
 facet normal  0.000000e+00  0.000000e+00 -1.000000e+00
   outer loop
     vertex -1.525000e+02  1.602500e+02  1.575000e+02
     vertex -1.500000e+02  1.627500e+02  1.575000e+02
     vertex  0.000000e+00  0.000000e+00  1.575000e+02
   endloop
 endfacet
 facet normal  0.000000e+00 -0.000000e+00 -1.000000e+00
   outer loop
     vertex  1.500000e+02  1.627500e+02  1.575000e+02
     vertex  1.525000e+02  1.602500e+02  1.575000e+02
     vertex  0.000000e+00  0.000000e+00  1.575000e+02
   endloop
 endfacet
 facet normal  0.000000e+00 -1.000000e+00  0.000000e+00
   outer loop
     vertex -1.500000e+02 -1.627500e+02  1.575000e+02
     vertex  1.500000e+02 -1.627500e+02  1.575000e+02
     vertex  1.500000e+02 -1.627500e+02  1.635000e+02
   endloop
 endfacet
 facet normal  0.000000e+00 -1.000000e+00  0.000000e+00
   outer loop
     vertex -1.500000e+02 -1.627500e+02  1.635000e+02
     vertex -1.500000e+02 -1.627500e+02  1.575000e+02
     vertex  1.500000e+02 -1.627500e+02  1.635000e+02
   endloop
 endfacet
 facet normal  0.000000e+00  1.000000e+00  0.000000e+00
   outer loop
     vertex  1.500000e+02  1.627500e+02  1.635000e+02
     vertex  1.500000e+02  1.627500e+02  1.575000e+02
     vertex -1.500000e+02  1.627500e+02  1.575000e+02
   endloop
 endfacet
 facet normal  0.000000e+00  1.000000e+00 -0.000000e+00
   outer loop
     vertex  1.500000e+02  1.627500e+02  1.635000e+02
     vertex -1.500000e+02  1.627500e+02  1.575000e+02
     vertex -1.500000e+02  1.627500e+02  1.635000e+02
   endloop
 endfacet
 facet normal  9.914449e-01 -1.305262e-01  0.000000e+00
   outer loop
     vertex  1.524148e+02 -1.608970e+02  1.575000e+02
     vertex  1.525000e+02 -1.602500e+02  1.575000e+02
     vertex  1.524148e+02 -1.608970e+02  1.635000e+02
   endloop
 endfacet
 facet normal  9.914449e-01 -1.305262e-01  0.000000e+00
   outer loop
     vertex  1.525000e+02 -1.602500e+02  1.575000e+02
     vertex  1.525000e+02 -1.602500e+02  1.635000e+02
     vertex  1.524148e+02 -1.608970e+02  1.635000e+02
   endloop
 endfacet
 facet normal  9.238795e-01 -3.826834e-01  0.000000e+00
   outer loop
     vertex  1.521651e+02 -1.615000e+02  1.575000e+02
     vertex  1.524148e+02 -1.608970e+02  1.575000e+02
     vertex  1.521651e+02 -1.615000e+02  1.635000e+02
   endloop
 endfacet
 facet normal  9.238795e-01 -3.826834e-01  0.000000e+00
   outer loop
     vertex  1.524148e+02 -1.608970e+02  1.575000e+02
     vertex  1.524148e+02 -1.608970e+02  1.635000e+02
     vertex  1.521651e+02 -1.615000e+02  1.635000e+02
   endloop
 endfacet
 facet normal  7.933533e-01 -6.087614e-01  0.000000e+00
   outer loop
     vertex  1.517678e+02 -1.620178e+02  1.575000e+02
     vertex  1.521651e+02 -1.615000e+02  1.575000e+02
     vertex  1.517678e+02 -1.620178e+02  1.635000e+02
   endloop
 endfacet
 facet normal  7.933533e-01 -6.087614e-01  0.000000e+00
   outer loop
     vertex  1.521651e+02 -1.615000e+02  1.575000e+02
     vertex  1.521651e+02 -1.615000e+02  1.635000e+02
     vertex  1.517678e+02 -1.620178e+02  1.635000e+02
   endloop
 endfacet
 facet normal  6.087614e-01 -7.933533e-01  0.000000e+00
   outer loop
     vertex  1.512500e+02 -1.624151e+02  1.575000e+02
     vertex  1.517678e+02 -1.620178e+02  1.575000e+02
     vertex  1.512500e+02 -1.624151e+02  1.635000e+02
   endloop
 endfacet
 facet normal  6.087614e-01 -7.933533e-01  0.000000e+00
   outer loop
     vertex  1.517678e+02 -1.620178e+02  1.575000e+02
     vertex  1.517678e+02 -1.620178e+02  1.635000e+02
     vertex  1.512500e+02 -1.624151e+02  1.635000e+02
   endloop
 endfacet
 facet normal  3.826834e-01 -9.238795e-01  0.000000e+00
   outer loop
     vertex  1.506470e+02 -1.626648e+02  1.575000e+02
     vertex  1.512500e+02 -1.624151e+02  1.575000e+02
     vertex  1.506470e+02 -1.626648e+02  1.635000e+02
   endloop
 endfacet
 facet normal  1.305262e-01 -9.914449e-01  0.000000e+00
   outer loop
     vertex  1.500000e+02 -1.627500e+02  1.575000e+02
     vertex  1.506470e+02 -1.626648e+02  1.575000e+02
     vertex  1.506470e+02 -1.626648e+02  1.635000e+02
   endloop
 endfacet
 facet normal  3.826834e-01 -9.238795e-01  0.000000e+00
   outer loop
     vertex  1.512500e+02 -1.624151e+02  1.575000e+02
     vertex  1.512500e+02 -1.624151e+02  1.635000e+02
     vertex  1.506470e+02 -1.626648e+02  1.635000e+02
   endloop
 endfacet
 facet normal  1.305262e-01 -9.914449e-01  0.000000e+00
   outer loop
     vertex  1.500000e+02 -1.627500e+02  1.575000e+02
     vertex  1.506470e+02 -1.626648e+02  1.635000e+02
     vertex  1.500000e+02 -1.627500e+02  1.635000e+02
   endloop
 endfacet
 facet normal  9.914449e-01  1.305262e-01  0.000000e+00
   outer loop
     vertex  1.524148e+02  1.608970e+02  1.635000e+02
     vertex  1.525000e+02  1.602500e+02  1.575000e+02
     vertex  1.524148e+02  1.608970e+02  1.575000e+02
   endloop
 endfacet
 facet normal  9.238795e-01  3.826834e-01  0.000000e+00
   outer loop
     vertex  1.524148e+02  1.608970e+02  1.635000e+02
     vertex  1.524148e+02  1.608970e+02  1.575000e+02
     vertex  1.521651e+02  1.615000e+02  1.575000e+02
   endloop
 endfacet
 facet normal  9.914449e-01  1.305262e-01  0.000000e+00
   outer loop
     vertex  1.524148e+02  1.608970e+02  1.635000e+02
     vertex  1.525000e+02  1.602500e+02  1.635000e+02
     vertex  1.525000e+02  1.602500e+02  1.575000e+02
   endloop
 endfacet
 facet normal  9.238795e-01  3.826834e-01  0.000000e+00
   outer loop
     vertex  1.521651e+02  1.615000e+02  1.635000e+02
     vertex  1.524148e+02  1.608970e+02  1.635000e+02
     vertex  1.521651e+02  1.615000e+02  1.575000e+02
   endloop
 endfacet
 facet normal  7.933533e-01  6.087614e-01  0.000000e+00
   outer loop
     vertex  1.517678e+02  1.620178e+02  1.635000e+02
     vertex  1.521651e+02  1.615000e+02  1.575000e+02
     vertex  1.517678e+02  1.620178e+02  1.575000e+02
   endloop
 endfacet
 facet normal  7.933533e-01  6.087614e-01  0.000000e+00
   outer loop
     vertex  1.517678e+02  1.620178e+02  1.635000e+02
     vertex  1.521651e+02  1.615000e+02  1.635000e+02
     vertex  1.521651e+02  1.615000e+02  1.575000e+02
   endloop
 endfacet
 facet normal  6.087614e-01  7.933533e-01  0.000000e+00
   outer loop
     vertex  1.512500e+02  1.624151e+02  1.635000e+02
     vertex  1.517678e+02  1.620178e+02  1.575000e+02
     vertex  1.512500e+02  1.624151e+02  1.575000e+02
   endloop
 endfacet
 facet normal  3.826834e-01  9.238795e-01  0.000000e+00
   outer loop
     vertex  1.512500e+02  1.624151e+02  1.635000e+02
     vertex  1.512500e+02  1.624151e+02  1.575000e+02
     vertex  1.506470e+02  1.626648e+02  1.575000e+02
   endloop
 endfacet
 facet normal  6.087614e-01  7.933533e-01  0.000000e+00
   outer loop
     vertex  1.512500e+02  1.624151e+02  1.635000e+02
     vertex  1.517678e+02  1.620178e+02  1.635000e+02
     vertex  1.517678e+02  1.620178e+02  1.575000e+02
   endloop
 endfacet
 facet normal  3.826834e-01  9.238795e-01  0.000000e+00
   outer loop
     vertex  1.506470e+02  1.626648e+02  1.635000e+02
     vertex  1.512500e+02  1.624151e+02  1.635000e+02
     vertex  1.506470e+02  1.626648e+02  1.575000e+02
   endloop
 endfacet
 facet normal  1.305262e-01  9.914449e-01  0.000000e+00
   outer loop
     vertex  1.500000e+02  1.627500e+02  1.635000e+02
     vertex  1.506470e+02  1.626648e+02  1.575000e+02
     vertex  1.500000e+02  1.627500e+02  1.575000e+02
   endloop
 endfacet
 facet normal  1.305262e-01  9.914449e-01  0.000000e+00
   outer loop
     vertex  1.500000e+02  1.627500e+02  1.635000e+02
     vertex  1.506470e+02  1.626648e+02  1.635000e+02
     vertex  1.506470e+02  1.626648e+02  1.575000e+02
   endloop
 endfacet
 facet normal  1.000000e+00 -0.000000e+00  0.000000e+00
   outer loop
     vertex  1.525000e+02 -1.602500e+02  1.635000e+02
     vertex  1.525000e+02  1.602500e+02  1.575000e+02
     vertex  1.525000e+02  1.602500e+02  1.635000e+02
   endloop
 endfacet
 facet normal  1.000000e+00 -0.000000e+00  0.000000e+00
   outer loop
     vertex  1.525000e+02 -1.602500e+02  1.635000e+02
     vertex  1.525000e+02 -1.602500e+02  1.575000e+02
     vertex  1.525000e+02  1.602500e+02  1.575000e+02
   endloop
 endfacet
endsolid
