solid
 facet normal  0.000000e+00  0.000000e+00 -1.000000e+00
   outer loop
     vertex -2.205000e+02 -3.050000e+01  1.425000e+02
     vertex -2.205000e+02 -2.425000e+01  1.425000e+02
     vertex  2.205000e+02 -2.425000e+01  1.425000e+02
   endloop
 endfacet
 facet normal  0.000000e+00  0.000000e+00 -1.000000e+00
   outer loop
     vertex  2.205000e+02 -3.050000e+01  1.425000e+02
     vertex -2.205000e+02 -3.050000e+01  1.425000e+02
     vertex  2.205000e+02 -2.425000e+01  1.425000e+02
   endloop
 endfacet
 facet normal -1.000000e+00  0.000000e+00  0.000000e+00
   outer loop
     vertex -2.205000e+02 -1.550000e+01  1.425000e+02
     vertex -2.205000e+02 -2.175000e+01  1.425000e+02
     vertex -2.205000e+02 -2.175000e+01  1.475000e+02
   endloop
 endfacet
 facet normal -1.000000e+00 -0.000000e+00 -0.000000e+00
   outer loop
     vertex -2.205000e+02 -1.550000e+01  1.487500e+02
     vertex -2.205000e+02 -1.550000e+01  1.425000e+02
     vertex -2.205000e+02 -2.050000e+01  1.487500e+02
   endloop
 endfacet
 facet normal -1.000000e+00  0.000000e+00  0.000000e+00
   outer loop
     vertex -2.205000e+02 -1.550000e+01  1.425000e+02
     vertex -2.205000e+02 -2.175000e+01  1.475000e+02
     vertex -2.205000e+02 -2.050000e+01  1.487500e+02
   endloop
 endfacet
 facet normal -1.000000e+00  0.000000e+00  0.000000e+00
   outer loop
     vertex -2.205000e+02 -1.550000e+01  1.512500e+02
     vertex -2.205000e+02 -2.050000e+01  1.512500e+02
     vertex -2.205000e+02 -1.550000e+01  1.575000e+02
   endloop
 endfacet
 facet normal -1.000000e+00 -0.000000e+00 -0.000000e+00
   outer loop
     vertex -2.205000e+02 -2.425000e+01  1.475000e+02
     vertex -2.205000e+02 -2.425000e+01  1.425000e+02
     vertex -2.205000e+02 -3.050000e+01  1.425000e+02
   endloop
 endfacet
 facet normal -1.000000e+00 -0.000000e+00  0.000000e+00
   outer loop
     vertex -2.205000e+02 -2.425000e+01  1.475000e+02
     vertex -2.205000e+02 -3.050000e+01  1.425000e+02
     vertex -2.205000e+02 -2.550000e+01  1.487500e+02
   endloop
 endfacet
 facet normal -1.000000e+00 -0.000000e+00  0.000000e+00
   outer loop
     vertex -2.205000e+02 -1.550000e+01  1.575000e+02
     vertex -2.205000e+02 -2.050000e+01  1.512500e+02
     vertex -2.205000e+02 -2.175000e+01  1.525000e+02
   endloop
 endfacet
 facet normal -1.000000e+00 -0.000000e+00  0.000000e+00
   outer loop
     vertex -2.205000e+02 -1.550000e+01  1.575000e+02
     vertex -2.205000e+02 -2.175000e+01  1.525000e+02
     vertex -2.205000e+02 -2.175000e+01  1.575000e+02
   endloop
 endfacet
 facet normal -1.000000e+00 -0.000000e+00  0.000000e+00
   outer loop
     vertex -2.205000e+02 -2.550000e+01  1.487500e+02
     vertex -2.205000e+02 -3.050000e+01  1.425000e+02
     vertex -2.205000e+02 -3.050000e+01  1.487500e+02
   endloop
 endfacet
 facet normal -1.000000e+00 -0.000000e+00 -0.000000e+00
   outer loop
     vertex -2.205000e+02 -2.425000e+01  1.575000e+02
     vertex -2.205000e+02 -2.425000e+01  1.525000e+02
     vertex -2.205000e+02 -3.050000e+01  1.575000e+02
   endloop
 endfacet
 facet normal -1.000000e+00  0.000000e+00  0.000000e+00
   outer loop
     vertex -2.205000e+02 -2.550000e+01  1.512500e+02
     vertex -2.205000e+02 -3.050000e+01  1.512500e+02
     vertex -2.205000e+02 -3.050000e+01  1.575000e+02
   endloop
 endfacet
 facet normal -1.000000e+00 -0.000000e+00  0.000000e+00
   outer loop
     vertex -2.205000e+02 -2.425000e+01  1.525000e+02
     vertex -2.205000e+02 -2.550000e+01  1.512500e+02
     vertex -2.205000e+02 -3.050000e+01  1.575000e+02
   endloop
 endfacet
 facet normal -1.000000e+00  0.000000e+00 -0.000000e+00
   outer loop
     vertex -2.205000e+02 -2.425000e+01  1.525000e+02
     vertex -2.205000e+02 -2.175000e+01  1.525000e+02
     vertex -2.205000e+02 -2.300000e+01  1.500000e+02
   endloop
 endfacet
 facet normal -1.000000e+00 -0.000000e+00 -0.000000e+00
   outer loop
     vertex -2.205000e+02 -2.050000e+01  1.512500e+02
     vertex -2.205000e+02 -2.050000e+01  1.487500e+02
     vertex -2.205000e+02 -2.300000e+01  1.500000e+02
   endloop
 endfacet
 facet normal -1.000000e+00  0.000000e+00  0.000000e+00
   outer loop
     vertex -2.205000e+02 -2.175000e+01  1.475000e+02
     vertex -2.205000e+02 -2.425000e+01  1.475000e+02
     vertex -2.205000e+02 -2.300000e+01  1.500000e+02
   endloop
 endfacet
 facet normal -1.000000e+00  0.000000e+00  0.000000e+00
   outer loop
     vertex -2.205000e+02 -2.550000e+01  1.487500e+02
     vertex -2.205000e+02 -2.550000e+01  1.512500e+02
     vertex -2.205000e+02 -2.300000e+01  1.500000e+02
   endloop
 endfacet
 facet normal -1.000000e+00  0.000000e+00  0.000000e+00
   outer loop
     vertex -2.205000e+02 -2.550000e+01  1.512500e+02
     vertex -2.205000e+02 -2.425000e+01  1.525000e+02
     vertex -2.205000e+02 -2.300000e+01  1.500000e+02
   endloop
 endfacet
 facet normal -1.000000e+00  0.000000e+00  0.000000e+00
   outer loop
     vertex -2.205000e+02 -2.425000e+01  1.475000e+02
     vertex -2.205000e+02 -2.550000e+01  1.487500e+02
     vertex -2.205000e+02 -2.300000e+01  1.500000e+02
   endloop
 endfacet
 facet normal -1.000000e+00 -0.000000e+00  0.000000e+00
   outer loop
     vertex -2.205000e+02 -2.050000e+01  1.487500e+02
     vertex -2.205000e+02 -2.175000e+01  1.475000e+02
     vertex -2.205000e+02 -2.300000e+01  1.500000e+02
   endloop
 endfacet
 facet normal -1.000000e+00  0.000000e+00 -0.000000e+00
   outer loop
     vertex -2.205000e+02 -2.175000e+01  1.525000e+02
     vertex -2.205000e+02 -2.050000e+01  1.512500e+02
     vertex -2.205000e+02 -2.300000e+01  1.500000e+02
   endloop
 endfacet
 facet normal  0.000000e+00  1.000000e+00 -0.000000e+00
   outer loop
     vertex  2.205000e+02 -2.425000e+01  1.425000e+02
     vertex -2.205000e+02 -2.425000e+01  1.425000e+02
     vertex -2.205000e+02 -2.425000e+01  1.475000e+02
   endloop
 endfacet
 facet normal  0.000000e+00  1.000000e+00  0.000000e+00
   outer loop
     vertex  2.205000e+02 -2.425000e+01  1.475000e+02
     vertex  2.205000e+02 -2.425000e+01  1.425000e+02
     vertex -2.205000e+02 -2.425000e+01  1.475000e+02
   endloop
 endfacet
 facet normal  1.000000e+00 -0.000000e+00  0.000000e+00
   outer loop
     vertex  2.205000e+02 -2.175000e+01  1.475000e+02
     vertex  2.205000e+02 -2.175000e+01  1.425000e+02
     vertex  2.205000e+02 -1.550000e+01  1.425000e+02
   endloop
 endfacet
 facet normal  1.000000e+00 -0.000000e+00  0.000000e+00
   outer loop
     vertex  2.205000e+02 -2.050000e+01  1.487500e+02
     vertex  2.205000e+02 -1.550000e+01  1.425000e+02
     vertex  2.205000e+02 -1.550000e+01  1.487500e+02
   endloop
 endfacet
 facet normal  1.000000e+00  0.000000e+00  0.000000e+00
   outer loop
     vertex  2.205000e+02 -2.050000e+01  1.487500e+02
     vertex  2.205000e+02 -2.175000e+01  1.475000e+02
     vertex  2.205000e+02 -1.550000e+01  1.425000e+02
   endloop
 endfacet
 facet normal  1.000000e+00 -0.000000e+00  0.000000e+00
   outer loop
     vertex  2.205000e+02 -1.550000e+01  1.575000e+02
     vertex  2.205000e+02 -2.050000e+01  1.512500e+02
     vertex  2.205000e+02 -1.550000e+01  1.512500e+02
   endloop
 endfacet
 facet normal  1.000000e+00  0.000000e+00  0.000000e+00
   outer loop
     vertex  2.205000e+02 -3.050000e+01  1.425000e+02
     vertex  2.205000e+02 -2.425000e+01  1.425000e+02
     vertex  2.205000e+02 -2.425000e+01  1.475000e+02
   endloop
 endfacet
 facet normal  1.000000e+00 -0.000000e+00  0.000000e+00
   outer loop
     vertex  2.205000e+02 -2.550000e+01  1.487500e+02
     vertex  2.205000e+02 -3.050000e+01  1.425000e+02
     vertex  2.205000e+02 -2.425000e+01  1.475000e+02
   endloop
 endfacet
 facet normal  1.000000e+00 -0.000000e+00  0.000000e+00
   outer loop
     vertex  2.205000e+02 -2.175000e+01  1.525000e+02
     vertex  2.205000e+02 -2.050000e+01  1.512500e+02
     vertex  2.205000e+02 -1.550000e+01  1.575000e+02
   endloop
 endfacet
 facet normal  1.000000e+00 -0.000000e+00  0.000000e+00
   outer loop
     vertex  2.205000e+02 -2.175000e+01  1.575000e+02
     vertex  2.205000e+02 -2.175000e+01  1.525000e+02
     vertex  2.205000e+02 -1.550000e+01  1.575000e+02
   endloop
 endfacet
 facet normal  1.000000e+00 -0.000000e+00  0.000000e+00
   outer loop
     vertex  2.205000e+02 -3.050000e+01  1.487500e+02
     vertex  2.205000e+02 -3.050000e+01  1.425000e+02
     vertex  2.205000e+02 -2.550000e+01  1.487500e+02
   endloop
 endfacet
 facet normal  1.000000e+00 -0.000000e+00  0.000000e+00
   outer loop
     vertex  2.205000e+02 -3.050000e+01  1.575000e+02
     vertex  2.205000e+02 -2.425000e+01  1.525000e+02
     vertex  2.205000e+02 -2.425000e+01  1.575000e+02
   endloop
 endfacet
 facet normal  1.000000e+00 -0.000000e+00  0.000000e+00
   outer loop
     vertex  2.205000e+02 -3.050000e+01  1.575000e+02
     vertex  2.205000e+02 -3.050000e+01  1.512500e+02
     vertex  2.205000e+02 -2.550000e+01  1.512500e+02
   endloop
 endfacet
 facet normal  1.000000e+00 -0.000000e+00  0.000000e+00
   outer loop
     vertex  2.205000e+02 -3.050000e+01  1.575000e+02
     vertex  2.205000e+02 -2.550000e+01  1.512500e+02
     vertex  2.205000e+02 -2.425000e+01  1.525000e+02
   endloop
 endfacet
 facet normal  1.000000e+00  0.000000e+00 -0.000000e+00
   outer loop
     vertex  2.205000e+02 -2.300000e+01  1.500000e+02
     vertex  2.205000e+02 -2.175000e+01  1.525000e+02
     vertex  2.205000e+02 -2.425000e+01  1.525000e+02
   endloop
 endfacet
 facet normal  1.000000e+00 -0.000000e+00  0.000000e+00
   outer loop
     vertex  2.205000e+02 -2.300000e+01  1.500000e+02
     vertex  2.205000e+02 -2.050000e+01  1.487500e+02
     vertex  2.205000e+02 -2.050000e+01  1.512500e+02
   endloop
 endfacet
 facet normal  1.000000e+00 -0.000000e+00  0.000000e+00
   outer loop
     vertex  2.205000e+02 -2.300000e+01  1.500000e+02
     vertex  2.205000e+02 -2.425000e+01  1.475000e+02
     vertex  2.205000e+02 -2.175000e+01  1.475000e+02
   endloop
 endfacet
 facet normal  1.000000e+00  0.000000e+00  0.000000e+00
   outer loop
     vertex  2.205000e+02 -2.300000e+01  1.500000e+02
     vertex  2.205000e+02 -2.550000e+01  1.512500e+02
     vertex  2.205000e+02 -2.550000e+01  1.487500e+02
   endloop
 endfacet
 facet normal  1.000000e+00  0.000000e+00  0.000000e+00
   outer loop
     vertex  2.205000e+02 -2.300000e+01  1.500000e+02
     vertex  2.205000e+02 -2.425000e+01  1.525000e+02
     vertex  2.205000e+02 -2.550000e+01  1.512500e+02
   endloop
 endfacet
 facet normal  1.000000e+00  0.000000e+00  0.000000e+00
   outer loop
     vertex  2.205000e+02 -2.300000e+01  1.500000e+02
     vertex  2.205000e+02 -2.550000e+01  1.487500e+02
     vertex  2.205000e+02 -2.425000e+01  1.475000e+02
   endloop
 endfacet
 facet normal  1.000000e+00 -0.000000e+00  0.000000e+00
   outer loop
     vertex  2.205000e+02 -2.300000e+01  1.500000e+02
     vertex  2.205000e+02 -2.175000e+01  1.475000e+02
     vertex  2.205000e+02 -2.050000e+01  1.487500e+02
   endloop
 endfacet
 facet normal  1.000000e+00  0.000000e+00 -0.000000e+00
   outer loop
     vertex  2.205000e+02 -2.300000e+01  1.500000e+02
     vertex  2.205000e+02 -2.050000e+01  1.512500e+02
     vertex  2.205000e+02 -2.175000e+01  1.525000e+02
   endloop
 endfacet
 facet normal  0.000000e+00 -1.000000e+00  0.000000e+00
   outer loop
     vertex -2.205000e+02 -3.050000e+01  1.487500e+02
     vertex -2.205000e+02 -3.050000e+01  1.425000e+02
     vertex  2.205000e+02 -3.050000e+01  1.487500e+02
   endloop
 endfacet
 facet normal  0.000000e+00 -1.000000e+00  0.000000e+00
   outer loop
     vertex -2.205000e+02 -3.050000e+01  1.425000e+02
     vertex  2.205000e+02 -3.050000e+01  1.425000e+02
     vertex  2.205000e+02 -3.050000e+01  1.487500e+02
   endloop
 endfacet
 facet normal  0.000000e+00  0.000000e+00  1.000000e+00
   outer loop
     vertex  2.205000e+02 -2.425000e+01  1.575000e+02
     vertex -2.205000e+02 -2.425000e+01  1.575000e+02
     vertex -2.205000e+02 -3.050000e+01  1.575000e+02
   endloop
 endfacet
 facet normal -0.000000e+00  0.000000e+00  1.000000e+00
   outer loop
     vertex  2.205000e+02 -2.425000e+01  1.575000e+02
     vertex -2.205000e+02 -3.050000e+01  1.575000e+02
     vertex  2.205000e+02 -3.050000e+01  1.575000e+02
   endloop
 endfacet
 facet normal  0.000000e+00  1.000000e+00 -0.000000e+00
   outer loop
     vertex  2.205000e+02 -2.425000e+01  1.525000e+02
     vertex -2.205000e+02 -2.425000e+01  1.525000e+02
     vertex -2.205000e+02 -2.425000e+01  1.575000e+02
   endloop
 endfacet
 facet normal  0.000000e+00  1.000000e+00  0.000000e+00
   outer loop
     vertex  2.205000e+02 -2.425000e+01  1.575000e+02
     vertex  2.205000e+02 -2.425000e+01  1.525000e+02
     vertex -2.205000e+02 -2.425000e+01  1.575000e+02
   endloop
 endfacet
 facet normal  0.000000e+00  0.000000e+00  1.000000e+00
   outer loop
     vertex  2.205000e+02 -2.175000e+01  1.525000e+02
     vertex -2.205000e+02 -2.175000e+01  1.525000e+02
     vertex -2.205000e+02 -2.425000e+01  1.525000e+02
   endloop
 endfacet
 facet normal -0.000000e+00  0.000000e+00  1.000000e+00
   outer loop
     vertex  2.205000e+02 -2.175000e+01  1.525000e+02
     vertex -2.205000e+02 -2.425000e+01  1.525000e+02
     vertex  2.205000e+02 -2.425000e+01  1.525000e+02
   endloop
 endfacet
 facet normal  0.000000e+00 -1.000000e+00  0.000000e+00
   outer loop
     vertex -2.205000e+02 -2.175000e+01  1.575000e+02
     vertex -2.205000e+02 -2.175000e+01  1.525000e+02
     vertex  2.205000e+02 -2.175000e+01  1.525000e+02
   endloop
 endfacet
 facet normal  0.000000e+00 -1.000000e+00  0.000000e+00
   outer loop
     vertex -2.205000e+02 -2.175000e+01  1.575000e+02
     vertex  2.205000e+02 -2.175000e+01  1.525000e+02
     vertex  2.205000e+02 -2.175000e+01  1.575000e+02
   endloop
 endfacet
 facet normal  0.000000e+00  0.000000e+00  1.000000e+00
   outer loop
     vertex  2.205000e+02 -1.550000e+01  1.575000e+02
     vertex -2.205000e+02 -1.550000e+01  1.575000e+02
     vertex -2.205000e+02 -2.175000e+01  1.575000e+02
   endloop
 endfacet
 facet normal -0.000000e+00  0.000000e+00  1.000000e+00
   outer loop
     vertex  2.205000e+02 -1.550000e+01  1.575000e+02
     vertex -2.205000e+02 -2.175000e+01  1.575000e+02
     vertex  2.205000e+02 -2.175000e+01  1.575000e+02
   endloop
 endfacet
 facet normal  0.000000e+00  1.000000e+00 -0.000000e+00
   outer loop
     vertex  2.205000e+02 -1.550000e+01  1.575000e+02
     vertex -2.205000e+02 -1.550000e+01  1.512500e+02
     vertex -2.205000e+02 -1.550000e+01  1.575000e+02
   endloop
 endfacet
 facet normal  0.000000e+00  1.000000e+00  0.000000e+00
   outer loop
     vertex  2.205000e+02 -1.550000e+01  1.575000e+02
     vertex  2.205000e+02 -1.550000e+01  1.512500e+02
     vertex -2.205000e+02 -1.550000e+01  1.512500e+02
   endloop
 endfacet
 facet normal  0.000000e+00  0.000000e+00 -1.000000e+00
   outer loop
     vertex -2.205000e+02 -2.050000e+01  1.512500e+02
     vertex -2.205000e+02 -1.550000e+01  1.512500e+02
     vertex  2.205000e+02 -1.550000e+01  1.512500e+02
   endloop
 endfacet
 facet normal  0.000000e+00  0.000000e+00 -1.000000e+00
   outer loop
     vertex  2.205000e+02 -2.050000e+01  1.512500e+02
     vertex -2.205000e+02 -2.050000e+01  1.512500e+02
     vertex  2.205000e+02 -1.550000e+01  1.512500e+02
   endloop
 endfacet
 facet normal  0.000000e+00  1.000000e+00  0.000000e+00
   outer loop
     vertex  2.205000e+02 -2.050000e+01  1.512500e+02
     vertex  2.205000e+02 -2.050000e+01  1.487500e+02
     vertex -2.205000e+02 -2.050000e+01  1.487500e+02
   endloop
 endfacet
 facet normal  0.000000e+00  1.000000e+00 -0.000000e+00
   outer loop
     vertex  2.205000e+02 -2.050000e+01  1.512500e+02
     vertex -2.205000e+02 -2.050000e+01  1.487500e+02
     vertex -2.205000e+02 -2.050000e+01  1.512500e+02
   endloop
 endfacet
 facet normal  0.000000e+00  0.000000e+00  1.000000e+00
   outer loop
     vertex  2.205000e+02 -1.550000e+01  1.487500e+02
     vertex -2.205000e+02 -1.550000e+01  1.487500e+02
     vertex -2.205000e+02 -2.050000e+01  1.487500e+02
   endloop
 endfacet
 facet normal -0.000000e+00  0.000000e+00  1.000000e+00
   outer loop
     vertex  2.205000e+02 -1.550000e+01  1.487500e+02
     vertex -2.205000e+02 -2.050000e+01  1.487500e+02
     vertex  2.205000e+02 -2.050000e+01  1.487500e+02
   endloop
 endfacet
 facet normal  0.000000e+00  1.000000e+00 -0.000000e+00
   outer loop
     vertex  2.205000e+02 -1.550000e+01  1.487500e+02
     vertex -2.205000e+02 -1.550000e+01  1.425000e+02
     vertex -2.205000e+02 -1.550000e+01  1.487500e+02
   endloop
 endfacet
 facet normal  0.000000e+00  1.000000e+00  0.000000e+00
   outer loop
     vertex  2.205000e+02 -1.550000e+01  1.487500e+02
     vertex  2.205000e+02 -1.550000e+01  1.425000e+02
     vertex -2.205000e+02 -1.550000e+01  1.425000e+02
   endloop
 endfacet
 facet normal  0.000000e+00  0.000000e+00 -1.000000e+00
   outer loop
     vertex -2.205000e+02 -2.175000e+01  1.425000e+02
     vertex -2.205000e+02 -1.550000e+01  1.425000e+02
     vertex  2.205000e+02 -1.550000e+01  1.425000e+02
   endloop
 endfacet
 facet normal  0.000000e+00  0.000000e+00 -1.000000e+00
   outer loop
     vertex  2.205000e+02 -2.175000e+01  1.425000e+02
     vertex -2.205000e+02 -2.175000e+01  1.425000e+02
     vertex  2.205000e+02 -1.550000e+01  1.425000e+02
   endloop
 endfacet
 facet normal  0.000000e+00 -1.000000e+00  0.000000e+00
   outer loop
     vertex -2.205000e+02 -2.175000e+01  1.475000e+02
     vertex -2.205000e+02 -2.175000e+01  1.425000e+02
     vertex  2.205000e+02 -2.175000e+01  1.425000e+02
   endloop
 endfacet
 facet normal  0.000000e+00 -1.000000e+00  0.000000e+00
   outer loop
     vertex -2.205000e+02 -2.175000e+01  1.475000e+02
     vertex  2.205000e+02 -2.175000e+01  1.425000e+02
     vertex  2.205000e+02 -2.175000e+01  1.475000e+02
   endloop
 endfacet
 facet normal  0.000000e+00  0.000000e+00 -1.000000e+00
   outer loop
     vertex -2.205000e+02 -2.425000e+01  1.475000e+02
     vertex -2.205000e+02 -2.175000e+01  1.475000e+02
     vertex  2.205000e+02 -2.175000e+01  1.475000e+02
   endloop
 endfacet
 facet normal  0.000000e+00  0.000000e+00 -1.000000e+00
   outer loop
     vertex  2.205000e+02 -2.425000e+01  1.475000e+02
     vertex -2.205000e+02 -2.425000e+01  1.475000e+02
     vertex  2.205000e+02 -2.175000e+01  1.475000e+02
   endloop
 endfacet
 facet normal  0.000000e+00  0.000000e+00  1.000000e+00
   outer loop
     vertex  2.205000e+02 -2.550000e+01  1.487500e+02
     vertex -2.205000e+02 -2.550000e+01  1.487500e+02
     vertex -2.205000e+02 -3.050000e+01  1.487500e+02
   endloop
 endfacet
 facet normal -0.000000e+00  0.000000e+00  1.000000e+00
   outer loop
     vertex  2.205000e+02 -2.550000e+01  1.487500e+02
     vertex -2.205000e+02 -3.050000e+01  1.487500e+02
     vertex  2.205000e+02 -3.050000e+01  1.487500e+02
   endloop
 endfacet
 facet normal  0.000000e+00 -1.000000e+00  0.000000e+00
   outer loop
     vertex -2.205000e+02 -2.550000e+01  1.487500e+02
     vertex  2.205000e+02 -2.550000e+01  1.487500e+02
     vertex  2.205000e+02 -2.550000e+01  1.512500e+02
   endloop
 endfacet
 facet normal  0.000000e+00 -1.000000e+00  0.000000e+00
   outer loop
     vertex -2.205000e+02 -2.550000e+01  1.512500e+02
     vertex -2.205000e+02 -2.550000e+01  1.487500e+02
     vertex  2.205000e+02 -2.550000e+01  1.512500e+02
   endloop
 endfacet
 facet normal  0.000000e+00  0.000000e+00 -1.000000e+00
   outer loop
     vertex -2.205000e+02 -3.050000e+01  1.512500e+02
     vertex -2.205000e+02 -2.550000e+01  1.512500e+02
     vertex  2.205000e+02 -2.550000e+01  1.512500e+02
   endloop
 endfacet
 facet normal  0.000000e+00  0.000000e+00 -1.000000e+00
   outer loop
     vertex  2.205000e+02 -3.050000e+01  1.512500e+02
     vertex -2.205000e+02 -3.050000e+01  1.512500e+02
     vertex  2.205000e+02 -2.550000e+01  1.512500e+02
   endloop
 endfacet
 facet normal  0.000000e+00 -1.000000e+00  0.000000e+00
   outer loop
     vertex -2.205000e+02 -3.050000e+01  1.575000e+02
     vertex -2.205000e+02 -3.050000e+01  1.512500e+02
     vertex  2.205000e+02 -3.050000e+01  1.575000e+02
   endloop
 endfacet
 facet normal  0.000000e+00 -1.000000e+00  0.000000e+00
   outer loop
     vertex -2.205000e+02 -3.050000e+01  1.512500e+02
     vertex  2.205000e+02 -3.050000e+01  1.512500e+02
     vertex  2.205000e+02 -3.050000e+01  1.575000e+02
   endloop
 endfacet
 facet normal  0.000000e+00  0.000000e+00 -1.000000e+00
   outer loop
     vertex  2.205000e+02  2.425000e+01  1.425000e+02
     vertex -2.205000e+02  2.425000e+01  1.425000e+02
     vertex -2.205000e+02  3.050000e+01  1.425000e+02
   endloop
 endfacet
 facet normal  0.000000e+00  0.000000e+00 -1.000000e+00
   outer loop
     vertex  2.205000e+02  2.425000e+01  1.425000e+02
     vertex -2.205000e+02  3.050000e+01  1.425000e+02
     vertex  2.205000e+02  3.050000e+01  1.425000e+02
   endloop
 endfacet
 facet normal -1.000000e+00 -0.000000e+00 -0.000000e+00
   outer loop
     vertex -2.205000e+02  2.175000e+01  1.475000e+02
     vertex -2.205000e+02  2.175000e+01  1.425000e+02
     vertex -2.205000e+02  1.550000e+01  1.425000e+02
   endloop
 endfacet
 facet normal -1.000000e+00 -0.000000e+00  0.000000e+00
   outer loop
     vertex -2.205000e+02  2.050000e+01  1.487500e+02
     vertex -2.205000e+02  1.550000e+01  1.425000e+02
     vertex -2.205000e+02  1.550000e+01  1.487500e+02
   endloop
 endfacet
 facet normal -1.000000e+00  0.000000e+00 -0.000000e+00
   outer loop
     vertex -2.205000e+02  2.050000e+01  1.487500e+02
     vertex -2.205000e+02  2.175000e+01  1.475000e+02
     vertex -2.205000e+02  1.550000e+01  1.425000e+02
   endloop
 endfacet
 facet normal -1.000000e+00 -0.000000e+00 -0.000000e+00
   outer loop
     vertex -2.205000e+02  1.550000e+01  1.575000e+02
     vertex -2.205000e+02  2.050000e+01  1.512500e+02
     vertex -2.205000e+02  1.550000e+01  1.512500e+02
   endloop
 endfacet
 facet normal -1.000000e+00  0.000000e+00  0.000000e+00
   outer loop
     vertex -2.205000e+02  3.050000e+01  1.425000e+02
     vertex -2.205000e+02  2.425000e+01  1.425000e+02
     vertex -2.205000e+02  2.425000e+01  1.475000e+02
   endloop
 endfacet
 facet normal -1.000000e+00 -0.000000e+00 -0.000000e+00
   outer loop
     vertex -2.205000e+02  2.550000e+01  1.487500e+02
     vertex -2.205000e+02  3.050000e+01  1.425000e+02
     vertex -2.205000e+02  2.425000e+01  1.475000e+02
   endloop
 endfacet
 facet normal -1.000000e+00 -0.000000e+00  0.000000e+00
   outer loop
     vertex -2.205000e+02  2.175000e+01  1.525000e+02
     vertex -2.205000e+02  2.050000e+01  1.512500e+02
     vertex -2.205000e+02  1.550000e+01  1.575000e+02
   endloop
 endfacet
 facet normal -1.000000e+00 -0.000000e+00 -0.000000e+00
   outer loop
     vertex -2.205000e+02  2.175000e+01  1.575000e+02
     vertex -2.205000e+02  2.175000e+01  1.525000e+02
     vertex -2.205000e+02  1.550000e+01  1.575000e+02
   endloop
 endfacet
 facet normal -1.000000e+00 -0.000000e+00 -0.000000e+00
   outer loop
     vertex -2.205000e+02  3.050000e+01  1.487500e+02
     vertex -2.205000e+02  3.050000e+01  1.425000e+02
     vertex -2.205000e+02  2.550000e+01  1.487500e+02
   endloop
 endfacet
 facet normal -1.000000e+00 -0.000000e+00  0.000000e+00
   outer loop
     vertex -2.205000e+02  3.050000e+01  1.575000e+02
     vertex -2.205000e+02  2.425000e+01  1.525000e+02
     vertex -2.205000e+02  2.425000e+01  1.575000e+02
   endloop
 endfacet
 facet normal -1.000000e+00 -0.000000e+00 -0.000000e+00
   outer loop
     vertex -2.205000e+02  3.050000e+01  1.575000e+02
     vertex -2.205000e+02  3.050000e+01  1.512500e+02
     vertex -2.205000e+02  2.550000e+01  1.512500e+02
   endloop
 endfacet
 facet normal -1.000000e+00 -0.000000e+00  0.000000e+00
   outer loop
     vertex -2.205000e+02  3.050000e+01  1.575000e+02
     vertex -2.205000e+02  2.550000e+01  1.512500e+02
     vertex -2.205000e+02  2.425000e+01  1.525000e+02
   endloop
 endfacet
 facet normal -1.000000e+00  0.000000e+00  0.000000e+00
   outer loop
     vertex -2.205000e+02  2.300000e+01  1.500000e+02
     vertex -2.205000e+02  2.175000e+01  1.525000e+02
     vertex -2.205000e+02  2.425000e+01  1.525000e+02
   endloop
 endfacet
 facet normal -1.000000e+00 -0.000000e+00  0.000000e+00
   outer loop
     vertex -2.205000e+02  2.300000e+01  1.500000e+02
     vertex -2.205000e+02  2.050000e+01  1.487500e+02
     vertex -2.205000e+02  2.050000e+01  1.512500e+02
   endloop
 endfacet
 facet normal -1.000000e+00 -0.000000e+00 -0.000000e+00
   outer loop
     vertex -2.205000e+02  2.300000e+01  1.500000e+02
     vertex -2.205000e+02  2.425000e+01  1.475000e+02
     vertex -2.205000e+02  2.175000e+01  1.475000e+02
   endloop
 endfacet
 facet normal -1.000000e+00  0.000000e+00  0.000000e+00
   outer loop
     vertex -2.205000e+02  2.300000e+01  1.500000e+02
     vertex -2.205000e+02  2.550000e+01  1.512500e+02
     vertex -2.205000e+02  2.550000e+01  1.487500e+02
   endloop
 endfacet
 facet normal -1.000000e+00  0.000000e+00  0.000000e+00
   outer loop
     vertex -2.205000e+02  2.300000e+01  1.500000e+02
     vertex -2.205000e+02  2.425000e+01  1.525000e+02
     vertex -2.205000e+02  2.550000e+01  1.512500e+02
   endloop
 endfacet
 facet normal -1.000000e+00  0.000000e+00 -0.000000e+00
   outer loop
     vertex -2.205000e+02  2.300000e+01  1.500000e+02
     vertex -2.205000e+02  2.550000e+01  1.487500e+02
     vertex -2.205000e+02  2.425000e+01  1.475000e+02
   endloop
 endfacet
 facet normal -1.000000e+00 -0.000000e+00  0.000000e+00
   outer loop
     vertex -2.205000e+02  2.300000e+01  1.500000e+02
     vertex -2.205000e+02  2.175000e+01  1.475000e+02
     vertex -2.205000e+02  2.050000e+01  1.487500e+02
   endloop
 endfacet
 facet normal -1.000000e+00  0.000000e+00  0.000000e+00
   outer loop
     vertex -2.205000e+02  2.300000e+01  1.500000e+02
     vertex -2.205000e+02  2.050000e+01  1.512500e+02
     vertex -2.205000e+02  2.175000e+01  1.525000e+02
   endloop
 endfacet
 facet normal  0.000000e+00 -1.000000e+00  0.000000e+00
   outer loop
     vertex -2.205000e+02  2.425000e+01  1.475000e+02
     vertex -2.205000e+02  2.425000e+01  1.425000e+02
     vertex  2.205000e+02  2.425000e+01  1.425000e+02
   endloop
 endfacet
 facet normal  0.000000e+00 -1.000000e+00  0.000000e+00
   outer loop
     vertex -2.205000e+02  2.425000e+01  1.475000e+02
     vertex  2.205000e+02  2.425000e+01  1.425000e+02
     vertex  2.205000e+02  2.425000e+01  1.475000e+02
   endloop
 endfacet
 facet normal  1.000000e+00  0.000000e+00  0.000000e+00
   outer loop
     vertex  2.205000e+02  1.550000e+01  1.425000e+02
     vertex  2.205000e+02  2.175000e+01  1.425000e+02
     vertex  2.205000e+02  2.175000e+01  1.475000e+02
   endloop
 endfacet
 facet normal  1.000000e+00 -0.000000e+00  0.000000e+00
   outer loop
     vertex  2.205000e+02  1.550000e+01  1.487500e+02
     vertex  2.205000e+02  1.550000e+01  1.425000e+02
     vertex  2.205000e+02  2.050000e+01  1.487500e+02
   endloop
 endfacet
 facet normal  1.000000e+00  0.000000e+00 -0.000000e+00
   outer loop
     vertex  2.205000e+02  1.550000e+01  1.425000e+02
     vertex  2.205000e+02  2.175000e+01  1.475000e+02
     vertex  2.205000e+02  2.050000e+01  1.487500e+02
   endloop
 endfacet
 facet normal  1.000000e+00  0.000000e+00 -0.000000e+00
   outer loop
     vertex  2.205000e+02  1.550000e+01  1.512500e+02
     vertex  2.205000e+02  2.050000e+01  1.512500e+02
     vertex  2.205000e+02  1.550000e+01  1.575000e+02
   endloop
 endfacet
 facet normal  1.000000e+00 -0.000000e+00  0.000000e+00
   outer loop
     vertex  2.205000e+02  2.425000e+01  1.475000e+02
     vertex  2.205000e+02  2.425000e+01  1.425000e+02
     vertex  2.205000e+02  3.050000e+01  1.425000e+02
   endloop
 endfacet
 facet normal  1.000000e+00 -0.000000e+00 -0.000000e+00
   outer loop
     vertex  2.205000e+02  2.425000e+01  1.475000e+02
     vertex  2.205000e+02  3.050000e+01  1.425000e+02
     vertex  2.205000e+02  2.550000e+01  1.487500e+02
   endloop
 endfacet
 facet normal  1.000000e+00 -0.000000e+00  0.000000e+00
   outer loop
     vertex  2.205000e+02  1.550000e+01  1.575000e+02
     vertex  2.205000e+02  2.050000e+01  1.512500e+02
     vertex  2.205000e+02  2.175000e+01  1.525000e+02
   endloop
 endfacet
 facet normal  1.000000e+00 -0.000000e+00  0.000000e+00
   outer loop
     vertex  2.205000e+02  1.550000e+01  1.575000e+02
     vertex  2.205000e+02  2.175000e+01  1.525000e+02
     vertex  2.205000e+02  2.175000e+01  1.575000e+02
   endloop
 endfacet
 facet normal  1.000000e+00 -0.000000e+00  0.000000e+00
   outer loop
     vertex  2.205000e+02  2.550000e+01  1.487500e+02
     vertex  2.205000e+02  3.050000e+01  1.425000e+02
     vertex  2.205000e+02  3.050000e+01  1.487500e+02
   endloop
 endfacet
 facet normal  1.000000e+00 -0.000000e+00  0.000000e+00
   outer loop
     vertex  2.205000e+02  2.425000e+01  1.575000e+02
     vertex  2.205000e+02  2.425000e+01  1.525000e+02
     vertex  2.205000e+02  3.050000e+01  1.575000e+02
   endloop
 endfacet
 facet normal  1.000000e+00  0.000000e+00  0.000000e+00
   outer loop
     vertex  2.205000e+02  2.550000e+01  1.512500e+02
     vertex  2.205000e+02  3.050000e+01  1.512500e+02
     vertex  2.205000e+02  3.050000e+01  1.575000e+02
   endloop
 endfacet
 facet normal  1.000000e+00 -0.000000e+00  0.000000e+00
   outer loop
     vertex  2.205000e+02  2.425000e+01  1.525000e+02
     vertex  2.205000e+02  2.550000e+01  1.512500e+02
     vertex  2.205000e+02  3.050000e+01  1.575000e+02
   endloop
 endfacet
 facet normal  1.000000e+00  0.000000e+00  0.000000e+00
   outer loop
     vertex  2.205000e+02  2.425000e+01  1.525000e+02
     vertex  2.205000e+02  2.175000e+01  1.525000e+02
     vertex  2.205000e+02  2.300000e+01  1.500000e+02
   endloop
 endfacet
 facet normal  1.000000e+00 -0.000000e+00  0.000000e+00
   outer loop
     vertex  2.205000e+02  2.050000e+01  1.512500e+02
     vertex  2.205000e+02  2.050000e+01  1.487500e+02
     vertex  2.205000e+02  2.300000e+01  1.500000e+02
   endloop
 endfacet
 facet normal  1.000000e+00  0.000000e+00 -0.000000e+00
   outer loop
     vertex  2.205000e+02  2.175000e+01  1.475000e+02
     vertex  2.205000e+02  2.425000e+01  1.475000e+02
     vertex  2.205000e+02  2.300000e+01  1.500000e+02
   endloop
 endfacet
 facet normal  1.000000e+00  0.000000e+00 -0.000000e+00
   outer loop
     vertex  2.205000e+02  2.550000e+01  1.487500e+02
     vertex  2.205000e+02  2.550000e+01  1.512500e+02
     vertex  2.205000e+02  2.300000e+01  1.500000e+02
   endloop
 endfacet
 facet normal  1.000000e+00  0.000000e+00  0.000000e+00
   outer loop
     vertex  2.205000e+02  2.550000e+01  1.512500e+02
     vertex  2.205000e+02  2.425000e+01  1.525000e+02
     vertex  2.205000e+02  2.300000e+01  1.500000e+02
   endloop
 endfacet
 facet normal  1.000000e+00  0.000000e+00 -0.000000e+00
   outer loop
     vertex  2.205000e+02  2.425000e+01  1.475000e+02
     vertex  2.205000e+02  2.550000e+01  1.487500e+02
     vertex  2.205000e+02  2.300000e+01  1.500000e+02
   endloop
 endfacet
 facet normal  1.000000e+00 -0.000000e+00  0.000000e+00
   outer loop
     vertex  2.205000e+02  2.050000e+01  1.487500e+02
     vertex  2.205000e+02  2.175000e+01  1.475000e+02
     vertex  2.205000e+02  2.300000e+01  1.500000e+02
   endloop
 endfacet
 facet normal  1.000000e+00  0.000000e+00  0.000000e+00
   outer loop
     vertex  2.205000e+02  2.175000e+01  1.525000e+02
     vertex  2.205000e+02  2.050000e+01  1.512500e+02
     vertex  2.205000e+02  2.300000e+01  1.500000e+02
   endloop
 endfacet
 facet normal  0.000000e+00  1.000000e+00 -0.000000e+00
   outer loop
     vertex  2.205000e+02  3.050000e+01  1.487500e+02
     vertex -2.205000e+02  3.050000e+01  1.425000e+02
     vertex -2.205000e+02  3.050000e+01  1.487500e+02
   endloop
 endfacet
 facet normal  0.000000e+00  1.000000e+00  0.000000e+00
   outer loop
     vertex  2.205000e+02  3.050000e+01  1.487500e+02
     vertex  2.205000e+02  3.050000e+01  1.425000e+02
     vertex -2.205000e+02  3.050000e+01  1.425000e+02
   endloop
 endfacet
 facet normal -0.000000e+00  0.000000e+00  1.000000e+00
   outer loop
     vertex -2.205000e+02  3.050000e+01  1.575000e+02
     vertex -2.205000e+02  2.425000e+01  1.575000e+02
     vertex  2.205000e+02  2.425000e+01  1.575000e+02
   endloop
 endfacet
 facet normal  0.000000e+00  0.000000e+00  1.000000e+00
   outer loop
     vertex  2.205000e+02  3.050000e+01  1.575000e+02
     vertex -2.205000e+02  3.050000e+01  1.575000e+02
     vertex  2.205000e+02  2.425000e+01  1.575000e+02
   endloop
 endfacet
 facet normal  0.000000e+00 -1.000000e+00  0.000000e+00
   outer loop
     vertex -2.205000e+02  2.425000e+01  1.575000e+02
     vertex -2.205000e+02  2.425000e+01  1.525000e+02
     vertex  2.205000e+02  2.425000e+01  1.525000e+02
   endloop
 endfacet
 facet normal  0.000000e+00 -1.000000e+00  0.000000e+00
   outer loop
     vertex -2.205000e+02  2.425000e+01  1.575000e+02
     vertex  2.205000e+02  2.425000e+01  1.525000e+02
     vertex  2.205000e+02  2.425000e+01  1.575000e+02
   endloop
 endfacet
 facet normal -0.000000e+00  0.000000e+00  1.000000e+00
   outer loop
     vertex -2.205000e+02  2.425000e+01  1.525000e+02
     vertex -2.205000e+02  2.175000e+01  1.525000e+02
     vertex  2.205000e+02  2.175000e+01  1.525000e+02
   endloop
 endfacet
 facet normal  0.000000e+00  0.000000e+00  1.000000e+00
   outer loop
     vertex  2.205000e+02  2.425000e+01  1.525000e+02
     vertex -2.205000e+02  2.425000e+01  1.525000e+02
     vertex  2.205000e+02  2.175000e+01  1.525000e+02
   endloop
 endfacet
 facet normal  0.000000e+00  1.000000e+00 -0.000000e+00
   outer loop
     vertex  2.205000e+02  2.175000e+01  1.525000e+02
     vertex -2.205000e+02  2.175000e+01  1.525000e+02
     vertex -2.205000e+02  2.175000e+01  1.575000e+02
   endloop
 endfacet
 facet normal  0.000000e+00  1.000000e+00  0.000000e+00
   outer loop
     vertex  2.205000e+02  2.175000e+01  1.575000e+02
     vertex  2.205000e+02  2.175000e+01  1.525000e+02
     vertex -2.205000e+02  2.175000e+01  1.575000e+02
   endloop
 endfacet
 facet normal -0.000000e+00  0.000000e+00  1.000000e+00
   outer loop
     vertex -2.205000e+02  2.175000e+01  1.575000e+02
     vertex -2.205000e+02  1.550000e+01  1.575000e+02
     vertex  2.205000e+02  1.550000e+01  1.575000e+02
   endloop
 endfacet
 facet normal  0.000000e+00  0.000000e+00  1.000000e+00
   outer loop
     vertex  2.205000e+02  2.175000e+01  1.575000e+02
     vertex -2.205000e+02  2.175000e+01  1.575000e+02
     vertex  2.205000e+02  1.550000e+01  1.575000e+02
   endloop
 endfacet
 facet normal  0.000000e+00 -1.000000e+00  0.000000e+00
   outer loop
     vertex -2.205000e+02  1.550000e+01  1.575000e+02
     vertex -2.205000e+02  1.550000e+01  1.512500e+02
     vertex  2.205000e+02  1.550000e+01  1.575000e+02
   endloop
 endfacet
 facet normal  0.000000e+00 -1.000000e+00  0.000000e+00
   outer loop
     vertex -2.205000e+02  1.550000e+01  1.512500e+02
     vertex  2.205000e+02  1.550000e+01  1.512500e+02
     vertex  2.205000e+02  1.550000e+01  1.575000e+02
   endloop
 endfacet
 facet normal  0.000000e+00  0.000000e+00 -1.000000e+00
   outer loop
     vertex  2.205000e+02  1.550000e+01  1.512500e+02
     vertex -2.205000e+02  1.550000e+01  1.512500e+02
     vertex -2.205000e+02  2.050000e+01  1.512500e+02
   endloop
 endfacet
 facet normal  0.000000e+00  0.000000e+00 -1.000000e+00
   outer loop
     vertex  2.205000e+02  1.550000e+01  1.512500e+02
     vertex -2.205000e+02  2.050000e+01  1.512500e+02
     vertex  2.205000e+02  2.050000e+01  1.512500e+02
   endloop
 endfacet
 facet normal  0.000000e+00 -1.000000e+00  0.000000e+00
   outer loop
     vertex -2.205000e+02  2.050000e+01  1.487500e+02
     vertex  2.205000e+02  2.050000e+01  1.487500e+02
     vertex  2.205000e+02  2.050000e+01  1.512500e+02
   endloop
 endfacet
 facet normal  0.000000e+00 -1.000000e+00  0.000000e+00
   outer loop
     vertex -2.205000e+02  2.050000e+01  1.512500e+02
     vertex -2.205000e+02  2.050000e+01  1.487500e+02
     vertex  2.205000e+02  2.050000e+01  1.512500e+02
   endloop
 endfacet
 facet normal -0.000000e+00  0.000000e+00  1.000000e+00
   outer loop
     vertex -2.205000e+02  2.050000e+01  1.487500e+02
     vertex -2.205000e+02  1.550000e+01  1.487500e+02
     vertex  2.205000e+02  1.550000e+01  1.487500e+02
   endloop
 endfacet
 facet normal  0.000000e+00  0.000000e+00  1.000000e+00
   outer loop
     vertex  2.205000e+02  2.050000e+01  1.487500e+02
     vertex -2.205000e+02  2.050000e+01  1.487500e+02
     vertex  2.205000e+02  1.550000e+01  1.487500e+02
   endloop
 endfacet
 facet normal  0.000000e+00 -1.000000e+00  0.000000e+00
   outer loop
     vertex -2.205000e+02  1.550000e+01  1.487500e+02
     vertex -2.205000e+02  1.550000e+01  1.425000e+02
     vertex  2.205000e+02  1.550000e+01  1.487500e+02
   endloop
 endfacet
 facet normal  0.000000e+00 -1.000000e+00  0.000000e+00
   outer loop
     vertex -2.205000e+02  1.550000e+01  1.425000e+02
     vertex  2.205000e+02  1.550000e+01  1.425000e+02
     vertex  2.205000e+02  1.550000e+01  1.487500e+02
   endloop
 endfacet
 facet normal  0.000000e+00  0.000000e+00 -1.000000e+00
   outer loop
     vertex  2.205000e+02  1.550000e+01  1.425000e+02
     vertex -2.205000e+02  1.550000e+01  1.425000e+02
     vertex -2.205000e+02  2.175000e+01  1.425000e+02
   endloop
 endfacet
 facet normal  0.000000e+00  0.000000e+00 -1.000000e+00
   outer loop
     vertex  2.205000e+02  1.550000e+01  1.425000e+02
     vertex -2.205000e+02  2.175000e+01  1.425000e+02
     vertex  2.205000e+02  2.175000e+01  1.425000e+02
   endloop
 endfacet
 facet normal  0.000000e+00  1.000000e+00 -0.000000e+00
   outer loop
     vertex  2.205000e+02  2.175000e+01  1.425000e+02
     vertex -2.205000e+02  2.175000e+01  1.425000e+02
     vertex -2.205000e+02  2.175000e+01  1.475000e+02
   endloop
 endfacet
 facet normal  0.000000e+00  1.000000e+00  0.000000e+00
   outer loop
     vertex  2.205000e+02  2.175000e+01  1.475000e+02
     vertex  2.205000e+02  2.175000e+01  1.425000e+02
     vertex -2.205000e+02  2.175000e+01  1.475000e+02
   endloop
 endfacet
 facet normal  0.000000e+00  0.000000e+00 -1.000000e+00
   outer loop
     vertex  2.205000e+02  2.175000e+01  1.475000e+02
     vertex -2.205000e+02  2.175000e+01  1.475000e+02
     vertex -2.205000e+02  2.425000e+01  1.475000e+02
   endloop
 endfacet
 facet normal  0.000000e+00  0.000000e+00 -1.000000e+00
   outer loop
     vertex  2.205000e+02  2.175000e+01  1.475000e+02
     vertex -2.205000e+02  2.425000e+01  1.475000e+02
     vertex  2.205000e+02  2.425000e+01  1.475000e+02
   endloop
 endfacet
 facet normal -0.000000e+00  0.000000e+00  1.000000e+00
   outer loop
     vertex -2.205000e+02  3.050000e+01  1.487500e+02
     vertex -2.205000e+02  2.550000e+01  1.487500e+02
     vertex  2.205000e+02  2.550000e+01  1.487500e+02
   endloop
 endfacet
 facet normal  0.000000e+00  0.000000e+00  1.000000e+00
   outer loop
     vertex  2.205000e+02  3.050000e+01  1.487500e+02
     vertex -2.205000e+02  3.050000e+01  1.487500e+02
     vertex  2.205000e+02  2.550000e+01  1.487500e+02
   endloop
 endfacet
 facet normal  0.000000e+00  1.000000e+00  0.000000e+00
   outer loop
     vertex  2.205000e+02  2.550000e+01  1.512500e+02
     vertex  2.205000e+02  2.550000e+01  1.487500e+02
     vertex -2.205000e+02  2.550000e+01  1.487500e+02
   endloop
 endfacet
 facet normal  0.000000e+00  1.000000e+00 -0.000000e+00
   outer loop
     vertex  2.205000e+02  2.550000e+01  1.512500e+02
     vertex -2.205000e+02  2.550000e+01  1.487500e+02
     vertex -2.205000e+02  2.550000e+01  1.512500e+02
   endloop
 endfacet
 facet normal  0.000000e+00  0.000000e+00 -1.000000e+00
   outer loop
     vertex  2.205000e+02  2.550000e+01  1.512500e+02
     vertex -2.205000e+02  2.550000e+01  1.512500e+02
     vertex -2.205000e+02  3.050000e+01  1.512500e+02
   endloop
 endfacet
 facet normal  0.000000e+00  0.000000e+00 -1.000000e+00
   outer loop
     vertex  2.205000e+02  2.550000e+01  1.512500e+02
     vertex -2.205000e+02  3.050000e+01  1.512500e+02
     vertex  2.205000e+02  3.050000e+01  1.512500e+02
   endloop
 endfacet
 facet normal  0.000000e+00  1.000000e+00 -0.000000e+00
   outer loop
     vertex  2.205000e+02  3.050000e+01  1.575000e+02
     vertex -2.205000e+02  3.050000e+01  1.512500e+02
     vertex -2.205000e+02  3.050000e+01  1.575000e+02
   endloop
 endfacet
 facet normal  0.000000e+00  1.000000e+00  0.000000e+00
   outer loop
     vertex  2.205000e+02  3.050000e+01  1.575000e+02
     vertex  2.205000e+02  3.050000e+01  1.512500e+02
     vertex -2.205000e+02  3.050000e+01  1.512500e+02
   endloop
 endfacet
endsolid
