solid
 facet normal  1.000000e+00  0.000000e+00  0.000000e+00
   outer loop
     vertex  5.000000e+01 -1.855000e+02 -1.247500e+02
     vertex  5.000000e+01 -1.767500e+02 -1.247500e+02
     vertex  5.000000e+01 -1.767500e+02 -1.214469e+02
   endloop
 endfacet
 facet normal  1.000000e+00  0.000000e+00 -0.000000e+00
   outer loop
     vertex  5.000000e+01 -1.855000e+02 -1.247500e+02
     vertex  5.000000e+01 -1.767500e+02 -1.214469e+02
     vertex  5.000000e+01 -1.769492e+02 -1.199137e+02
   endloop
 endfacet
 facet normal  1.000000e+00  0.000000e+00 -0.000000e+00
   outer loop
     vertex  5.000000e+01 -1.855000e+02 -1.247500e+02
     vertex  5.000000e+01 -1.769492e+02 -1.199137e+02
     vertex  5.000000e+01 -1.775336e+02 -1.184824e+02
   endloop
 endfacet
 facet normal  1.000000e+00 -0.000000e+00  0.000000e+00
   outer loop
     vertex  5.000000e+01 -1.784643e+02 -1.172478e+02
     vertex  5.000000e+01 -1.855000e+02 -1.247500e+02
     vertex  5.000000e+01 -1.775336e+02 -1.184824e+02
   endloop
 endfacet
 facet normal  1.000000e+00 -0.000000e+00  0.000000e+00
   outer loop
     vertex  5.000000e+01 -1.797275e+02 -1.157799e+02
     vertex  5.000000e+01 -1.855000e+02 -1.247500e+02
     vertex  5.000000e+01 -1.784643e+02 -1.172478e+02
   endloop
 endfacet
 facet normal  1.000000e+00 -0.000000e+00  0.000000e+00
   outer loop
     vertex  5.000000e+01 -1.807911e+02 -1.141615e+02
     vertex  5.000000e+01 -1.855000e+02 -1.247500e+02
     vertex  5.000000e+01 -1.797275e+02 -1.157799e+02
   endloop
 endfacet
 facet normal  1.000000e+00 -0.000000e+00  0.000000e+00
   outer loop
     vertex  5.000000e+01 -1.816373e+02 -1.124195e+02
     vertex  5.000000e+01 -1.855000e+02 -1.247500e+02
     vertex  5.000000e+01 -1.807911e+02 -1.141615e+02
   endloop
 endfacet
 facet normal  1.000000e+00 -0.000000e+00  0.000000e+00
   outer loop
     vertex  5.000000e+01 -1.822520e+02 -1.105830e+02
     vertex  5.000000e+01 -1.855000e+02 -1.247500e+02
     vertex  5.000000e+01 -1.816373e+02 -1.124195e+02
   endloop
 endfacet
 facet normal  1.000000e+00 -0.000000e+00  0.000000e+00
   outer loop
     vertex  5.000000e+01 -1.826250e+02 -1.086826e+02
     vertex  5.000000e+01 -1.855000e+02 -1.247500e+02
     vertex  5.000000e+01 -1.822520e+02 -1.105830e+02
   endloop
 endfacet
 facet normal  1.000000e+00 -0.000000e+00  0.000000e+00
   outer loop
     vertex  5.000000e+01 -1.855000e+02 -6.525000e+01
     vertex  5.000000e+01 -1.767500e+02 -6.855306e+01
     vertex  5.000000e+01 -1.767500e+02 -6.525000e+01
   endloop
 endfacet
 facet normal  1.000000e+00 -0.000000e+00  0.000000e+00
   outer loop
     vertex  5.000000e+01 -1.855000e+02 -6.525000e+01
     vertex  5.000000e+01 -1.769492e+02 -7.008625e+01
     vertex  5.000000e+01 -1.767500e+02 -6.855306e+01
   endloop
 endfacet
 facet normal  1.000000e+00 -0.000000e+00  0.000000e+00
   outer loop
     vertex  5.000000e+01 -1.855000e+02 -6.525000e+01
     vertex  5.000000e+01 -1.775336e+02 -7.151764e+01
     vertex  5.000000e+01 -1.769492e+02 -7.008625e+01
   endloop
 endfacet
 facet normal  1.000000e+00 -0.000000e+00  0.000000e+00
   outer loop
     vertex  5.000000e+01 -1.855000e+02 -6.525000e+01
     vertex  5.000000e+01 -1.784643e+02 -7.275219e+01
     vertex  5.000000e+01 -1.775336e+02 -7.151764e+01
   endloop
 endfacet
 facet normal  1.000000e+00 -0.000000e+00  0.000000e+00
   outer loop
     vertex  5.000000e+01 -1.855000e+02 -6.525000e+01
     vertex  5.000000e+01 -1.826250e+02 -8.131740e+01
     vertex  5.000000e+01 -1.822520e+02 -7.941702e+01
   endloop
 endfacet
 facet normal  1.000000e+00 -0.000000e+00  0.000000e+00
   outer loop
     vertex  5.000000e+01 -1.855000e+02 -6.525000e+01
     vertex  5.000000e+01 -1.822520e+02 -7.941702e+01
     vertex  5.000000e+01 -1.816373e+02 -7.758053e+01
   endloop
 endfacet
 facet normal  1.000000e+00 -0.000000e+00  0.000000e+00
   outer loop
     vertex  5.000000e+01 -1.855000e+02 -6.525000e+01
     vertex  5.000000e+01 -1.816373e+02 -7.758053e+01
     vertex  5.000000e+01 -1.807911e+02 -7.583855e+01
   endloop
 endfacet
 facet normal  1.000000e+00 -0.000000e+00  0.000000e+00
   outer loop
     vertex  5.000000e+01 -1.855000e+02 -6.525000e+01
     vertex  5.000000e+01 -1.807911e+02 -7.583855e+01
     vertex  5.000000e+01 -1.797275e+02 -7.422011e+01
   endloop
 endfacet
 facet normal  1.000000e+00 -0.000000e+00  0.000000e+00
   outer loop
     vertex  5.000000e+01 -1.855000e+02 -6.525000e+01
     vertex  5.000000e+01 -1.797275e+02 -7.422011e+01
     vertex  5.000000e+01 -1.784643e+02 -7.275219e+01
   endloop
 endfacet
 facet normal  1.000000e+00 -0.000000e+00  0.000000e+00
   outer loop
     vertex  5.000000e+01 -1.855000e+02 -6.525000e+01
     vertex  5.000000e+01 -1.855000e+02 -1.247500e+02
     vertex  5.000000e+01 -1.827500e+02 -1.067500e+02
   endloop
 endfacet
 facet normal  1.000000e+00 -0.000000e+00  0.000000e+00
   outer loop
     vertex  5.000000e+01 -1.855000e+02 -6.525000e+01
     vertex  5.000000e+01 -1.827500e+02 -1.067500e+02
     vertex  5.000000e+01 -1.827500e+02 -8.325000e+01
   endloop
 endfacet
 facet normal  1.000000e+00 -0.000000e+00  0.000000e+00
   outer loop
     vertex  5.000000e+01 -1.855000e+02 -6.525000e+01
     vertex  5.000000e+01 -1.827500e+02 -8.325000e+01
     vertex  5.000000e+01 -1.826250e+02 -8.131740e+01
   endloop
 endfacet
 facet normal  1.000000e+00 -0.000000e+00  0.000000e+00
   outer loop
     vertex  5.000000e+01 -1.827500e+02 -1.067500e+02
     vertex  5.000000e+01 -1.855000e+02 -1.247500e+02
     vertex  5.000000e+01 -1.826250e+02 -1.086826e+02
   endloop
 endfacet
 facet normal  0.000000e+00  1.000000e+00  0.000000e+00
   outer loop
     vertex  5.000000e+01 -1.767500e+02 -6.525000e+01
     vertex  5.000000e+01 -1.767500e+02 -6.855306e+01
     vertex  0.000000e+00 -1.767500e+02 -6.855306e+01
   endloop
 endfacet
 facet normal  0.000000e+00  1.000000e+00 -0.000000e+00
   outer loop
     vertex  5.000000e+01 -1.767500e+02 -6.525000e+01
     vertex  0.000000e+00 -1.767500e+02 -6.855306e+01
     vertex  0.000000e+00 -1.767500e+02 -6.525000e+01
   endloop
 endfacet
 facet normal  0.000000e+00  9.916654e-01 -1.288398e-01
   outer loop
     vertex  0.000000e+00 -1.769492e+02 -7.008625e+01
     vertex  0.000000e+00 -1.767500e+02 -6.855306e+01
     vertex  5.000000e+01 -1.767500e+02 -6.855306e+01
   endloop
 endfacet
 facet normal  0.000000e+00  9.258201e-01 -3.779645e-01
   outer loop
     vertex  0.000000e+00 -1.775336e+02 -7.151764e+01
     vertex  0.000000e+00 -1.769492e+02 -7.008625e+01
     vertex  5.000000e+01 -1.769492e+02 -7.008625e+01
   endloop
 endfacet
 facet normal  0.000000e+00  9.916654e-01 -1.288398e-01
   outer loop
     vertex  0.000000e+00 -1.769492e+02 -7.008625e+01
     vertex  5.000000e+01 -1.767500e+02 -6.855306e+01
     vertex  5.000000e+01 -1.769492e+02 -7.008625e+01
   endloop
 endfacet
 facet normal  0.000000e+00  7.985015e-01 -6.019928e-01
   outer loop
     vertex  0.000000e+00 -1.784643e+02 -7.275219e+01
     vertex  0.000000e+00 -1.775336e+02 -7.151764e+01
     vertex  5.000000e+01 -1.775336e+02 -7.151764e+01
   endloop
 endfacet
 facet normal  0.000000e+00  9.258201e-01 -3.779645e-01
   outer loop
     vertex  0.000000e+00 -1.775336e+02 -7.151764e+01
     vertex  5.000000e+01 -1.769492e+02 -7.008625e+01
     vertex  5.000000e+01 -1.775336e+02 -7.151764e+01
   endloop
 endfacet
 facet normal  0.000000e+00  7.985015e-01 -6.019928e-01
   outer loop
     vertex  0.000000e+00 -1.784643e+02 -7.275219e+01
     vertex  5.000000e+01 -1.775336e+02 -7.151764e+01
     vertex  5.000000e+01 -1.784643e+02 -7.275219e+01
   endloop
 endfacet
 facet normal  0.000000e+00  0.000000e+00  1.000000e+00
   outer loop
     vertex  5.000000e+01 -1.767500e+02 -6.525000e+01
     vertex  0.000000e+00 -1.767500e+02 -6.525000e+01
     vertex  0.000000e+00 -1.855000e+02 -6.525000e+01
   endloop
 endfacet
 facet normal -0.000000e+00  0.000000e+00  1.000000e+00
   outer loop
     vertex  5.000000e+01 -1.767500e+02 -6.525000e+01
     vertex  0.000000e+00 -1.855000e+02 -6.525000e+01
     vertex  5.000000e+01 -1.855000e+02 -6.525000e+01
   endloop
 endfacet
 facet normal  0.000000e+00  9.979142e-01 -6.455453e-02
   outer loop
     vertex  5.000000e+01 -1.826250e+02 -8.131740e+01
     vertex  0.000000e+00 -1.827500e+02 -8.325000e+01
     vertex  0.000000e+00 -1.826250e+02 -8.131740e+01
   endloop
 endfacet
 facet normal  0.000000e+00  9.812798e-01 -1.925875e-01
   outer loop
     vertex  5.000000e+01 -1.826250e+02 -8.131740e+01
     vertex  0.000000e+00 -1.826250e+02 -8.131740e+01
     vertex  0.000000e+00 -1.822520e+02 -7.941702e+01
   endloop
 endfacet
 facet normal  0.000000e+00  9.979142e-01 -6.455453e-02
   outer loop
     vertex  5.000000e+01 -1.826250e+02 -8.131740e+01
     vertex  5.000000e+01 -1.827500e+02 -8.325000e+01
     vertex  0.000000e+00 -1.827500e+02 -8.325000e+01
   endloop
 endfacet
 facet normal  0.000000e+00  9.482883e-01 -3.174102e-01
   outer loop
     vertex  5.000000e+01 -1.822520e+02 -7.941702e+01
     vertex  0.000000e+00 -1.822520e+02 -7.941702e+01
     vertex  0.000000e+00 -1.816373e+02 -7.758053e+01
   endloop
 endfacet
 facet normal  0.000000e+00  9.812798e-01 -1.925875e-01
   outer loop
     vertex  5.000000e+01 -1.822520e+02 -7.941702e+01
     vertex  5.000000e+01 -1.826250e+02 -8.131740e+01
     vertex  0.000000e+00 -1.822520e+02 -7.941702e+01
   endloop
 endfacet
 facet normal  0.000000e+00  9.482883e-01 -3.174102e-01
   outer loop
     vertex  5.000000e+01 -1.816373e+02 -7.758053e+01
     vertex  5.000000e+01 -1.822520e+02 -7.941702e+01
     vertex  0.000000e+00 -1.816373e+02 -7.758053e+01
   endloop
 endfacet
 facet normal  0.000000e+00  8.994897e-01 -4.369420e-01
   outer loop
     vertex  5.000000e+01 -1.807911e+02 -7.583855e+01
     vertex  0.000000e+00 -1.816373e+02 -7.758053e+01
     vertex  0.000000e+00 -1.807911e+02 -7.583855e+01
   endloop
 endfacet
 facet normal  0.000000e+00  8.994897e-01 -4.369420e-01
   outer loop
     vertex  5.000000e+01 -1.807911e+02 -7.583855e+01
     vertex  5.000000e+01 -1.816373e+02 -7.758053e+01
     vertex  0.000000e+00 -1.816373e+02 -7.758053e+01
   endloop
 endfacet
 facet normal  0.000000e+00  8.356973e-01 -5.491903e-01
   outer loop
     vertex  5.000000e+01 -1.797275e+02 -7.422011e+01
     vertex  0.000000e+00 -1.807911e+02 -7.583855e+01
     vertex  0.000000e+00 -1.797275e+02 -7.422011e+01
   endloop
 endfacet
 facet normal  0.000000e+00  8.356973e-01 -5.491903e-01
   outer loop
     vertex  5.000000e+01 -1.797275e+02 -7.422011e+01
     vertex  5.000000e+01 -1.807911e+02 -7.583855e+01
     vertex  0.000000e+00 -1.807911e+02 -7.583855e+01
   endloop
 endfacet
 facet normal  0.000000e+00  7.579746e-01 -6.522841e-01
   outer loop
     vertex  5.000000e+01 -1.784643e+02 -7.275219e+01
     vertex  0.000000e+00 -1.797275e+02 -7.422011e+01
     vertex  0.000000e+00 -1.784643e+02 -7.275219e+01
   endloop
 endfacet
 facet normal  0.000000e+00  7.579746e-01 -6.522841e-01
   outer loop
     vertex  5.000000e+01 -1.784643e+02 -7.275219e+01
     vertex  5.000000e+01 -1.797275e+02 -7.422011e+01
     vertex  0.000000e+00 -1.797275e+02 -7.422011e+01
   endloop
 endfacet
 facet normal  0.000000e+00 -1.000000e+00  0.000000e+00
   outer loop
     vertex  0.000000e+00 -1.855000e+02 -1.247500e+02
     vertex  5.000000e+01 -1.855000e+02 -1.247500e+02
     vertex  5.000000e+01 -1.855000e+02 -6.525000e+01
   endloop
 endfacet
 facet normal  0.000000e+00 -1.000000e+00  0.000000e+00
   outer loop
     vertex  0.000000e+00 -1.855000e+02 -6.525000e+01
     vertex  0.000000e+00 -1.855000e+02 -1.247500e+02
     vertex  5.000000e+01 -1.855000e+02 -6.525000e+01
   endloop
 endfacet
 facet normal  0.000000e+00  1.000000e+00  0.000000e+00
   outer loop
     vertex  5.000000e+01 -1.827500e+02 -8.325000e+01
     vertex  5.000000e+01 -1.827500e+02 -1.067500e+02
     vertex  0.000000e+00 -1.827500e+02 -1.067500e+02
   endloop
 endfacet
 facet normal  0.000000e+00  1.000000e+00 -0.000000e+00
   outer loop
     vertex  5.000000e+01 -1.827500e+02 -8.325000e+01
     vertex  0.000000e+00 -1.827500e+02 -1.067500e+02
     vertex  0.000000e+00 -1.827500e+02 -8.325000e+01
   endloop
 endfacet
 facet normal  0.000000e+00  0.000000e+00 -1.000000e+00
   outer loop
     vertex  0.000000e+00 -1.855000e+02 -1.247500e+02
     vertex  0.000000e+00 -1.767500e+02 -1.247500e+02
     vertex  5.000000e+01 -1.767500e+02 -1.247500e+02
   endloop
 endfacet
 facet normal  0.000000e+00  0.000000e+00 -1.000000e+00
   outer loop
     vertex  5.000000e+01 -1.855000e+02 -1.247500e+02
     vertex  0.000000e+00 -1.855000e+02 -1.247500e+02
     vertex  5.000000e+01 -1.767500e+02 -1.247500e+02
   endloop
 endfacet
 facet normal  0.000000e+00  9.979142e-01  6.455453e-02
   outer loop
     vertex  0.000000e+00 -1.826250e+02 -1.086826e+02
     vertex  0.000000e+00 -1.827500e+02 -1.067500e+02
     vertex  5.000000e+01 -1.826250e+02 -1.086826e+02
   endloop
 endfacet
 facet normal -0.000000e+00  9.812798e-01  1.925875e-01
   outer loop
     vertex  0.000000e+00 -1.822520e+02 -1.105830e+02
     vertex  0.000000e+00 -1.826250e+02 -1.086826e+02
     vertex  5.000000e+01 -1.826250e+02 -1.086826e+02
   endloop
 endfacet
 facet normal -0.000000e+00  9.979142e-01  6.455453e-02
   outer loop
     vertex  0.000000e+00 -1.827500e+02 -1.067500e+02
     vertex  5.000000e+01 -1.827500e+02 -1.067500e+02
     vertex  5.000000e+01 -1.826250e+02 -1.086826e+02
   endloop
 endfacet
 facet normal  0.000000e+00  9.812798e-01  1.925875e-01
   outer loop
     vertex  0.000000e+00 -1.822520e+02 -1.105830e+02
     vertex  5.000000e+01 -1.826250e+02 -1.086826e+02
     vertex  5.000000e+01 -1.822520e+02 -1.105830e+02
   endloop
 endfacet
 facet normal  0.000000e+00  9.482883e-01  3.174102e-01
   outer loop
     vertex  0.000000e+00 -1.816373e+02 -1.124195e+02
     vertex  0.000000e+00 -1.822520e+02 -1.105830e+02
     vertex  5.000000e+01 -1.816373e+02 -1.124195e+02
   endloop
 endfacet
 facet normal -0.000000e+00  8.994897e-01  4.369420e-01
   outer loop
     vertex  0.000000e+00 -1.807911e+02 -1.141615e+02
     vertex  0.000000e+00 -1.816373e+02 -1.124195e+02
     vertex  5.000000e+01 -1.816373e+02 -1.124195e+02
   endloop
 endfacet
 facet normal -0.000000e+00  9.482883e-01  3.174102e-01
   outer loop
     vertex  0.000000e+00 -1.822520e+02 -1.105830e+02
     vertex  5.000000e+01 -1.822520e+02 -1.105830e+02
     vertex  5.000000e+01 -1.816373e+02 -1.124195e+02
   endloop
 endfacet
 facet normal  0.000000e+00  8.994897e-01  4.369420e-01
   outer loop
     vertex  0.000000e+00 -1.807911e+02 -1.141615e+02
     vertex  5.000000e+01 -1.816373e+02 -1.124195e+02
     vertex  5.000000e+01 -1.807911e+02 -1.141615e+02
   endloop
 endfacet
 facet normal  0.000000e+00  8.356973e-01  5.491903e-01
   outer loop
     vertex  0.000000e+00 -1.797275e+02 -1.157799e+02
     vertex  0.000000e+00 -1.807911e+02 -1.141615e+02
     vertex  5.000000e+01 -1.797275e+02 -1.157799e+02
   endloop
 endfacet
 facet normal -0.000000e+00  8.356973e-01  5.491903e-01
   outer loop
     vertex  0.000000e+00 -1.807911e+02 -1.141615e+02
     vertex  5.000000e+01 -1.807911e+02 -1.141615e+02
     vertex  5.000000e+01 -1.797275e+02 -1.157799e+02
   endloop
 endfacet
 facet normal  0.000000e+00  7.579746e-01  6.522841e-01
   outer loop
     vertex  0.000000e+00 -1.784643e+02 -1.172478e+02
     vertex  0.000000e+00 -1.797275e+02 -1.157799e+02
     vertex  5.000000e+01 -1.784643e+02 -1.172478e+02
   endloop
 endfacet
 facet normal -0.000000e+00  7.579746e-01  6.522841e-01
   outer loop
     vertex  0.000000e+00 -1.797275e+02 -1.157799e+02
     vertex  5.000000e+01 -1.797275e+02 -1.157799e+02
     vertex  5.000000e+01 -1.784643e+02 -1.172478e+02
   endloop
 endfacet
 facet normal  0.000000e+00  1.000000e+00 -0.000000e+00
   outer loop
     vertex  5.000000e+01 -1.767500e+02 -1.214469e+02
     vertex  0.000000e+00 -1.767500e+02 -1.247500e+02
     vertex  0.000000e+00 -1.767500e+02 -1.214469e+02
   endloop
 endfacet
 facet normal  0.000000e+00  1.000000e+00  0.000000e+00
   outer loop
     vertex  5.000000e+01 -1.767500e+02 -1.214469e+02
     vertex  5.000000e+01 -1.767500e+02 -1.247500e+02
     vertex  0.000000e+00 -1.767500e+02 -1.247500e+02
   endloop
 endfacet
 facet normal  0.000000e+00  9.916654e-01  1.288398e-01
   outer loop
     vertex  5.000000e+01 -1.769492e+02 -1.199137e+02
     vertex  0.000000e+00 -1.767500e+02 -1.214469e+02
     vertex  0.000000e+00 -1.769492e+02 -1.199137e+02
   endloop
 endfacet
 facet normal  0.000000e+00  9.916654e-01  1.288398e-01
   outer loop
     vertex  5.000000e+01 -1.769492e+02 -1.199137e+02
     vertex  5.000000e+01 -1.767500e+02 -1.214469e+02
     vertex  0.000000e+00 -1.767500e+02 -1.214469e+02
   endloop
 endfacet
 facet normal  0.000000e+00  9.258201e-01  3.779645e-01
   outer loop
     vertex  5.000000e+01 -1.775336e+02 -1.184824e+02
     vertex  0.000000e+00 -1.769492e+02 -1.199137e+02
     vertex  0.000000e+00 -1.775336e+02 -1.184824e+02
   endloop
 endfacet
 facet normal  0.000000e+00  9.258201e-01  3.779645e-01
   outer loop
     vertex  5.000000e+01 -1.775336e+02 -1.184824e+02
     vertex  5.000000e+01 -1.769492e+02 -1.199137e+02
     vertex  0.000000e+00 -1.769492e+02 -1.199137e+02
   endloop
 endfacet
 facet normal  0.000000e+00  7.985015e-01  6.019928e-01
   outer loop
     vertex  5.000000e+01 -1.784643e+02 -1.172478e+02
     vertex  0.000000e+00 -1.775336e+02 -1.184824e+02
     vertex  0.000000e+00 -1.784643e+02 -1.172478e+02
   endloop
 endfacet
 facet normal  0.000000e+00  7.985015e-01  6.019928e-01
   outer loop
     vertex  5.000000e+01 -1.784643e+02 -1.172478e+02
     vertex  5.000000e+01 -1.775336e+02 -1.184824e+02
     vertex  0.000000e+00 -1.775336e+02 -1.184824e+02
   endloop
 endfacet
 facet normal -1.000000e+00 -0.000000e+00 -0.000000e+00
   outer loop
     vertex  0.000000e+00 -1.767500e+02 -1.214469e+02
     vertex  0.000000e+00 -1.767500e+02 -1.247500e+02
     vertex  0.000000e+00 -1.855000e+02 -1.247500e+02
   endloop
 endfacet
 facet normal -1.000000e+00  0.000000e+00 -0.000000e+00
   outer loop
     vertex  0.000000e+00 -1.769492e+02 -1.199137e+02
     vertex  0.000000e+00 -1.767500e+02 -1.214469e+02
     vertex  0.000000e+00 -1.855000e+02 -1.247500e+02
   endloop
 endfacet
 facet normal -1.000000e+00  0.000000e+00 -0.000000e+00
   outer loop
     vertex  0.000000e+00 -1.775336e+02 -1.184824e+02
     vertex  0.000000e+00 -1.769492e+02 -1.199137e+02
     vertex  0.000000e+00 -1.855000e+02 -1.247500e+02
   endloop
 endfacet
 facet normal -1.000000e+00 -0.000000e+00  0.000000e+00
   outer loop
     vertex  0.000000e+00 -1.775336e+02 -1.184824e+02
     vertex  0.000000e+00 -1.855000e+02 -1.247500e+02
     vertex  0.000000e+00 -1.784643e+02 -1.172478e+02
   endloop
 endfacet
 facet normal -1.000000e+00 -0.000000e+00  0.000000e+00
   outer loop
     vertex  0.000000e+00 -1.784643e+02 -1.172478e+02
     vertex  0.000000e+00 -1.855000e+02 -1.247500e+02
     vertex  0.000000e+00 -1.797275e+02 -1.157799e+02
   endloop
 endfacet
 facet normal -1.000000e+00 -0.000000e+00  0.000000e+00
   outer loop
     vertex  0.000000e+00 -1.797275e+02 -1.157799e+02
     vertex  0.000000e+00 -1.855000e+02 -1.247500e+02
     vertex  0.000000e+00 -1.807911e+02 -1.141615e+02
   endloop
 endfacet
 facet normal -1.000000e+00 -0.000000e+00  0.000000e+00
   outer loop
     vertex  0.000000e+00 -1.807911e+02 -1.141615e+02
     vertex  0.000000e+00 -1.855000e+02 -1.247500e+02
     vertex  0.000000e+00 -1.816373e+02 -1.124195e+02
   endloop
 endfacet
 facet normal -1.000000e+00 -0.000000e+00  0.000000e+00
   outer loop
     vertex  0.000000e+00 -1.816373e+02 -1.124195e+02
     vertex  0.000000e+00 -1.855000e+02 -1.247500e+02
     vertex  0.000000e+00 -1.822520e+02 -1.105830e+02
   endloop
 endfacet
 facet normal -1.000000e+00 -0.000000e+00  0.000000e+00
   outer loop
     vertex  0.000000e+00 -1.822520e+02 -1.105830e+02
     vertex  0.000000e+00 -1.855000e+02 -1.247500e+02
     vertex  0.000000e+00 -1.826250e+02 -1.086826e+02
   endloop
 endfacet
 facet normal -1.000000e+00 -0.000000e+00 -0.000000e+00
   outer loop
     vertex  0.000000e+00 -1.767500e+02 -6.525000e+01
     vertex  0.000000e+00 -1.767500e+02 -6.855306e+01
     vertex  0.000000e+00 -1.855000e+02 -6.525000e+01
   endloop
 endfacet
 facet normal -1.000000e+00 -0.000000e+00  0.000000e+00
   outer loop
     vertex  0.000000e+00 -1.767500e+02 -6.855306e+01
     vertex  0.000000e+00 -1.769492e+02 -7.008625e+01
     vertex  0.000000e+00 -1.855000e+02 -6.525000e+01
   endloop
 endfacet
 facet normal -1.000000e+00 -0.000000e+00  0.000000e+00
   outer loop
     vertex  0.000000e+00 -1.769492e+02 -7.008625e+01
     vertex  0.000000e+00 -1.775336e+02 -7.151764e+01
     vertex  0.000000e+00 -1.855000e+02 -6.525000e+01
   endloop
 endfacet
 facet normal -1.000000e+00 -0.000000e+00  0.000000e+00
   outer loop
     vertex  0.000000e+00 -1.775336e+02 -7.151764e+01
     vertex  0.000000e+00 -1.784643e+02 -7.275219e+01
     vertex  0.000000e+00 -1.855000e+02 -6.525000e+01
   endloop
 endfacet
 facet normal -1.000000e+00 -0.000000e+00  0.000000e+00
   outer loop
     vertex  0.000000e+00 -1.822520e+02 -7.941702e+01
     vertex  0.000000e+00 -1.826250e+02 -8.131740e+01
     vertex  0.000000e+00 -1.855000e+02 -6.525000e+01
   endloop
 endfacet
 facet normal -1.000000e+00 -0.000000e+00  0.000000e+00
   outer loop
     vertex  0.000000e+00 -1.816373e+02 -7.758053e+01
     vertex  0.000000e+00 -1.822520e+02 -7.941702e+01
     vertex  0.000000e+00 -1.855000e+02 -6.525000e+01
   endloop
 endfacet
 facet normal -1.000000e+00 -0.000000e+00  0.000000e+00
   outer loop
     vertex  0.000000e+00 -1.807911e+02 -7.583855e+01
     vertex  0.000000e+00 -1.816373e+02 -7.758053e+01
     vertex  0.000000e+00 -1.855000e+02 -6.525000e+01
   endloop
 endfacet
 facet normal -1.000000e+00 -0.000000e+00  0.000000e+00
   outer loop
     vertex  0.000000e+00 -1.797275e+02 -7.422011e+01
     vertex  0.000000e+00 -1.807911e+02 -7.583855e+01
     vertex  0.000000e+00 -1.855000e+02 -6.525000e+01
   endloop
 endfacet
 facet normal -1.000000e+00 -0.000000e+00  0.000000e+00
   outer loop
     vertex  0.000000e+00 -1.784643e+02 -7.275219e+01
     vertex  0.000000e+00 -1.797275e+02 -7.422011e+01
     vertex  0.000000e+00 -1.855000e+02 -6.525000e+01
   endloop
 endfacet
 facet normal -1.000000e+00 -0.000000e+00  0.000000e+00
   outer loop
     vertex  0.000000e+00 -1.827500e+02 -1.067500e+02
     vertex  0.000000e+00 -1.855000e+02 -1.247500e+02
     vertex  0.000000e+00 -1.855000e+02 -6.525000e+01
   endloop
 endfacet
 facet normal -1.000000e+00 -0.000000e+00 -0.000000e+00
   outer loop
     vertex  0.000000e+00 -1.827500e+02 -8.325000e+01
     vertex  0.000000e+00 -1.827500e+02 -1.067500e+02
     vertex  0.000000e+00 -1.855000e+02 -6.525000e+01
   endloop
 endfacet
 facet normal -1.000000e+00 -0.000000e+00  0.000000e+00
   outer loop
     vertex  0.000000e+00 -1.826250e+02 -8.131740e+01
     vertex  0.000000e+00 -1.827500e+02 -8.325000e+01
     vertex  0.000000e+00 -1.855000e+02 -6.525000e+01
   endloop
 endfacet
 facet normal -1.000000e+00 -0.000000e+00  0.000000e+00
   outer loop
     vertex  0.000000e+00 -1.826250e+02 -1.086826e+02
     vertex  0.000000e+00 -1.855000e+02 -1.247500e+02
     vertex  0.000000e+00 -1.827500e+02 -1.067500e+02
   endloop
 endfacet
endsolid
