solid
 facet normal  1.000000e+00 -0.000000e+00  0.000000e+00
   outer loop
     vertex -1.829000e+02  2.132500e+02  3.170000e+02
     vertex -1.829000e+02  2.132500e+02  3.120000e+02
     vertex -1.829000e+02  2.282500e+02  3.120000e+02
   endloop
 endfacet
 facet normal  1.000000e+00 -0.000000e+00  0.000000e+00
   outer loop
     vertex -1.829000e+02  2.132500e+02  3.170000e+02
     vertex -1.829000e+02  2.282500e+02  3.120000e+02
     vertex -1.829000e+02  2.282500e+02  3.170000e+02
   endloop
 endfacet
 facet normal  0.000000e+00 -1.000000e+00  0.000000e+00
   outer loop
     vertex -2.040000e+02  2.132500e+02  3.220000e+02
     vertex -1.990000e+02  2.132500e+02  3.220000e+02
     vertex -2.040000e+02  2.132500e+02  3.331000e+02
   endloop
 endfacet
 facet normal  0.000000e+00 -1.000000e+00  0.000000e+00
   outer loop
     vertex -1.941704e+02  2.132500e+02  3.182941e+02
     vertex -1.940000e+02  2.132500e+02  3.170000e+02
     vertex -1.829000e+02  2.132500e+02  3.170000e+02
   endloop
 endfacet
 facet normal  0.000000e+00 -1.000000e+00  0.000000e+00
   outer loop
     vertex -1.940000e+02  2.132500e+02  3.170000e+02
     vertex -1.940000e+02  2.132500e+02  3.120000e+02
     vertex -1.829000e+02  2.132500e+02  3.170000e+02
   endloop
 endfacet
 facet normal  0.000000e+00 -1.000000e+00  0.000000e+00
   outer loop
     vertex -1.940000e+02  2.132500e+02  3.120000e+02
     vertex -1.829000e+02  2.132500e+02  3.120000e+02
     vertex -1.829000e+02  2.132500e+02  3.170000e+02
   endloop
 endfacet
 facet normal  0.000000e+00 -1.000000e+00  0.000000e+00
   outer loop
     vertex -1.990000e+02  2.132500e+02  3.220000e+02
     vertex -1.977059e+02  2.132500e+02  3.218296e+02
     vertex -1.990000e+02  2.132500e+02  3.331000e+02
   endloop
 endfacet
 facet normal  0.000000e+00 -1.000000e+00  0.000000e+00
   outer loop
     vertex -2.040000e+02  2.132500e+02  3.331000e+02
     vertex -1.990000e+02  2.132500e+02  3.220000e+02
     vertex -1.990000e+02  2.132500e+02  3.331000e+02
   endloop
 endfacet
 facet normal  0.000000e+00 -1.000000e+00  0.000000e+00
   outer loop
     vertex -1.941704e+02  2.132500e+02  3.182941e+02
     vertex -1.829000e+02  2.132500e+02  3.170000e+02
     vertex -1.834486e+02  2.132500e+02  3.211670e+02
   endloop
 endfacet
 facet normal  0.000000e+00 -1.000000e+00  0.000000e+00
   outer loop
     vertex -1.990000e+02  2.132500e+02  3.331000e+02
     vertex -1.977059e+02  2.132500e+02  3.218296e+02
     vertex -1.948330e+02  2.132500e+02  3.325514e+02
   endloop
 endfacet
 facet normal -0.000000e+00 -1.000000e+00  0.000000e+00
   outer loop
     vertex -1.834486e+02  2.132500e+02  3.211670e+02
     vertex -1.850570e+02  2.132500e+02  3.250500e+02
     vertex -1.934500e+02  2.132500e+02  3.225500e+02
   endloop
 endfacet
 facet normal -0.000000e+00 -1.000000e+00  0.000000e+00
   outer loop
     vertex -1.850570e+02  2.132500e+02  3.250500e+02
     vertex -1.876156e+02  2.132500e+02  3.283844e+02
     vertex -1.934500e+02  2.132500e+02  3.225500e+02
   endloop
 endfacet
 facet normal -0.000000e+00 -1.000000e+00  0.000000e+00
   outer loop
     vertex -1.876156e+02  2.132500e+02  3.283844e+02
     vertex -1.909500e+02  2.132500e+02  3.309430e+02
     vertex -1.934500e+02  2.132500e+02  3.225500e+02
   endloop
 endfacet
 facet normal -0.000000e+00 -1.000000e+00 -0.000000e+00
   outer loop
     vertex -1.909500e+02  2.132500e+02  3.309430e+02
     vertex -1.948330e+02  2.132500e+02  3.325514e+02
     vertex -1.934500e+02  2.132500e+02  3.225500e+02
   endloop
 endfacet
 facet normal  0.000000e+00 -1.000000e+00  0.000000e+00
   outer loop
     vertex -1.946699e+02  2.132500e+02  3.195000e+02
     vertex -1.941704e+02  2.132500e+02  3.182941e+02
     vertex -1.934500e+02  2.132500e+02  3.225500e+02
   endloop
 endfacet
 facet normal  0.000000e+00 -1.000000e+00  0.000000e+00
   outer loop
     vertex -1.954645e+02  2.132500e+02  3.205355e+02
     vertex -1.946699e+02  2.132500e+02  3.195000e+02
     vertex -1.934500e+02  2.132500e+02  3.225500e+02
   endloop
 endfacet
 facet normal  0.000000e+00 -1.000000e+00  0.000000e+00
   outer loop
     vertex -1.965000e+02  2.132500e+02  3.213301e+02
     vertex -1.954645e+02  2.132500e+02  3.205355e+02
     vertex -1.934500e+02  2.132500e+02  3.225500e+02
   endloop
 endfacet
 facet normal  0.000000e+00 -1.000000e+00  0.000000e+00
   outer loop
     vertex -1.977059e+02  2.132500e+02  3.218296e+02
     vertex -1.965000e+02  2.132500e+02  3.213301e+02
     vertex -1.934500e+02  2.132500e+02  3.225500e+02
   endloop
 endfacet
 facet normal  0.000000e+00 -1.000000e+00 -0.000000e+00
   outer loop
     vertex -1.948330e+02  2.132500e+02  3.325514e+02
     vertex -1.977059e+02  2.132500e+02  3.218296e+02
     vertex -1.934500e+02  2.132500e+02  3.225500e+02
   endloop
 endfacet
 facet normal  0.000000e+00 -1.000000e+00  0.000000e+00
   outer loop
     vertex -1.941704e+02  2.132500e+02  3.182941e+02
     vertex -1.834486e+02  2.132500e+02  3.211670e+02
     vertex -1.934500e+02  2.132500e+02  3.225500e+02
   endloop
 endfacet
 facet normal  9.914449e-01  0.000000e+00  1.305262e-01
   outer loop
     vertex -1.834486e+02  2.132500e+02  3.211670e+02
     vertex -1.829000e+02  2.132500e+02  3.170000e+02
     vertex -1.834486e+02  2.282500e+02  3.211670e+02
   endloop
 endfacet
 facet normal  9.914449e-01 -0.000000e+00  1.305262e-01
   outer loop
     vertex -1.829000e+02  2.132500e+02  3.170000e+02
     vertex -1.829000e+02  2.282500e+02  3.170000e+02
     vertex -1.834486e+02  2.282500e+02  3.211670e+02
   endloop
 endfacet
 facet normal  9.238795e-01  0.000000e+00  3.826834e-01
   outer loop
     vertex -1.850570e+02  2.132500e+02  3.250500e+02
     vertex -1.834486e+02  2.132500e+02  3.211670e+02
     vertex -1.850570e+02  2.282500e+02  3.250500e+02
   endloop
 endfacet
 facet normal  9.238795e-01 -0.000000e+00  3.826834e-01
   outer loop
     vertex -1.834486e+02  2.132500e+02  3.211670e+02
     vertex -1.834486e+02  2.282500e+02  3.211670e+02
     vertex -1.850570e+02  2.282500e+02  3.250500e+02
   endloop
 endfacet
 facet normal  7.933533e-01  0.000000e+00  6.087614e-01
   outer loop
     vertex -1.876156e+02  2.132500e+02  3.283844e+02
     vertex -1.850570e+02  2.132500e+02  3.250500e+02
     vertex -1.876156e+02  2.282500e+02  3.283844e+02
   endloop
 endfacet
 facet normal  6.087614e-01 -0.000000e+00  7.933533e-01
   outer loop
     vertex -1.909500e+02  2.132500e+02  3.309430e+02
     vertex -1.876156e+02  2.132500e+02  3.283844e+02
     vertex -1.876156e+02  2.282500e+02  3.283844e+02
   endloop
 endfacet
 facet normal  7.933533e-01 -0.000000e+00  6.087614e-01
   outer loop
     vertex -1.850570e+02  2.132500e+02  3.250500e+02
     vertex -1.850570e+02  2.282500e+02  3.250500e+02
     vertex -1.876156e+02  2.282500e+02  3.283844e+02
   endloop
 endfacet
 facet normal  6.087614e-01  0.000000e+00  7.933533e-01
   outer loop
     vertex -1.909500e+02  2.132500e+02  3.309430e+02
     vertex -1.876156e+02  2.282500e+02  3.283844e+02
     vertex -1.909500e+02  2.282500e+02  3.309430e+02
   endloop
 endfacet
 facet normal  3.826834e-01  0.000000e+00  9.238795e-01
   outer loop
     vertex -1.948330e+02  2.132500e+02  3.325514e+02
     vertex -1.909500e+02  2.132500e+02  3.309430e+02
     vertex -1.948330e+02  2.282500e+02  3.325514e+02
   endloop
 endfacet
 facet normal  1.305262e-01 -0.000000e+00  9.914449e-01
   outer loop
     vertex -1.990000e+02  2.132500e+02  3.331000e+02
     vertex -1.948330e+02  2.132500e+02  3.325514e+02
     vertex -1.948330e+02  2.282500e+02  3.325514e+02
   endloop
 endfacet
 facet normal  3.826834e-01 -0.000000e+00  9.238795e-01
   outer loop
     vertex -1.909500e+02  2.132500e+02  3.309430e+02
     vertex -1.909500e+02  2.282500e+02  3.309430e+02
     vertex -1.948330e+02  2.282500e+02  3.325514e+02
   endloop
 endfacet
 facet normal  1.305262e-01  0.000000e+00  9.914449e-01
   outer loop
     vertex -1.990000e+02  2.132500e+02  3.331000e+02
     vertex -1.948330e+02  2.282500e+02  3.325514e+02
     vertex -1.990000e+02  2.282500e+02  3.331000e+02
   endloop
 endfacet
 facet normal  0.000000e+00  0.000000e+00 -1.000000e+00
   outer loop
     vertex -1.940000e+02  2.132500e+02  3.120000e+02
     vertex -1.940000e+02  2.282500e+02  3.120000e+02
     vertex -1.829000e+02  2.282500e+02  3.120000e+02
   endloop
 endfacet
 facet normal  0.000000e+00  0.000000e+00 -1.000000e+00
   outer loop
     vertex -1.829000e+02  2.132500e+02  3.120000e+02
     vertex -1.940000e+02  2.132500e+02  3.120000e+02
     vertex -1.829000e+02  2.282500e+02  3.120000e+02
   endloop
 endfacet
 facet normal  0.000000e+00  1.000000e+00  0.000000e+00
   outer loop
     vertex -2.040000e+02  2.282500e+02  3.331000e+02
     vertex -1.990000e+02  2.282500e+02  3.220000e+02
     vertex -2.040000e+02  2.282500e+02  3.220000e+02
   endloop
 endfacet
 facet normal  0.000000e+00  1.000000e+00  0.000000e+00
   outer loop
     vertex -1.829000e+02  2.282500e+02  3.170000e+02
     vertex -1.940000e+02  2.282500e+02  3.170000e+02
     vertex -1.941704e+02  2.282500e+02  3.182941e+02
   endloop
 endfacet
 facet normal  0.000000e+00  1.000000e+00 -0.000000e+00
   outer loop
     vertex -1.829000e+02  2.282500e+02  3.170000e+02
     vertex -1.940000e+02  2.282500e+02  3.120000e+02
     vertex -1.940000e+02  2.282500e+02  3.170000e+02
   endloop
 endfacet
 facet normal  0.000000e+00  1.000000e+00  0.000000e+00
   outer loop
     vertex -1.829000e+02  2.282500e+02  3.170000e+02
     vertex -1.829000e+02  2.282500e+02  3.120000e+02
     vertex -1.940000e+02  2.282500e+02  3.120000e+02
   endloop
 endfacet
 facet normal  0.000000e+00  1.000000e+00  0.000000e+00
   outer loop
     vertex -1.990000e+02  2.282500e+02  3.331000e+02
     vertex -1.977059e+02  2.282500e+02  3.218296e+02
     vertex -1.990000e+02  2.282500e+02  3.220000e+02
   endloop
 endfacet
 facet normal  0.000000e+00  1.000000e+00  0.000000e+00
   outer loop
     vertex -1.990000e+02  2.282500e+02  3.331000e+02
     vertex -1.990000e+02  2.282500e+02  3.220000e+02
     vertex -2.040000e+02  2.282500e+02  3.331000e+02
   endloop
 endfacet
 facet normal  0.000000e+00  1.000000e+00  0.000000e+00
   outer loop
     vertex -1.834486e+02  2.282500e+02  3.211670e+02
     vertex -1.829000e+02  2.282500e+02  3.170000e+02
     vertex -1.941704e+02  2.282500e+02  3.182941e+02
   endloop
 endfacet
 facet normal  0.000000e+00  1.000000e+00  0.000000e+00
   outer loop
     vertex -1.948330e+02  2.282500e+02  3.325514e+02
     vertex -1.977059e+02  2.282500e+02  3.218296e+02
     vertex -1.990000e+02  2.282500e+02  3.331000e+02
   endloop
 endfacet
 facet normal -0.000000e+00  1.000000e+00  0.000000e+00
   outer loop
     vertex -1.934500e+02  2.282500e+02  3.225500e+02
     vertex -1.850570e+02  2.282500e+02  3.250500e+02
     vertex -1.834486e+02  2.282500e+02  3.211670e+02
   endloop
 endfacet
 facet normal -0.000000e+00  1.000000e+00  0.000000e+00
   outer loop
     vertex -1.934500e+02  2.282500e+02  3.225500e+02
     vertex -1.876156e+02  2.282500e+02  3.283844e+02
     vertex -1.850570e+02  2.282500e+02  3.250500e+02
   endloop
 endfacet
 facet normal -0.000000e+00  1.000000e+00  0.000000e+00
   outer loop
     vertex -1.934500e+02  2.282500e+02  3.225500e+02
     vertex -1.909500e+02  2.282500e+02  3.309430e+02
     vertex -1.876156e+02  2.282500e+02  3.283844e+02
   endloop
 endfacet
 facet normal -0.000000e+00  1.000000e+00 -0.000000e+00
   outer loop
     vertex -1.934500e+02  2.282500e+02  3.225500e+02
     vertex -1.948330e+02  2.282500e+02  3.325514e+02
     vertex -1.909500e+02  2.282500e+02  3.309430e+02
   endloop
 endfacet
 facet normal  0.000000e+00  1.000000e+00  0.000000e+00
   outer loop
     vertex -1.934500e+02  2.282500e+02  3.225500e+02
     vertex -1.941704e+02  2.282500e+02  3.182941e+02
     vertex -1.946699e+02  2.282500e+02  3.195000e+02
   endloop
 endfacet
 facet normal  0.000000e+00  1.000000e+00  0.000000e+00
   outer loop
     vertex -1.934500e+02  2.282500e+02  3.225500e+02
     vertex -1.946699e+02  2.282500e+02  3.195000e+02
     vertex -1.954645e+02  2.282500e+02  3.205355e+02
   endloop
 endfacet
 facet normal  0.000000e+00  1.000000e+00  0.000000e+00
   outer loop
     vertex -1.934500e+02  2.282500e+02  3.225500e+02
     vertex -1.954645e+02  2.282500e+02  3.205355e+02
     vertex -1.965000e+02  2.282500e+02  3.213301e+02
   endloop
 endfacet
 facet normal  0.000000e+00  1.000000e+00  0.000000e+00
   outer loop
     vertex -1.934500e+02  2.282500e+02  3.225500e+02
     vertex -1.965000e+02  2.282500e+02  3.213301e+02
     vertex -1.977059e+02  2.282500e+02  3.218296e+02
   endloop
 endfacet
 facet normal  0.000000e+00  1.000000e+00 -0.000000e+00
   outer loop
     vertex -1.934500e+02  2.282500e+02  3.225500e+02
     vertex -1.977059e+02  2.282500e+02  3.218296e+02
     vertex -1.948330e+02  2.282500e+02  3.325514e+02
   endloop
 endfacet
 facet normal  0.000000e+00  1.000000e+00  0.000000e+00
   outer loop
     vertex -1.934500e+02  2.282500e+02  3.225500e+02
     vertex -1.834486e+02  2.282500e+02  3.211670e+02
     vertex -1.941704e+02  2.282500e+02  3.182941e+02
   endloop
 endfacet
 facet normal  0.000000e+00  0.000000e+00  1.000000e+00
   outer loop
     vertex -1.990000e+02  2.282500e+02  3.331000e+02
     vertex -2.040000e+02  2.282500e+02  3.331000e+02
     vertex -2.040000e+02  2.132500e+02  3.331000e+02
   endloop
 endfacet
 facet normal -0.000000e+00  0.000000e+00  1.000000e+00
   outer loop
     vertex -1.990000e+02  2.282500e+02  3.331000e+02
     vertex -2.040000e+02  2.132500e+02  3.331000e+02
     vertex -1.990000e+02  2.132500e+02  3.331000e+02
   endloop
 endfacet
 facet normal -1.000000e+00 -0.000000e+00 -0.000000e+00
   outer loop
     vertex -2.040000e+02  2.282500e+02  3.331000e+02
     vertex -2.040000e+02  2.282500e+02  3.220000e+02
     vertex -2.040000e+02  2.132500e+02  3.331000e+02
   endloop
 endfacet
 facet normal -1.000000e+00  0.000000e+00  0.000000e+00
   outer loop
     vertex -2.040000e+02  2.282500e+02  3.220000e+02
     vertex -2.040000e+02  2.132500e+02  3.220000e+02
     vertex -2.040000e+02  2.132500e+02  3.331000e+02
   endloop
 endfacet
 facet normal  0.000000e+00  0.000000e+00 -1.000000e+00
   outer loop
     vertex -2.040000e+02  2.132500e+02  3.220000e+02
     vertex -2.040000e+02  2.282500e+02  3.220000e+02
     vertex -1.990000e+02  2.282500e+02  3.220000e+02
   endloop
 endfacet
 facet normal  0.000000e+00  0.000000e+00 -1.000000e+00
   outer loop
     vertex -1.990000e+02  2.132500e+02  3.220000e+02
     vertex -2.040000e+02  2.132500e+02  3.220000e+02
     vertex -1.990000e+02  2.282500e+02  3.220000e+02
   endloop
 endfacet
 facet normal -9.914449e-01 -0.000000e+00 -1.305262e-01
   outer loop
     vertex -1.940000e+02  2.282500e+02  3.170000e+02
     vertex -1.940000e+02  2.132500e+02  3.170000e+02
     vertex -1.941704e+02  2.132500e+02  3.182941e+02
   endloop
 endfacet
 facet normal -9.238795e-01 -0.000000e+00 -3.826834e-01
   outer loop
     vertex -1.941704e+02  2.282500e+02  3.182941e+02
     vertex -1.941704e+02  2.132500e+02  3.182941e+02
     vertex -1.946699e+02  2.132500e+02  3.195000e+02
   endloop
 endfacet
 facet normal -9.914449e-01  0.000000e+00 -1.305262e-01
   outer loop
     vertex -1.941704e+02  2.282500e+02  3.182941e+02
     vertex -1.940000e+02  2.282500e+02  3.170000e+02
     vertex -1.941704e+02  2.132500e+02  3.182941e+02
   endloop
 endfacet
 facet normal -7.933533e-01 -0.000000e+00 -6.087614e-01
   outer loop
     vertex -1.946699e+02  2.282500e+02  3.195000e+02
     vertex -1.946699e+02  2.132500e+02  3.195000e+02
     vertex -1.954645e+02  2.132500e+02  3.205355e+02
   endloop
 endfacet
 facet normal -9.238795e-01  0.000000e+00 -3.826834e-01
   outer loop
     vertex -1.946699e+02  2.282500e+02  3.195000e+02
     vertex -1.941704e+02  2.282500e+02  3.182941e+02
     vertex -1.946699e+02  2.132500e+02  3.195000e+02
   endloop
 endfacet
 facet normal -7.933533e-01  0.000000e+00 -6.087614e-01
   outer loop
     vertex -1.954645e+02  2.282500e+02  3.205355e+02
     vertex -1.946699e+02  2.282500e+02  3.195000e+02
     vertex -1.954645e+02  2.132500e+02  3.205355e+02
   endloop
 endfacet
 facet normal -6.087614e-01  0.000000e+00 -7.933533e-01
   outer loop
     vertex -1.965000e+02  2.282500e+02  3.213301e+02
     vertex -1.954645e+02  2.132500e+02  3.205355e+02
     vertex -1.965000e+02  2.132500e+02  3.213301e+02
   endloop
 endfacet
 facet normal -6.087614e-01 -0.000000e+00 -7.933533e-01
   outer loop
     vertex -1.965000e+02  2.282500e+02  3.213301e+02
     vertex -1.954645e+02  2.282500e+02  3.205355e+02
     vertex -1.954645e+02  2.132500e+02  3.205355e+02
   endloop
 endfacet
 facet normal -3.826834e-01  0.000000e+00 -9.238795e-01
   outer loop
     vertex -1.977059e+02  2.282500e+02  3.218296e+02
     vertex -1.965000e+02  2.132500e+02  3.213301e+02
     vertex -1.977059e+02  2.132500e+02  3.218296e+02
   endloop
 endfacet
 facet normal -1.305262e-01 -0.000000e+00 -9.914449e-01
   outer loop
     vertex -1.977059e+02  2.282500e+02  3.218296e+02
     vertex -1.977059e+02  2.132500e+02  3.218296e+02
     vertex -1.990000e+02  2.132500e+02  3.220000e+02
   endloop
 endfacet
 facet normal -3.826834e-01 -0.000000e+00 -9.238795e-01
   outer loop
     vertex -1.977059e+02  2.282500e+02  3.218296e+02
     vertex -1.965000e+02  2.282500e+02  3.213301e+02
     vertex -1.965000e+02  2.132500e+02  3.213301e+02
   endloop
 endfacet
 facet normal -1.305262e-01  0.000000e+00 -9.914449e-01
   outer loop
     vertex -1.990000e+02  2.282500e+02  3.220000e+02
     vertex -1.977059e+02  2.282500e+02  3.218296e+02
     vertex -1.990000e+02  2.132500e+02  3.220000e+02
   endloop
 endfacet
 facet normal -1.000000e+00  0.000000e+00  0.000000e+00
   outer loop
     vertex -1.940000e+02  2.282500e+02  3.120000e+02
     vertex -1.940000e+02  2.132500e+02  3.120000e+02
     vertex -1.940000e+02  2.132500e+02  3.170000e+02
   endloop
 endfacet
 facet normal -1.000000e+00 -0.000000e+00 -0.000000e+00
   outer loop
     vertex -1.940000e+02  2.282500e+02  3.170000e+02
     vertex -1.940000e+02  2.282500e+02  3.120000e+02
     vertex -1.940000e+02  2.132500e+02  3.170000e+02
   endloop
 endfacet
 facet normal -1.000000e+00  0.000000e+00  0.000000e+00
   outer loop
     vertex  1.829000e+02  2.282500e+02  3.120000e+02
     vertex  1.829000e+02  2.132500e+02  3.120000e+02
     vertex  1.829000e+02  2.132500e+02  3.170000e+02
   endloop
 endfacet
 facet normal -1.000000e+00 -0.000000e+00 -0.000000e+00
   outer loop
     vertex  1.829000e+02  2.282500e+02  3.170000e+02
     vertex  1.829000e+02  2.282500e+02  3.120000e+02
     vertex  1.829000e+02  2.132500e+02  3.170000e+02
   endloop
 endfacet
 facet normal  0.000000e+00 -1.000000e+00 -0.000000e+00
   outer loop
     vertex  2.040000e+02  2.132500e+02  3.331000e+02
     vertex  1.990000e+02  2.132500e+02  3.220000e+02
     vertex  2.040000e+02  2.132500e+02  3.220000e+02
   endloop
 endfacet
 facet normal  0.000000e+00 -1.000000e+00  0.000000e+00
   outer loop
     vertex  1.829000e+02  2.132500e+02  3.170000e+02
     vertex  1.940000e+02  2.132500e+02  3.170000e+02
     vertex  1.941704e+02  2.132500e+02  3.182941e+02
   endloop
 endfacet
 facet normal  0.000000e+00 -1.000000e+00  0.000000e+00
   outer loop
     vertex  1.829000e+02  2.132500e+02  3.170000e+02
     vertex  1.940000e+02  2.132500e+02  3.120000e+02
     vertex  1.940000e+02  2.132500e+02  3.170000e+02
   endloop
 endfacet
 facet normal  0.000000e+00 -1.000000e+00  0.000000e+00
   outer loop
     vertex  1.829000e+02  2.132500e+02  3.170000e+02
     vertex  1.829000e+02  2.132500e+02  3.120000e+02
     vertex  1.940000e+02  2.132500e+02  3.120000e+02
   endloop
 endfacet
 facet normal  0.000000e+00 -1.000000e+00 -0.000000e+00
   outer loop
     vertex  1.990000e+02  2.132500e+02  3.331000e+02
     vertex  1.977059e+02  2.132500e+02  3.218296e+02
     vertex  1.990000e+02  2.132500e+02  3.220000e+02
   endloop
 endfacet
 facet normal  0.000000e+00 -1.000000e+00  0.000000e+00
   outer loop
     vertex  1.990000e+02  2.132500e+02  3.331000e+02
     vertex  1.990000e+02  2.132500e+02  3.220000e+02
     vertex  2.040000e+02  2.132500e+02  3.331000e+02
   endloop
 endfacet
 facet normal  0.000000e+00 -1.000000e+00 -0.000000e+00
   outer loop
     vertex  1.834486e+02  2.132500e+02  3.211670e+02
     vertex  1.829000e+02  2.132500e+02  3.170000e+02
     vertex  1.941704e+02  2.132500e+02  3.182941e+02
   endloop
 endfacet
 facet normal  0.000000e+00 -1.000000e+00  0.000000e+00
   outer loop
     vertex  1.948330e+02  2.132500e+02  3.325514e+02
     vertex  1.977059e+02  2.132500e+02  3.218296e+02
     vertex  1.990000e+02  2.132500e+02  3.331000e+02
   endloop
 endfacet
 facet normal -0.000000e+00 -1.000000e+00  0.000000e+00
   outer loop
     vertex  1.934500e+02  2.132500e+02  3.225500e+02
     vertex  1.850570e+02  2.132500e+02  3.250500e+02
     vertex  1.834486e+02  2.132500e+02  3.211670e+02
   endloop
 endfacet
 facet normal -0.000000e+00 -1.000000e+00  0.000000e+00
   outer loop
     vertex  1.934500e+02  2.132500e+02  3.225500e+02
     vertex  1.876156e+02  2.132500e+02  3.283844e+02
     vertex  1.850570e+02  2.132500e+02  3.250500e+02
   endloop
 endfacet
 facet normal -0.000000e+00 -1.000000e+00  0.000000e+00
   outer loop
     vertex  1.934500e+02  2.132500e+02  3.225500e+02
     vertex  1.909500e+02  2.132500e+02  3.309430e+02
     vertex  1.876156e+02  2.132500e+02  3.283844e+02
   endloop
 endfacet
 facet normal -0.000000e+00 -1.000000e+00  0.000000e+00
   outer loop
     vertex  1.934500e+02  2.132500e+02  3.225500e+02
     vertex  1.948330e+02  2.132500e+02  3.325514e+02
     vertex  1.909500e+02  2.132500e+02  3.309430e+02
   endloop
 endfacet
 facet normal  0.000000e+00 -1.000000e+00  0.000000e+00
   outer loop
     vertex  1.934500e+02  2.132500e+02  3.225500e+02
     vertex  1.941704e+02  2.132500e+02  3.182941e+02
     vertex  1.946699e+02  2.132500e+02  3.195000e+02
   endloop
 endfacet
 facet normal  0.000000e+00 -1.000000e+00  0.000000e+00
   outer loop
     vertex  1.934500e+02  2.132500e+02  3.225500e+02
     vertex  1.946699e+02  2.132500e+02  3.195000e+02
     vertex  1.954645e+02  2.132500e+02  3.205355e+02
   endloop
 endfacet
 facet normal  0.000000e+00 -1.000000e+00  0.000000e+00
   outer loop
     vertex  1.934500e+02  2.132500e+02  3.225500e+02
     vertex  1.954645e+02  2.132500e+02  3.205355e+02
     vertex  1.965000e+02  2.132500e+02  3.213301e+02
   endloop
 endfacet
 facet normal  0.000000e+00 -1.000000e+00  0.000000e+00
   outer loop
     vertex  1.934500e+02  2.132500e+02  3.225500e+02
     vertex  1.965000e+02  2.132500e+02  3.213301e+02
     vertex  1.977059e+02  2.132500e+02  3.218296e+02
   endloop
 endfacet
 facet normal  0.000000e+00 -1.000000e+00  0.000000e+00
   outer loop
     vertex  1.934500e+02  2.132500e+02  3.225500e+02
     vertex  1.977059e+02  2.132500e+02  3.218296e+02
     vertex  1.948330e+02  2.132500e+02  3.325514e+02
   endloop
 endfacet
 facet normal  0.000000e+00 -1.000000e+00 -0.000000e+00
   outer loop
     vertex  1.934500e+02  2.132500e+02  3.225500e+02
     vertex  1.834486e+02  2.132500e+02  3.211670e+02
     vertex  1.941704e+02  2.132500e+02  3.182941e+02
   endloop
 endfacet
 facet normal -9.914449e-01  0.000000e+00  1.305262e-01
   outer loop
     vertex  1.834486e+02  2.282500e+02  3.211670e+02
     vertex  1.829000e+02  2.132500e+02  3.170000e+02
     vertex  1.834486e+02  2.132500e+02  3.211670e+02
   endloop
 endfacet
 facet normal -9.914449e-01  0.000000e+00  1.305262e-01
   outer loop
     vertex  1.834486e+02  2.282500e+02  3.211670e+02
     vertex  1.829000e+02  2.282500e+02  3.170000e+02
     vertex  1.829000e+02  2.132500e+02  3.170000e+02
   endloop
 endfacet
 facet normal -9.238795e-01  0.000000e+00  3.826834e-01
   outer loop
     vertex  1.850570e+02  2.282500e+02  3.250500e+02
     vertex  1.834486e+02  2.132500e+02  3.211670e+02
     vertex  1.850570e+02  2.132500e+02  3.250500e+02
   endloop
 endfacet
 facet normal -9.238795e-01  0.000000e+00  3.826834e-01
   outer loop
     vertex  1.850570e+02  2.282500e+02  3.250500e+02
     vertex  1.834486e+02  2.282500e+02  3.211670e+02
     vertex  1.834486e+02  2.132500e+02  3.211670e+02
   endloop
 endfacet
 facet normal -7.933533e-01  0.000000e+00  6.087614e-01
   outer loop
     vertex  1.876156e+02  2.282500e+02  3.283844e+02
     vertex  1.850570e+02  2.132500e+02  3.250500e+02
     vertex  1.876156e+02  2.132500e+02  3.283844e+02
   endloop
 endfacet
 facet normal -6.087614e-01  0.000000e+00  7.933533e-01
   outer loop
     vertex  1.876156e+02  2.282500e+02  3.283844e+02
     vertex  1.876156e+02  2.132500e+02  3.283844e+02
     vertex  1.909500e+02  2.132500e+02  3.309430e+02
   endloop
 endfacet
 facet normal -7.933533e-01  0.000000e+00  6.087614e-01
   outer loop
     vertex  1.876156e+02  2.282500e+02  3.283844e+02
     vertex  1.850570e+02  2.282500e+02  3.250500e+02
     vertex  1.850570e+02  2.132500e+02  3.250500e+02
   endloop
 endfacet
 facet normal -6.087614e-01  0.000000e+00  7.933533e-01
   outer loop
     vertex  1.909500e+02  2.282500e+02  3.309430e+02
     vertex  1.876156e+02  2.282500e+02  3.283844e+02
     vertex  1.909500e+02  2.132500e+02  3.309430e+02
   endloop
 endfacet
 facet normal -3.826834e-01  0.000000e+00  9.238795e-01
   outer loop
     vertex  1.948330e+02  2.282500e+02  3.325514e+02
     vertex  1.909500e+02  2.132500e+02  3.309430e+02
     vertex  1.948330e+02  2.132500e+02  3.325514e+02
   endloop
 endfacet
 facet normal -1.305262e-01  0.000000e+00  9.914449e-01
   outer loop
     vertex  1.948330e+02  2.282500e+02  3.325514e+02
     vertex  1.948330e+02  2.132500e+02  3.325514e+02
     vertex  1.990000e+02  2.132500e+02  3.331000e+02
   endloop
 endfacet
 facet normal -3.826834e-01  0.000000e+00  9.238795e-01
   outer loop
     vertex  1.948330e+02  2.282500e+02  3.325514e+02
     vertex  1.909500e+02  2.282500e+02  3.309430e+02
     vertex  1.909500e+02  2.132500e+02  3.309430e+02
   endloop
 endfacet
 facet normal -1.305262e-01  0.000000e+00  9.914449e-01
   outer loop
     vertex  1.990000e+02  2.282500e+02  3.331000e+02
     vertex  1.948330e+02  2.282500e+02  3.325514e+02
     vertex  1.990000e+02  2.132500e+02  3.331000e+02
   endloop
 endfacet
 facet normal  0.000000e+00  0.000000e+00 -1.000000e+00
   outer loop
     vertex  1.829000e+02  2.282500e+02  3.120000e+02
     vertex  1.940000e+02  2.282500e+02  3.120000e+02
     vertex  1.940000e+02  2.132500e+02  3.120000e+02
   endloop
 endfacet
 facet normal -0.000000e+00 -0.000000e+00 -1.000000e+00
   outer loop
     vertex  1.829000e+02  2.282500e+02  3.120000e+02
     vertex  1.940000e+02  2.132500e+02  3.120000e+02
     vertex  1.829000e+02  2.132500e+02  3.120000e+02
   endloop
 endfacet
 facet normal  0.000000e+00  1.000000e+00 -0.000000e+00
   outer loop
     vertex  2.040000e+02  2.282500e+02  3.220000e+02
     vertex  1.990000e+02  2.282500e+02  3.220000e+02
     vertex  2.040000e+02  2.282500e+02  3.331000e+02
   endloop
 endfacet
 facet normal  0.000000e+00  1.000000e+00  0.000000e+00
   outer loop
     vertex  1.941704e+02  2.282500e+02  3.182941e+02
     vertex  1.940000e+02  2.282500e+02  3.170000e+02
     vertex  1.829000e+02  2.282500e+02  3.170000e+02
   endloop
 endfacet
 facet normal  0.000000e+00  1.000000e+00  0.000000e+00
   outer loop
     vertex  1.940000e+02  2.282500e+02  3.170000e+02
     vertex  1.940000e+02  2.282500e+02  3.120000e+02
     vertex  1.829000e+02  2.282500e+02  3.170000e+02
   endloop
 endfacet
 facet normal  0.000000e+00  1.000000e+00 -0.000000e+00
   outer loop
     vertex  1.940000e+02  2.282500e+02  3.120000e+02
     vertex  1.829000e+02  2.282500e+02  3.120000e+02
     vertex  1.829000e+02  2.282500e+02  3.170000e+02
   endloop
 endfacet
 facet normal  0.000000e+00  1.000000e+00 -0.000000e+00
   outer loop
     vertex  1.990000e+02  2.282500e+02  3.220000e+02
     vertex  1.977059e+02  2.282500e+02  3.218296e+02
     vertex  1.990000e+02  2.282500e+02  3.331000e+02
   endloop
 endfacet
 facet normal  0.000000e+00  1.000000e+00 -0.000000e+00
   outer loop
     vertex  2.040000e+02  2.282500e+02  3.331000e+02
     vertex  1.990000e+02  2.282500e+02  3.220000e+02
     vertex  1.990000e+02  2.282500e+02  3.331000e+02
   endloop
 endfacet
 facet normal  0.000000e+00  1.000000e+00 -0.000000e+00
   outer loop
     vertex  1.941704e+02  2.282500e+02  3.182941e+02
     vertex  1.829000e+02  2.282500e+02  3.170000e+02
     vertex  1.834486e+02  2.282500e+02  3.211670e+02
   endloop
 endfacet
 facet normal  0.000000e+00  1.000000e+00  0.000000e+00
   outer loop
     vertex  1.990000e+02  2.282500e+02  3.331000e+02
     vertex  1.977059e+02  2.282500e+02  3.218296e+02
     vertex  1.948330e+02  2.282500e+02  3.325514e+02
   endloop
 endfacet
 facet normal -0.000000e+00  1.000000e+00  0.000000e+00
   outer loop
     vertex  1.834486e+02  2.282500e+02  3.211670e+02
     vertex  1.850570e+02  2.282500e+02  3.250500e+02
     vertex  1.934500e+02  2.282500e+02  3.225500e+02
   endloop
 endfacet
 facet normal -0.000000e+00  1.000000e+00  0.000000e+00
   outer loop
     vertex  1.850570e+02  2.282500e+02  3.250500e+02
     vertex  1.876156e+02  2.282500e+02  3.283844e+02
     vertex  1.934500e+02  2.282500e+02  3.225500e+02
   endloop
 endfacet
 facet normal -0.000000e+00  1.000000e+00  0.000000e+00
   outer loop
     vertex  1.876156e+02  2.282500e+02  3.283844e+02
     vertex  1.909500e+02  2.282500e+02  3.309430e+02
     vertex  1.934500e+02  2.282500e+02  3.225500e+02
   endloop
 endfacet
 facet normal -0.000000e+00  1.000000e+00  0.000000e+00
   outer loop
     vertex  1.909500e+02  2.282500e+02  3.309430e+02
     vertex  1.948330e+02  2.282500e+02  3.325514e+02
     vertex  1.934500e+02  2.282500e+02  3.225500e+02
   endloop
 endfacet
 facet normal  0.000000e+00  1.000000e+00  0.000000e+00
   outer loop
     vertex  1.946699e+02  2.282500e+02  3.195000e+02
     vertex  1.941704e+02  2.282500e+02  3.182941e+02
     vertex  1.934500e+02  2.282500e+02  3.225500e+02
   endloop
 endfacet
 facet normal  0.000000e+00  1.000000e+00  0.000000e+00
   outer loop
     vertex  1.954645e+02  2.282500e+02  3.205355e+02
     vertex  1.946699e+02  2.282500e+02  3.195000e+02
     vertex  1.934500e+02  2.282500e+02  3.225500e+02
   endloop
 endfacet
 facet normal  0.000000e+00  1.000000e+00  0.000000e+00
   outer loop
     vertex  1.965000e+02  2.282500e+02  3.213301e+02
     vertex  1.954645e+02  2.282500e+02  3.205355e+02
     vertex  1.934500e+02  2.282500e+02  3.225500e+02
   endloop
 endfacet
 facet normal  0.000000e+00  1.000000e+00  0.000000e+00
   outer loop
     vertex  1.977059e+02  2.282500e+02  3.218296e+02
     vertex  1.965000e+02  2.282500e+02  3.213301e+02
     vertex  1.934500e+02  2.282500e+02  3.225500e+02
   endloop
 endfacet
 facet normal  0.000000e+00  1.000000e+00  0.000000e+00
   outer loop
     vertex  1.948330e+02  2.282500e+02  3.325514e+02
     vertex  1.977059e+02  2.282500e+02  3.218296e+02
     vertex  1.934500e+02  2.282500e+02  3.225500e+02
   endloop
 endfacet
 facet normal  0.000000e+00  1.000000e+00 -0.000000e+00
   outer loop
     vertex  1.941704e+02  2.282500e+02  3.182941e+02
     vertex  1.834486e+02  2.282500e+02  3.211670e+02
     vertex  1.934500e+02  2.282500e+02  3.225500e+02
   endloop
 endfacet
 facet normal  0.000000e+00 -0.000000e+00  1.000000e+00
   outer loop
     vertex  2.040000e+02  2.132500e+02  3.331000e+02
     vertex  2.040000e+02  2.282500e+02  3.331000e+02
     vertex  1.990000e+02  2.282500e+02  3.331000e+02
   endloop
 endfacet
 facet normal  0.000000e+00 -0.000000e+00  1.000000e+00
   outer loop
     vertex  1.990000e+02  2.132500e+02  3.331000e+02
     vertex  2.040000e+02  2.132500e+02  3.331000e+02
     vertex  1.990000e+02  2.282500e+02  3.331000e+02
   endloop
 endfacet
 facet normal  1.000000e+00 -0.000000e+00  0.000000e+00
   outer loop
     vertex  2.040000e+02  2.132500e+02  3.331000e+02
     vertex  2.040000e+02  2.282500e+02  3.220000e+02
     vertex  2.040000e+02  2.282500e+02  3.331000e+02
   endloop
 endfacet
 facet normal  1.000000e+00 -0.000000e+00  0.000000e+00
   outer loop
     vertex  2.040000e+02  2.132500e+02  3.331000e+02
     vertex  2.040000e+02  2.132500e+02  3.220000e+02
     vertex  2.040000e+02  2.282500e+02  3.220000e+02
   endloop
 endfacet
 facet normal  0.000000e+00  0.000000e+00 -1.000000e+00
   outer loop
     vertex  1.990000e+02  2.282500e+02  3.220000e+02
     vertex  2.040000e+02  2.282500e+02  3.220000e+02
     vertex  2.040000e+02  2.132500e+02  3.220000e+02
   endloop
 endfacet
 facet normal -0.000000e+00 -0.000000e+00 -1.000000e+00
   outer loop
     vertex  1.990000e+02  2.282500e+02  3.220000e+02
     vertex  2.040000e+02  2.132500e+02  3.220000e+02
     vertex  1.990000e+02  2.132500e+02  3.220000e+02
   endloop
 endfacet
 facet normal  9.914449e-01  0.000000e+00 -1.305262e-01
   outer loop
     vertex  1.941704e+02  2.132500e+02  3.182941e+02
     vertex  1.940000e+02  2.132500e+02  3.170000e+02
     vertex  1.940000e+02  2.282500e+02  3.170000e+02
   endloop
 endfacet
 facet normal  9.238795e-01  0.000000e+00 -3.826834e-01
   outer loop
     vertex  1.946699e+02  2.132500e+02  3.195000e+02
     vertex  1.941704e+02  2.132500e+02  3.182941e+02
     vertex  1.941704e+02  2.282500e+02  3.182941e+02
   endloop
 endfacet
 facet normal  9.914449e-01  0.000000e+00 -1.305262e-01
   outer loop
     vertex  1.941704e+02  2.132500e+02  3.182941e+02
     vertex  1.940000e+02  2.282500e+02  3.170000e+02
     vertex  1.941704e+02  2.282500e+02  3.182941e+02
   endloop
 endfacet
 facet normal  7.933533e-01  0.000000e+00 -6.087614e-01
   outer loop
     vertex  1.954645e+02  2.132500e+02  3.205355e+02
     vertex  1.946699e+02  2.132500e+02  3.195000e+02
     vertex  1.946699e+02  2.282500e+02  3.195000e+02
   endloop
 endfacet
 facet normal  9.238795e-01  0.000000e+00 -3.826834e-01
   outer loop
     vertex  1.946699e+02  2.132500e+02  3.195000e+02
     vertex  1.941704e+02  2.282500e+02  3.182941e+02
     vertex  1.946699e+02  2.282500e+02  3.195000e+02
   endloop
 endfacet
 facet normal  7.933533e-01  0.000000e+00 -6.087614e-01
   outer loop
     vertex  1.954645e+02  2.132500e+02  3.205355e+02
     vertex  1.946699e+02  2.282500e+02  3.195000e+02
     vertex  1.954645e+02  2.282500e+02  3.205355e+02
   endloop
 endfacet
 facet normal  6.087614e-01  0.000000e+00 -7.933533e-01
   outer loop
     vertex  1.965000e+02  2.132500e+02  3.213301e+02
     vertex  1.954645e+02  2.132500e+02  3.205355e+02
     vertex  1.965000e+02  2.282500e+02  3.213301e+02
   endloop
 endfacet
 facet normal  6.087614e-01  0.000000e+00 -7.933533e-01
   outer loop
     vertex  1.954645e+02  2.132500e+02  3.205355e+02
     vertex  1.954645e+02  2.282500e+02  3.205355e+02
     vertex  1.965000e+02  2.282500e+02  3.213301e+02
   endloop
 endfacet
 facet normal  3.826834e-01  0.000000e+00 -9.238795e-01
   outer loop
     vertex  1.977059e+02  2.132500e+02  3.218296e+02
     vertex  1.965000e+02  2.132500e+02  3.213301e+02
     vertex  1.977059e+02  2.282500e+02  3.218296e+02
   endloop
 endfacet
 facet normal  1.305262e-01  0.000000e+00 -9.914449e-01
   outer loop
     vertex  1.990000e+02  2.132500e+02  3.220000e+02
     vertex  1.977059e+02  2.132500e+02  3.218296e+02
     vertex  1.977059e+02  2.282500e+02  3.218296e+02
   endloop
 endfacet
 facet normal  3.826834e-01  0.000000e+00 -9.238795e-01
   outer loop
     vertex  1.965000e+02  2.132500e+02  3.213301e+02
     vertex  1.965000e+02  2.282500e+02  3.213301e+02
     vertex  1.977059e+02  2.282500e+02  3.218296e+02
   endloop
 endfacet
 facet normal  1.305262e-01  0.000000e+00 -9.914449e-01
   outer loop
     vertex  1.990000e+02  2.132500e+02  3.220000e+02
     vertex  1.977059e+02  2.282500e+02  3.218296e+02
     vertex  1.990000e+02  2.282500e+02  3.220000e+02
   endloop
 endfacet
 facet normal  1.000000e+00 -0.000000e+00  0.000000e+00
   outer loop
     vertex  1.940000e+02  2.132500e+02  3.170000e+02
     vertex  1.940000e+02  2.132500e+02  3.120000e+02
     vertex  1.940000e+02  2.282500e+02  3.120000e+02
   endloop
 endfacet
 facet normal  1.000000e+00 -0.000000e+00  0.000000e+00
   outer loop
     vertex  1.940000e+02  2.132500e+02  3.170000e+02
     vertex  1.940000e+02  2.282500e+02  3.120000e+02
     vertex  1.940000e+02  2.282500e+02  3.170000e+02
   endloop
 endfacet
endsolid
